<svg width="350" height="350" viewBox="0 0 350 350" fill="none" xmlns="http://www.w3.org/2000/svg">
<g filter="url(#filter0_d)">
<path d="M125 250C194.036 250 250 194.036 250 125C250 55.9644 194.036 0 125 0C55.9644 0 0 55.9644 0 125C0 194.036 55.9644 250 125 250Z" transform="translate(50 20)" fill="url(#paint0_linear)"/>
<path d="M65.9621 131.924C102.392 131.924 131.924 102.392 131.924 65.9621C131.924 29.5322 102.392 0 65.9621 0C29.5322 0 -2.22431e-06 29.5322 -2.22431e-06 65.9621C-2.22431e-06 102.392 29.5322 131.924 65.9621 131.924Z" transform="translate(108.819 46.968)" fill="url(#paint1_linear)"/>
<path d="M115.889 231.778C179.893 231.778 231.778 179.893 231.778 115.889C231.778 51.8854 179.893 0 115.889 0C51.8854 0 0 51.8854 0 115.889C0 179.893 51.8854 231.778 115.889 231.778Z" transform="translate(59.1111 31.2974)" stroke="black" stroke-width="3.4762" stroke-miterlimit="10"/>
<path d="M172.959 30.1749C154.3 11.2245 129.446 0.510203 102.843 -1.11216e-06C102.551 -1.11216e-06 102.187 -1.11216e-06 101.895 -1.11216e-06C101.749 -1.11216e-06 101.604 -1.11216e-06 101.458 -1.11216e-06C101.239 -1.11216e-06 101.093 -1.11216e-06 100.875 -1.11216e-06C100.656 -1.11216e-06 100.51 -1.11216e-06 100.292 -1.11216e-06C100.146 -1.11216e-06 100 -1.11216e-06 99.8542 -1.11216e-06C99.5627 -1.11216e-06 99.1982 -1.11216e-06 98.9067 -1.11216e-06C72.3761 0.510203 47.449 11.2245 28.863 30.1749C10.277 49.1254 0 74.2711 0 100.875C0 129.592 12.3178 156.997 33.6735 176.166C35.7872 178.061 38.1924 180.029 40.6706 181.851C43.1487 183.673 45.6997 185.423 48.1778 186.953C50.8018 188.557 53.4985 190.087 56.1953 191.399C58.6735 192.638 61.1516 193.732 63.6297 194.679L64.5773 195.044C67.4198 196.137 70.3353 197.085 73.3236 197.959C73.6152 198.032 73.9067 198.105 74.1254 198.178C75 198.396 75.8746 198.615 76.6035 198.834C78.1341 199.198 79.6647 199.563 81.1953 199.854L82.4344 200.073C85.4227 200.656 88.484 201.02 91.6181 201.312C94.6064 201.603 97.7405 201.749 100.948 201.749C104.155 201.749 107.289 201.603 110.204 201.312C113.338 201.02 116.472 200.583 119.388 200.073L119.971 200C120.773 199.854 121.501 199.708 122.303 199.49L122.522 199.417C124.563 198.98 126.531 198.469 128.499 197.959C131.414 197.157 134.329 196.137 137.245 195.044C140.087 193.95 142.93 192.711 145.7 191.327C148.324 190.015 150.948 188.557 153.717 186.88C156.341 185.277 158.892 183.601 161.224 181.778C163.63 179.956 165.962 178.061 168.222 176.093C170.481 174.052 172.595 172.012 174.636 169.825C176.676 167.638 178.644 165.379 180.394 163.12C182.143 160.933 183.892 158.528 185.496 155.977C187.172 153.426 188.63 151.02 189.942 148.542C197.813 133.965 201.968 117.42 201.968 100.729C201.895 74.2711 191.618 49.1254 172.959 30.1749ZM143.44 119.752C142.274 120.773 141.035 121.72 139.796 122.595C138.63 123.469 137.318 124.344 136.006 125.146C134.767 125.948 133.455 126.676 131.997 127.478C130.685 128.207 129.373 128.863 127.843 129.519C126.458 130.175 125 130.758 123.542 131.268C122.303 131.706 121.064 132.143 119.825 132.507C119.825 132.434 119.825 132.362 119.825 132.289C120.044 131.414 120.481 130.539 120.918 129.665L121.283 128.863C121.866 127.843 122.449 126.676 122.23 125.219C122.085 124.417 121.793 123.761 121.574 123.105C120.773 121.21 121.574 119.023 123.324 118.003C133.673 111.88 141.91 101.531 143.367 89.3586C143.513 88.3382 143.95 87.3178 144.752 86.7347C145.044 86.516 145.262 86.2974 145.481 86.0058C145.773 85.5685 145.918 85.1312 146.064 84.6939L146.283 84.0379C146.793 82.6531 147.303 81.1225 146.939 79.519C146.647 78.3528 145.918 77.4781 145.044 76.9679C144.023 76.312 143.513 75.2187 143.44 74.0525C143.222 55.1749 132.434 37.5364 114.286 30.6122C113.192 30.1749 112.755 31.9242 113.776 32.3615C131.851 39.2128 142.201 57.3615 141.618 76.1662C141.545 76.1662 141.399 76.1662 141.327 76.1662C140.015 76.312 138.921 76.9679 137.901 77.551C137.026 78.0612 136.079 78.207 135.131 78.207C131.997 78.3528 128.863 78.1341 125.802 77.6239C123.834 77.3324 122.012 77.0408 120.19 76.8222C118.44 76.6035 116.91 75.5831 115.962 74.1254C114.431 71.7201 112.609 69.6064 110.496 67.8571C109.621 67.1283 109.038 66.1808 108.746 65.0875C108.382 63.7755 107.507 61.9534 105.685 60.3499L105.321 59.9854H105.175C104.883 59.6939 104.227 59.0379 103.426 57.9446C103.207 57.7259 103.134 57.5802 103.061 57.5073C101.968 56.3411 100.948 55.1749 99.9271 54.0087L99.0525 52.9883C98.9796 52.9155 98.8338 52.7697 98.8338 52.7697C98.8338 52.6968 98.8338 52.551 98.8338 52.4781V51.9679C98.9067 51.0933 98.9796 49.9271 99.4169 49.5627C99.4898 49.4898 99.6356 49.4169 100.073 49.4169C100.729 49.4898 101.458 49.4898 102.187 49.2711C103.134 48.9067 103.863 48.105 103.936 47.2303V46.6472C103.936 46.5743 104.082 46.4286 104.155 46.2099C104.738 45.2624 104.956 44.3878 105.102 43.5131C105.758 43.4402 106.268 43.0029 106.414 42.4198C106.633 41.6181 106.268 40.9621 105.977 40.4519C105.904 40.3061 105.831 40.2332 105.831 40.1604C105.539 39.5773 105.394 38.9213 105.248 38.2653C105.175 37.828 105.029 37.4636 104.956 37.0991C104.811 36.2974 104.592 35.4227 104.373 34.5481C105.539 33.5277 107.58 31.5598 107.216 29.8834L107.143 29.4461L106.706 29.2274C106.56 29.1545 105.539 28.6443 103.863 28.6443C103.061 27.9155 101.676 27.6239 100.146 28.9359C97.2303 28.5714 94.9709 28.6443 93.3674 29.1545C93.3674 29.1545 93.2216 29.2274 93.0758 29.3732C89.3586 31.7784 87.7551 32.6531 87.0262 32.8717L86.6618 33.0904C86.2974 33.4548 86.1516 33.965 86.0058 34.4023C86.0058 34.5481 85.933 34.7668 85.8601 34.8397C85.7872 34.9125 85.6414 35.0583 85.4227 35.2041C85.2041 35.3499 84.9854 35.5685 84.8396 35.7872C84.4752 36.2245 84.2566 36.8076 84.2566 37.3178C84.3295 37.9738 84.6939 38.484 84.9125 38.6297C84.9125 38.8484 84.9125 39.0671 84.9125 39.2857C84.9125 39.723 84.9125 40.0875 84.8396 40.4519C84.8396 40.5977 84.6939 40.7434 84.5481 40.8892C84.3295 41.1079 84.1837 41.3994 83.965 41.7639C83.2362 43.6589 84.3295 45.4811 86.9534 46.6472C87.2449 46.793 87.5364 46.8659 87.828 46.9388C87.9738 47.0117 88.1195 47.0117 88.2653 47.0845C88.1924 47.3761 88.0467 47.5219 87.9009 47.7405C87.828 47.8863 87.6822 47.9592 87.6822 47.9592C87.4636 48.0321 87.172 48.105 87.0991 48.1778C86.9534 48.2507 86.3703 48.2507 86.0787 48.2507C85.7143 48.2507 85.3499 48.2507 85.1312 48.3236C81.7055 49.0525 78.9359 52.2595 76.8222 54.5918C74.8542 56.8513 72.9592 59.4023 70.6997 62.9009C68.8776 65.8163 66.9096 69.3878 67.7114 71.9388C68.0029 72.8863 68.7318 73.688 69.8251 74.0525C73.8338 75.5831 78.4985 75.7289 84.1837 74.344C85.2041 74.1254 85.277 74.1983 85.8601 75.5831L86.0058 75.8746C86.6618 77.4053 87.0991 78.863 87.4636 80.3936C88.0467 83.1633 87.9009 86.2245 87.0991 90.0146C86.8805 90.9621 86.5889 91.9825 86.2974 93.0029C85.6414 95.1895 84.9854 97.449 84.9125 99.7813C84.8397 100.948 84.9854 102.697 85.6414 104.082C85.8601 104.592 86.2245 105.029 86.4432 105.539C86.8076 106.195 87.2449 106.778 87.4636 107.434C88.4111 110.058 88.5569 112.901 88.7026 115.743C88.7026 116.399 88.7755 117.128 88.8484 117.784L88.9213 118.878C89.1399 121.647 89.2857 124.563 88.4111 127.114C88.3382 127.187 88.1924 127.332 88.0467 127.405C87.0262 128.28 84.8396 130.102 83.0175 132.872L82.3615 132.653C80.9767 132.289 79.519 131.778 77.9883 131.268C76.5306 130.758 75.1458 130.175 73.6881 129.519C49.8542 118.95 34.4752 95.1895 34.4752 69.0962C34.4752 32.8717 63.7755 3.35277 99.9271 2.98834C100.364 2.98834 100.729 2.98834 101.166 2.98834C137.318 3.35277 166.691 32.8717 166.691 69.0962C167.055 88.6297 158.455 107.143 143.44 119.752ZM92.7843 185.569L92.0554 185.496V185.569C89.2857 185.714 86.7347 186.006 84.4752 186.297C80.758 186.88 77.6968 187.609 75.656 188.192C75.2915 188.265 75 188.411 74.7085 188.484C74.7085 188.192 74.6356 187.901 74.6356 187.609C74.6356 187.318 74.6356 187.099 74.6356 186.88C75 186.735 75.4373 186.589 76.0204 186.443C77.9155 185.86 80.9038 185.131 84.7668 184.475C87.172 184.111 89.9417 183.746 92.93 183.601C95.4082 183.455 98.105 183.455 100.948 183.673C103.571 183.819 106.268 184.184 109.038 184.694C111.808 185.204 114.65 185.933 117.566 186.953C119.315 187.536 120.991 188.265 122.741 188.994C122.741 189.65 122.668 190.306 122.522 190.889C120.991 190.16 119.388 189.577 117.857 189.067C114.942 188.047 112.026 187.245 109.257 186.735C106.414 186.152 103.644 185.86 101.02 185.641C98.105 185.423 95.3353 185.423 92.7843 185.569ZM74.9271 159.767L74.8542 159.694C74.0525 159.038 73.3236 158.382 72.9592 157.507C72.8134 157.143 72.8134 156.851 72.7405 156.851C74.1254 155.539 76.0204 152.915 77.7697 150H78.4985H77.7697C80.102 146.064 82.1429 141.764 82.4344 140.306H82.5073C82.7988 138.192 83.5277 136.297 84.4752 134.621C86.2245 131.633 88.6297 129.592 89.6501 128.717C90.0146 128.353 90.4519 127.988 90.5248 127.624C91.6181 124.708 91.3265 121.574 91.1079 118.586L91.035 117.493C90.9621 116.837 90.9621 116.181 90.8892 115.525C90.7434 112.609 90.5977 109.548 89.5044 106.633C89.2128 105.758 88.7755 105.102 88.2653 104.373C88.0467 104.009 87.7551 103.571 87.5365 103.134C87.0991 102.332 86.9534 101.166 86.9534 99.7813C87.0262 97.6676 87.6822 95.5539 88.2653 93.4402C88.5569 92.4198 88.8484 91.3994 89.1399 90.379C89.2128 89.9417 89.3586 89.4315 89.4315 88.9942C89.7959 86.8805 91.691 85.2041 93.8776 85.1312C95.2624 85.0583 96.9388 85.2041 98.9067 85.6414L99.1983 84.4752C97.0846 83.965 95.2624 83.8192 93.7318 83.8921C91.7639 83.965 90.0875 82.6531 89.723 80.6851C89.6502 80.3936 89.6501 80.102 89.5773 79.8834C89.2128 78.2799 88.7026 76.6035 88.0467 75L87.9009 74.7085C87.3178 73.3236 86.6618 71.7201 84.0379 72.3761C78.7172 73.6152 74.4169 73.5423 70.7726 72.1574C70.2624 71.9388 69.9708 71.6472 69.8251 71.2099C69.3878 69.8251 70.2624 67.3469 72.5948 63.7755C74.7813 60.3499 76.6035 57.8717 78.4985 55.6851C80.3936 53.5714 83.0175 50.656 85.7872 50C85.9329 50 86.1516 50 86.3703 50C87.2449 50 87.828 49.9271 88.2653 49.6356H88.3382C88.484 49.6356 88.6297 49.5627 88.7755 49.4898C89.7959 50.1458 91.3265 51.3848 91.7638 52.0408C92.274 52.6968 92.5656 53.4985 91.1079 54.8834C89.8688 56.0496 88.8484 57.3615 87.828 58.6735C87.2449 59.4023 86.6618 60.1312 86.0787 60.8601L85.7143 61.2245C84.7668 62.3178 83.7464 63.484 82.5073 64.2857C82.2886 64.4315 82.07 64.5773 81.8513 64.6502L81.4869 64.8688C81.2682 65.0146 81.1225 65.0875 81.1225 65.2332C78.863 64.9417 76.5306 63.7755 76.5306 63.7026L75.9475 64.723C76.0933 64.7959 79.0088 66.3265 81.7055 66.4723C81.7784 66.4723 81.7784 66.5452 81.8513 66.5452C82.2886 66.691 82.7988 66.7639 83.309 66.8367L83.8192 66.9096C85.3499 67.2012 86.5889 67.3469 87.6822 67.4198C89.723 67.5656 92.7843 67.4927 94.9708 65.6706C96.0641 64.723 97.1574 63.7755 98.2507 62.7551C98.6152 62.3907 98.9796 62.0262 99.344 61.6618C99.7813 61.2245 100.219 60.7143 100.656 60.3499C100.437 60.7143 100.146 61.0787 99.9271 61.4432L98.4694 63.3382L100.292 62.7551C100.948 62.5364 101.676 62.3178 102.332 62.2449C102.259 62.3178 102.259 62.3178 102.187 62.3907C101.749 62.7551 101.385 63.1195 101.166 63.484C100.875 63.9942 101.385 64.3586 101.604 64.4315L101.531 64.5044C100.51 64.723 99.4169 64.9417 98.6152 65.8892C98.2507 66.2536 98.0321 66.691 97.7405 67.0554C97.6676 67.2741 97.5219 67.4198 97.449 67.5656C95.8455 69.9708 92.5656 71.7201 89.1399 72.0117L89.2857 73.1778C93.0029 72.8134 96.6472 70.9184 98.4694 68.2216C98.6152 68.0029 98.6881 67.8571 98.8338 67.6385C99.0525 67.274 99.2711 66.9096 99.5627 66.6181C100.146 65.9621 100.948 65.8163 101.822 65.5977L102.332 65.5248C102.551 65.4519 103.207 65.3061 103.353 64.723C103.426 64.2128 103.061 63.9213 102.697 63.6297C102.77 63.5569 102.915 63.4111 103.061 63.3382C103.426 63.0466 104.009 62.5364 103.936 61.8805C103.936 61.6618 103.79 61.2974 103.207 61.1516C102.988 61.0787 102.77 61.0787 102.551 61.0787C102.332 61.0787 102.041 61.1516 101.822 61.1516C102.041 60.7872 102.187 60.4227 102.332 59.9854C102.405 59.5481 102.259 59.0379 101.968 58.8192C101.822 58.7464 101.385 58.5277 100.802 58.8921C100.073 59.4752 99.344 60.1312 98.688 60.8601H98.0321C96.137 58.8921 92.6385 57.3615 91.035 56.7784C91.3994 56.3411 91.7638 55.9767 92.1283 55.6122C93.8047 54.0816 94.0233 52.551 92.8571 51.1662C92.8571 51.0933 92.7843 51.0933 92.7114 51.0204C94.5335 52.0408 96.137 52.551 97.0845 52.6968C97.0845 52.8426 97.0846 52.9883 97.1574 53.1341C97.3032 53.5714 97.5948 53.863 97.7405 54.0816L98.6152 55.102C99.6356 56.2682 100.729 57.4344 101.749 58.6006C101.822 58.6735 101.895 58.8192 102.041 58.965C103.426 60.7143 104.155 61.4431 104.738 61.6618C107.362 64.0671 107.289 66.7639 107.289 66.9096V67.4198L107.726 67.7114C111.079 69.9708 113.848 73.1778 115.743 77.0408C115.816 77.2595 115.962 77.551 116.327 77.7697C116.618 77.9883 116.983 77.9883 117.128 78.0612C119.752 78.3528 122.522 78.7172 125.583 79.2274C128.79 79.7376 132.07 79.9563 135.35 79.8105C136.443 79.8105 137.755 79.5918 138.994 78.863C139.796 78.3528 140.743 77.8426 141.691 77.7697C143.149 77.551 144.825 78.2799 145.19 79.7376C145.481 80.758 144.971 81.9971 144.606 83.0904L144.388 83.7464C144.242 84.0379 144.169 84.4023 144.023 84.621C143.513 85.3499 142.347 85.4227 141.837 85.4227C140.743 85.4956 139.796 85.2041 138.776 84.8397L138.338 84.621C137.682 84.3294 137.026 83.965 136.152 83.965C135.569 83.965 135.058 84.0379 134.475 84.0379C134.184 84.0379 133.892 84.1108 133.673 84.1108L128.353 84.4023C125.219 84.621 121.574 84.7668 117.784 84.621C116.837 84.621 115.743 84.5481 114.723 84.4023C114.067 84.2566 113.703 83.965 113.12 83.3819L106.706 77.1866C106.487 76.9679 106.195 76.6764 105.685 76.5306C104.446 76.2391 103.644 77.6239 103.426 78.5714C103.28 79.1545 103.353 79.6647 103.426 80.1749C103.79 82.5802 103.863 84.5481 103.499 86.5889C103.207 88.5568 102.843 90.5977 104.082 92.6385C104.519 93.2945 105.029 93.8775 105.466 94.4606L105.685 94.6793C109.184 98.6152 112.172 103.426 114.286 108.673C115.379 111.152 116.254 113.848 117.201 116.399C118.003 118.805 118.878 121.21 119.825 123.615C120.044 124.198 120.262 124.781 120.408 125.292C120.554 126.093 120.117 126.895 119.679 127.77L119.242 128.571C118.732 129.519 118.222 130.466 117.93 131.56C117.784 132.143 117.784 132.653 117.784 133.236C117.784 133.601 117.784 133.965 117.711 134.329C117.566 136.006 117.347 137.609 117.055 139.286C116.91 139.942 116.837 140.671 116.691 141.327C116.618 141.691 116.545 142.055 116.545 142.42H115.816L116.327 144.898C116.181 146.429 116.108 148.032 116.108 149.49L116.035 151.458C116.035 151.895 115.962 152.332 115.962 152.77C115.889 153.936 115.816 155.102 115.889 156.268C116.035 159.84 117.784 161.808 119.752 164.14L120.554 165.087C120.627 165.16 120.7 165.233 120.773 165.379L121.429 168.586C121.064 168.44 120.7 168.222 120.262 167.93L119.971 167.711C118.659 166.91 117.201 166.691 115.671 167.055C115.598 167.055 115.598 167.055 115.525 167.055L114.796 167.128C113.921 167.201 113.047 166.983 112.245 166.472C112.245 166.472 112.245 166.472 112.172 166.399C109.985 165.16 108.601 162.828 108.892 160.277C109.475 154.592 109.329 148.907 109.184 143.367L109.111 140.743C109.038 138.848 109.111 137.172 109.257 135.714C109.329 134.985 109.475 134.257 109.621 133.601C109.767 132.872 109.985 132.143 110.204 131.414C110.714 129.738 111.224 128.061 111.006 126.166C110.787 124.417 109.913 123.032 109.111 121.647C108.892 121.356 108.746 121.064 108.528 120.7C107.434 118.732 106.195 116.837 104.956 115.087C104.227 114.067 103.353 112.901 102.259 111.953L101.312 111.152L96.9388 104.883L95.9184 105.539L100.802 112.828C100.437 114.067 100.51 115.306 100.583 116.545C100.583 117.128 100.656 117.638 100.583 118.222C100.51 120.117 100.364 121.72 100.146 123.178C99.7085 126.166 98.9067 128.79 97.7405 131.05C97.1574 132.216 96.2828 133.236 95.4082 134.329C94.8251 134.985 94.3149 135.641 93.8047 136.37C93.5131 136.808 93.2216 137.172 93.0029 137.682C92.3469 138.921 91.6181 140.087 90.8892 141.327C88.8484 144.679 86.5889 147.959 84.4752 151.02C83.965 151.749 83.4548 152.551 83.0904 153.426L82.5073 152.915L82.3615 152.988L82.1429 154.082L82.8717 154.227L82.5073 156.05H81.7784H82.5073C82.5073 156.341 82.5073 156.56 82.5802 156.851C82.8717 158.746 83.5277 161.516 85.0583 163.775C85.4956 164.431 86.0787 164.869 86.7347 165.233V165.743L86.6618 166.181C84.7668 167.128 83.0175 168.294 81.414 169.606C81.414 169.023 81.414 168.513 81.3411 167.93C81.2682 167.638 81.1953 167.274 81.0496 166.983L81.2682 166.035L80.5394 165.889C80.1749 165.233 79.7376 164.577 79.3732 164.14C78.4257 162.974 77.2595 161.735 75.8746 160.496C75.8018 160.423 75.8018 160.423 75.7289 160.35L75.8018 159.985L74.9271 159.767ZM87.0262 38.0466C86.9534 37.828 86.8076 37.6093 86.7347 37.5364C86.6618 37.4636 86.4431 37.2449 86.516 36.9534C86.5889 36.8805 86.7347 36.7347 86.8805 36.6618C87.172 36.4432 87.5364 36.1516 87.828 35.7143C87.9738 35.4227 88.0466 35.1312 88.1195 34.8397C88.1924 34.6939 88.1924 34.5481 88.2653 34.4752C88.9942 34.1108 90.1604 33.5277 91.5452 32.6531C94.1691 31.0496 97.3032 30.3936 100.364 30.758H100.437L101.458 30.8309L101.604 30.2478C101.968 29.9563 102.332 29.8105 102.551 29.8105C102.624 29.8105 102.697 29.8105 102.77 29.8834L103.717 30.8309L104.082 30.4665C104.592 30.4665 105.102 30.5394 105.394 30.6122C105.029 31.3411 104.009 32.5073 102.77 33.3819L102.187 33.8192L102.259 33.8921C99.7085 34.8396 97.9592 36.3703 97.1574 38.4111C96.8659 39.0671 96.793 39.7959 96.7201 40.4519C95.6268 40.6706 92.93 41.4723 89.9417 45.4811C89.9417 45.4811 89.9417 45.4082 89.8688 45.4082C89.5044 45.1895 89.0671 45.0437 88.6297 44.9709C88.4111 44.898 88.1924 44.8251 87.9738 44.7522C87.0262 44.3149 85.5685 43.4402 86.0058 42.2741C86.0058 42.2012 86.1516 42.0554 86.2974 41.9096C86.516 41.6181 86.8076 41.2536 86.9534 40.7434C87.0262 40.1604 87.0262 39.6502 87.0262 39.1399V38.5569C87.0991 38.484 87.0991 38.2653 87.0262 38.0466ZM102.114 47.0845C102.114 47.2303 101.895 47.449 101.676 47.5219C101.312 47.6676 100.802 47.5948 100.364 47.5948C100.073 47.5219 99.9271 47.5948 99.7085 47.6676C98.9067 46.2099 97.1574 42.2012 98.3965 38.9942C99.0525 37.2449 100.583 36.0058 102.77 35.2041C102.988 35.9329 103.207 36.7347 103.353 37.5364C103.426 37.9009 103.499 38.3382 103.644 38.7755C103.79 39.5044 104.009 40.2332 104.3 40.9621C104.373 41.1079 104.446 41.2536 104.519 41.3994C104.592 41.4723 104.592 41.6181 104.665 41.691C104.446 41.691 104.227 41.7638 103.936 41.9825L103.571 42.2012L103.499 42.6385C103.353 43.7318 103.207 44.4606 102.697 45.3353C102.478 45.6268 102.259 45.9913 102.259 46.4286C102.114 46.5015 102.114 46.7201 102.114 47.0845ZM98.5423 48.0321C98.4694 48.105 98.3965 48.105 98.3236 48.1778C97.8863 48.5423 97.6676 48.9067 97.5219 49.4169C97.0117 50.7289 95.6268 51.312 94.3878 50.7289C93.1487 50.1458 91.691 49.2711 90.3061 47.9592C90.379 47.7405 90.5248 47.5219 90.5977 47.3032C90.6706 47.1574 90.7434 46.8659 90.7434 46.5743C92.1283 44.6793 93.4402 43.4402 94.5335 42.7843C95.5539 42.1283 96.793 42.7843 97.0845 43.9504C97.449 45.6997 98.0321 47.1574 98.5423 48.0321ZM89.2128 46.5743C89.2128 46.6472 89.1399 46.7201 89.1399 46.7201H88.8484C88.7755 46.6472 88.8484 46.5015 88.8484 46.4286L89.2128 46.5743ZM89.2128 58.965C89.9417 58.7464 90.5248 58.6006 91.2536 58.4548C92.4198 58.965 94.0233 59.6939 95.4082 60.6414C96.5015 61.3703 96.5743 63.0467 95.5539 63.9213C95.1166 64.2857 94.6793 64.6502 94.242 65.0146C92.3469 66.5452 89.7959 66.6181 87.7551 66.4723C86.6618 66.3994 85.4956 66.2536 84.0379 65.9621L83.4548 65.8892C83.1633 65.8163 82.8717 65.8163 82.6531 65.7434C82.8717 65.6706 83.0175 65.5248 83.2362 65.4519C84.621 64.5773 85.7143 63.3382 86.7347 62.172L87.0262 61.8076C87.828 60.7872 88.5568 59.9125 89.2128 58.965ZM105.321 80.102C105.248 79.8105 105.248 79.519 105.248 79.3003C105.248 79.1545 105.321 79.0088 105.394 78.863L111.735 84.9854C112.536 85.7143 113.265 86.2974 114.359 86.4432C115.525 86.6618 116.691 86.6618 117.711 86.7347C121.574 86.8076 125.292 86.6618 128.426 86.4432L133.746 86.0787C134.038 86.0787 134.329 86.0058 134.621 86.0058C135.058 85.933 135.569 85.9329 136.079 85.9329C136.516 85.9329 136.953 86.2245 137.464 86.4432L137.974 86.6618C138.63 86.9534 139.359 87.172 140.16 87.3178C141.035 87.4636 141.691 88.2653 141.618 89.1399C140.16 101.166 131.633 111.297 121.21 116.983C120.335 116.618 119.971 116.472 119.096 116.181C118.149 113.484 117.201 110.787 116.108 108.09C113.848 102.697 110.787 97.6676 107.143 93.586L106.924 93.3673C106.487 92.8571 106.05 92.4198 105.758 91.8367C104.883 90.379 105.102 88.8484 105.394 86.8805C105.758 84.9854 105.685 82.7988 105.321 80.102ZM122.959 168.95L122.522 166.983H122.595C122.959 167.055 123.324 167.055 123.688 167.055C124.052 167.055 124.417 167.055 124.636 167.201C124.708 167.201 124.781 167.274 124.854 167.347L126.312 168.732C126.385 168.805 126.531 168.95 126.604 168.95C126.604 168.95 126.531 169.023 126.385 169.096C126.166 169.169 126.02 169.169 125.583 169.023C125.292 168.95 125 168.805 124.781 168.805C124.125 168.732 123.542 168.805 123.032 168.878C123.032 168.95 122.959 168.95 122.959 168.95ZM117.857 153.353C117.857 152.988 117.857 152.697 117.93 152.405L119.825 161.297C118.367 158.965 117.638 156.195 117.857 153.353ZM90.8163 164.432C90.0146 164.286 89.1399 164.213 88.4111 163.921V163.703L87.6822 163.63C87.2449 163.411 86.8076 163.12 86.5889 162.682C85.5685 161.152 84.8396 159.038 84.4752 156.56C84.2566 154.81 85.0583 153.499 86.0787 151.968C87.4636 150 88.8484 147.886 90.2332 145.773L90.7434 146.283L90.2332 145.773H90.9621H90.2332C91.7639 143.44 93.2216 140.962 94.6793 138.484C94.898 138.047 95.1895 137.609 95.4811 137.245L93.6589 163.703C92.6385 163.994 91.691 164.14 90.8163 164.432ZM96.8659 138.12C97.9592 138.192 99.0525 138.192 100.146 138.265V163.411C99.6356 163.411 99.1254 163.338 98.6152 163.338C97.3761 163.338 96.2099 163.411 95.0437 163.557L96.8659 138.12ZM101.676 138.192C102.77 138.192 103.863 138.12 104.956 138.047L106.56 160.86C105.685 162.536 103.79 163.63 101.822 163.411C101.749 163.411 101.749 163.411 101.676 163.411V138.192ZM106.56 137.974C106.778 137.974 107.07 137.974 107.289 137.901C107.216 138.921 107.216 140.015 107.216 141.254L107.289 143.878C107.362 145.918 107.362 147.959 107.362 150L106.56 137.974ZM108.382 131.268C108.163 132.07 107.872 132.872 107.726 133.673C107.58 134.548 107.434 135.423 107.362 136.443L107.216 134.913C103.79 135.204 100.437 135.277 97.2303 135.058C98.0321 134.038 98.8338 133.017 99.4898 131.851C100.729 129.446 101.604 126.603 102.114 123.396C102.332 121.866 102.478 120.189 102.551 118.294C102.551 117.711 102.551 117.128 102.478 116.472C102.478 116.035 102.478 115.671 102.478 115.306C102.843 115.743 103.207 116.254 103.571 116.764C104.738 118.44 105.904 120.262 106.997 122.23C107.216 122.522 107.362 122.886 107.58 123.178C108.309 124.417 109.038 125.583 109.184 126.895C109.329 128.28 108.892 129.738 108.382 131.268ZM78.2799 175.802L78.863 176.312L79.0816 176.093V175.875L79.4461 174.344C80.1749 173.469 80.9038 172.595 81.7784 171.793C83.309 170.335 85.1312 169.023 87.0991 168.076L87.828 168.149L87.9009 167.638C89.8688 166.691 91.9825 166.035 94.242 165.598L94.9708 165.671V165.525C96.2099 165.379 97.449 165.233 98.688 165.233C99.1982 165.233 99.7085 165.233 100.219 165.306V165.379H100.948C103.061 165.525 105.102 166.035 106.997 166.691V166.983L107.726 166.91C110.204 167.857 112.464 169.169 114.431 170.773L114.577 171.647L115.306 171.574C115.598 171.866 115.962 172.157 116.254 172.449C117.128 173.324 117.93 174.271 118.659 175.292C121.137 178.717 122.595 182.799 122.668 187.172C120.845 186.37 119.023 185.641 117.201 185.058C114.359 184.111 111.589 183.455 108.892 182.945C106.122 182.434 103.499 182.143 100.948 181.997C98.1778 181.851 95.5539 181.851 93.0758 181.924C90.1603 182.07 87.3907 182.362 84.9854 182.726C81.414 183.309 78.4257 183.965 76.3848 184.548C75.7289 184.694 75.2187 184.913 74.7813 184.985C75.2187 181.633 76.4577 178.499 78.2799 175.802ZM120.7 174.781C120.044 173.761 119.242 172.813 118.44 171.866C117.638 170.991 116.764 170.117 115.816 169.388V169.315C116.983 169.023 118.076 169.169 118.95 169.752L119.242 169.971C119.898 170.408 120.627 170.845 121.574 170.991C121.647 170.991 121.72 170.991 121.866 170.991L127.041 195.262C125.729 195.627 124.344 195.991 123.032 196.283C124.125 193.586 124.708 190.671 124.708 187.609C124.636 182.872 123.178 178.499 120.7 174.781ZM123.324 170.845C123.761 170.773 124.125 170.773 124.49 170.773C124.708 170.773 124.854 170.845 125.073 170.918C125.656 171.137 126.385 171.356 127.259 170.918C128.061 170.481 128.571 169.752 128.499 169.023V168.95C128.426 168.222 127.915 167.784 127.478 167.347L126.166 166.108C126.02 165.962 125.802 165.743 125.583 165.598C124.927 165.233 124.271 165.233 123.761 165.233C123.469 165.233 123.251 165.233 123.032 165.16C122.741 165.087 122.376 164.723 121.939 164.213L118.222 146.574C118.294 145.044 118.44 143.44 118.659 141.91C118.732 141.254 118.878 140.525 119.023 139.869C119.169 138.776 119.388 137.682 119.534 136.516L135.569 192.42C133.236 193.294 130.831 194.096 128.499 194.825L123.324 170.845ZM120.773 135.35C121.793 135.058 122.886 134.694 123.907 134.329L143.805 188.921C141.545 190.015 139.286 191.035 137.026 191.91L120.773 135.35ZM125.292 133.819C126.312 133.455 127.332 133.017 128.353 132.58L151.531 184.694C149.344 186.006 147.23 187.172 145.117 188.265L125.292 133.819ZM56.7784 188.265C54.5918 187.172 52.4781 186.006 50.3644 184.694L73.5423 132.58C74.5627 133.017 75.5831 133.455 76.6035 133.819L56.7784 188.265ZM37.0991 42.4927L25.9475 37.9738C26.895 36.8805 27.8426 35.7872 28.7901 34.7668L38.484 39.5044C37.9738 40.4519 37.5364 41.4723 37.0991 42.4927ZM36.5889 43.8776C36.1516 44.898 35.7872 45.9184 35.4227 47.0117L22.2303 42.7114C23.105 41.5452 24.0525 40.379 24.9271 39.2128L36.5889 43.8776ZM34.9854 48.4694C34.621 49.4898 34.3294 50.5831 34.1108 51.6764L18.7318 47.8863C19.5335 46.5743 20.4082 45.3353 21.3557 44.0962L34.9854 48.4694ZM33.6735 53.0612C33.4548 54.1545 33.1633 55.1749 33.0175 56.2682L15.4519 53.207C16.2536 51.8222 17.0554 50.4373 17.8571 49.1254L33.6735 53.0612ZM32.7259 57.7988C32.5802 58.8921 32.3615 59.9854 32.2886 61.0787L12.3907 59.0379C13.1195 57.5802 13.8484 56.1225 14.5773 54.6647L32.7259 57.7988ZM32.1429 62.6093C32.07 63.7026 31.9971 64.7959 31.9242 65.8892L9.83965 65.0875C10.4227 63.484 11.0787 61.9534 11.8076 60.4227L32.1429 62.6093ZM31.8513 67.4198C31.8513 68.0029 31.8513 68.5131 31.8513 69.0962C31.8513 69.6793 31.8513 70.1895 31.8513 70.7726L7.50729 71.6472C8.01749 69.9708 8.60058 68.2945 9.18367 66.691L31.8513 67.4198ZM7.06997 73.105L31.9242 72.2303C31.9971 73.3236 32.07 74.4169 32.1429 75.5102L5.68513 78.2799C6.04956 76.6035 6.55977 74.8542 7.06997 73.105ZM5.3207 79.8834L32.2886 77.0408C32.4344 78.1341 32.5802 79.2274 32.7259 80.3207L4.30029 85.3499C4.59184 83.5277 4.88338 81.7055 5.3207 79.8834ZM4.08163 86.9534L33.0175 81.8513C33.2362 82.9446 33.4548 84.0379 33.7464 85.0583L3.49854 92.6385C3.57143 90.7434 3.79009 88.8484 4.08163 86.9534ZM3.27988 94.242L34.0379 86.5889C34.3294 87.6822 34.621 88.7026 34.9854 89.723L3.06123 100.073C3.06123 98.1049 3.13411 96.137 3.27988 94.242ZM3.06123 101.676L35.4227 91.1808C35.7872 92.2012 36.1516 93.2945 36.5889 94.3149L3.35277 107.726C3.13411 105.685 3.06123 103.717 3.06123 101.676ZM37.0991 95.6997C37.5364 96.7201 37.9738 97.7405 38.484 98.688L4.15452 115.452C3.86297 113.411 3.57143 111.37 3.42566 109.329L37.0991 95.6997ZM39.1399 100.073C39.6501 101.093 40.1604 102.041 40.6706 102.988L5.61225 123.251C5.10204 121.21 4.73761 119.096 4.37318 117.055L39.1399 100.073ZM41.4723 104.3C42.0554 105.248 42.6385 106.195 43.2216 107.07L7.79883 130.977C7.14286 128.936 6.55977 126.822 5.97668 124.781L41.4723 104.3ZM44.0962 108.382C44.7522 109.257 45.3353 110.204 46.0641 111.079L10.7143 138.703C9.83965 136.662 9.11079 134.621 8.38192 132.507L44.0962 108.382ZM46.9388 112.245C47.5948 113.12 48.3236 113.921 49.0525 114.796L14.2128 146.21C13.1924 144.242 12.172 142.201 11.2974 140.16L46.9388 112.245ZM50.0729 115.889C50.8018 116.691 51.6035 117.493 52.3324 118.294L18.3673 153.426C17.1283 151.531 15.9621 149.563 14.8688 147.522L50.0729 115.889ZM53.4985 119.315C54.3003 120.044 55.102 120.845 55.9767 121.501L23.3236 160.423C21.9388 158.601 20.5539 156.706 19.3149 154.738L53.4985 119.315ZM57.07 122.522C57.9446 123.251 58.8192 123.907 59.6939 124.563L28.7901 167.055C27.1866 165.306 25.656 163.557 24.1982 161.662L57.07 122.522ZM64.9417 10.0583L64.7959 9.83965C65.3061 9.62099 65.8163 9.47522 66.2536 9.25656C65.8892 9.5481 65.379 9.76676 64.9417 10.0583ZM63.7026 10.8601C62.7551 11.4431 61.8805 12.0991 60.9329 12.6822L60.277 11.7347C61.2974 11.2245 62.3907 10.7872 63.4111 10.3499L63.7026 10.8601ZM59.6939 13.6297C58.8192 14.2857 57.9446 14.9417 57.07 15.6706L55.6851 13.9942C56.7055 13.484 57.7988 12.9738 58.8192 12.4636L59.6939 13.6297ZM55.9767 16.6181C55.1749 17.3469 54.3003 18.0758 53.4985 18.8047L51.2391 16.4723C52.2595 15.8892 53.2799 15.3061 54.3732 14.723L55.9767 16.6181ZM52.4053 19.898C51.6035 20.6997 50.8746 21.4286 50.1458 22.3032L46.8659 19.3149C47.8863 18.6589 48.9067 18.0029 50 17.3469L52.4053 19.898ZM49.0525 23.3965C48.3236 24.1982 47.5948 25.0729 46.9388 25.9475L42.4198 22.3761C43.4402 21.6472 44.4606 20.8455 45.4811 20.1895L49.0525 23.3965ZM45.9913 27.1137C45.3353 27.9883 44.6793 28.863 44.0233 29.8105L38.0466 25.8018C39.0671 24.9271 40.0875 24.1254 41.1079 23.3236L45.9913 27.1137ZM43.2216 31.0496C42.6385 31.9971 42.0554 32.8717 41.4723 33.8192L33.965 29.4461C34.9125 28.4985 35.9329 27.6239 36.9534 26.7493L43.2216 31.0496ZM158.673 31.0496L164.942 26.8222C165.962 27.6968 166.91 28.5714 167.93 29.519L160.423 33.8921C159.84 32.9446 159.257 31.9971 158.673 31.0496ZM157.799 29.8105C157.143 28.9359 156.487 27.9883 155.831 27.1137L160.714 23.3236C161.735 24.1254 162.755 24.9271 163.776 25.8018L157.799 29.8105ZM154.956 25.9475C154.3 25.0729 153.571 24.2711 152.843 23.3965L156.414 20.1895C157.434 20.9184 158.455 21.6472 159.475 22.3761L154.956 25.9475ZM151.822 22.3032C151.093 21.5015 150.292 20.6997 149.563 19.898L152.041 17.2741C153.061 17.93 154.155 18.586 155.175 19.242L151.822 22.3032ZM148.397 18.8776C147.595 18.1487 146.793 17.3469 145.918 16.691L147.522 14.7959C148.542 15.379 149.636 15.9621 150.656 16.5452L148.397 18.8776ZM144.752 15.6706C143.878 14.9417 143.003 14.2857 142.128 13.6297L143.003 12.4636C144.023 12.9738 145.117 13.484 146.137 13.9942L144.752 15.6706ZM140.962 12.7551C140.087 12.0991 139.14 11.516 138.192 10.9329L138.484 10.4956C139.504 10.9329 140.598 11.3703 141.618 11.8805L140.962 12.7551ZM136.953 10.0583C136.516 9.76676 136.079 9.5481 135.641 9.25656C136.152 9.47522 136.662 9.62099 137.099 9.83965L136.953 10.0583ZM167.857 86.5889L198.615 94.242C198.761 96.2099 198.834 98.1049 198.834 100.073L166.983 89.723C167.274 88.7026 167.566 87.6093 167.857 86.5889ZM168.222 85.0583C168.44 83.965 168.732 82.8717 168.878 81.8513L197.813 86.9534C198.105 88.8484 198.324 90.7434 198.469 92.6385L168.222 85.0583ZM169.169 80.3207C169.315 79.2274 169.461 78.1341 169.606 77.0408L196.574 79.8834C196.939 81.7055 197.303 83.5277 197.595 85.3499L169.169 80.3207ZM169.752 75.5831C169.825 74.4898 169.898 73.3965 169.971 72.3032L194.825 73.1778C195.335 74.9271 195.773 76.6035 196.21 78.3528L169.752 75.5831ZM170.044 70.7726C170.044 70.1895 170.044 69.6793 170.044 69.0962C170.044 68.5131 170.044 68.0029 170.044 67.4198L192.638 66.6181C193.222 68.2216 193.805 69.898 194.315 71.5743L170.044 70.7726ZM170.044 65.8892C169.971 64.7959 169.898 63.7026 169.825 62.6093L190.16 60.4956C190.889 62.0262 191.545 63.5569 192.128 65.1604L170.044 65.8892ZM169.606 61.0787C169.461 59.9854 169.315 58.8921 169.169 57.7988L187.245 54.5918C188.047 56.0496 188.776 57.5073 189.431 58.965L169.606 61.0787ZM168.878 56.3411C168.659 55.2478 168.44 54.1545 168.222 53.1341L184.111 49.1983C184.985 50.5831 185.787 51.895 186.516 53.2799L168.878 56.3411ZM167.857 51.6035C167.566 50.5102 167.274 49.4898 166.983 48.4694L180.685 44.0233C181.56 45.2624 182.434 46.5015 183.236 47.8134L167.857 51.6035ZM166.472 47.0117C166.108 45.9913 165.743 44.898 165.306 43.8776L176.895 39.2128C177.843 40.379 178.717 41.5452 179.592 42.7114L166.472 47.0117ZM164.796 42.4927C164.359 41.4723 163.921 40.4519 163.411 39.5044L173.105 34.7668C174.052 35.8601 175 36.8805 175.948 37.9738L164.796 42.4927ZM157.872 108.382L193.586 132.507C192.857 134.621 192.128 136.662 191.254 138.703L155.904 111.079C156.56 110.204 157.216 109.257 157.872 108.382ZM158.673 107.143C159.257 106.195 159.84 105.321 160.423 104.373L195.845 124.854C195.335 126.968 194.752 129.009 194.096 131.05L158.673 107.143ZM161.224 102.988C161.735 102.041 162.318 101.02 162.755 100.073L197.449 116.983C197.085 119.096 196.72 121.137 196.21 123.178L161.224 102.988ZM163.411 98.688C163.848 97.6676 164.359 96.6472 164.723 95.6997L198.397 109.329C198.251 111.37 197.959 113.411 197.668 115.452L163.411 98.688ZM165.306 94.3149C165.743 93.2945 166.108 92.2741 166.472 91.1808L198.834 101.676C198.834 103.717 198.761 105.685 198.615 107.726L165.306 94.3149ZM172.012 33.6006L162.755 38.1195C162.245 37.0991 161.735 36.1516 161.224 35.2041L169.169 30.6122C169.752 31.1953 170.262 31.7055 170.845 32.2886C171.21 32.726 171.647 33.1633 172.012 33.6006ZM32.7988 30.6122L40.7434 35.2041C40.2332 36.1516 39.6502 37.0991 39.2128 38.1195L29.8834 33.6006C30.3207 33.1633 30.6851 32.726 31.1224 32.2886C31.6327 31.7055 32.2157 31.1953 32.7988 30.6122ZM29.8834 168.149L60.9329 125.437C61.8076 126.093 62.7551 126.676 63.7026 127.332L34.9854 173.178C33.2362 171.574 31.4869 169.898 29.8834 168.149ZM36.1516 174.198L65.0146 128.061C65.9621 128.644 66.9096 129.155 67.8571 129.738L41.7639 178.79C39.723 177.332 37.9009 175.802 36.1516 174.198ZM43.0029 179.738L69.1691 130.466C70.1166 130.977 71.137 131.487 72.1574 131.924L49.0525 183.819C47.0117 182.58 44.9708 181.195 43.0029 179.738ZM58.1633 188.921L78.0612 134.329C79.0088 134.694 79.9563 134.985 80.8309 135.204V135.35L81.9242 135.569C81.4869 136.516 81.1225 137.536 80.9038 138.63C80.5394 140.379 79.8105 142.055 79.0087 143.586C77.1137 147.449 73.9796 153.207 71.5015 155.394C70.8455 155.977 70.6997 157.07 71.2099 158.236C71.793 159.548 72.7405 160.35 73.6881 161.152L73.7609 161.224L64.9417 191.837C62.6822 191.035 60.4227 190.015 58.1633 188.921ZM66.3265 192.493L74.9271 162.464C75.9475 163.484 76.8951 164.431 77.6239 165.379C78.1341 165.962 78.7901 166.91 79.0816 167.857L77.9883 172.813C77.6239 173.178 77.3324 173.615 77.0408 174.052C74.1982 177.915 72.5219 182.58 72.5219 187.682C72.5219 188.192 72.5948 188.703 72.5948 189.14C72.5219 189.213 72.449 189.213 72.449 189.213L72.5948 189.65C72.7405 191.181 73.0321 192.638 73.3965 194.023L73.1778 194.898C70.9184 194.242 68.6589 193.513 66.4723 192.711L66.3265 192.493ZM91.9096 198.324C89.3586 198.105 86.7347 197.741 84.2566 197.303L83.0175 197.085C81.1224 196.72 79.2274 196.356 77.4053 195.845C77.0408 195.773 76.6764 195.7 76.2391 195.554C75.8746 194.752 75.5831 193.878 75.3644 193.076L75.7289 191.472V191.327H75C74.9271 190.962 74.9271 190.671 74.8542 190.306C75 190.233 75.1458 190.233 75.2187 190.16C77.0408 189.577 80.1749 188.776 84.2566 188.12V188.848V188.12C86.7347 187.755 89.5773 187.391 92.7114 187.245L93.4402 187.318V187.245C95.8455 187.172 98.3236 187.172 100.948 187.391C103.644 187.609 106.414 187.974 109.329 188.557C112.245 189.14 115.16 189.942 118.149 191.035C119.461 191.545 120.773 192.055 122.157 192.711C121.793 194.096 121.283 195.481 120.7 196.793C120.335 196.866 119.898 196.939 119.534 197.012L118.95 197.085C116.108 197.595 113.12 198.032 110.058 198.324C104.155 198.907 97.7405 198.907 91.9096 198.324ZM152.843 183.892L129.738 131.924C130.758 131.487 131.778 130.977 132.726 130.466L158.892 179.738C156.997 181.195 154.956 182.58 152.843 183.892ZM160.131 178.863L134.038 129.81C135.058 129.3 136.006 128.717 136.88 128.134L165.671 174.271C163.921 175.802 162.099 177.332 160.131 178.863ZM166.91 173.178L138.265 127.259C139.213 126.676 140.16 126.02 141.035 125.437L172.085 168.149C170.408 169.898 168.659 171.574 166.91 173.178ZM173.032 167.055L142.201 124.563C143.076 123.907 143.95 123.251 144.825 122.522L177.697 161.662C176.239 163.484 174.708 165.306 173.032 167.055ZM178.644 160.423L145.991 121.501C146.866 120.773 147.668 120.044 148.469 119.315L182.726 154.738C181.341 156.778 179.956 158.673 178.644 160.423ZM183.528 153.499L149.563 118.294C150.364 117.493 151.093 116.691 151.822 115.889L187.026 147.595C185.933 149.563 184.767 151.458 183.528 153.499ZM187.682 146.21L152.77 114.796C153.499 113.994 154.227 113.12 154.883 112.245L190.525 140.087C189.723 142.201 188.776 144.169 187.682 146.21Z" transform="translate(74.0525 46.312)" fill="black"/>
<path d="M-2.22431e-06 4.44863e-06V0.0728841L1.53061 4.44863e-06H-2.22431e-06Z" transform="translate(188.265 181.516)" fill="black"/>
<path d="M-2.22431e-06 4.44863e-06V0.0728841L1.45772 4.44863e-06H-2.22431e-06Z" transform="translate(160.204 181.516)" fill="black"/>
<path d="M115.889 231.778C179.893 231.778 231.778 179.893 231.778 115.889C231.778 51.8854 179.893 0 115.889 0C51.8854 0 0 51.8854 0 115.889C0 179.893 51.8854 231.778 115.889 231.778Z" transform="translate(59.1111 29.1108)" stroke="url(#paint2_linear)" stroke-width="3.4762" stroke-miterlimit="10"/>
<path d="M172.959 30.1749C154.3 11.2245 129.446 0.510203 102.843 -1.11216e-06C102.551 -1.11216e-06 102.187 -1.11216e-06 101.895 -1.11216e-06C101.749 -1.11216e-06 101.604 -1.11216e-06 101.458 -1.11216e-06C101.239 -1.11216e-06 101.093 -1.11216e-06 100.875 -1.11216e-06C100.656 -1.11216e-06 100.51 -1.11216e-06 100.292 -1.11216e-06C100.146 -1.11216e-06 100 -1.11216e-06 99.8542 -1.11216e-06C99.5627 -1.11216e-06 99.1982 -1.11216e-06 98.9067 -1.11216e-06C72.3761 0.510203 47.449 11.2245 28.863 30.1749C10.277 49.1254 0 74.2711 0 100.875C0 129.592 12.3178 156.997 33.6735 176.166C35.7872 178.061 38.1924 180.029 40.6706 181.851C43.1487 183.673 45.6997 185.423 48.1778 186.953C50.8018 188.557 53.4985 190.087 56.1953 191.399C58.6735 192.638 61.1516 193.732 63.6297 194.679L64.5773 195.044C67.4198 196.137 70.3353 197.085 73.3236 197.959C73.6152 198.032 73.9067 198.105 74.1254 198.178C75 198.396 75.8746 198.615 76.6035 198.834C78.1341 199.198 79.6647 199.563 81.1953 199.854L82.4344 200.073C85.4227 200.656 88.484 201.02 91.6181 201.312C94.6064 201.603 97.7405 201.749 100.948 201.749C104.155 201.749 107.289 201.603 110.204 201.312C113.338 201.02 116.472 200.583 119.388 200.073L119.971 200C120.773 199.854 121.501 199.708 122.303 199.49L122.522 199.417C124.563 198.98 126.531 198.469 128.499 197.959C131.414 197.157 134.329 196.137 137.245 195.044C140.087 193.95 142.93 192.711 145.7 191.327C148.324 190.015 150.948 188.557 153.717 186.88C156.341 185.277 158.892 183.601 161.224 181.778C163.63 179.956 165.962 178.061 168.222 176.093C170.481 174.052 172.595 172.012 174.636 169.825C176.676 167.638 178.644 165.379 180.394 163.12C182.143 160.933 183.892 158.528 185.496 155.977C187.172 153.426 188.63 151.02 189.942 148.542C197.813 133.965 201.968 117.42 201.968 100.729C201.895 74.2711 191.618 49.1254 172.959 30.1749ZM143.44 119.752C142.274 120.773 141.035 121.72 139.796 122.595C138.63 123.469 137.318 124.344 136.006 125.146C134.767 125.948 133.455 126.676 131.997 127.478C130.685 128.207 129.373 128.863 127.843 129.519C126.458 130.175 125 130.758 123.542 131.268C122.303 131.706 121.064 132.143 119.825 132.507C119.825 132.434 119.825 132.362 119.825 132.289C120.044 131.414 120.481 130.539 120.918 129.665L121.283 128.863C121.866 127.843 122.449 126.676 122.23 125.219C122.085 124.417 121.793 123.761 121.574 123.105C120.773 121.21 121.574 119.023 123.324 118.003C133.673 111.88 141.91 101.531 143.367 89.3586C143.513 88.3382 143.95 87.3178 144.752 86.7347C145.044 86.516 145.262 86.2974 145.481 86.0058C145.773 85.5685 145.918 85.1312 146.064 84.6939L146.283 84.0379C146.793 82.6531 147.303 81.1225 146.939 79.519C146.647 78.3528 145.918 77.4781 145.044 76.9679C144.023 76.312 143.513 75.2187 143.44 74.0525C143.222 55.1749 132.434 37.5364 114.286 30.6122C113.192 30.1749 112.755 31.9242 113.776 32.3615C131.851 39.2128 142.201 57.3615 141.618 76.1662C141.545 76.1662 141.399 76.1662 141.327 76.1662C140.015 76.312 138.921 76.9679 137.901 77.551C137.026 78.0612 136.079 78.207 135.131 78.207C131.997 78.3528 128.863 78.1341 125.802 77.6239C123.834 77.3324 122.012 77.0408 120.19 76.8222C118.44 76.6035 116.91 75.5831 115.962 74.1254C114.431 71.7201 112.609 69.6064 110.496 67.8571C109.621 67.1283 109.038 66.1808 108.746 65.0875C108.382 63.7755 107.507 61.9534 105.685 60.3499L105.321 59.9854H105.175C104.883 59.6939 104.227 59.0379 103.426 57.9446C103.207 57.7259 103.134 57.5802 103.061 57.5073C101.968 56.3411 100.948 55.1749 99.9271 54.0087L99.0525 52.9883C98.9796 52.9155 98.8338 52.7697 98.8338 52.7697C98.8338 52.6968 98.8338 52.551 98.8338 52.4781V51.9679C98.9067 51.0933 98.9796 49.9271 99.4169 49.5627C99.4898 49.4898 99.6356 49.4169 100.073 49.4169C100.729 49.4898 101.458 49.4898 102.187 49.2711C103.134 48.9067 103.863 48.105 103.936 47.2303V46.6472C103.936 46.5743 104.082 46.4286 104.155 46.2099C104.738 45.2624 104.956 44.3878 105.102 43.5131C105.758 43.4402 106.268 43.0029 106.414 42.4198C106.633 41.6181 106.268 40.9621 105.977 40.4519C105.904 40.3061 105.831 40.2332 105.831 40.1604C105.539 39.5773 105.394 38.9213 105.248 38.2653C105.175 37.828 105.029 37.4636 104.956 37.0991C104.811 36.2974 104.592 35.4227 104.373 34.5481C105.539 33.5277 107.58 31.5598 107.216 29.8834L107.143 29.4461L106.706 29.2274C106.56 29.1545 105.539 28.6443 103.863 28.6443C103.061 27.9155 101.676 27.6239 100.146 28.9359C97.2303 28.5714 94.9709 28.6443 93.3674 29.1545C93.3674 29.1545 93.2216 29.2274 93.0758 29.3732C89.3586 31.7784 87.7551 32.6531 87.0262 32.8717L86.6618 33.0904C86.2974 33.4548 86.1516 33.965 86.0058 34.4023C86.0058 34.5481 85.933 34.7668 85.8601 34.8397C85.7872 34.9125 85.6414 35.0583 85.4227 35.2041C85.2041 35.3499 84.9854 35.5685 84.8396 35.7872C84.4752 36.2245 84.2566 36.8076 84.2566 37.3178C84.3295 37.9738 84.6939 38.484 84.9125 38.6297C84.9125 38.8484 84.9125 39.0671 84.9125 39.2857C84.9125 39.723 84.9125 40.0875 84.8396 40.4519C84.8396 40.5977 84.6939 40.7434 84.5481 40.8892C84.3295 41.1079 84.1837 41.3994 83.965 41.7639C83.2362 43.6589 84.3295 45.4811 86.9534 46.6472C87.2449 46.793 87.5364 46.8659 87.828 46.9388C87.9738 47.0117 88.1195 47.0117 88.2653 47.0845C88.1924 47.3761 88.0467 47.5219 87.9009 47.7405C87.828 47.8863 87.6822 47.9592 87.6822 47.9592C87.4636 48.0321 87.172 48.105 87.0991 48.1778C86.9534 48.2507 86.3703 48.2507 86.0787 48.2507C85.7143 48.2507 85.3499 48.2507 85.1312 48.3236C81.7055 49.0525 78.9359 52.2595 76.8222 54.5918C74.8542 56.8513 72.9592 59.4023 70.6997 62.9009C68.8776 65.8163 66.9096 69.3878 67.7114 71.9388C68.0029 72.8863 68.7318 73.688 69.8251 74.0525C73.8338 75.5831 78.4985 75.7289 84.1837 74.344C85.2041 74.1254 85.277 74.1983 85.8601 75.5831L86.0058 75.8746C86.6618 77.4053 87.0991 78.863 87.4636 80.3936C88.0467 83.1633 87.9009 86.2245 87.0991 90.0146C86.8805 90.9621 86.5889 91.9825 86.2974 93.0029C85.6414 95.1895 84.9854 97.449 84.9125 99.7813C84.8397 100.948 84.9854 102.697 85.6414 104.082C85.8601 104.592 86.2245 105.029 86.4432 105.539C86.8076 106.195 87.2449 106.778 87.4636 107.434C88.4111 110.058 88.5569 112.901 88.7026 115.743C88.7026 116.399 88.7755 117.128 88.8484 117.784L88.9213 118.878C89.1399 121.647 89.2857 124.563 88.4111 127.114C88.3382 127.187 88.1924 127.332 88.0467 127.405C87.0262 128.28 84.8396 130.102 83.0175 132.872L82.3615 132.653C80.9767 132.289 79.519 131.778 77.9883 131.268C76.5306 130.758 75.1458 130.175 73.6881 129.519C49.8542 118.95 34.4752 95.1895 34.4752 69.0962C34.4752 32.8717 63.7755 3.35277 99.9271 2.98834C100.364 2.98834 100.729 2.98834 101.166 2.98834C137.318 3.35277 166.691 32.8717 166.691 69.0962C167.055 88.6297 158.455 107.143 143.44 119.752ZM92.7843 185.569L92.0554 185.496V185.569C89.2857 185.714 86.7347 186.006 84.4752 186.297C80.758 186.88 77.6968 187.609 75.656 188.192C75.2915 188.265 75 188.411 74.7085 188.484C74.7085 188.192 74.6356 187.901 74.6356 187.609C74.6356 187.318 74.6356 187.099 74.6356 186.88C75 186.735 75.4373 186.589 76.0204 186.443C77.9155 185.86 80.9038 185.131 84.7668 184.475C87.172 184.111 89.9417 183.746 92.93 183.601C95.4082 183.455 98.105 183.455 100.948 183.673C103.571 183.819 106.268 184.184 109.038 184.694C111.808 185.204 114.65 185.933 117.566 186.953C119.315 187.536 120.991 188.265 122.741 188.994C122.741 189.65 122.668 190.306 122.522 190.889C120.991 190.16 119.388 189.577 117.857 189.067C114.942 188.047 112.026 187.245 109.257 186.735C106.414 186.152 103.644 185.86 101.02 185.641C98.105 185.423 95.3353 185.423 92.7843 185.569ZM74.9271 159.767L74.8542 159.694C74.0525 159.038 73.3236 158.382 72.9592 157.507C72.8134 157.143 72.8134 156.851 72.7405 156.851C74.1254 155.539 76.0204 152.915 77.7697 150H78.4985H77.7697C80.102 146.064 82.1429 141.764 82.4344 140.306H82.5073C82.7988 138.192 83.5277 136.297 84.4752 134.621C86.2245 131.633 88.6297 129.592 89.6501 128.717C90.0146 128.353 90.4519 127.988 90.5248 127.624C91.6181 124.708 91.3265 121.574 91.1079 118.586L91.035 117.493C90.9621 116.837 90.9621 116.181 90.8892 115.525C90.7434 112.609 90.5977 109.548 89.5044 106.633C89.2128 105.758 88.7755 105.102 88.2653 104.373C88.0467 104.009 87.7551 103.571 87.5365 103.134C87.0991 102.332 86.9534 101.166 86.9534 99.7813C87.0262 97.6676 87.6822 95.5539 88.2653 93.4402C88.5569 92.4198 88.8484 91.3994 89.1399 90.379C89.2128 89.9417 89.3586 89.4315 89.4315 88.9942C89.7959 86.8805 91.691 85.2041 93.8776 85.1312C95.2624 85.0583 96.9388 85.2041 98.9067 85.6414L99.1983 84.4752C97.0846 83.965 95.2624 83.8192 93.7318 83.8921C91.7639 83.965 90.0875 82.6531 89.723 80.6851C89.6502 80.3936 89.6501 80.102 89.5773 79.8834C89.2128 78.2799 88.7026 76.6035 88.0467 75L87.9009 74.7085C87.3178 73.3236 86.6618 71.7201 84.0379 72.3761C78.7172 73.6152 74.4169 73.5423 70.7726 72.1574C70.2624 71.9388 69.9708 71.6472 69.8251 71.2099C69.3878 69.8251 70.2624 67.3469 72.5948 63.7755C74.7813 60.3499 76.6035 57.8717 78.4985 55.6851C80.3936 53.5714 83.0175 50.656 85.7872 50C85.9329 50 86.1516 50 86.3703 50C87.2449 50 87.828 49.9271 88.2653 49.6356H88.3382C88.484 49.6356 88.6297 49.5627 88.7755 49.4898C89.7959 50.1458 91.3265 51.3848 91.7638 52.0408C92.274 52.6968 92.5656 53.4985 91.1079 54.8834C89.8688 56.0496 88.8484 57.3615 87.828 58.6735C87.2449 59.4023 86.6618 60.1312 86.0787 60.8601L85.7143 61.2245C84.7668 62.3178 83.7464 63.484 82.5073 64.2857C82.2886 64.4315 82.07 64.5773 81.8513 64.6502L81.4869 64.8688C81.2682 65.0146 81.1225 65.0875 81.1225 65.2332C78.863 64.9417 76.5306 63.7755 76.5306 63.7026L75.9475 64.723C76.0933 64.7959 79.0088 66.3265 81.7055 66.4723C81.7784 66.4723 81.7784 66.5452 81.8513 66.5452C82.2886 66.691 82.7988 66.7639 83.309 66.8367L83.8192 66.9096C85.3499 67.2012 86.5889 67.3469 87.6822 67.4198C89.723 67.5656 92.7843 67.4927 94.9708 65.6706C96.0641 64.723 97.1574 63.7755 98.2507 62.7551C98.6152 62.3907 98.9796 62.0262 99.344 61.6618C99.7813 61.2245 100.219 60.7143 100.656 60.3499C100.437 60.7143 100.146 61.0787 99.9271 61.4432L98.4694 63.3382L100.292 62.7551C100.948 62.5364 101.676 62.3178 102.332 62.2449C102.259 62.3178 102.259 62.3178 102.187 62.3907C101.749 62.7551 101.385 63.1195 101.166 63.484C100.875 63.9942 101.385 64.3586 101.604 64.4315L101.531 64.5044C100.51 64.723 99.4169 64.9417 98.6152 65.8892C98.2507 66.2536 98.0321 66.691 97.7405 67.0554C97.6676 67.2741 97.5219 67.4198 97.449 67.5656C95.8455 69.9708 92.5656 71.7201 89.1399 72.0117L89.2857 73.1778C93.0029 72.8134 96.6472 70.9184 98.4694 68.2216C98.6152 68.0029 98.6881 67.8571 98.8338 67.6385C99.0525 67.2741 99.2711 66.9096 99.5627 66.6181C100.146 65.9621 100.948 65.8163 101.822 65.5977L102.332 65.5248C102.551 65.4519 103.207 65.3061 103.353 64.723C103.426 64.2128 103.061 63.9213 102.697 63.6297C102.77 63.5569 102.915 63.4111 103.061 63.3382C103.426 63.0466 104.009 62.5364 103.936 61.8805C103.936 61.6618 103.79 61.2974 103.207 61.1516C102.988 61.0787 102.77 61.0787 102.551 61.0787C102.332 61.0787 102.041 61.1516 101.822 61.1516C102.041 60.7872 102.187 60.4227 102.332 59.9854C102.405 59.5481 102.259 59.0379 101.968 58.8192C101.822 58.7464 101.385 58.5277 100.802 58.8921C100.073 59.4752 99.344 60.1312 98.688 60.8601H98.0321C96.137 58.8921 92.6385 57.3615 91.035 56.7784C91.3994 56.3411 91.7638 55.9767 92.1283 55.6122C93.8047 54.0816 94.0233 52.551 92.8571 51.1662C92.8571 51.0933 92.7843 51.0933 92.7114 51.0204C94.5335 52.0408 96.137 52.551 97.0845 52.6968C97.0845 52.8426 97.0846 52.9883 97.1574 53.1341C97.3032 53.5714 97.5948 53.863 97.7405 54.0816L98.6152 55.102C99.6356 56.2682 100.729 57.4344 101.749 58.6006C101.822 58.6735 101.895 58.8192 102.041 58.965C103.426 60.7143 104.155 61.4431 104.738 61.6618C107.362 64.0671 107.289 66.7639 107.289 66.9096V67.4198L107.726 67.7114C111.079 69.9708 113.848 73.1778 115.743 77.0408C115.816 77.2595 115.962 77.551 116.327 77.7697C116.618 77.9883 116.983 77.9883 117.128 78.0612C119.752 78.3528 122.522 78.7172 125.583 79.2274C128.79 79.7376 132.07 79.9563 135.35 79.8105C136.443 79.8105 137.755 79.5918 138.994 78.863C139.796 78.3528 140.743 77.8426 141.691 77.7697C143.149 77.551 144.825 78.2799 145.19 79.7376C145.481 80.758 144.971 81.9971 144.606 83.0904L144.388 83.7464C144.242 84.0379 144.169 84.4023 144.023 84.621C143.513 85.3499 142.347 85.4227 141.837 85.4227C140.743 85.4956 139.796 85.2041 138.776 84.8397L138.338 84.621C137.682 84.3294 137.026 83.965 136.152 83.965C135.569 83.965 135.058 84.0379 134.475 84.0379C134.184 84.0379 133.892 84.1108 133.673 84.1108L128.353 84.4023C125.219 84.621 121.574 84.7668 117.784 84.621C116.837 84.621 115.743 84.5481 114.723 84.4023C114.067 84.2566 113.703 83.965 113.12 83.3819L106.706 77.1866C106.487 76.9679 106.195 76.6764 105.685 76.5306C104.446 76.2391 103.644 77.6239 103.426 78.5714C103.28 79.1545 103.353 79.6647 103.426 80.1749C103.79 82.5802 103.863 84.5481 103.499 86.5889C103.207 88.5568 102.843 90.5977 104.082 92.6385C104.519 93.2945 105.029 93.8775 105.466 94.4606L105.685 94.6793C109.184 98.6152 112.172 103.426 114.286 108.673C115.379 111.152 116.254 113.848 117.201 116.399C118.003 118.805 118.878 121.21 119.825 123.615C120.044 124.198 120.262 124.781 120.408 125.292C120.554 126.093 120.117 126.895 119.679 127.77L119.242 128.571C118.732 129.519 118.222 130.466 117.93 131.56C117.784 132.143 117.784 132.653 117.784 133.236C117.784 133.601 117.784 133.965 117.711 134.329C117.566 136.006 117.347 137.609 117.055 139.286C116.91 139.942 116.837 140.671 116.691 141.327C116.618 141.691 116.545 142.055 116.545 142.42H115.816L116.327 144.898C116.181 146.429 116.108 148.032 116.108 149.49L116.035 151.458C116.035 151.895 115.962 152.332 115.962 152.77C115.889 153.936 115.816 155.102 115.889 156.268C116.035 159.84 117.784 161.808 119.752 164.14L120.554 165.087C120.627 165.16 120.7 165.233 120.773 165.379L121.429 168.586C121.064 168.44 120.7 168.222 120.262 167.93L119.971 167.711C118.659 166.91 117.201 166.691 115.671 167.055C115.598 167.055 115.598 167.055 115.525 167.055L114.796 167.128C113.921 167.201 113.047 166.983 112.245 166.472C112.245 166.472 112.245 166.472 112.172 166.399C109.985 165.16 108.601 162.828 108.892 160.277C109.475 154.592 109.329 148.907 109.184 143.367L109.111 140.743C109.038 138.848 109.111 137.172 109.257 135.714C109.329 134.985 109.475 134.257 109.621 133.601C109.767 132.872 109.985 132.143 110.204 131.414C110.714 129.738 111.224 128.061 111.006 126.166C110.787 124.417 109.913 123.032 109.111 121.647C108.892 121.356 108.746 121.064 108.528 120.7C107.434 118.732 106.195 116.837 104.956 115.087C104.227 114.067 103.353 112.901 102.259 111.953L101.312 111.152L96.9388 104.883L95.9184 105.539L100.802 112.828C100.437 114.067 100.51 115.306 100.583 116.545C100.583 117.128 100.656 117.638 100.583 118.222C100.51 120.117 100.364 121.72 100.146 123.178C99.7085 126.166 98.9067 128.79 97.7405 131.05C97.1574 132.216 96.2828 133.236 95.4082 134.329C94.8251 134.985 94.3149 135.641 93.8047 136.37C93.5131 136.808 93.2216 137.172 93.0029 137.682C92.3469 138.921 91.6181 140.087 90.8892 141.327C88.8484 144.679 86.5889 147.959 84.4752 151.02C83.965 151.749 83.4548 152.551 83.0904 153.426L82.5073 152.915L82.3615 152.988L82.1429 154.082L82.8717 154.227L82.5073 156.05H81.7784H82.5073C82.5073 156.341 82.5073 156.56 82.5802 156.851C82.8717 158.746 83.5277 161.516 85.0583 163.775C85.4956 164.431 86.0787 164.869 86.7347 165.233V165.743L86.6618 166.181C84.7668 167.128 83.0175 168.294 81.414 169.606C81.414 169.023 81.414 168.513 81.3411 167.93C81.2682 167.638 81.1953 167.274 81.0496 166.983L81.2682 166.035L80.5394 165.889C80.1749 165.233 79.7376 164.577 79.3732 164.14C78.4257 162.974 77.2595 161.735 75.8746 160.496C75.8018 160.423 75.8018 160.423 75.7289 160.35L75.8018 159.985L74.9271 159.767ZM87.0262 38.0466C86.9534 37.828 86.8076 37.6093 86.7347 37.5364C86.6618 37.4636 86.4431 37.2449 86.516 36.9534C86.5889 36.8805 86.7347 36.7347 86.8805 36.6618C87.172 36.4432 87.5364 36.1516 87.828 35.7143C87.9738 35.4227 88.0466 35.1312 88.1195 34.8397C88.1924 34.6939 88.1924 34.5481 88.2653 34.4752C88.9942 34.1108 90.1604 33.5277 91.5452 32.6531C94.1691 31.0496 97.3032 30.3936 100.364 30.758H100.437L101.458 30.8309L101.604 30.2478C101.968 29.9563 102.332 29.8105 102.551 29.8105C102.624 29.8105 102.697 29.8105 102.77 29.8834L103.717 30.8309L104.082 30.4665C104.592 30.4665 105.102 30.5394 105.394 30.6122C105.029 31.3411 104.009 32.5073 102.77 33.3819L102.187 33.8192L102.259 33.8921C99.7085 34.8396 97.9592 36.3703 97.1574 38.4111C96.8659 39.0671 96.793 39.7959 96.7201 40.4519C95.6268 40.6706 92.93 41.4723 89.9417 45.4811C89.9417 45.4811 89.9417 45.4082 89.8688 45.4082C89.5044 45.1895 89.0671 45.0437 88.6297 44.9709C88.4111 44.898 88.1924 44.8251 87.9738 44.7522C87.0262 44.3149 85.5685 43.4402 86.0058 42.2741C86.0058 42.2012 86.1516 42.0554 86.2974 41.9096C86.516 41.6181 86.8076 41.2536 86.9534 40.7434C87.0262 40.1604 87.0262 39.6502 87.0262 39.1399V38.5569C87.0991 38.484 87.0991 38.2653 87.0262 38.0466ZM102.114 47.0845C102.114 47.2303 101.895 47.449 101.676 47.5219C101.312 47.6676 100.802 47.5948 100.364 47.5948C100.073 47.5219 99.9271 47.5948 99.7085 47.6676C98.9067 46.2099 97.1574 42.2012 98.3965 38.9942C99.0525 37.2449 100.583 36.0058 102.77 35.2041C102.988 35.9329 103.207 36.7347 103.353 37.5364C103.426 37.9009 103.499 38.3382 103.644 38.7755C103.79 39.5044 104.009 40.2332 104.3 40.9621C104.373 41.1079 104.446 41.2536 104.519 41.3994C104.592 41.4723 104.592 41.6181 104.665 41.691C104.446 41.691 104.227 41.7638 103.936 41.9825L103.571 42.2012L103.499 42.6385C103.353 43.7318 103.207 44.4606 102.697 45.3353C102.478 45.6268 102.259 45.9913 102.259 46.4286C102.114 46.5015 102.114 46.7201 102.114 47.0845ZM98.5423 48.0321C98.4694 48.105 98.3965 48.105 98.3236 48.1778C97.8863 48.5423 97.6676 48.9067 97.5219 49.4169C97.0117 50.7289 95.6268 51.312 94.3878 50.7289C93.1487 50.1458 91.691 49.2711 90.3061 47.9592C90.379 47.7405 90.5248 47.5219 90.5977 47.3032C90.6706 47.1574 90.7434 46.8659 90.7434 46.5743C92.1283 44.6793 93.4402 43.4402 94.5335 42.7843C95.5539 42.1283 96.793 42.7843 97.0845 43.9504C97.449 45.6997 98.0321 47.1574 98.5423 48.0321ZM89.2128 46.5743C89.2128 46.6472 89.1399 46.7201 89.1399 46.7201H88.8484C88.7755 46.6472 88.8484 46.5015 88.8484 46.4286L89.2128 46.5743ZM89.2128 58.965C89.9417 58.7464 90.5248 58.6006 91.2536 58.4548C92.4198 58.965 94.0233 59.6939 95.4082 60.6414C96.5015 61.3703 96.5743 63.0467 95.5539 63.9213C95.1166 64.2857 94.6793 64.6502 94.242 65.0146C92.3469 66.5452 89.7959 66.6181 87.7551 66.4723C86.6618 66.3994 85.4956 66.2536 84.0379 65.9621L83.4548 65.8892C83.1633 65.8163 82.8717 65.8163 82.6531 65.7434C82.8717 65.6706 83.0175 65.5248 83.2362 65.4519C84.621 64.5773 85.7143 63.3382 86.7347 62.172L87.0262 61.8076C87.828 60.7872 88.5568 59.9125 89.2128 58.965ZM105.321 80.102C105.248 79.8105 105.248 79.519 105.248 79.3003C105.248 79.1545 105.321 79.0088 105.394 78.863L111.735 84.9854C112.536 85.7143 113.265 86.2974 114.359 86.4432C115.525 86.6618 116.691 86.6618 117.711 86.7347C121.574 86.8076 125.292 86.6618 128.426 86.4432L133.746 86.0787C134.038 86.0787 134.329 86.0058 134.621 86.0058C135.058 85.933 135.569 85.9329 136.079 85.9329C136.516 85.9329 136.953 86.2245 137.464 86.4432L137.974 86.6618C138.63 86.9534 139.359 87.172 140.16 87.3178C141.035 87.4636 141.691 88.2653 141.618 89.1399C140.16 101.166 131.633 111.297 121.21 116.983C120.335 116.618 119.971 116.472 119.096 116.181C118.149 113.484 117.201 110.787 116.108 108.09C113.848 102.697 110.787 97.6676 107.143 93.586L106.924 93.3673C106.487 92.8571 106.05 92.4198 105.758 91.8367C104.883 90.379 105.102 88.8484 105.394 86.8805C105.758 84.9854 105.685 82.7988 105.321 80.102ZM122.959 168.95L122.522 166.983H122.595C122.959 167.055 123.324 167.055 123.688 167.055C124.052 167.055 124.417 167.055 124.636 167.201C124.708 167.201 124.781 167.274 124.854 167.347L126.312 168.732C126.385 168.805 126.531 168.95 126.604 168.95C126.604 168.95 126.531 169.023 126.385 169.096C126.166 169.169 126.02 169.169 125.583 169.023C125.292 168.95 125 168.805 124.781 168.805C124.125 168.732 123.542 168.805 123.032 168.878C123.032 168.95 122.959 168.95 122.959 168.95ZM117.857 153.353C117.857 152.988 117.857 152.697 117.93 152.405L119.825 161.297C118.367 158.965 117.638 156.195 117.857 153.353ZM90.8163 164.432C90.0146 164.286 89.1399 164.213 88.4111 163.921V163.703L87.6822 163.63C87.2449 163.411 86.8076 163.12 86.5889 162.682C85.5685 161.152 84.8396 159.038 84.4752 156.56C84.2566 154.81 85.0583 153.499 86.0787 151.968C87.4636 150 88.8484 147.886 90.2332 145.773L90.7434 146.283L90.2332 145.773H90.9621H90.2332C91.7639 143.44 93.2216 140.962 94.6793 138.484C94.898 138.047 95.1895 137.609 95.4811 137.245L93.6589 163.703C92.6385 163.994 91.691 164.14 90.8163 164.432ZM96.8659 138.12C97.9592 138.192 99.0525 138.192 100.146 138.265V163.411C99.6356 163.411 99.1254 163.338 98.6152 163.338C97.3761 163.338 96.2099 163.411 95.0437 163.557L96.8659 138.12ZM101.676 138.192C102.77 138.192 103.863 138.12 104.956 138.047L106.56 160.86C105.685 162.536 103.79 163.63 101.822 163.411C101.749 163.411 101.749 163.411 101.676 163.411V138.192ZM106.56 137.974C106.778 137.974 107.07 137.974 107.289 137.901C107.216 138.921 107.216 140.015 107.216 141.254L107.289 143.878C107.362 145.918 107.362 147.959 107.362 150L106.56 137.974ZM108.382 131.268C108.163 132.07 107.872 132.872 107.726 133.673C107.58 134.548 107.434 135.423 107.362 136.443L107.216 134.913C103.79 135.204 100.437 135.277 97.2303 135.058C98.0321 134.038 98.8338 133.017 99.4898 131.851C100.729 129.446 101.604 126.603 102.114 123.396C102.332 121.866 102.478 120.189 102.551 118.294C102.551 117.711 102.551 117.128 102.478 116.472C102.478 116.035 102.478 115.671 102.478 115.306C102.843 115.743 103.207 116.254 103.571 116.764C104.738 118.44 105.904 120.262 106.997 122.23C107.216 122.522 107.362 122.886 107.58 123.178C108.309 124.417 109.038 125.583 109.184 126.895C109.329 128.28 108.892 129.738 108.382 131.268ZM78.2799 175.802L78.863 176.312L79.0816 176.093V175.875L79.4461 174.344C80.1749 173.469 80.9038 172.595 81.7784 171.793C83.309 170.335 85.1312 169.023 87.0991 168.076L87.828 168.149L87.9009 167.638C89.8688 166.691 91.9825 166.035 94.242 165.598L94.9708 165.671V165.525C96.2099 165.379 97.449 165.233 98.688 165.233C99.1982 165.233 99.7085 165.233 100.219 165.306V165.379H100.948C103.061 165.525 105.102 166.035 106.997 166.691V166.983L107.726 166.91C110.204 167.857 112.464 169.169 114.431 170.773L114.577 171.647L115.306 171.574C115.598 171.866 115.962 172.157 116.254 172.449C117.128 173.324 117.93 174.271 118.659 175.292C121.137 178.717 122.595 182.799 122.668 187.172C120.845 186.37 119.023 185.641 117.201 185.058C114.359 184.111 111.589 183.455 108.892 182.945C106.122 182.434 103.499 182.143 100.948 181.997C98.1778 181.851 95.5539 181.851 93.0758 181.924C90.1603 182.07 87.3907 182.362 84.9854 182.726C81.414 183.309 78.4257 183.965 76.3848 184.548C75.7289 184.694 75.2187 184.913 74.7813 184.985C75.2187 181.633 76.4577 178.499 78.2799 175.802ZM120.7 174.781C120.044 173.761 119.242 172.813 118.44 171.866C117.638 170.991 116.764 170.117 115.816 169.388V169.315C116.983 169.023 118.076 169.169 118.95 169.752L119.242 169.971C119.898 170.408 120.627 170.845 121.574 170.991C121.647 170.991 121.72 170.991 121.866 170.991L127.041 195.262C125.729 195.627 124.344 195.991 123.032 196.283C124.125 193.586 124.708 190.671 124.708 187.609C124.636 182.872 123.178 178.499 120.7 174.781ZM123.324 170.845C123.761 170.773 124.125 170.773 124.49 170.773C124.708 170.773 124.854 170.845 125.073 170.918C125.656 171.137 126.385 171.356 127.259 170.918C128.061 170.481 128.571 169.752 128.499 169.023V168.95C128.426 168.222 127.915 167.784 127.478 167.347L126.166 166.108C126.02 165.962 125.802 165.743 125.583 165.598C124.927 165.233 124.271 165.233 123.761 165.233C123.469 165.233 123.251 165.233 123.032 165.16C122.741 165.087 122.376 164.723 121.939 164.213L118.222 146.574C118.294 145.044 118.44 143.44 118.659 141.91C118.732 141.254 118.878 140.525 119.023 139.869C119.169 138.776 119.388 137.682 119.534 136.516L135.569 192.42C133.236 193.294 130.831 194.096 128.499 194.825L123.324 170.845ZM120.773 135.35C121.793 135.058 122.886 134.694 123.907 134.329L143.805 188.921C141.545 190.015 139.286 191.035 137.026 191.91L120.773 135.35ZM125.292 133.819C126.312 133.455 127.332 133.017 128.353 132.58L151.531 184.694C149.344 186.006 147.23 187.172 145.117 188.265L125.292 133.819ZM56.7784 188.265C54.5918 187.172 52.4781 186.006 50.3644 184.694L73.5423 132.58C74.5627 133.017 75.5831 133.455 76.6035 133.819L56.7784 188.265ZM37.0991 42.4927L25.9475 37.9738C26.895 36.8805 27.8426 35.7872 28.7901 34.7668L38.484 39.5044C37.9738 40.4519 37.5364 41.4723 37.0991 42.4927ZM36.5889 43.8776C36.1516 44.898 35.7872 45.9184 35.4227 47.0117L22.2303 42.7114C23.105 41.5452 24.0525 40.379 24.9271 39.2128L36.5889 43.8776ZM34.9854 48.4694C34.621 49.4898 34.3294 50.5831 34.1108 51.6764L18.7318 47.8863C19.5335 46.5743 20.4082 45.3353 21.3557 44.0962L34.9854 48.4694ZM33.6735 53.0612C33.4548 54.1545 33.1633 55.1749 33.0175 56.2682L15.4519 53.207C16.2536 51.8222 17.0554 50.4373 17.8571 49.1254L33.6735 53.0612ZM32.7259 57.7988C32.5802 58.8921 32.3615 59.9854 32.2886 61.0787L12.3907 59.0379C13.1195 57.5802 13.8484 56.1225 14.5773 54.6647L32.7259 57.7988ZM32.1429 62.6093C32.07 63.7026 31.9971 64.7959 31.9242 65.8892L9.83965 65.0875C10.4227 63.484 11.0787 61.9534 11.8076 60.4227L32.1429 62.6093ZM31.8513 67.4198C31.8513 68.0029 31.8513 68.5131 31.8513 69.0962C31.8513 69.6793 31.8513 70.1895 31.8513 70.7726L7.50729 71.6472C8.01749 69.9708 8.60058 68.2945 9.18367 66.691L31.8513 67.4198ZM7.06997 73.105L31.9242 72.2303C31.9971 73.3236 32.07 74.4169 32.1429 75.5102L5.68513 78.2799C6.04956 76.6035 6.55977 74.8542 7.06997 73.105ZM5.3207 79.8834L32.2886 77.0408C32.4344 78.1341 32.5802 79.2274 32.7259 80.3207L4.30029 85.3499C4.59184 83.5277 4.88338 81.7055 5.3207 79.8834ZM4.08163 86.9534L33.0175 81.8513C33.2362 82.9446 33.4548 84.0379 33.7464 85.0583L3.49854 92.6385C3.57143 90.7434 3.79009 88.8484 4.08163 86.9534ZM3.27988 94.242L34.0379 86.5889C34.3294 87.6822 34.621 88.7026 34.9854 89.723L3.06123 100.073C3.06123 98.1049 3.13411 96.137 3.27988 94.242ZM3.06123 101.676L35.4227 91.1808C35.7872 92.2012 36.1516 93.2945 36.5889 94.3149L3.35277 107.726C3.13411 105.685 3.06123 103.717 3.06123 101.676ZM37.0991 95.6997C37.5364 96.7201 37.9738 97.7405 38.484 98.688L4.15452 115.452C3.86297 113.411 3.57143 111.37 3.42566 109.329L37.0991 95.6997ZM39.1399 100.073C39.6501 101.093 40.1604 102.041 40.6706 102.988L5.61225 123.251C5.10204 121.21 4.73761 119.096 4.37318 117.055L39.1399 100.073ZM41.4723 104.3C42.0554 105.248 42.6385 106.195 43.2216 107.07L7.79883 130.977C7.14286 128.936 6.55977 126.822 5.97668 124.781L41.4723 104.3ZM44.0962 108.382C44.7522 109.257 45.3353 110.204 46.0641 111.079L10.7143 138.703C9.83965 136.662 9.11079 134.621 8.38192 132.507L44.0962 108.382ZM46.9388 112.245C47.5948 113.12 48.3236 113.921 49.0525 114.796L14.2128 146.21C13.1924 144.242 12.172 142.201 11.2974 140.16L46.9388 112.245ZM50.0729 115.889C50.8018 116.691 51.6035 117.493 52.3324 118.294L18.3673 153.426C17.1283 151.531 15.9621 149.563 14.8688 147.522L50.0729 115.889ZM53.4985 119.315C54.3003 120.044 55.102 120.845 55.9767 121.501L23.3236 160.423C21.9388 158.601 20.5539 156.706 19.3149 154.738L53.4985 119.315ZM57.07 122.522C57.9446 123.251 58.8192 123.907 59.6939 124.563L28.7901 167.055C27.1866 165.306 25.656 163.557 24.1982 161.662L57.07 122.522ZM64.9417 10.0583L64.7959 9.83965C65.3061 9.62099 65.8163 9.47522 66.2536 9.25656C65.8892 9.5481 65.379 9.76676 64.9417 10.0583ZM63.7026 10.8601C62.7551 11.4431 61.8805 12.0991 60.9329 12.6822L60.277 11.7347C61.2974 11.2245 62.3907 10.7872 63.4111 10.3499L63.7026 10.8601ZM59.6939 13.6297C58.8192 14.2857 57.9446 14.9417 57.07 15.6706L55.6851 13.9942C56.7055 13.484 57.7988 12.9738 58.8192 12.4636L59.6939 13.6297ZM55.9767 16.6181C55.1749 17.3469 54.3003 18.0758 53.4985 18.8047L51.2391 16.4723C52.2595 15.8892 53.2799 15.3061 54.3732 14.723L55.9767 16.6181ZM52.4053 19.898C51.6035 20.6997 50.8746 21.4286 50.1458 22.3032L46.8659 19.3149C47.8863 18.6589 48.9067 18.0029 50 17.3469L52.4053 19.898ZM49.0525 23.3965C48.3236 24.1982 47.5948 25.0729 46.9388 25.9475L42.4198 22.3761C43.4402 21.6472 44.4606 20.8455 45.4811 20.1895L49.0525 23.3965ZM45.9913 27.1137C45.3353 27.9883 44.6793 28.863 44.0233 29.8105L38.0466 25.8018C39.0671 24.9271 40.0875 24.1254 41.1079 23.3236L45.9913 27.1137ZM43.2216 31.0496C42.6385 31.9971 42.0554 32.8717 41.4723 33.8192L33.965 29.4461C34.9125 28.4985 35.9329 27.6239 36.9534 26.7493L43.2216 31.0496ZM158.673 31.0496L164.942 26.8222C165.962 27.6968 166.91 28.5714 167.93 29.519L160.423 33.8921C159.84 32.9446 159.257 31.9971 158.673 31.0496ZM157.799 29.8105C157.143 28.9359 156.487 27.9883 155.831 27.1137L160.714 23.3236C161.735 24.1254 162.755 24.9271 163.776 25.8018L157.799 29.8105ZM154.956 25.9475C154.3 25.0729 153.571 24.2711 152.843 23.3965L156.414 20.1895C157.434 20.9184 158.455 21.6472 159.475 22.3761L154.956 25.9475ZM151.822 22.3032C151.093 21.5015 150.292 20.6997 149.563 19.898L152.041 17.2741C153.061 17.93 154.155 18.586 155.175 19.242L151.822 22.3032ZM148.397 18.8776C147.595 18.1487 146.793 17.3469 145.918 16.691L147.522 14.7959C148.542 15.379 149.636 15.9621 150.656 16.5452L148.397 18.8776ZM144.752 15.6706C143.878 14.9417 143.003 14.2857 142.128 13.6297L143.003 12.4636C144.023 12.9738 145.117 13.484 146.137 13.9942L144.752 15.6706ZM140.962 12.7551C140.087 12.0991 139.14 11.516 138.192 10.9329L138.484 10.4956C139.504 10.9329 140.598 11.3703 141.618 11.8805L140.962 12.7551ZM136.953 10.0583C136.516 9.76676 136.079 9.5481 135.641 9.25656C136.152 9.47522 136.662 9.62099 137.099 9.83965L136.953 10.0583ZM167.857 86.5889L198.615 94.242C198.761 96.2099 198.834 98.1049 198.834 100.073L166.983 89.723C167.274 88.7026 167.566 87.6093 167.857 86.5889ZM168.222 85.0583C168.44 83.965 168.732 82.8717 168.878 81.8513L197.813 86.9534C198.105 88.8484 198.324 90.7434 198.469 92.6385L168.222 85.0583ZM169.169 80.3207C169.315 79.2274 169.461 78.1341 169.606 77.0408L196.574 79.8834C196.939 81.7055 197.303 83.5277 197.595 85.3499L169.169 80.3207ZM169.752 75.5831C169.825 74.4898 169.898 73.3965 169.971 72.3032L194.825 73.1778C195.335 74.9271 195.773 76.6035 196.21 78.3528L169.752 75.5831ZM170.044 70.7726C170.044 70.1895 170.044 69.6793 170.044 69.0962C170.044 68.5131 170.044 68.0029 170.044 67.4198L192.638 66.6181C193.222 68.2216 193.805 69.898 194.315 71.5743L170.044 70.7726ZM170.044 65.8892C169.971 64.7959 169.898 63.7026 169.825 62.6093L190.16 60.4956C190.889 62.0262 191.545 63.5569 192.128 65.1604L170.044 65.8892ZM169.606 61.0787C169.461 59.9854 169.315 58.8921 169.169 57.7988L187.245 54.5918C188.047 56.0496 188.776 57.5073 189.431 58.965L169.606 61.0787ZM168.878 56.3411C168.659 55.2478 168.44 54.1545 168.222 53.1341L184.111 49.1983C184.985 50.5831 185.787 51.895 186.516 53.2799L168.878 56.3411ZM167.857 51.6035C167.566 50.5102 167.274 49.4898 166.983 48.4694L180.685 44.0233C181.56 45.2624 182.434 46.5015 183.236 47.8134L167.857 51.6035ZM166.472 47.0117C166.108 45.9913 165.743 44.898 165.306 43.8776L176.895 39.2128C177.843 40.379 178.717 41.5452 179.592 42.7114L166.472 47.0117ZM164.796 42.4927C164.359 41.4723 163.921 40.4519 163.411 39.5044L173.105 34.7668C174.052 35.8601 175 36.8805 175.948 37.9738L164.796 42.4927ZM157.872 108.382L193.586 132.507C192.857 134.621 192.128 136.662 191.254 138.703L155.904 111.079C156.56 110.204 157.216 109.257 157.872 108.382ZM158.673 107.143C159.257 106.195 159.84 105.321 160.423 104.373L195.845 124.854C195.335 126.968 194.752 129.009 194.096 131.05L158.673 107.143ZM161.224 102.988C161.735 102.041 162.318 101.02 162.755 100.073L197.449 116.983C197.085 119.096 196.72 121.137 196.21 123.178L161.224 102.988ZM163.411 98.688C163.848 97.6676 164.359 96.6472 164.723 95.6997L198.397 109.329C198.251 111.37 197.959 113.411 197.668 115.452L163.411 98.688ZM165.306 94.3149C165.743 93.2945 166.108 92.2741 166.472 91.1808L198.834 101.676C198.834 103.717 198.761 105.685 198.615 107.726L165.306 94.3149ZM172.012 33.6006L162.755 38.1195C162.245 37.0991 161.735 36.1516 161.224 35.2041L169.169 30.6122C169.752 31.1953 170.262 31.7055 170.845 32.2886C171.21 32.726 171.647 33.1633 172.012 33.6006ZM32.7988 30.6122L40.7434 35.2041C40.2332 36.1516 39.6502 37.0991 39.2128 38.1195L29.8834 33.6006C30.3207 33.1633 30.6851 32.726 31.1224 32.2886C31.6327 31.7055 32.2157 31.1953 32.7988 30.6122ZM29.8834 168.149L60.9329 125.437C61.8076 126.093 62.7551 126.676 63.7026 127.332L34.9854 173.178C33.2362 171.574 31.4869 169.898 29.8834 168.149ZM36.1516 174.198L65.0146 128.061C65.9621 128.644 66.9096 129.155 67.8571 129.738L41.7639 178.79C39.723 177.332 37.9009 175.802 36.1516 174.198ZM43.0029 179.738L69.1691 130.466C70.1166 130.977 71.137 131.487 72.1574 131.924L49.0525 183.819C47.0117 182.58 44.9708 181.195 43.0029 179.738ZM58.1633 188.921L78.0612 134.329C79.0088 134.694 79.9563 134.985 80.8309 135.204V135.35L81.9242 135.569C81.4869 136.516 81.1225 137.536 80.9038 138.63C80.5394 140.379 79.8105 142.055 79.0087 143.586C77.1137 147.449 73.9796 153.207 71.5015 155.394C70.8455 155.977 70.6997 157.07 71.2099 158.236C71.793 159.548 72.7405 160.35 73.6881 161.152L73.7609 161.224L64.9417 191.837C62.6822 191.035 60.4227 190.015 58.1633 188.921ZM66.3265 192.493L74.9271 162.464C75.9475 163.484 76.8951 164.431 77.6239 165.379C78.1341 165.962 78.7901 166.91 79.0816 167.857L77.9883 172.813C77.6239 173.178 77.3324 173.615 77.0408 174.052C74.1982 177.915 72.5219 182.58 72.5219 187.682C72.5219 188.192 72.5948 188.703 72.5948 189.14C72.5219 189.213 72.449 189.213 72.449 189.213L72.5948 189.65C72.7405 191.181 73.0321 192.638 73.3965 194.023L73.1778 194.898C70.9184 194.242 68.6589 193.513 66.4723 192.711L66.3265 192.493ZM91.9096 198.324C89.3586 198.105 86.7347 197.741 84.2566 197.303L83.0175 197.085C81.1224 196.72 79.2274 196.356 77.4053 195.845C77.0408 195.773 76.6764 195.7 76.2391 195.554C75.8746 194.752 75.5831 193.878 75.3644 193.076L75.7289 191.472V191.327H75C74.9271 190.962 74.9271 190.671 74.8542 190.306C75 190.233 75.1458 190.233 75.2187 190.16C77.0408 189.577 80.1749 188.776 84.2566 188.12V188.848V188.12C86.7347 187.755 89.5773 187.391 92.7114 187.245L93.4402 187.318V187.245C95.8455 187.172 98.3236 187.172 100.948 187.391C103.644 187.609 106.414 187.974 109.329 188.557C112.245 189.14 115.16 189.942 118.149 191.035C119.461 191.545 120.773 192.055 122.157 192.711C121.793 194.096 121.283 195.481 120.7 196.793C120.335 196.866 119.898 196.939 119.534 197.012L118.95 197.085C116.108 197.595 113.12 198.032 110.058 198.324C104.155 198.907 97.7405 198.907 91.9096 198.324ZM152.843 183.892L129.738 131.924C130.758 131.487 131.778 130.977 132.726 130.466L158.892 179.738C156.997 181.195 154.956 182.58 152.843 183.892ZM160.131 178.863L134.038 129.81C135.058 129.3 136.006 128.717 136.88 128.134L165.671 174.271C163.921 175.802 162.099 177.332 160.131 178.863ZM166.91 173.178L138.265 127.259C139.213 126.676 140.16 126.02 141.035 125.437L172.085 168.149C170.408 169.898 168.659 171.574 166.91 173.178ZM173.032 167.055L142.201 124.563C143.076 123.907 143.95 123.251 144.825 122.522L177.697 161.662C176.239 163.484 174.708 165.306 173.032 167.055ZM178.644 160.423L145.991 121.501C146.866 120.773 147.668 120.044 148.469 119.315L182.726 154.738C181.341 156.778 179.956 158.673 178.644 160.423ZM183.528 153.499L149.563 118.294C150.364 117.493 151.093 116.691 151.822 115.889L187.026 147.595C185.933 149.563 184.767 151.458 183.528 153.499ZM187.682 146.21L152.77 114.796C153.499 113.994 154.227 113.12 154.883 112.245L190.525 140.087C189.723 142.201 188.776 144.169 187.682 146.21Z" transform="translate(74.0525 44.1254)" fill="url(#paint3_linear)"/>
<path d="M-2.22431e-06 4.44863e-06V0.0728841L1.53061 4.44863e-06H-2.22431e-06Z" transform="translate(188.265 179.329)" fill="url(#paint4_linear)"/>
<path d="M-2.22431e-06 4.44863e-06V0.0728841L1.45772 4.44863e-06H-2.22431e-06Z" transform="translate(160.204 179.329)" fill="url(#paint5_linear)"/>
<path d="M26.6035 62.9738H34.4752V65.2332H0.874638V62.9738H9.76676V9.0379L0.655977 12.5364L-1.11216e-06 10.4227L22.5219 -4.44863e-06H26.5306V62.9738H26.6035Z" transform="translate(126.968 178.09)" fill="black"/>
<path d="M55.1749 33.6735C55.1749 43.8047 52.6968 51.8951 47.6676 58.0175C42.6385 64.14 35.9329 67.1283 27.4052 67.1283C18.9504 67.1283 12.2449 64.0671 7.36151 58.0175C2.47813 51.9679 4.44863e-06 43.4402 4.44863e-06 32.3615C4.44863e-06 23.2507 2.47813 15.5977 7.36151 9.32944C12.2449 3.06122 19.0233 4.44863e-06 27.7697 4.44863e-06C36.4431 4.44863e-06 43.2216 3.06123 48.0321 9.25656C52.7697 15.379 55.1749 23.5423 55.1749 33.6735ZM27.551 2.25947C20.3353 2.25947 16.691 12.3178 16.691 32.4344C16.691 43.2216 17.4927 51.312 19.0233 56.7784C20.6268 62.2449 23.4694 64.9417 27.6239 64.9417C31.7784 64.9417 34.621 62.2449 36.1516 56.8513C37.6093 51.4577 38.4111 43.2945 38.4111 32.4344C38.4111 12.2449 34.8396 2.25947 27.551 2.25947Z" transform="translate(169.242 177.507)" fill="black"/>
<path d="M26.6035 62.9738H34.4752V65.2332H0.874638V62.9738H9.76676V9.0379L0.655977 12.5364L-1.11216e-06 10.4227L22.5219 2.22431e-06H26.5306V62.9738H26.6035Z" transform="translate(126.968 175.466)" fill="url(#paint6_linear)"/>
<path d="M55.1749 33.6735C55.1749 43.8047 52.6968 51.8951 47.6676 58.0175C42.6385 64.1399 35.9329 67.1283 27.4052 67.1283C18.9504 67.1283 12.2449 64.0671 7.36151 58.0175C2.47813 51.9679 4.44863e-06 43.4402 4.44863e-06 32.3615C4.44863e-06 23.2507 2.47813 15.5977 7.36151 9.32945C12.2449 3.06123 19.0233 0 27.7697 0C36.4431 0 43.2216 3.06122 48.0321 9.25656C52.7697 15.4519 55.1749 23.5423 55.1749 33.6735ZM27.551 2.25948C20.3353 2.25948 16.691 12.3178 16.691 32.4344C16.691 43.2216 17.4927 51.312 19.0233 56.7784C20.6268 62.2449 23.4694 64.9417 27.6239 64.9417C31.7784 64.9417 34.621 62.2449 36.1516 56.8513C37.6093 51.4577 38.4111 43.2945 38.4111 32.4344C38.4111 12.3178 34.8396 2.25948 27.551 2.25948Z" transform="translate(169.242 174.883)" fill="url(#paint7_linear)"/>
</g>
<defs>
<filter id="filter0_d" x="0" y="0" width="350" height="350" filterUnits="userSpaceOnUse" color-interpolation-filters="sRGB">
<feFlood flood-opacity="0" result="BackgroundImageFix"/>
<feColorMatrix in="SourceAlpha" type="matrix" values="0 0 0 0 0 0 0 0 0 0 0 0 0 0 0 0 0 0 255 0"/>
<feOffset dy="30"/>
<feGaussianBlur stdDeviation="25"/>
<feColorMatrix type="matrix" values="0 0 0 0 0 0 0 0 0 0 0 0 0 0 0 0 0 0 0.25 0"/>
<feBlend mode="normal" in2="BackgroundImageFix" result="effect1_dropShadow"/>
<feBlend mode="normal" in="SourceGraphic" in2="effect1_dropShadow" result="shape"/>
</filter>
<linearGradient id="paint0_linear" x2="1" gradientUnits="userSpaceOnUse" gradientTransform="translate(243.93 -231.897) scale(703.496) rotate(39.1975)">
<stop stop-color="#FDF9EF"/>
<stop offset="0.5241" stop-color="#877D7A"/>
<stop offset="1" stop-color="#565049"/>
</linearGradient>
<linearGradient id="paint1_linear" x2="1" gradientUnits="userSpaceOnUse" gradientTransform="translate(67.9989 -27.2767) scale(131.922) rotate(46.2571)">
<stop stop-color="#FDE492"/>
<stop offset="0.5241" stop-color="#874225"/>
<stop offset="1" stop-color="#563813"/>
</linearGradient>
<linearGradient id="paint2_linear" x2="1" gradientUnits="userSpaceOnUse" gradientTransform="translate(-1.29497 -1.29497) scale(234.368)">
<stop stop-color="#FDFBE1"/>
<stop offset="0.5241" stop-color="#D5AB7E"/>
<stop offset="1" stop-color="#DFC070"/>
</linearGradient>
<linearGradient id="paint3_linear" x2="1" gradientUnits="userSpaceOnUse" gradientTransform="translate(233.816 -150.008) scale(530.287) rotate(48.846)">
<stop stop-color="#FDE492"/>
<stop offset="0.5241" stop-color="#874225"/>
<stop offset="1" stop-color="#563813"/>
</linearGradient>
<linearGradient id="paint4_linear" x2="1" gradientUnits="userSpaceOnUse" gradientTransform="translate(110.541 -277.292) scale(530.287) rotate(48.846)">
<stop stop-color="#FDE492"/>
<stop offset="0.5241" stop-color="#874225"/>
<stop offset="1" stop-color="#563813"/>
</linearGradient>
<linearGradient id="paint5_linear" x2="1" gradientUnits="userSpaceOnUse" gradientTransform="translate(122.662 -263.359) scale(530.287) rotate(48.846)">
<stop stop-color="#FDE492"/>
<stop offset="0.5241" stop-color="#874225"/>
<stop offset="1" stop-color="#563813"/>
</linearGradient>
<linearGradient id="paint6_linear" x2="1" gradientUnits="userSpaceOnUse" gradientTransform="translate(141.145 -2.01932) scale(250.068) rotate(88.6639)">
<stop stop-color="#FDE492"/>
<stop offset="0.5241" stop-color="#874225"/>
<stop offset="1" stop-color="#563813"/>
</linearGradient>
<linearGradient id="paint7_linear" x2="1" gradientUnits="userSpaceOnUse" gradientTransform="translate(151.809 -2.67092) scale(250.068) rotate(88.6639)">
<stop stop-color="#FDE492"/>
<stop offset="0.5241" stop-color="#874225"/>
<stop offset="1" stop-color="#563813"/>
</linearGradient>
</defs>
</svg>
