<svg width="379" height="243" viewBox="0 0 379 243" fill="none" xmlns="http://www.w3.org/2000/svg">
<path d="M24.1434 61.8815H1.36661V60.0641H5.92198V12.8125H1.36661V10.9951H24.1434C28.6381 10.9951 32.6772 11.7523 36.2607 13.2668C39.905 14.7207 42.8508 16.6592 45.0981 19.0824C49.6535 24.1105 51.9312 29.8049 51.9312 36.1657C51.9312 44.7679 49.6535 51.2196 45.0981 55.5207C40.5428 59.7612 33.5579 61.8815 24.1434 61.8815ZM19.5881 60.0641C26.1478 60.0641 30.8854 58.3074 33.8008 54.7938C36.7163 51.2196 38.174 45.4343 38.174 37.4379C38.174 29.3808 36.5948 23.2624 33.4364 19.0824C30.278 14.9024 25.6619 12.8125 19.5881 12.8125V60.0641Z" transform="translate(0.333313 0.0314331)" fill="url(#paint0_linear)"/>
<path d="M75.6405 60.0641H80.1958V61.8815H57.419V60.0641H61.9744V21.8993H58.3301V20.082H75.6405V60.0641ZM76.4604 8.0873C76.4604 10.2682 75.6708 12.1461 74.0916 13.7212C72.5732 15.2356 70.6903 15.9929 68.443 15.9929C66.2564 15.9929 64.3735 15.2356 62.7943 13.7212C61.2151 12.1461 60.4255 10.2682 60.4255 8.0873C60.4255 5.84588 61.2151 3.93764 62.7943 2.36259C64.3735 0.787529 66.2564 0 68.443 0C70.6903 0 72.5732 0.787529 74.0916 2.36259C75.6708 3.93764 76.4604 5.84588 76.4604 8.0873Z" transform="translate(0.333313 0.0314331)" fill="url(#paint1_linear)"/>
<path d="M97.7169 53.4307C97.7169 55.1269 98.8102 56.0962 100.997 56.3385H116.667C122.073 56.3385 125.839 57.4895 127.965 59.7915C130.09 62.0935 130.819 64.9408 130.151 68.3332C129.544 71.7256 127.479 74.8454 123.956 77.6926C120.433 80.5399 115.574 81.9635 109.379 81.9635C98.0206 81.9635 90.732 80.2975 87.5129 76.9657C86.2981 75.633 85.7818 74.0579 85.9641 72.2405C86.1463 70.4837 86.8144 69.0298 87.9684 67.8788C89.1225 66.7884 90.4283 66.0312 91.886 65.6071C89.9424 63.9715 88.9706 61.9421 88.9706 59.5189C88.9706 57.0958 89.6995 54.9452 91.1572 53.0673C92.6756 51.1287 94.4067 49.584 96.3503 48.433C89.3654 45.8886 85.873 41.3149 85.873 34.7118C85.873 29.8049 88.1203 26.0187 92.6149 23.3532C97.1703 20.6272 102.303 19.2641 108.012 19.2641C110.745 19.2641 113.478 19.6882 116.212 20.5363C114.815 18.6583 114.116 16.4169 114.116 13.812C114.116 11.2071 114.997 9.05657 116.758 7.36035C118.58 5.60356 120.828 4.72517 123.5 4.72517C126.234 4.72517 128.268 5.45211 129.604 6.90601C131.001 8.29933 131.7 9.87439 131.7 11.6312C131.7 13.388 131.153 14.8722 130.06 16.0837C129.027 17.2953 127.63 17.9011 125.869 17.9011C124.168 17.9011 122.802 17.3256 121.769 16.1746C120.737 15.0236 120.22 13.8726 120.22 12.7216C120.22 11.51 120.433 10.4802 120.858 9.63207C121.344 8.72339 121.587 8.20846 121.587 8.0873C121.405 7.11804 120.797 6.84543 119.765 7.26948C118.732 7.69354 117.821 8.57194 117.032 9.90467C116.303 11.1768 115.938 12.661 115.938 14.3572C115.938 17.6891 117.426 20.3546 120.403 22.3537C125.626 25.2615 128.238 29.29 128.238 34.4392C128.238 39.5884 126.082 43.4958 121.769 46.1613C117.457 48.7661 112.355 50.0686 106.463 50.0686C103.609 50.0686 101.088 49.7657 98.9013 49.1599C98.1117 50.4927 97.7169 51.9163 97.7169 53.4307ZM114.572 34.5301C114.572 29.3203 113.964 25.7764 112.75 23.8984C111.535 22.0205 109.713 21.0815 107.283 21.0815C104.914 21.0815 103.183 22.0508 102.09 23.9893C100.997 25.8673 100.45 29.3506 100.45 34.4392C100.45 39.5278 101.027 43.102 102.181 45.1617C103.335 47.2214 105.066 48.2512 107.374 48.2512C109.743 48.2512 111.535 47.2517 112.75 45.2526C113.964 43.2535 114.572 39.6793 114.572 34.5301ZM116.121 68.1514H100.815C97.8991 68.1514 95.4392 67.6365 93.4349 66.6067C92.5845 70.9684 93.6778 74.3002 96.7147 76.6022C99.8124 78.9648 104.034 80.1461 109.379 80.1461C114.724 80.1461 119.158 78.8134 122.68 76.1479C124.32 74.9363 125.231 73.7247 125.414 72.5131C125.596 71.3016 124.897 70.2717 123.318 69.4236C121.739 68.5755 119.34 68.1514 116.121 68.1514Z" transform="translate(0.333313 0.0314331)" fill="url(#paint2_linear)"/>
<path d="M155.181 60.0641H159.737V61.8815H136.96V60.0641H141.515V21.8993H137.871V20.082H155.181V60.0641ZM156.001 8.0873C156.001 10.2682 155.212 12.1461 153.633 13.7212C152.114 15.2356 150.231 15.9929 147.984 15.9929C145.797 15.9929 143.915 15.2356 142.335 13.7212C140.756 12.1461 139.967 10.2682 139.967 8.0873C139.967 5.84588 140.756 3.93764 142.335 2.36259C143.915 0.787529 145.797 0 147.984 0C150.231 0 152.114 0.787529 153.633 2.36259C155.212 3.93764 156.001 5.84588 156.001 8.0873Z" transform="translate(0.333313 0.0314331)" fill="url(#paint3_linear)"/>
<path d="M182.907 21.8993V44.0713C182.907 49.2811 183.119 52.4615 183.544 53.6125C183.969 54.7029 184.425 55.6419 184.911 56.4294C185.822 58.0044 187.401 58.792 189.648 58.792C191.957 58.792 193.566 58.4891 194.477 57.8833V59.7007C191.562 61.7604 188.373 62.7902 184.911 62.7902C179.809 62.7902 175.922 61.5786 173.249 59.1555C170.577 56.7323 169.24 52.4009 169.24 46.1613V21.8993H162.499V20.082H169.24C172.156 19.5973 174.737 18.204 176.985 15.902C179.232 13.5394 180.781 10.2984 181.631 6.17907H182.907V20.082H193.475V21.8993H182.907Z" transform="translate(0.333313 0.0314331)" fill="url(#paint4_linear)"/>
<path d="M243.25 60.0641C242.642 60.6699 241.488 61.2151 239.787 61.6998C238.087 62.1238 236.113 62.3359 233.865 62.3359C228.885 62.3359 225.757 60.8517 224.481 57.8833C221.445 61.0334 216.798 62.6085 210.542 62.6085C207.201 62.6085 204.438 61.8512 202.251 60.3367C200.125 58.7617 199.062 56.4597 199.062 53.4307C199.062 49.3719 200.642 46.2521 203.8 44.0713C206.958 41.8298 212.486 40.2548 220.382 39.3461L224.026 38.8918V34.4392C224.026 29.1688 223.631 25.6249 222.841 23.8076C222.052 21.9902 220.473 21.0815 218.104 21.0815C215.796 21.0815 214.308 21.4147 213.64 22.0811C212.972 22.6869 212.729 23.4138 212.911 24.2619C213.093 25.0494 213.397 26.1096 213.822 27.4423C214.247 28.7751 214.46 29.8352 214.46 30.6227C214.46 32.5007 213.791 34.106 212.455 35.4388C211.18 36.7109 209.601 37.347 207.718 37.347C205.896 37.347 204.316 36.7109 202.98 35.4388C201.644 34.106 200.976 32.5007 200.976 30.6227C200.976 27.5332 202.555 24.898 205.713 22.7171C208.932 20.4757 213.7 19.355 220.017 19.355C226.395 19.355 230.92 20.5969 233.592 23.0806C236.325 25.5644 237.692 29.9563 237.692 36.2566V52.6129C237.692 55.8236 238.087 57.853 238.876 58.7011C239.666 59.4886 241.124 59.6401 243.25 59.1555V60.0641ZM211.726 51.6134C212.03 53.9154 212.88 55.7024 214.277 56.9746C215.674 58.1862 217.284 58.792 219.106 58.792C220.989 58.792 222.629 57.8833 224.026 56.0659V40.6183L220.746 41.0726C217.952 41.4361 215.674 42.4962 213.913 44.253C212.212 46.0098 211.483 48.4632 211.726 51.6134Z" transform="translate(0.333313 0.0314331)" fill="url(#paint5_linear)"/>
<path d="M266.93 60.0641H271.486V61.8815H248.709V60.0641H253.264V2.81693H248.709V0.999551H266.93V60.0641Z" transform="translate(0.333313 0.0314331)" fill="url(#paint6_linear)"/>
<path d="M45.5537 122.127H43.7315C43.7315 117.281 42.1827 112.798 39.0851 108.679C35.9874 104.559 31.5535 102.5 25.7834 102.5C22.5643 102.5 19.8918 104.378 17.7659 108.134C15.7008 111.89 14.6683 118.311 14.6683 127.398C14.6683 136.485 15.7008 142.906 17.7659 146.662C19.8918 150.418 23.1716 152.296 27.6055 152.296C32.1002 152.296 35.8659 150.902 38.9028 148.116C42.0005 145.329 43.9137 141.392 44.6426 136.303H46.4648C45.6144 142.3 43.4886 146.783 40.0872 149.751C36.7466 152.659 32.7379 154.113 28.0611 154.113C19.0111 154.113 12.0565 151.963 7.19748 147.661C2.39916 143.3 0 136.515 0 127.307C0 118.038 2.33842 111.284 7.01527 107.043C11.7528 102.803 18.0089 100.682 25.7834 100.682C29.9743 100.682 34.0438 101.803 37.9918 104.045C39.2673 104.832 40.2998 105.226 41.0894 105.226C41.9398 105.226 42.6079 104.862 43.0938 104.135C43.5797 103.348 43.8226 102.591 43.8226 101.864H45.5537V122.127Z" transform="translate(0.333313 0.0314331)" fill="url(#paint7_linear)"/>
<path d="M67.3803 147.298C68.7165 150.327 71.0246 151.841 74.3045 151.841C77.5843 151.841 79.9227 150.297 81.3197 147.207C82.7167 144.118 83.4152 139.029 83.4152 131.941C83.4152 124.793 82.7167 119.674 81.3197 116.584C79.9227 113.434 77.5843 111.859 74.3045 111.859C71.0246 111.859 68.7165 113.434 67.3803 116.584C66.0441 119.674 65.3759 124.793 65.3759 131.941C65.3759 139.09 66.0441 144.208 67.3803 147.298ZM74.1222 153.659C68.3521 153.659 63.1286 151.781 58.4518 148.025C53.7749 144.269 51.4365 138.938 51.4365 132.032C51.4365 128.337 52.1046 125.035 53.4409 122.127C54.8378 119.22 56.66 116.918 58.9073 115.221C61.2154 113.525 63.6753 112.253 66.287 111.405C68.8988 110.496 71.5712 110.042 74.3045 110.042C77.0377 110.042 79.7102 110.496 82.3219 111.405C84.9944 112.253 87.4543 113.525 89.7016 115.221C92.0097 116.918 93.8622 119.22 95.2591 122.127C96.6561 125.035 97.3546 128.306 97.3546 131.941C97.3546 135.576 96.6561 138.817 95.2591 141.664C93.8622 144.511 92.0097 146.783 89.7016 148.479C85.0855 151.932 79.8924 153.659 74.1222 153.659Z" transform="translate(0.333313 0.0314331)" fill="url(#paint8_linear)"/>
<path d="M121.995 150.933H126.55V152.75H103.773V150.933H108.329V93.6855H103.773V91.8682H121.995V150.933Z" transform="translate(0.333313 0.0314331)" fill="url(#paint9_linear)"/>
<path d="M151.178 150.933H155.733V152.75H132.956V150.933H137.512V93.6855H132.956V91.8682H151.178V150.933Z" transform="translate(0.333313 0.0314331)" fill="url(#paint10_linear)"/>
<path d="M202.409 134.576H174.894C175.501 145.238 179.662 150.569 187.376 150.569C189.441 150.569 191.779 150.085 194.391 149.115C197.064 148.146 199.007 146.783 200.222 145.026L201.497 145.935C200.161 148.176 197.884 150.024 194.664 151.478C191.445 152.932 188.226 153.659 185.007 153.659C181.849 153.659 178.994 153.356 176.443 152.75C173.892 152.084 171.402 150.993 168.972 149.479C166.543 147.964 164.629 145.693 163.232 142.664C161.896 139.635 161.228 135.97 161.228 131.669C161.228 124.339 163.263 118.917 167.332 115.403C171.402 111.829 176.321 110.042 182.092 110.042C187.922 110.042 192.751 111.98 196.578 115.857C200.465 119.735 202.409 125.974 202.409 134.576ZM174.803 132.759H189.653C189.653 127.186 189.046 122.309 187.831 118.129C186.677 113.949 184.794 111.859 182.183 111.859C179.571 111.859 177.688 113.889 176.534 117.947C175.38 121.946 174.803 126.55 174.803 131.759V132.759Z" transform="translate(0.333313 0.0314331)" fill="url(#paint11_linear)"/>
<path d="M208.116 131.85C208.116 124.702 210.212 119.28 214.403 115.585C218.594 111.89 223.908 110.042 230.346 110.042C236.845 110.042 241.674 111.677 244.833 114.949C247.991 118.159 249.115 121.491 248.203 124.944C247.718 126.822 246.685 128.216 245.106 129.124C243.587 129.972 241.917 130.184 240.095 129.76C236.268 128.852 234.355 126.641 234.355 123.127C234.355 122.218 234.446 120.855 234.628 119.038C234.871 117.16 234.963 115.797 234.902 114.949C234.841 114.101 234.659 113.434 234.355 112.95C233.748 111.92 232.32 111.526 230.073 111.768C224.607 112.616 221.873 119.31 221.873 131.85C221.873 144.33 226.338 150.569 235.266 150.569C237.331 150.569 239.427 150.024 241.553 148.934C243.678 147.843 245.258 146.541 246.29 145.026L247.566 145.935C246.169 148.237 244.073 150.085 241.279 151.478C238.485 152.871 235.357 153.568 231.895 153.568C216.043 153.568 208.116 146.329 208.116 131.85Z" transform="translate(0.333313 0.0314331)" fill="url(#paint12_linear)"/>
<path d="M271.612 112.768V134.94C271.612 140.15 271.824 143.33 272.249 144.481C272.675 145.571 273.13 146.51 273.616 147.298C274.527 148.873 276.106 149.661 278.354 149.661C280.662 149.661 282.271 149.358 283.182 148.752V150.569C280.267 152.629 277.078 153.659 273.616 153.659C268.514 153.659 264.627 152.447 261.954 150.024C259.282 147.601 257.946 143.269 257.946 137.03V112.768H251.204V110.951H257.946C260.861 110.466 263.442 109.073 265.69 106.771C267.937 104.408 269.486 101.167 270.336 97.0477H271.612V110.951H282.18V112.768H271.612Z" transform="translate(0.333313 0.0314331)" fill="url(#paint13_linear)"/>
<path d="M302.8 147.298C304.137 150.327 306.445 151.841 309.724 151.841C313.004 151.841 315.343 150.297 316.74 147.207C318.137 144.118 318.835 139.029 318.835 131.941C318.835 124.793 318.137 119.674 316.74 116.584C315.343 113.434 313.004 111.859 309.724 111.859C306.445 111.859 304.137 113.434 302.8 116.584C301.464 119.674 300.796 124.793 300.796 131.941C300.796 139.09 301.464 144.208 302.8 147.298ZM309.542 153.659C303.772 153.659 298.549 151.781 293.872 148.025C289.195 144.269 286.856 138.938 286.856 132.032C286.856 128.337 287.525 125.035 288.861 122.127C290.258 119.22 292.08 116.918 294.327 115.221C296.635 113.525 299.095 112.253 301.707 111.405C304.319 110.496 306.991 110.042 309.724 110.042C312.458 110.042 315.13 110.496 317.742 111.405C320.414 112.253 322.874 113.525 325.122 115.221C327.43 116.918 329.282 119.22 330.679 122.127C332.076 125.035 332.775 128.306 332.775 131.941C332.775 135.576 332.076 138.817 330.679 141.664C329.282 144.511 327.43 146.783 325.122 148.479C320.505 151.932 315.312 153.659 309.542 153.659Z" transform="translate(0.333313 0.0314331)" fill="url(#paint14_linear)"/>
<path d="M361.97 152.75H339.193V150.933H343.749V112.768H339.193V110.951H357.415V121.764C357.962 118.796 358.933 116.372 360.33 114.494C361.788 112.616 363.367 111.375 365.068 110.769C366.829 110.163 368.5 109.86 370.079 109.86C371.719 109.86 373.268 110.163 374.725 110.769C376.244 111.314 377.367 112.465 378.096 114.222C378.825 115.918 378.855 117.645 378.187 119.401C377.519 121.098 376.335 122.309 374.634 123.036C372.994 123.763 371.476 123.854 370.079 123.309C368.682 122.763 367.68 122.037 367.072 121.128C366.465 120.159 366.04 119.25 365.797 118.402C365.189 116.16 364.369 115.04 363.337 115.04C362.183 115.04 360.907 117.039 359.51 121.037C358.113 124.975 357.415 129.155 357.415 133.577V150.933H361.97V152.75Z" transform="translate(0.333313 0.0314331)" fill="url(#paint15_linear)"/>
<path d="M45.5537 210.724H43.7315C43.7315 205.878 42.1827 201.395 39.0851 197.276C35.9874 193.156 31.5535 191.097 25.7834 191.097C22.5643 191.097 19.8918 192.975 17.7659 196.73C15.7008 200.486 14.6683 206.908 14.6683 215.995C14.6683 225.081 15.7008 231.503 17.7659 235.259C19.8918 239.015 23.1716 240.893 27.6055 240.893C32.1002 240.893 35.8659 239.499 38.9028 236.713C42.0005 233.926 43.9137 229.988 44.6426 224.9H46.4648C45.6144 230.897 43.4886 235.38 40.0872 238.348C36.7466 241.256 32.7379 242.71 28.0611 242.71C19.0111 242.71 12.0565 240.559 7.19748 236.258C2.39916 231.897 0 225.112 0 215.904C0 206.635 2.33842 199.881 7.01527 195.64C11.7528 191.4 18.0089 189.279 25.7834 189.279C29.9743 189.279 34.0438 190.4 37.9918 192.641C39.2673 193.429 40.2998 193.823 41.0894 193.823C41.9398 193.823 42.6079 193.459 43.0938 192.732C43.5797 191.945 43.8226 191.188 43.8226 190.461H45.5537V210.724Z" transform="translate(0.333313 0.0314331)" fill="url(#paint16_linear)"/>
<path d="M67.3803 235.895C68.7165 238.924 71.0246 240.438 74.3045 240.438C77.5843 240.438 79.9227 238.894 81.3197 235.804C82.7167 232.714 83.4152 227.626 83.4152 220.538C83.4152 213.39 82.7167 208.271 81.3197 205.181C79.9227 202.031 77.5843 200.456 74.3045 200.456C71.0246 200.456 68.7165 202.031 67.3803 205.181C66.0441 208.271 65.3759 213.39 65.3759 220.538C65.3759 227.686 66.0441 232.805 67.3803 235.895ZM74.1222 242.256C68.3521 242.256 63.1286 240.378 58.4518 236.622C53.7749 232.866 51.4365 227.535 51.4365 220.629C51.4365 216.934 52.1046 213.632 53.4409 210.724C54.8378 207.816 56.66 205.514 58.9073 203.818C61.2154 202.122 63.6753 200.85 66.287 200.002C68.8988 199.093 71.5712 198.639 74.3045 198.639C77.0377 198.639 79.7102 199.093 82.3219 200.002C84.9944 200.85 87.4543 202.122 89.7016 203.818C92.0097 205.514 93.8622 207.816 95.2591 210.724C96.6561 213.632 97.3546 216.903 97.3546 220.538C97.3546 224.173 96.6561 227.414 95.2591 230.261C93.8622 233.108 92.0097 235.38 89.7016 237.076C85.0855 240.529 79.8924 242.256 74.1222 242.256Z" transform="translate(0.333313 0.0314331)" fill="url(#paint17_linear)"/>
<path d="M121.995 239.53H126.55V241.347H103.773V239.53H108.329V201.365H104.684V199.547H121.995V239.53ZM122.815 187.553C122.815 189.734 122.025 191.612 120.446 193.187C118.928 194.701 117.045 195.458 114.797 195.458C112.611 195.458 110.728 194.701 109.149 193.187C107.57 191.612 106.78 189.734 106.78 187.553C106.78 185.311 107.57 183.403 109.149 181.828C110.728 180.253 112.611 179.465 114.797 179.465C117.045 179.465 118.928 180.253 120.446 181.828C122.025 183.403 122.815 185.311 122.815 187.553Z" transform="translate(0.333313 0.0314331)" fill="url(#paint18_linear)"/>
<path d="M180.788 239.53H185.343V241.347H162.566V239.53H167.121V214.086C167.121 209.785 166.484 206.726 165.208 204.909C163.933 203.091 162.019 202.183 159.468 202.183C156.006 202.183 153.243 204 151.178 207.635V239.53H155.733V241.347H132.956V239.53H137.512V201.365H132.956V199.547H151.178V204.273C152.332 202.698 154.124 201.365 156.553 200.274C159.043 199.123 161.716 198.548 164.57 198.548C175.382 198.548 180.788 204.394 180.788 216.086V239.53Z" transform="translate(0.333313 0.0314331)" fill="url(#paint19_linear)"/>
<defs>
<linearGradient id="paint0_linear" x2="1" gradientUnits="userSpaceOnUse" gradientTransform="matrix(274.461 237.394 -323.556 372.118 202.776 -182.106)">
<stop stop-color="#FDE492"/>
<stop offset="0.281768" stop-color="#CB9F63"/>
<stop offset="1" stop-color="#A56B40"/>
</linearGradient>
<linearGradient id="paint1_linear" x2="1" gradientUnits="userSpaceOnUse" gradientTransform="matrix(274.461 237.394 -323.556 372.118 202.776 -182.106)">
<stop stop-color="#FDE492"/>
<stop offset="0.281768" stop-color="#CB9F63"/>
<stop offset="1" stop-color="#A56B40"/>
</linearGradient>
<linearGradient id="paint2_linear" x2="1" gradientUnits="userSpaceOnUse" gradientTransform="matrix(274.461 237.394 -323.556 372.118 202.776 -182.106)">
<stop stop-color="#FDE492"/>
<stop offset="0.281768" stop-color="#CB9F63"/>
<stop offset="1" stop-color="#A56B40"/>
</linearGradient>
<linearGradient id="paint3_linear" x2="1" gradientUnits="userSpaceOnUse" gradientTransform="matrix(274.461 237.394 -323.556 372.118 202.776 -182.106)">
<stop stop-color="#FDE492"/>
<stop offset="0.281768" stop-color="#CB9F63"/>
<stop offset="1" stop-color="#A56B40"/>
</linearGradient>
<linearGradient id="paint4_linear" x2="1" gradientUnits="userSpaceOnUse" gradientTransform="matrix(274.461 237.394 -323.556 372.118 202.776 -182.106)">
<stop stop-color="#FDE492"/>
<stop offset="0.281768" stop-color="#CB9F63"/>
<stop offset="1" stop-color="#A56B40"/>
</linearGradient>
<linearGradient id="paint5_linear" x2="1" gradientUnits="userSpaceOnUse" gradientTransform="matrix(274.461 237.394 -323.556 372.118 202.776 -182.106)">
<stop stop-color="#FDE492"/>
<stop offset="0.281768" stop-color="#CB9F63"/>
<stop offset="1" stop-color="#A56B40"/>
</linearGradient>
<linearGradient id="paint6_linear" x2="1" gradientUnits="userSpaceOnUse" gradientTransform="matrix(274.461 237.394 -323.556 372.118 202.776 -182.106)">
<stop stop-color="#FDE492"/>
<stop offset="0.281768" stop-color="#CB9F63"/>
<stop offset="1" stop-color="#A56B40"/>
</linearGradient>
<linearGradient id="paint7_linear" x2="1" gradientUnits="userSpaceOnUse" gradientTransform="matrix(274.461 237.394 -323.556 372.118 202.776 -182.106)">
<stop stop-color="#FDE492"/>
<stop offset="0.281768" stop-color="#CB9F63"/>
<stop offset="1" stop-color="#A56B40"/>
</linearGradient>
<linearGradient id="paint8_linear" x2="1" gradientUnits="userSpaceOnUse" gradientTransform="matrix(274.461 237.394 -323.556 372.118 202.776 -182.106)">
<stop stop-color="#FDE492"/>
<stop offset="0.281768" stop-color="#CB9F63"/>
<stop offset="1" stop-color="#A56B40"/>
</linearGradient>
<linearGradient id="paint9_linear" x2="1" gradientUnits="userSpaceOnUse" gradientTransform="matrix(274.461 237.394 -323.556 372.118 202.776 -182.106)">
<stop stop-color="#FDE492"/>
<stop offset="0.281768" stop-color="#CB9F63"/>
<stop offset="1" stop-color="#A56B40"/>
</linearGradient>
<linearGradient id="paint10_linear" x2="1" gradientUnits="userSpaceOnUse" gradientTransform="matrix(274.461 237.394 -323.556 372.118 202.776 -182.106)">
<stop stop-color="#FDE492"/>
<stop offset="0.281768" stop-color="#CB9F63"/>
<stop offset="1" stop-color="#A56B40"/>
</linearGradient>
<linearGradient id="paint11_linear" x2="1" gradientUnits="userSpaceOnUse" gradientTransform="matrix(274.461 237.394 -323.556 372.118 202.776 -182.106)">
<stop stop-color="#FDE492"/>
<stop offset="0.281768" stop-color="#CB9F63"/>
<stop offset="1" stop-color="#A56B40"/>
</linearGradient>
<linearGradient id="paint12_linear" x2="1" gradientUnits="userSpaceOnUse" gradientTransform="matrix(274.461 237.394 -323.556 372.118 202.776 -182.106)">
<stop stop-color="#FDE492"/>
<stop offset="0.281768" stop-color="#CB9F63"/>
<stop offset="1" stop-color="#A56B40"/>
</linearGradient>
<linearGradient id="paint13_linear" x2="1" gradientUnits="userSpaceOnUse" gradientTransform="matrix(274.461 237.394 -323.556 372.118 202.776 -182.106)">
<stop stop-color="#FDE492"/>
<stop offset="0.281768" stop-color="#CB9F63"/>
<stop offset="1" stop-color="#A56B40"/>
</linearGradient>
<linearGradient id="paint14_linear" x2="1" gradientUnits="userSpaceOnUse" gradientTransform="matrix(274.461 237.394 -323.556 372.118 202.776 -182.106)">
<stop stop-color="#FDE492"/>
<stop offset="0.281768" stop-color="#CB9F63"/>
<stop offset="1" stop-color="#A56B40"/>
</linearGradient>
<linearGradient id="paint15_linear" x2="1" gradientUnits="userSpaceOnUse" gradientTransform="matrix(274.461 237.394 -323.556 372.118 202.776 -182.106)">
<stop stop-color="#FDE492"/>
<stop offset="0.281768" stop-color="#CB9F63"/>
<stop offset="1" stop-color="#A56B40"/>
</linearGradient>
<linearGradient id="paint16_linear" x2="1" gradientUnits="userSpaceOnUse" gradientTransform="matrix(274.461 237.394 -323.556 372.118 202.776 -182.106)">
<stop stop-color="#FDE492"/>
<stop offset="0.281768" stop-color="#CB9F63"/>
<stop offset="1" stop-color="#A56B40"/>
</linearGradient>
<linearGradient id="paint17_linear" x2="1" gradientUnits="userSpaceOnUse" gradientTransform="matrix(274.461 237.394 -323.556 372.118 202.776 -182.106)">
<stop stop-color="#FDE492"/>
<stop offset="0.281768" stop-color="#CB9F63"/>
<stop offset="1" stop-color="#A56B40"/>
</linearGradient>
<linearGradient id="paint18_linear" x2="1" gradientUnits="userSpaceOnUse" gradientTransform="matrix(274.461 237.394 -323.556 372.118 202.776 -182.106)">
<stop stop-color="#FDE492"/>
<stop offset="0.281768" stop-color="#CB9F63"/>
<stop offset="1" stop-color="#A56B40"/>
</linearGradient>
<linearGradient id="paint19_linear" x2="1" gradientUnits="userSpaceOnUse" gradientTransform="matrix(274.461 237.394 -323.556 372.118 202.776 -182.106)">
<stop stop-color="#FDE492"/>
<stop offset="0.281768" stop-color="#CB9F63"/>
<stop offset="1" stop-color="#A56B40"/>
</linearGradient>
</defs>
</svg>
