<svg id="Layer_1" data-name="Layer 1" xmlns="http://www.w3.org/2000/svg" width="548.3" height="468.2" viewBox="0 0 548.3 468.2"><defs><style>.cls-1{fill:#fff;}</style></defs><title>AukstaitijaPlace</title><path class="cls-1" d="M148.52,468.2l-.51-.87c-3.38-5.82,2-15.41,5.25-19.67,6.1-7.89,14.46-18.7,9.76-29.56-5.09-11.79-20.19-12.11-31.22-12.34C97,405,63.4,387.41,46.18,360.85l-.59-.91.56-.92a27.08,27.08,0,0,0,2.57-6.82l.46-1.65c1.49-5.11,4.07-9.79,6.8-14.75,1.22-2.2,2.55-4.62,3.74-7A91.39,91.39,0,0,0,65.41,263c-1.21-4.08-3-8.62-7.07-11.32-3.12-2.06-6.5-2.38-9.77-2.7a23.26,23.26,0,0,1-5.32-.92c-4.13-1.47-7-5.88-9.83-10.64-7.34-12.4-15.66-26.45-17-41.5a22.42,22.42,0,0,1,.72-9.19c1-2.91,2.94-5.55,5-8.33l1.22-1.65A97.5,97.5,0,0,0,36.9,90,26.28,26.28,0,0,0,32,80.54c-3.55-4-8.54-5.79-12.93-7.35a47.94,47.94,0,0,1-6.48-2.65C1,64.36.16,55.24.11,41c0-2,0-4-.08-6l0-1,.88-.52a3.59,3.59,0,0,0,.74-.61l7.56-8.11a3.47,3.47,0,0,0,.93-2.41V20.92l15.43-3.68L28,17.8l25.2,10.75a3.61,3.61,0,0,0,1.11.27l5.49.37a3.32,3.32,0,0,0,2-.49l8.63-5.22,3.91-1,9.82.53a3.48,3.48,0,0,0,.8,0l2.81-.51-.11,2.19a3.4,3.4,0,0,0,.06.84l.19.95a3.47,3.47,0,0,0,2.85,2.77l4.71.76a3.5,3.5,0,0,0,1.37-.05l9.91-2.36,4,.16,17.44,5.53,13.65,10.72a3.29,3.29,0,0,0,.46.3l5.08,2.84a3.59,3.59,0,0,0,1,.37l4.52.94a3.4,3.4,0,0,0,1.31,0l4.17-.75a3.33,3.33,0,0,0,1-.33L177,38.12l3.05-.51L183.59,39l9.25,6.72a3.59,3.59,0,0,0,1.15.55l4.91,1.31a3.53,3.53,0,0,0,2.31-.18l5.08-2.26a3.13,3.13,0,0,0,.36-.19l8.67-5.1a3.19,3.19,0,0,0,.76-.61l2.84-3a3.88,3.88,0,0,0,.26-.31l12-16.25,5.13-4.14,18-8,2.84,1.12a3.58,3.58,0,0,0,1.81.2l1.32-.2A3.46,3.46,0,0,0,263,6.4L265.48,0,270,13l3.72,16.13c0,.1.05.2.08.3l1.71,5.12a2.58,2.58,0,0,0,.23.54l1.52,2.83a3.35,3.35,0,0,0,.51.72L282.71,44l1.08,2,2.46,8.1a3.84,3.84,0,0,0,.26.62l4.34,8.12a3.44,3.44,0,0,0,1,1.18l5.47,4a3.53,3.53,0,0,0,1.44.61l51.87,9.05a3.63,3.63,0,0,0,1.23,0L361,76l6.53,3.1a3.41,3.41,0,0,0,.76.26l2.63.57a4,4,0,0,0,1.05.06l8-.68L383,89a3.2,3.2,0,0,0,.17.43l1.33,2.83a3.44,3.44,0,0,0,.69,1l1.89,1.9a2.68,2.68,0,0,0,.48.4l8.46,5.94,15.43,17.45a3.63,3.63,0,0,0,.66.59L433.64,134l8.94,10.24a3.27,3.27,0,0,0,.33.32l14.53,12.7,3.43,5.32,3.39,7.73c.05.1.09.2.14.29l7.92,14.34a3.55,3.55,0,0,0,.95,1.09l9.43,7.16a4.74,4.74,0,0,0,.58.36L504,203.71a3,3,0,0,0,.64.24l8.48,2.25a3.6,3.6,0,0,0,.8.12l4.62.12.71,3.43.53,6.61-.39,6.56-1.24,4.83-2.51,4-3.36,4.08a4.28,4.28,0,0,0-.26.38l-3,4.9a3.34,3.34,0,0,0-.49,1.43l-.75,6.43a3.45,3.45,0,0,0,.34,1.95l2.53,5.06L505.89,261a3.25,3.25,0,0,0-.66.95l-1.32,2.84a3.05,3.05,0,0,0-.24.74l-2,9.47-4.43,8.43a3.73,3.73,0,0,0-.28.66l-1.5,4.92a3.48,3.48,0,0,0,0,1.92l.76,2.81a3.46,3.46,0,0,0,1.25,1.86l2.25,1.72a3.7,3.7,0,0,0,.87.48l8.89,3.39a3.74,3.74,0,0,0,1,.22l2.64.18a3.57,3.57,0,0,0,1.16-.11l8.29-2.25,23.28,4.05,1.84,1.43.67,2.32-.9,2.29L545.14,311l-9,2.46a3.43,3.43,0,0,0-.84.36L533,315.1a3.66,3.66,0,0,0-.69.54L528,320a3.13,3.13,0,0,0-.35.4l-2.46,3.41a3.1,3.1,0,0,0-.41.73l-1.14,2.85a3.43,3.43,0,0,0-.22.85l-.94,7.09-1.52,7-1.38,2.28-15.41-7a3.53,3.53,0,0,0-1.76-.29l-2.06.18a3.58,3.58,0,0,0-2.13,1l-1.33,1.31a4.2,4.2,0,0,0-.52.66l-.91,1.47-16.56-4.33a3.54,3.54,0,0,0-1.45-.06l-6.79,1.12a3.45,3.45,0,0,0-1.58.69l-.68.54-.84-.22c-14.2-3.74-31.07-7.13-48.43-3.88-7.67,1.44-13.48,4-17.77,7.8a46.05,46.05,0,0,0-6,6.88,52.66,52.66,0,0,1-4,4.9c-8.34,8.56-21.72,9.76-34.66,10.92-2,.18-3.92.35-5.83.55s-5.62.58-7.86,3.56-1.57,6.44-1.1,9l.16.93c1.23,7.37-2.3,14.29-10.18,20a58.23,58.23,0,0,1-22,9.31c-7.62,1.5-15.54,2.38-23.19,3.24-9.65,1.08-19.62,2.2-29.32,4.54-12.36,3-34.59,10.95-44.62,30.8-.88,1.75-1.68,3.6-2.46,5.39-2.31,5.36-4.49,10.41-8.77,12.69-3.07,1.63-7,1.65-10.81,1.68ZM49.67,359.83c16.77,25.13,48.91,41.76,82.2,42.46,12,.25,28.36.59,34.34,14.44,5.51,12.73-3.57,24.48-10.2,33-3.66,4.74-6.45,11.31-5.37,14.93l40.07-.24c3.39,0,6.89-.05,9.21-1.27,3.2-1.71,5.15-6.22,7.21-11,.76-1.75,1.62-3.74,2.55-5.58,10.66-21.09,34-29.49,46.9-32.61,9.91-2.39,20-3.52,29.75-4.62,7.59-.84,15.43-1.72,22.91-3.19a54.37,54.37,0,0,0,20.61-8.71c4.71-3.43,10.06-9.1,8.81-16.63l-.16-.9c-.52-2.8-1.39-7.52,1.74-11.69s8.15-4.7,10.28-4.92c1.93-.2,3.9-.38,5.88-.56,12.31-1.11,25-2.25,32.48-9.89a47.63,47.63,0,0,0,3.71-4.54,49.4,49.4,0,0,1,6.46-7.4c4.77-4.25,11.13-7.07,19.44-8.63,17.72-3.32,34.77,0,49.19,3.74a6.93,6.93,0,0,1,2.41-.88l6.8-1.12a7,7,0,0,1,2.89.13l14.13,3.69a7.7,7.7,0,0,1,.54-.6l1.34-1.31a7,7,0,0,1,4.24-2l2.07-.19a7.07,7.07,0,0,1,3.5.59L517.9,340l1.17-5.34.9-6.88a7.65,7.65,0,0,1,.44-1.69l1.15-2.84a6.39,6.39,0,0,1,.82-1.49l2.45-3.38a6.18,6.18,0,0,1,.7-.83l4.35-4.35a7,7,0,0,1,1.4-1.08l2.25-1.32a6.73,6.73,0,0,1,1.68-.71l8.39-2.29.93-.69.1-.25,0-.1-.26-.2-21.67-3.77-7.55,2a6.51,6.51,0,0,1-2.34.22l-2.6-.18a6.52,6.52,0,0,1-2-.44L499.3,301a7.27,7.27,0,0,1-1.72-1l-2.27-1.72a7,7,0,0,1-2.5-3.73l-.76-2.81a7,7,0,0,1,.07-3.83l1.5-4.92a7.32,7.32,0,0,1,.54-1.29l4.2-8,1.9-9a7.25,7.25,0,0,1,.5-1.49l1.32-2.83a6.7,6.7,0,0,1,1.31-1.91l3-3.14L505,252.55a6.89,6.89,0,0,1-.68-3.9l.74-6.43a6.85,6.85,0,0,1,1-2.86l3-4.89a7.79,7.79,0,0,1,.55-.77l3.29-4,2-3.23,1.06-4.14.32-5.81-.51-6.27-.08-.42-1.88-.05a6.66,6.66,0,0,1-1.61-.23l-8.48-2.25a6.92,6.92,0,0,1-1.27-.48l-20.76-10.19a6.72,6.72,0,0,1-1.13-.7l-9.44-7.16a6.93,6.93,0,0,1-1.89-2.18l-7.92-14.35c-.11-.19-.2-.39-.29-.58l-3.33-7.58-2.95-4.55-14.16-12.37a8.47,8.47,0,0,1-.67-.67l-8.64-9.88L410.2,122.41a6.92,6.92,0,0,1-1.33-1.16L393.58,104l-8-5.54a7.06,7.06,0,0,1-1-.81l-1.89-1.9a6.87,6.87,0,0,1-1.36-1.94L380.05,91a7.69,7.69,0,0,1-.35-.9L377.49,83l-5.28.44a6.93,6.93,0,0,1-2-.13l-2.63-.56a7.46,7.46,0,0,1-1.53-.52l-5.51-2.62-8,1.47a7,7,0,0,1-2.45,0L298.19,72a7.08,7.08,0,0,1-2.87-1.21l-5.48-4a7,7,0,0,1-2.06-2.36l-4.33-8.11a7,7,0,0,1-.52-1.24l-2.41-7.93-.73-1.26L275.24,41a7,7,0,0,1-1-1.44l-1.51-2.82a7.18,7.18,0,0,1-.48-1.1l-1.69-5.09a6.52,6.52,0,0,1-.18-.63l-3.7-16-1.5-4.3A6.94,6.94,0,0,1,260.84,12l-1.33.21a7,7,0,0,1-3.61-.41l-1.48-.58-16.27,7.26-4.43,3.58L222,38a7.75,7.75,0,0,1-.52.62l-2.84,3a6.89,6.89,0,0,1-1.54,1.23l-8.68,5.1a5,5,0,0,1-.69.36l-5.09,2.27a7,7,0,0,1-4.63.36l-4.9-1.31a7.1,7.1,0,0,1-2.29-1.09l-8.88-6.45-2.29-.88-1.56.26-17.14,8.92a7,7,0,0,1-2,.67l-4.14.75a6.91,6.91,0,0,1-2.64,0l-4.53-.94a7,7,0,0,1-2-.73l-5.09-2.84a7.22,7.22,0,0,1-.91-.61L126.51,36.32l-16.39-5.2-3-.11-9.45,2.24a6.85,6.85,0,0,1-2.71.1l-4.73-.76a7,7,0,0,1-5.71-5.53l-.11-.61H84l-9.29-.51-2.9.77-8.2,5a6.89,6.89,0,0,1-4.09,1l-5.46-.38a6.84,6.84,0,0,1-2.25-.53l-25-10.68-1.21-.27L13.45,23.69a6.89,6.89,0,0,1-1.73,3.38L4.17,35.19a7.41,7.41,0,0,1-.64.61c0,1.74.05,3.46.06,5.14.05,13.34.56,21.15,10.65,26.54a45.58,45.58,0,0,0,5.91,2.4c4.88,1.73,10.32,3.66,14.47,8.35a29.46,29.46,0,0,1,5.57,10.63,101,101,0,0,1-14,89.92L25,180.43c-1.93,2.58-3.73,5-4.54,7.39a19.16,19.16,0,0,0-.54,7.77c1.26,14.27,9.37,28,16.52,40,2.49,4.2,5,8.06,8,9.15a20.46,20.46,0,0,0,4.44.72c3.4.33,7.56.74,11.4,3.27,5,3.32,7.1,8.55,8.48,13.23a94.85,94.85,0,0,1-5.91,68.34c-1.22,2.46-2.57,4.92-3.77,7.09-2.67,4.84-5.16,9.36-6.54,14.08l-.44,1.59A34.08,34.08,0,0,1,49.67,359.83ZM38,357.17v-1.74l-1.48-.91.51-.83h1v1.74l1.48.91-.26.32L38,355.44Z"/><g id="D3E4F4.tif"><path class="cls-1" d="M129.28,164.75c.81-2,1.59-4,2.34-5.9.28-.74.28-1.75.79-2.21,2-1.82,2.8-4.2,3.72-6.63,1.79-4.7,5.26-7.22,9.65-6.5,6.56,1.08,11.59,6.65,7.71,14.22-1.15,2.25-1.34,5-1.8,7.58-.07.39.75,1.2,1.3,1.39a3.91,3.91,0,0,0,4.75-2.73,14.16,14.16,0,0,0,.56-8.8,60.52,60.52,0,0,1-1.61-6.83c-.83-4.78,1.48-8.09,6.2-8.81,1.57-.24,1.74-1.1,1.73-2.35,0-5.1,0-10.2,0-15.3,0-3.23,0-3.24,3.17-3.24q47.1,0,94.19,0h52.68c3.19,0,3.2,0,3.21,3.25,0,5,0,10,0,15.06,0,1.62.31,2.43,2.19,2.65,3.32.39,5.62,3.32,5.53,7.13-.05,2.14-.88,4.25-1.13,6.41a57.42,57.42,0,0,0-.61,8.87,4.7,4.7,0,0,0,4.74,4.82c1.38-.09,2.23-.63,1.78-2.14-.86-2.88-.57-5.94-2.36-8.75-2.08-3.27-.11-8.28,3.35-10.21,5.73-3.2,9.53-2.91,12.88,1.11A10.3,10.3,0,0,1,346,150c.88,2.52,1.68,5,3.87,6.83.54.45.36,1.68.75,2.43.88,1.71,1.9,3.34,2.86,5,1-1.45,2.45-2.78,2.94-4.39a8.58,8.58,0,0,0-.5-4.65c-.8-2.54-2.1-4.92-2.86-7.46-1.93-6.54,2.37-10.92,9-9.35,9.15,2.17,16.91,10.64,18.31,20.5A73.86,73.86,0,0,1,381,171c-.19,8.54,1.38,16.3,8.87,21.74-3.29,1.58-6.85.15-12.16-4.76,2.09,14.34,4.52,28.37,13.52,40.89-4.71.16-7.49-2.25-10.69-4.3l3.07,5.91c-3,0-5.51-.9-7.17-2.81-3.73-4.27-9.2-7-11.39-12.61a1.56,1.56,0,0,0-.59-.76c-4.78-2.53-6.35-7.08-7.52-11.89,0-.13-.16-.24-.14-.2l-2.71,3.34-1-.67c-.35-4.16-.71-8.33-1.11-13.08a6.35,6.35,0,0,0-1.71,5.17A75.85,75.85,0,0,1,350,210.4c-.62,5.47,1.62,9.74,4.57,13.89a3.76,3.76,0,0,0,1.21.75c3.52,2,7.2,3.68,10.5,5.94,3.85,2.63,8.19,2.09,12.36,2.77a14.69,14.69,0,0,1,5.18,1.69c2.31,1.39,2.17,3.26.36,5.24s-3.09,4-4.71,6-3.48,3.92-5.51,6.2a28.86,28.86,0,0,0,2.87,2.16c5.8,3.44,6,5.58,4.39,12.16-.33,1.32-1.42,2.47-2.65,1.72a47.08,47.08,0,0,1-6.43-5c-.6-.53-.59-1.7-1.11-2.38-1.23-1.63-1.48-4.47-4.31-4.25a17.62,17.62,0,0,0-6.07,1.38c-3.21,1.54-6.22,2.95-9.94,1.68-.71-.24-2,1.09-3,1.69.48.74.94,1.49,1.46,2.2.79,1.09,2.13,2.1,2.27,3.25.09.78-1.47,1.78-2.32,2.65-1.65,1.69-3.35,3.35-5,5.06s-3.12,3.37-4.68,5.06c10.15-1.89,19.2-6.94,28.4-12.09L360,278.66l17.42-2.49.24.82c-14.24,8.41-29.17,14.91-46.52,16a7.72,7.72,0,0,0,1.33.94q13.75,4.66,27.54,9.24c1.21.4,2,.78,2.05,2.23,0,3.47.2,6.95.14,10.43,0,.52-1,1.52-1.49,1.47-7.48-.71-14.93-1.6-22.4-2.36-6.35-.64-12.7-1.34-19.06-1.72q-22.87-1.33-45.78-2.37c-6.54-.29-13.1-.29-19.65-.28-14.07,0-28.15-.09-42.21.28s-28,.93-41.9,2c-15.21,1.14-30.37,2.91-45.55,4.49-1.64.17-2.27-.27-2.2-1.88.13-3.15.34-6.3.33-9.45,0-2,.92-2.59,2.74-2.85,7.36-1.05,20.76-5.94,26.34-9.35-7.71-1.88-15.86-3.55-23.81-5.88s-15.44-6.45-22.52-11l.13-.61L122,278.5l.23-.57-7.51-9.59.43-.63c8.92,5.09,17.74,10.42,28.2,12.18-4.27-.71-4.84-4.78-7.1-7.3a40.09,40.09,0,0,0-3.2-2.54c-.88-.8-2.26-1.76-2.25-2.64a4.85,4.85,0,0,1,2-3.13c2-1.54,2.23-2.33.23-3.82a1.83,1.83,0,0,0-1.48-.32c-3.62,1.47-6.81.31-9.91-1.49-5-2.91-8.43-2-10.63,3.21a15.09,15.09,0,0,1-4.69,5.89c-2.79,2.31-5,1.61-5.76-1.85-1.31-5.87-.37-7.94,4.82-11,1.06-.61,2-1.43,3.53-2.55-4.4-1.82-6-5.28-7.85-8.6a14.23,14.23,0,0,0-3-3.1c-1.82-1.7-2-3.67,0-5.13a10.6,10.6,0,0,1,4.4-1.76c2.38-.4,4.87-.17,7.23-.64a22.27,22.27,0,0,0,5.82-2.14c3.65-1.86,7.2-3.94,10.78-5.94a4.1,4.1,0,0,0,1.37-.93c2.8-4.05,5.14-8.24,4.4-13.48-.7-5-1.31-9.91-.08-14.93.27-1.1-.68-2.51-1.07-3.78l-.78.07c-.33,4.24-.66,8.49-1,13.54l-3.64-3.52c-.47,1.45-1,3-1.48,4.54a13.47,13.47,0,0,1-5.65,7.34c-.82.51-1.27,1.59-1.94,2.35q-2.85,3.22-5.73,6.4c-.64.71-1.41,1.3-2,2a14.93,14.93,0,0,1-10.22,5.95l3.15-5.93c-3.23,1.75-6,4.19-10.68,4.23,8.88-12.43,11.49-26.47,13.56-40.77-1.85,1.4-3.45,3.05-5.39,3.94s-4.24,1.06-6.38,1.54L92,192.53a19.74,19.74,0,0,0,2.1-1.41c4.72-4.05,6.74-9.35,7-15.42.2-5.33.15-10.67.5-16,.62-9.5,9.21-19.31,18.55-21.38,3-.67,5.91-.38,8,2.12,1.91,2.25,1.76,5,.86,7.59s-2.11,5.08-3,7.67A7.26,7.26,0,0,0,129.28,164.75Zm210.86,3.05-3.81-2.57c-.6,2.18,1.23,2.74,3.21,3.18,4.25.8,6.28-.66,6.06-4.43C345,167.11,342.56,167.41,340.14,167.8ZM336.69,147a11.7,11.7,0,0,1,7.86,4.75c-1-3.53-3.08-4.7-7.87-4.74l-1-1.07,5.3.37c-3.41-2.89-7.5-1.11-10.81,2.45l1,1.37a7.54,7.54,0,0,1,.63-.66,4.57,4.57,0,0,1,.73-.43l-2.34,6.17.55.22c.86-1.61,1.64-3.27,2.62-4.79a2.41,2.41,0,0,1,1.83-1.06c3.76.55,7.6,1.09,9.43,5.21.1.22.38.36.58.53-1.76-3.61-3.92-6.74-8.26-7.4C336.82,147.86,336.78,147.28,336.69,147ZM315.86,295.08c1.1.47,2.23.88,3.31,1.4,4.77,2.35,9.87,3.31,15.37,3.79-6.74-5.16-16-8.4-22.33-8l3.61,2.74c-1.1-.44-2.22-.86-3.3-1.34-3.09-1.37-6.17-2.78-9.25-4.17l-.34.75c5.78,3.12,11,7.49,17.88,8.6Zm-162.6,1.85,3.94-3.4-.17-.34-17.57,7.74.17.59c2.59-.74,5.2-1.42,7.75-2.26,2-.65,3.87-1.51,5.81-2.28l-4.54,3.28a39.67,39.67,0,0,0,22.68-8.3c-5.92.86-11.51,1.05-16.28,4.38A6.38,6.38,0,0,1,153.26,296.93Zm-5.46-82.46a10.41,10.41,0,0,0,2.64.89c2.16.1,6.53-4.68,6.19-6.86a2.38,2.38,0,0,0-2-1.05,17,17,0,0,0-3.68,2.71c-2.36,2.15-2.24,3,.36,4.88l-3.46-.61c.21-1.22,0-2.81.71-3.58,2.87-3.13,6-6,8.87-8.8-2.3-1.84-4.67-3.65-6.93-5.57-3.38-2.87-6.49-6.14-11.27-6.68-.78-.09-1.48-.86-2.21-1.32l.23-.3,5.61,1c-.09-1-.31-1.45-.67-1.68a56.28,56.28,0,0,0-5.55-3.38,12.39,12.39,0,0,1-6.72-7.11l6,5.16.34-.36L132.72,172l.77-.32c.9,1.93,1.73,3.9,2.72,5.78a25.76,25.76,0,0,0,3.06,5.09c2.7,3.11,5.65,6,8.49,9q1.91,2,3.79,4l.4-.23-1.1-5.18c-.44.06-.75.11-1,.13a5.91,5.91,0,0,1-.67,0c3.19-7,.91-13.87-.13-20.79a37.48,37.48,0,0,1,2.24,9c.69,6.7,6.44,12.47,13,12.68,0-1.92-.12-3.86,0-5.78.17-2.23-.66-3-2.91-2.9a10.8,10.8,0,0,1-8.39-3.61l7.85,2.72c-1.54-1.8-3-3.28-4.16-4.94-1.35-1.91-2.38-4-3.69-6a10.54,10.54,0,0,0-6-4.49c-1,3.28-2.84,4.43-6.23,3.8a7.24,7.24,0,0,1-6.06-5c-3.35.73-6.15,2-7,5.41-2.37,9.19,1.14,17.07,6.73,23.76,3.42,4.09,6.62,8.06,8.56,13C144.09,209.87,145.06,212.75,147.8,214.47Zm93.5-93.1q-35.56,0-71.11,0c-1.69,0-2.94,0-2.93,2.36q.09,40.17,0,80.33c0,1.49.37,2.49,2,2.76s3,1.27,2.71,2.85a4.81,4.81,0,0,1-2.46,3.12c-1.84.79-2.29,1.85-2.26,3.68a71.23,71.23,0,0,0,10.61,36.33,72.9,72.9,0,0,0,34.8,30.11,71.82,71.82,0,0,0,44.2,4.06c19-4.18,34.05-14.49,45.19-30.34,8.45-12,12.49-25.61,13.11-40.26.07-1.77-.31-2.72-2.17-3.4a5.08,5.08,0,0,1-2.86-3.11c-.32-1.59,1.09-2.72,2.84-3s2.2-1.42,2.2-3.14q-.07-39.68,0-79.36c0-2.33-.69-3-3-3C288.54,121.4,264.92,121.37,241.3,121.37Zm-83.46,88.27c.37,1.59.72,2.88,1,4.19.62,3.15,1.2,6.31,1.78,9.47.18.95.2,1.94.47,2.86a11,11,0,0,1-1,9.11,7.69,7.69,0,0,0-1.39,3,30.85,30.85,0,0,1-3.61,13,4.36,4.36,0,0,0-.36,1.63c-.55,5.62-3.1,8.71-8.59,10.42-3.47,1.08-4.47,2.54-3.11,5.89,1.58,3.92,3.66,7.65,5.6,11.41.19.37.91.58,1.42.66a40.5,40.5,0,0,0,16.12-.78c4.53-1.1,8.89-2.88,13.36-4.24.95-.29,2.66-.49,3,0,2.22,3.23,4.17,6.65,6.33,10.23L171,297.77C194.3,297.14,218,296,241.73,296s47.45,1.12,70.85,1.74c0,0-.33-.23-.72-.46-5.18-3.14-10.32-6.37-15.58-9.39-1.92-1.1-2-2.17-.89-3.84s2.08-3.28,3-5c2.29-4,2.36-4.09,6.49-2.19.22.1.43.22.66.31,8.44,3.37,17.11,5.29,26.27,4.14.53-.07,1.3-.14,1.53-.49,2.7-4,5.3-8.09,6.11-13,.45-2.71-.2-3.54-2.91-4.36-5.38-1.62-8.86-4.83-9.16-10.8a12.51,12.51,0,0,0-.89-2.74c-.94-3.07-1.85-6.16-2.8-9.23-.68-2.2-1.48-4.37-2.09-6.59-.47-1.76-1.27-3.66-1-5.35.88-5.73,2.17-11.38,3.27-17.07a11.82,11.82,0,0,0,0-2.16c-1.44,1-2.48,2-3.72,2.39-2,.6-2.33,1.76-2.36,3.6a76.34,76.34,0,0,1-32.29,61.63c-16.83,12-35.62,16.17-55.88,13.37a73.14,73.14,0,0,1-32.53-13.17,76.13,76.13,0,0,1-25.53-30.5,71.07,71.07,0,0,1-7-31.43,4,4,0,0,0-1.39-2.88A39,39,0,0,0,157.84,209.64Zm202.6,106c0-2.47.05-4.78,0-7.09-.1-3.73-.13-3.73-3.7-4.1-12.94-1.34-25.87-3-38.84-3.94-16.68-1.24-33.4-2.25-50.12-2.79-14.3-.47-28.63-.29-42.95-.12-11.31.14-22.62.45-33.91,1.12-14.12.85-28.22,2-42.31,3.29-7.65.69-15.25,1.81-22.86,2.82-.72.09-1.9.78-1.93,1.24-.17,3.11-.09,6.24-.09,9.57A1035.46,1035.46,0,0,1,360.44,315.63Zm-6.22-65a34.37,34.37,0,0,0-4.78-1.55c-5.3-.95-9-4.05-12.08-8.24-1.61-2.18-3.8-3.92-5.62-6a15.63,15.63,0,0,1-1.62-2.72,25.82,25.82,0,0,1,4.44,3.71c1.22,1.27,2.37,2.62,3.47,4,3.07,3.86,6.25,7.3,11.74,7.74a17.63,17.63,0,0,1,7,2.56c3.09,1.78,3,3.82.17,6-.87.67-1.67,1.44-2.49,2.17l.5.66a10,10,0,0,0,7.2-3.69c3.14-4.14,6-8.5,9.18-13.1-1.88.29-3.8.61-5.73.89-3.5.53-7,1.24-10.51,1.46-1.68.11-3.43-.69-5.15-1.09l.13-.87a19.88,19.88,0,0,0,15.33-1,57,57,0,0,1-6.22-2.22,43.09,43.09,0,0,0-18.8-4.92c-3,0-5-2-5.82-4.9-.87-3.24.28-6.05,1.9-8.75-.22,1.83-.76,3.6-1,5.41-.47,3.46,1.06,6,4,6.83a12.58,12.58,0,0,0,4.05.62c4.28-.29,8.11,1,11.88,2.8,4.08,2,8.23,3.69,12.91,3.86a14.87,14.87,0,0,1,6,1.77,3.46,3.46,0,0,1,.16,6.12c-2.27,1.31-4.64,2.43-7,3.63a11.78,11.78,0,0,1,2.91-2.94c.92-.65,2.17-.9,2.92-1.68.61-.61.69-1.75,1-2.65-.92.05-2.14-.25-2.7.23-3.33,2.8-5.05,6.67-6.61,10.71a6.77,6.77,0,0,0,2.53-1.46c1.31-1,2.51-2.42,4-3,4.5-1.65,6.43-4.67,6.41-9.43,0-2.07.92-4.14,1.42-6.19l-3.48-.19c-3.66-.17-7.4-.39-10.35-2.81a30.89,30.89,0,0,0-12.65-5.84c-5-1.24-9.31-6.88-9.45-12.17,4.8,8.77,5.68,9.76,9.16,10.25-2-4.32-4.08-8.59-5.9-13a27.51,27.51,0,0,1-1.52-6.32c-.1-.61.62-1.37,1.07-2a1.25,1.25,0,0,1,1,.31,13.15,13.15,0,0,1,.55,2.16l-.48.07-.74-1-.6.24q.88,2.84,1.75,5.67l.65-.13c.69-4.73,1.78-9.46-.09-15a45,45,0,0,0-3.44,4.52c-2.44,4.38-4.65,8.88-7.08,13.25-2.78,5-7.8,5.24-11.15.71a9.09,9.09,0,0,0-1.23-1.09c-.61,2.48-1.24,4.55-1.6,6.66s-.23,4.38-.68,6.5c-1.27,6-.21,8.35,5.26,11.38,1.91,1.06,3.69,2.36,5.54,3.55l-.39.61c-1.81-1-3.57-2-5.44-2.87s-2.64-.38-2.22,1.73a50.62,50.62,0,0,0,2.19,8.16c1.71,4.48,5.2,7,10,6.59,3.14-.25,6.21-1.47,9.29-2.34a17.52,17.52,0,0,0,2.68-1.24l.18.72c-6.37,4.37-13.05,6-20.67,1.44a13.79,13.79,0,0,0,.43,2.07c1.63,3.87,4.85,5.43,8.78,5.91s7.43-.05,9.91-3.56C350.37,255.91,352.2,253.39,354.22,250.58ZM139.46,213.9c-.52,1.44-1,2.81-1.49,4.16a14,14,0,0,1-10.38,9.18,34.24,34.24,0,0,0-9.8,4.5c-3,1.84-5.93,3.24-9.43,3.38-2.07.09-4.15.2-6.75.33,3,2,2.84,4.87,2.87,7.45,0,4,2,6.34,5.56,7.95,1.91.87,3.46,2.5,5.2,3.76.56.4,1.19.7,1.79,1l.42-.49c-1.9-3.68-3.44-7.61-6.81-10.31-.61-.48-1.78-.24-2.69-.34.32,1,.4,2.13,1,2.82s1.9.89,2.72,1.52c1.29,1,2.44,2.11,3.65,3.18l-.42.47a33.85,33.85,0,0,0-3-2.25c-1.11-.66-2.35-1.08-3.51-1.64-2.76-1.35-3.35-4.07-1-6a12.75,12.75,0,0,1,5-2.07c2.89-.7,6.09-.56,8.74-1.73,6.61-2.92,13.17-5.51,20.59-5.62,3.38-.05,5.11-2.5,4.94-6a51.5,51.5,0,0,0-1-6.21c2.29,3.25,2.75,6.95,1.4,9.93-1.5,3.3-4.53,3.52-7.53,3.91s-6.15.5-9,1.43c-4.66,1.52-9.14,3.61-13.62,5.43,4.88,2.05,9.95,3,15.33,1.08-1.24.85-2.58,1.7-3.85,1.61-4.07-.29-8.12-.93-12.18-1.42l-5.43-.66c2,2.66,3.6,4.67,5.07,6.77s2.48,4.18,4,6a9.2,9.2,0,0,0,7.61,3.52,5.42,5.42,0,0,0-1.8-2.19c-3.48-2.52-3.35-5.17.65-7,2.32-1,5-1.29,7.38-2.23s5.31-1.89,7.15-3.68c3.9-3.8,7.25-8.16,10.83-12.29a5.85,5.85,0,0,1-1.16,3.4c-1.77,2.07-3.95,3.81-5.6,6-3.3,4.34-7.18,7.57-12.75,8.5a23.11,23.11,0,0,0-4.29,1.57,62.13,62.13,0,0,1,4.72,6.38c3.28,5.88,9.6,6.1,14.6,3.94,2.89-1.25,5.15-3.25,5.49-6.84-7.78,3.85-17.82,2.74-20.64-2.36,6.52,3.29,13.2,6,19.56.68,4.11-3.45,4.65-8.69,4.85-14.48-1.95.82-3.3,1.28-4.54,2s-2.34,1.51-3.51,2.28a3.07,3.07,0,0,1,1.36-2c1.81-1.2,3.67-2.34,5.53-3.47,3.9-2.36,5.16-5.52,4-9.85-.31-1.15-.3-2.39-.5-3.58-.57-3.33-1.17-6.66-1.84-10.48-6,6.35-10.26,5.66-13.7-1.46-1.09-2.26-2-4.59-3.27-6.77-1.67-3-3.16-6.08-6.22-8.54-1.88,5.36-.47,10.16,0,15l.64.08,2-6.71-1.92,1.05-.47-.48,1.51-1.63c.5.57,1.2,1.07,1.44,1.73a3.45,3.45,0,0,1-.15,2.12c-1.5,4-3,8-4.65,11.94-.75,1.83-1.75,3.55-2.86,5.76a8.75,8.75,0,0,0,1.63-.44,6.85,6.85,0,0,0,2.18-1.49C135.29,220.09,137.3,217.05,139.46,213.9Zm-45,13a15.41,15.41,0,0,0,7.57-6.28c3.88-6.24,5.46-13.23,6.34-20.41.75-6.14,1.42-12.28,2.12-18.42l.61.1c-1.15,15.74-2.07,31.52-9.33,46.2a10.4,10.4,0,0,0,3-1.61,19,19,0,0,0,6.82-11.44A183.3,183.3,0,0,0,115,192.65c.44-6.06,1.5-12.41-1.78-18.21-.1-.18,0-.48,0-1.34,1.91,3.6,2.77,7.19,6.13,9.13,2.83-4.53-1.68-7.57-1.8-11.46,2.37,3.57,4.16,7.56,8.07,10.13.4-3.07.23-5.58-1.92-7.87-1.25-1.31-1.84-3.24-2.73-4.9l.6-.36,3.8,5.76a37.12,37.12,0,0,1,1.63-5.4,2,2,0,0,0-.36-2.69,9.74,9.74,0,0,1-2.06-11.17,54.5,54.5,0,0,0,2.86-7.7c1.18-4.72-1.55-7.43-6.29-6.55a22.59,22.59,0,0,0-17.84,19.34c-.55,5.29-.33,10.65-.56,16-.19,4.5-1.07,8.82-4,12.47-.91,1.15-1.85,2.26-3.07,3.74,3-.62,5.22-1.59,6.73-3.79,3.93-5.73,4.74-12.26,4.68-18.95,0-2.54-.5-5.08.85-7.5l.19,3.88.85.21,5.58-11,.29.05L113.64,160l5-5.93.66.62c-1.89,2.16-3.7,4.41-5.7,6.46-3.26,3.34-6.42,6.66-5.55,11.92a7.58,7.58,0,0,1-.22,2.4c-.74,4.45-1.7,8.87-2.2,13.34-1,9-2.47,17.93-5.84,26.39C98.26,219.18,96.28,223,94.44,227Zm262.33-46.17c4-3,5.83-7.14,8.25-10.8-.51,4.28-4.82,7.71-2.42,12.62,3.76-2.63,4.95-6.8,6.83-10.59a7.08,7.08,0,0,1-.39,2.54c-.7,2.22-2.05,4.42-2.06,6.64-.05,10.68.39,21.35,2.93,31.8,1.11,4.59,2.8,9,6.24,12.42a24,24,0,0,0,3.62,2.52l.58-.57c-7.92-15.53-8.3-32.46-9.44-49.26a8.4,8.4,0,0,1,.8,2.72c.69,6.27,1.22,12.55,2,18.8,1,7.31,2.25,14.59,6.36,20.94,1.68,2.6,3.65,5,7.59,6.14-.76-1.58-1.26-2.55-1.7-3.54-1.64-3.68-3.48-7.29-4.83-11.08C378,203.26,377,194,375.94,184.76c-.48-4.08-1.92-8.14-1.82-12.18.12-4.48-1.91-7.47-4.65-10.39-1.05-1.12-2.29-2.08-3.23-3.28-1.4-1.78-2.61-3.7-3.9-5.56l.5-.34,5.17,6.54.31-.29c-.36-1.71-.72-3.41-1.07-5.12l.62-.19c1.28,4.11,2.66,8.15,6.29,11.61v-4.65l.59,0a25,25,0,0,1,.39,3c.06,3.15-.22,6.33.1,9.45.52,5.24,1.33,10.45,4.77,14.78a9.07,9.07,0,0,0,6.44,3.42c-1.29-1.54-2.31-2.67-3.23-3.88-3.56-4.65-3.93-10.07-4-15.67-.05-5,.16-10.15-1-14.93-2.18-9.14-8.17-15-17.59-17-4.24-.87-6.92,1.67-6,5.91a34.67,34.67,0,0,0,2.7,7.48c2.16,4.54,1.28,8.44-1.88,12.1a2.45,2.45,0,0,0-.59,1.84c.51,2,1.23,4,1.93,6.23l4-6.57.7.38c-1.08,2-1.85,4.23-3.32,5.86C356.25,175.45,356.4,177.72,356.77,180.78ZM347.13,165c-.85,3.1-2.79,5.11-5.92,4.73-2.46-.29-5.78.28-6.21-3.78a14.82,14.82,0,0,0-7.67,7.6c-1.51,3-3.16,5.83-6.22,7.57l.31.54,7.67-3.12a9.45,9.45,0,0,1-8.07,3.9c-2.74-.14-3.47.94-3.15,3.35a8.27,8.27,0,0,1,0,1.22c0,4.58.41,4.94,4.55,2.91,4.53-2.22,8.14-5.2,8.36-10.91a43.16,43.16,0,0,1,1.42-7.37,10.2,10.2,0,0,1,.84-1.89c-.25,3.62-1,7-1.33,10.45s-1.28,7.11,2,10c-2.87.25-3,.42-3.24,5.54,1.95-2.12,3.73-4,5.41-5.92,4.49-5.19,10.28-9.45,12-16.66.13-.55.77-1,1.17-1.47l.46.33-4.06,10.83,6.08-5.07a3,3,0,0,1-.88,2.23c-2.14,1.65-4.38,3.17-6.59,4.73-1.7,1.19-3.41,2.36-5.12,3.54l.48,1,5.42-1.14a7.58,7.58,0,0,1-2.84,2c-2.21,1.08-4.64,1.86-6.58,3.29-3.75,2.76-7.23,5.89-10.5,8.6l11,11.57c1.11-2.28,2.19-4.84,3.57-7.23,2.1-3.61,4-7.48,6.7-10.56,5.58-6.29,9.23-13.1,8.82-21.73C354.75,168.56,352.84,166.2,347.13,165ZM184.89,283.66c-1.66-3.79-1.65-3.66-5-2.54A95.19,95.19,0,0,1,169,284.26a59.94,59.94,0,0,1-31.13-1.52c-4.65-1.5-9.18-3.39-13.92-5.16l1.67,2.77-6.43-.67C140.51,289.68,162.26,292.13,184.89,283.66Zm113.47-.56c11.8,8.69,50.58,6.71,65.87-3.54l-7.11.84,1.82-2.89c-2.65,1.14-5.06,2.26-7.53,3.25-16.2,6.52-32.44,6.36-48.69.19C299.62,279.77,299.37,279.86,298.36,283.1ZM318,180.24c3.33-.64,5.37-2.48,6.25-5,.31-.88-1.41-2.56-2.34-3.78-1.84-2.43-3.47-4.92-3.22-8.21a19.78,19.78,0,0,0,6.92,10l2.54-4.24c-5.76-3-7.66-7.46-6-13.61.53-2,1.14-3.88,1.56-5.85a7.2,7.2,0,0,0-1.64-6.8c-.76-.8-2.2-1-3.33-1.39a10,10,0,0,0-.83,2.77c-.06,11.16,0,22.33,0,33.49C317.89,178.37,318,179.15,318,180.24Zm-154,.24a24.15,24.15,0,0,0,.3-2.43c0-11.32,0-22.63-.1-34a10.53,10.53,0,0,0-.84-2.78c-1.14.43-2.89.56-3.28,1.35a18.56,18.56,0,0,0-1.72,6.3c-.13,1.45.56,3,1,4.46,2,6.36,1.81,12-5.18,15.65l2.83,4.94,6.71-10.53c-.16,3.31-1.94,6-4.1,8.55-2.46,2.87-2.3,4.35.8,6.58A30.43,30.43,0,0,0,164,180.48Zm-52.09,98.1-.29.59c1.57.81,3.12,1.65,4.71,2.41s3.23,1.47,4.86,2.18c17,7.46,34.56,9.76,52.78,5.81,3.69-.8,7.3-2.05,10.91-3.18.47-.14.77-.79,1.15-1.2-.56-.1-1.11-.23-1.67-.28a1.92,1.92,0,0,0-.68.22c-19.25,7.09-38.35,5.9-57.32-1.07C121.54,282.29,116.74,280.41,111.93,278.58ZM116.37,182c.12,12.83-.87,25.34-4.79,38.12A22.16,22.16,0,0,0,118,207.87c1-6.44,1.32-13,2-19.47C120.37,185.49,119.59,183.34,116.37,182Zm249.28.1c-3.26,1.24-3.9,3.47-3.6,6.34.31,3.05.35,6.13.49,9.19a43.18,43.18,0,0,0,3.65,16.2,54.49,54.49,0,0,0,3.66,5.94l.54-.31C366.68,207.31,365.67,194.82,365.65,182.1Zm-68.9,102.77c12.92,10.7,57.68,6.91,73.43-5.75a59.07,59.07,0,0,0-7.51,2.51c-20.89,9.18-42.11,11.35-63.87,3.27A6.37,6.37,0,0,0,296.75,284.87Zm-132.16-82c0-2.93,0-5.64,0-8.35a1.8,1.8,0,0,0-.83-1.31c-3.74-1.87-7.52-3.67-11.16-5.43C152,196.6,156.29,201.43,164.59,202.84Zm165-15.1c-3.53,1.72-7,3.37-10.43,5.1-.51.26-1.2.86-1.21,1.32-.12,2.86-.06,5.72-.06,8.58C325.1,202.59,330.64,195.08,329.63,187.74Zm30.73-8.3c-1.62,1.43-4,2.25-3.71,4.78.74,6.81,1.52,13.62,2.63,20.37.41,2.47,1.47,5,3.37,6.23C361.9,200.6,361.14,190.18,360.36,179.44Zm-238.51.14c-.79,10.49-1.57,20.91-2.41,32,1.16-2.15,2.61-3.82,3-5.7,1.21-6.31,1.9-12.73,3.06-19.05C126.1,183.46,124.86,181.3,121.85,179.58Zm178.93,99.31c18.41,9.49,47.58,6.14,58.2-4a12.58,12.58,0,0,0-3,1c-9.8,4.77-20,7.86-31,7.42A59,59,0,0,1,303.15,278C301.92,277.44,301,277.17,300.78,278.89Zm-179-5.42-.29.38a23.93,23.93,0,0,0,3.1,2.36c18.12,9.8,36.81,11.07,56,3.55.51-.2.82-.92,1.23-1.41-.66-.15-1.42-.59-2-.41-1.75.6-3.38,1.54-5.13,2.14a57.4,57.4,0,0,1-42.32-1.7C128.87,276.86,125.36,275.12,121.81,273.47ZM332.48,156.58a7.91,7.91,0,0,0,6.21,5.34c2,.24,3.05-.78,3.78-2.36a6,6,0,0,0-1.16-7.32c-1.33,2.67-1.52,2.73-3.86,1.17l1.07-1.77c-3.84-1.2-4.52-.89-5.16,2.31l2.06.51C335.5,156.57,334.47,157.08,332.48,156.58ZM144,153.69a10.43,10.43,0,0,0-1.64-.71c-.58-.16-1.47-.38-1.79-.09-1.7,1.53-1.68,3.62-1.19,5.6.4,1.64,1.11,3.25,3.23,3.42,2.78.22,6-2,6.94-5.07-1.87.38-2.93-.27-2.89-2.34l2.34-.7c-.6-1.77-1.25-3.38-3.33-2.68C145,151.35,144.64,152.64,144,153.69ZM336.15,280c1.63-1,3.89-1.88,5.18-3.5a14.87,14.87,0,0,0,2.44-6.18c.43-2,3.2-3.54.89-6.2,1.94.85,1.94.85.69,6,5.31-2.71,5.4-2.83,1.18-6.12-.91-.71-2.83-.35-4.2-.08-.45.09-.72,1.46-.92,2.28a30.58,30.58,0,0,1-.92,4.21C339.14,273.64,337.57,276.85,336.15,280ZM137.07,264a8.5,8.5,0,0,0-.23,2.89c.79,2.54,1.84,5,2.73,7.49.71,2,4.52,5.08,6.74,5.39-5.52-9.92-5.68-10.87-5.47-15.55-3.68-1.54-5.81-1.15-8,1.81-.33.45.13,2,.69,2.47.83.75,2.08,1,3.5,1.68-.6-1.31-1.12-2.36-1.56-3.45C134.8,265,136,264.52,137.07,264Zm-34.54,3.17c3.3-.1,7.78-5.43,10.82-12.36-2.18-2.47-2.13-2.43-4.48-.22a26.3,26.3,0,0,1-2.83,1.82c-1.42,1-2.79,2.09-4.18,3.15l-.15,1c2.39-2.18,2.56-.35,3.28.82l-2.76,2,.28.34,2.42-1.35C106.3,264.94,104.46,266,102.53,267.17Zm277.4-7.25.29-.42c-1.39-1-2.79-2-4.18-3.05a22.39,22.39,0,0,1-3.57-2.8c-1.12-1.28-1.92-.76-2.86,0s-1.07,1.51-.24,2.64c1.39,1.87,2.45,4,3.75,5.92.84,1.26,1.86,2.39,2.8,3.58l.53-.34.16-1.42,3,1.62c-1.09-1.58-3.82-2.13-2-4.87l1.16.42-.64-1.92ZM151.71,156.1a36.47,36.47,0,0,1-.66-4c-.06-1.11.6-2.43.19-3.31a8.33,8.33,0,0,0-2.71-2.63c-2.67-2-5.17-1.88-7.78.4l3.76-.67c-4.89,2.94-4.89,2.94-6.39,7.65C143.29,148.75,149.51,146.77,151.71,156.1Zm162.08,52.71-.35-.21,4.32-1,.13.44-3.08,1.38.07.22,3.63-.77-.38.57,1.16,1.27c2.28-1.51,4.27-2.8,6.23-4.14,1.16-.8.79-2.17-.12-2.24a16,16,0,0,0-6.78.55C316.77,205.54,315.38,207.44,313.79,208.81ZM166.47,208c-.89-1-1.81-2.09-2.8-3.11a1.9,1.9,0,0,0-1.07-.46,40.27,40.27,0,0,0-4.77-.44,2.68,2.68,0,0,0-1.71,1c-.19.22,0,1.15.37,1.38,2,1.48,4.17,2.86,6.5,4.41l1.18-1.84,3,.62,0-.28-3-1.26.11-.38Zm188.25-6.14c2.54-5.73,1-11.16.38-16.62-.88,1.57-2,3.23-1.94,4.83C353.36,193.83,354.13,197.61,354.72,201.82Zm-28.63,91.24-.34.62c6,3.9,12.12,7.43,20.2,7.6ZM126.61,184.39c.1,5.91-1.78,11.38.77,17.33a85.68,85.68,0,0,1,1.4-9.35C129.57,189.34,128.24,187.16,126.61,184.39Zm198.51,23c1.8,5.76,4.36,8.19,7.65,7.9l-2.38-.62c2.93-1.43,3.05-2.64.68-4.65a13.37,13.37,0,0,0-2.73-2A14,14,0,0,0,325.12,207.35ZM161.4,298.86c5.6-.8,15.32-5.68,18.08-8.81l-.33-.63ZM343.5,161.38c-1.75.79-2.83,1.24-3.88,1.76a18.8,18.8,0,0,0-1.74,1.1c.57.67,1.15,1.92,1.71,1.91a6.9,6.9,0,0,0,4.14-1.1C344.28,164.6,343.62,162.71,343.5,161.38Zm-205,.16c0,1.37-.47,3.13.11,3.61a6.32,6.32,0,0,0,4,1c.54,0,1-1.32,1.57-2a18.06,18.06,0,0,0-1.65-.95C141.44,162.65,140.33,162.25,138.52,161.54Zm-8.31,97.33c.13-.46.65-1.31.41-1.64a26.76,26.76,0,0,0-3.52-4.14c-.38-.36-1.4-.05-2.12-.05a5.93,5.93,0,0,0,.84,1.91C127.06,256.2,128.44,257.31,130.21,258.87Zm221.69-.05c1.77-1.53,3.21-2.68,4.53-4,.42-.41.48-1.16.71-1.76-.65-.07-1.6-.45-1.89-.16a34.38,34.38,0,0,0-3.67,4.31C351.35,257.56,351.8,258.37,351.9,258.82ZM103,243.19a21,21,0,0,0-.72-4.58c-.28-.74-1.45-1.27-2.34-1.61-.31-.13-1.41.7-1.36.89a5.4,5.4,0,0,0,1.12,2.18C100.66,241.12,101.76,242,103,243.19Zm276.05-.41a43.1,43.1,0,0,0,3.51-2.91,4.44,4.44,0,0,0,.91-2.06c0-.2-.69-.84-1-.79-.8.15-2,.35-2.24.9A27.48,27.48,0,0,0,379.06,242.78ZM136.69,165.87c1.48,2.71,3.28,3.41,6,2.56,1.91-.58,3.85-1.21,2.91-3.89C143.91,168.23,141.53,168.66,136.69,165.87Zm207.85-9.55-.55.43,3.67,5.59.43-.28c-.5-1.31-1-2.63-1.49-3.94l.59-.21Zm-209.92,2.36-.57-.31-3.08,6,.51.27Z"/><path class="cls-1" d="M251.85,254.88c-.78,2.3-1.43,4.23-2.09,6.15l-.49-.06-1.19-6.71-5.14,3.66-.51-.42,3.27-5.93c-3.34-.39-6.33-.87-9.34-1-.58,0-1.2,1.42-1.58,2.52-9.14-1.07-17.76,1.1-25.85,6,1.22-3.67,3.63-6.16,6.41-8.39.86-.69,2-1.45,2.27-2.39,2-6.63,3.89-13.31,5.89-20.29a43.51,43.51,0,0,0-5.15-1c-.47,0-1.36.8-1.49,1.36-.49,2.28-2,2.61-3.83,2.1-4.95-1.34-9.91-2.67-14.82-4.16a3.14,3.14,0,0,0-4,1.75,7.68,7.68,0,0,0-.44,7.43c.9,1.81.7,3-1.18,4-.48.24-.75.91-1.12,1.38a5.31,5.31,0,0,0,1.62.7c1.77.1,2.36,1.15,2.48,2.7a18.13,18.13,0,0,1-2.49,10.23c-.86,1.56-2.18,1.69-3,.25-2-3.59-3.94-7-4.71-11.39-.84-4.79.18-8.83,1.12-13.18a46.75,46.75,0,0,0,.61-6.51c.36-5,2.29-6.83,7.44-6.85h2.09c-2.11-1.51-4-2.86-5.86-4.18-1.23-.85-2.55-1.21-3.76,0-2.31,2.25-3.81,5-3.24,8.23.39,2.25,0,3.4-2.3,3.79-.51.09-.95.65-1.71,1.2,2,1,4.24,1.43,3.66,4.1-.73,3.35-1.56,6.67-4.55,8.79-1.08.77-1.92.44-2.62-1-2.71-5.42-1.73-11.17-1.76-16.82a6.06,6.06,0,0,1,.81-2.25c1.77-4,3.75-8,5.3-12.13,1.74-4.63,5.08-6.36,9.74-4.6,1.06.41,2.07.91,3.14,1.29,3.14,1.09,4.05.52,4.61-2.77.59-3.44-.55-6.54-1.82-9.63-1.56-3.77-3.11-7.55-4.68-11.39-3.93,1-4.85,2-5.26,6.11a2.84,2.84,0,0,1-2.44,2.88,6.39,6.39,0,0,1-.95.19c-1.39.05-2.78.06-4.17.09.51-1.25,1-2.5,1.54-3.74.21-.49.44-1,.79-1.71-2.29.21-2.35,1.91-3,3.19-.41.83-1.29,2.22-1.66,2.13a8.29,8.29,0,0,1-4.1-1.93,6.75,6.75,0,0,1-1.31-4.06,5.08,5.08,0,0,1,1.19-3.21c2.64-3.09,4.92-6.19,6.12-10.28.85-2.88,3.24-5.32,5-8.11l-3.34-4.41.27-.54a33.3,33.3,0,0,1,5.33.88,4.54,4.54,0,0,0,4.51-.52c1.7-1.21,3.61-2.11,5.78-3.34l1.54,4.23a40.07,40.07,0,0,0,4.75-.55,47.09,47.09,0,0,0,5.08-1.76v5.92l11.7,1.61-4,5c5,3.41,8.84,8.44,15.44,9.7-1.68,3.89-5.37,3.66-8.59,4.75l3.64,4.33c.43-.38.83-.72,1.22-1.08a3.55,3.55,0,0,1,5-.34,17.39,17.39,0,0,0,4.41,2.45c3,1,4.39-.45,3.66-3.44-.62-2.51-1.18-5-1.83-7.53a3.87,3.87,0,0,0-.88-1.66c-3.37-3.6-6.77-7.16-10.18-10.72a6.31,6.31,0,0,0-1.48-1.26c-7.31-4-10.87-11.55-16.44-17.19a8.93,8.93,0,0,1-1.48-2.76c-1.4-3.24-3.11-3.6-6.26-1.73-1,.6-2.82.89-3.67.37a4.65,4.65,0,0,1-1.95-3.5,5.23,5.23,0,0,1,2.33-3.31c.69-.46,2.2-.12,3.13.31a5.85,5.85,0,0,0,6.59-.85c2.44-2.43,5.11-2.71,8.18-1.17a4.06,4.06,0,0,0,3.24.28c.62-.35.66-1.94.72-3s-.5-2.16-.23-3.09,1.3-2.33,1.86-2.27c.94.11,1.78,1.19,2.62,1.9.14.12.07.47.1.71.49,4.6.47,4.42,5,3.79,8.65-1.19,17.33-2.15,26-3.19,5-.6,10-1,14.93-1.78,3.52-.52,6.67.51,10.29,1.66a14,14,0,0,1-8.52,4.59c-12.1,1.57-24.21,3-36.32,4.5-2.73.34-5.45.71-8.19,1-1.68.17-2.24,1.08-2.06,2.62.11.89.29,1.76.38,2.64a2,2,0,0,1-2.19,2.51c-1.55.06-2.49-.55-2.51-2.22a31.91,31.91,0,0,0-.07-3.39,2.25,2.25,0,0,0-2.65-2.18c-1.53.08-1.72,1-1.93,2.25-.5,2.92,1.33,4.59,3.24,6.06,6.53,5,13.13,10,19.73,14.91A28.46,28.46,0,0,0,242.6,163c.81-6.44-4.48-8.31-7.18-11,2-2.41,3.74-4.55,5.53-6.66a17.57,17.57,0,0,1,10.43-6.2c6.52-1.16,13.1-1.91,19.63-3a39.78,39.78,0,0,0,7.78-1.78c4.72-1.79,5.19-1.44,6.81-6.71.86,1.28,2.14,2.47,2.49,3.88.74,2.95-1.59,4.48-3.61,6l.16.72c3.15-.59,6.4-.85,9.4-1.84,3.35-1.1,4.48-4.35,5.41-7.59,4.22,4.35,3,11-2.47,13.35-2.57,1.1-5.4,1.56-8.43,2.4.9,4.1,1.68,8.51-2.44,11.72a22.62,22.62,0,0,1-3.79,2l-.56-.68c.45-1.09.92-2.18,1.35-3.27,1.75-4.41.06-9-4.35-10.58a44.8,44.8,0,0,0-8.23-1.67c-1.29-.21-2.08.34-2.25,1.84-.34,2.92-2.25,4.61-5.17,6,.26-1.05.39-1.65.56-2.23.79-2.67-.07-4.32-2.61-5-3.15-.8-6,.54-6.29,3.15a25.12,25.12,0,0,0,2.56,14.85c4.43,8.26,4.87,17,3.46,26-.16,1-.44,2.41-1.13,2.81-2.57,1.51-2.08,3.91-2.38,6.38,1.48-.19,2.8-.39,4.14-.51,5.66-.54,11.07.6,16.46,2.27a34.4,34.4,0,0,0,7.38,1.15c2.86.21,5.69-.32,7.07-3.18s.7-5.9-1.08-8.51c-4.12-6-14.36-7-19.26-1.58-1.42,1.56-1.94,3.93-2.85,5.88-5-4-2.66-13.19,5.16-18.6-4.07-5.08-6.29-10.66-4.05-17.24.94-2.79,2.77-4.81,5.78-7.14-1.82,10.85,4,16,12.63,19.44,1.13-3.7,2.28-7.42,6.16-8.84a22,22,0,0,1,7.53-.94c-7.8,5.11-4.72,11.66-3.16,18.25,2.05-2.81,4.18-5.16,8.35-5-4,6.18-3.24,12.94-3.85,19.47a66.62,66.62,0,0,1-1.6,7.53l7-6.32a14.72,14.72,0,0,1-3,9.93,12.45,12.45,0,0,1-9.12,5.42,92.13,92.13,0,0,1-10.07.08c-.76,4.06-1.68,8.34-2.36,12.66a9.9,9.9,0,0,0,6.33,10.49c2.15.82,3.43,2.24,3.24,4.56a28.07,28.07,0,0,1-1,5.9c-1.21,3.95-2.16,7.7.36,11.62,1.73,2.7,1,3.72-2.1,4.55A11.69,11.69,0,0,0,289,258.4a11.14,11.14,0,0,0,1.33,2.18c2.47,2.59,2.44,4.27-.63,6.21a37.43,37.43,0,0,1-7.13,3.5c-1.83.67-2.79-.27-2.36-2.06.76-3.17.19-6.71,2.63-9.41,0-5.63,3.29-11,1.2-16.79a10.51,10.51,0,0,0-2.18-3.4c-2.38,5.57-6.18,10.68-3.23,17.14,1.09,2.38.27,3.53-2.42,4-2.17.36-2.49,1.23-1.12,3.08,2.69,3.63,2.63,4.33-1.31,6.68a33.32,33.32,0,0,1-7,3.28c-2.56.79-3.43-.44-2.63-3,.47-1.53.26-3.44,1.11-4.64,2.21-3.12,1.85-6.95,3.25-10.15a29.44,29.44,0,0,0,2.52-11.72c.06-4.79-1.82-7.52-6.28-9.34a39.14,39.14,0,0,1-4.75-1.81,52.36,52.36,0,0,1-5.41-3.88c-.5-.39-.75-1.08-1.23-1.49-1.32-1.1-9.5.5-10.38,2-1.81,3.06-3.62,6.11-5.42,9.18-3.68,6.28-3,7.67,4,8.36,1.27.13,2.55.15,4.29.25l-1.65-7.26.56-.24c1.34,1.95,2.67,3.91,4.33,6.32.9-2.42,1.64-4.43,2.39-6.44l.58.08c.16,2,.33,4,.54,6.62l5.49-3.92.44.3c-1.16,2.1-2.33,4.19-3.72,6.68l6.71,2.93-.1.64-6.6.37c.91,2.32,1.72,4.36,2.52,6.39l-.47.36Zm-26.93-11.53,1,.27c3.72-4.13,2.83-9.78,4.72-14.47-1.91-1.37-2.68-.68-3,1.08-.42,2.14-.88,4.27-1.32,6.4S225.38,241.11,224.92,243.35Z"/><path class="cls-1" d="M195,190.9c-2.52,1.85-6.68.89-8.66-1.78Z"/><path class="cls-1" d="M347.92,305.55c-2,2,.78,5.27-2.84,7.07.1-1.7.16-2.79.25-4.48-.88,1.4-1.48,2.33-2.36,3.72-.61-1.42-1.07-2.47-1.66-3.8a11.7,11.7,0,0,0-.47,1.51c-.08.47.11,1-.09,1.43s-.72.5-1.3.86c.45-2.56.84-4.73,1.24-7,2.71-.36,1.8,2.53,3,3.51C345.94,305.3,345.94,305.3,347.92,305.55Z"/><path class="cls-1" d="M221.51,303.67a27.34,27.34,0,0,1,1.51-3.06,1.64,1.64,0,0,1,1.32-.69c.32.06.72.78.74,1.23.08,1.83,0,3.68,0,5.77-3.29,0-.84-2.83-2.07-3.75-.56,1-1.14,2.11-2,3.61l-2-3.62-.55,3.62-.45-.1c0-2,0-4,0-6,0-.27.48-.76.71-.74a1.65,1.65,0,0,1,1.17.59C220.5,301.39,220.89,302.36,221.51,303.67Z"/><path class="cls-1" d="M234.45,303.07c-.21,3.28-.21,3.28-1.52,3.57.25-2.24.5-4.44.74-6.64l.66-.37,2.64,3.73c1.35-.75.45-3.9,3.42-3.44v6.5c-1.54.4-1.54.4-2-3.34-.38.77-.64,1.3-.91,1.82s-.5.94-1,1.82Z"/><path class="cls-1" d="M159.59,310.24l-3.12-2.53v2.38l-2.07.28v-7.11a17,17,0,0,1,3.33.07,2.19,2.19,0,0,1,1.3,1.46C159.34,306.43,159.39,308.11,159.59,310.24Z"/><path class="cls-1" d="M177.1,308.44v-6.93c2.79-.65,2.05,2.72,3.61,3.44a1.6,1.6,0,0,0,.35-.28c.67-1.1,1.34-2.22,2-3.33.31,1.12.65,2.23.93,3.35a5.72,5.72,0,0,1,.34,2.13c-.09.6-.65,1.12-1,1.67l-.74-.34v-4c-.8,1.63-1.34,2.73-2.15,4.4l-2.2-4.07c-.1,1.68-.17,3-.24,4.29Z"/><path class="cls-1" d="M265.32,300.39c2.27-.58,4.35.57,4.74,2.64A3.58,3.58,0,0,1,267,307.2c-3.26.61-3.67.26-3.68-3.12,0-.81,0-1.62-.06-2.42-.09-1.72.68-2,2.08-1.26-.09,1.53-.25,3.06-.23,4.58a1.66,1.66,0,0,0,.75,1.31,1.89,1.89,0,0,0,1.44-.56C269.05,304.07,268.13,301.63,265.32,300.39Z"/><path class="cls-1" d="M132.12,312.5c-.94,0-.94,0-1.68-6.86a17.68,17.68,0,0,1,3.69-.17,2.35,2.35,0,0,1,1.54,1.53,3.2,3.2,0,0,1-.79,2.06C134.15,310.13,133.27,311.1,132.12,312.5Z"/><path class="cls-1" d="M304.51,308.46c3.06-2.09,1.69-4.13.43-6.11,1.71-.69,1.71-.69,3,1.17l2.55-1.91,1.11.62c-3.85,2-2.26,4.28-.93,6.45-2.21,1.55-2.21-.59-3.07-1.71l-2.14,1.68Z"/><path class="cls-1" d="M259,307.25l-4.14-4.94-.52.17.27,4.35c-1.27-.46-1.33-.91-.85-6.92,2.77-.25,2.88,2.93,4.93,3.79v-3.51C259.87,300.18,260.15,304.12,259,307.25Z"/><path class="cls-1" d="M208.53,306.91c.89-2.19,1.79-4.38,3-7.29l3.57,7.25c-1.34.41-2.33.86-2.7-.91-.08-.38-.76-.64-1.16-.95a12.31,12.31,0,0,1-.83,1.17c-.41.46-.88.86-1.32,1.29Z"/><path class="cls-1" d="M301.43,305.72l-1.94-.47c-.77,2.55-.51,2.81,2.23,2.37-1,1.32-2,1.46-4.67.58.17-2.17.34-4.39.54-7l4.84.59c-.59.67-.68.87-.79.88-.84.08-1.68.13-2.51.18a21.32,21.32,0,0,1,1.9,1.47C301.26,304.52,301.24,305,301.43,305.72Z"/><path class="cls-1" d="M143.51,311.87c-.65-.41-1.33-.79-1.95-1.24a16.87,16.87,0,0,1-1.32-1.22,16.46,16.46,0,0,1-1,1.67,9,9,0,0,1-1.2,1.1l-.45-.39q1.17-3.41,2.33-6.81l.67-.05L144,311.1Z"/><path class="cls-1" d="M167.92,309.5l2.55-7.42.78-.08c.89,2,1.82,4,2.63,6,.09.22-.44,1-.72,1a2,2,0,0,1-1.24-.62,14.59,14.59,0,0,1-1.26-1.44,11.8,11.8,0,0,1-1.06,1.75C169.32,309,168.8,309.08,167.92,309.5Z"/><path class="cls-1" d="M353.9,306c.7,2.16,1.41,4.32,2.14,6.55-1.26.8-1.93.72-2.26-.77-.11-.52-.75-.93-1.15-1.38-.38.43-.73.89-1.14,1.29a2,2,0,0,1-1.6.66l3.18-6.44Z"/><path class="cls-1" d="M205,300c.48.39,1,.6,1,.81a13.83,13.83,0,0,1-.21,4.52c-.33.95-1.85,2.28-2.55,2.12a4.72,4.72,0,0,1-3-2.48c-.51-1.23-.11-2.84-.11-4.5,1.13-.5,1.85-.27,1.74,1.43a8.38,8.38,0,0,0,.09,2.88c.21.68,1,1.17,1.53,1.74.5-.6,1.33-1.15,1.44-1.81A32.39,32.39,0,0,0,205,300Z"/><path class="cls-1" d="M249.76,300a47.84,47.84,0,0,1,0,4.94c-.17,1.64-1.5,1.86-2.89,1.9-1.64.05-2.67-.66-2.87-2.29s-.21-3-.31-4.66h1.95a18.53,18.53,0,0,0,.07,3.89c.2.84,1.05,1.52,1.6,2.28.63-.78,1.61-1.49,1.81-2.37a13.34,13.34,0,0,0-.18-3.71Z"/><path class="cls-1" d="M193,301.72l-1.93.15c0-.36-.1-.73,0-.8,1.66-1.12,5.08-.91,6.26.54l-2.14.29v5.5C193.76,307.72,193.76,307.72,193,301.72Z"/><path class="cls-1" d="M148,311.11c-1.31-2,1.41-5.72-2.91-6.13,1-1.57,4.76-1.89,6.25-.33h-2.08c0,2.17,0,4.21-.06,6.25A5.17,5.17,0,0,1,148,311.11Z"/><path class="cls-1" d="M325.86,303.3l5.92.54,0,.68a5.69,5.69,0,0,1-.89.2,8.6,8.6,0,0,1-1.17-.12c-.08,1.37-.16,2.62-.22,3.87s.21,2.81-1.94,2c-.56-2.16,1.93-5.11-1.77-6.32Z"/><path class="cls-1" d="M286.88,305.42c-.27.69-.55,1.38-1.08,2.73-.86-1.76-1.41-2.87-2-4h-.38l.15,3.28c-1,.05-1,.05-.64-7.11.94.71,1.74,1.05,2.13,1.65a19.8,19.8,0,0,1,1.35,3.08Z"/><path class="cls-1" d="M286.44,305.06l2.22-4.37,1.22.31c0,2.09,0,4.19-.05,6.28,0,.3-.65.85-.88.8-.41-.1-1-.54-1.05-.9a17.81,17.81,0,0,1,0-2.84l-1,1.08Z"/><path class="cls-1" d="M315.09,309.92c-.44-.55-1.24-1.09-1.26-1.65a24.18,24.18,0,0,1,.39-4.8c.07-.44.74-.77,1.13-1.16.24.43.69.85.68,1.27,0,1.92-.2,3.84-.32,5.77Z"/><path class="cls-1" d="M277.4,307.33c-3.13.43-4.28-.38-4.46-2.73a13.2,13.2,0,0,1,0-2.88c.07-.49.6-.91.92-1.37a10.2,10.2,0,0,1,.9,1.38,2.37,2.37,0,0,1,0,.95C274.58,304.63,274.44,306.58,277.4,307.33Z"/><path class="cls-1" d="M336.59,304.33c-.18,2.26-.36,4.4-.54,6.68-1.19.3-2.2.53-1.84-1.44a15.77,15.77,0,0,0,.3-3.81C334.41,304.14,335,303.68,336.59,304.33Z"/><path class="cls-1" d="M162.87,302.11c.7.45,1.6.72,1.68,1.14a29.92,29.92,0,0,1,.46,5c0,.44-.56.89-.86,1.34-.33-.44-.9-.85-1-1.31C163,306.47,163,304.64,162.87,302.11Z"/><path class="cls-1" d="M320,303.67c.8,1.88,4.59,2.39,2.65,5.71a30.11,30.11,0,0,1-2.38-2.69,18.09,18.09,0,0,1-1.21-2.64Z"/><path class="cls-1" d="M278,305.88V300.5h.57v5.37Z"/></g><path class="cls-1" d="M224.91,45.28a1.8,1.8,0,0,1-.18-3.6l1-.1a1.81,1.81,0,0,1,2,1.62,1.79,1.79,0,0,1-1.62,2l-1,.11Z"/><path class="cls-1" d="M254,44.73h-.12l-2.31-.13a1.8,1.8,0,1,1,.19-3.6l2.36.14a1.8,1.8,0,0,1-.12,3.6Zm-16.38-.3a1.8,1.8,0,0,1-.05-3.6c.79,0,1.58,0,2.37-.06a1.81,1.81,0,0,1,.05,3.61l-2.31,0Z"/><path class="cls-1" d="M266.67,46l-.25,0-1-.14a1.8,1.8,0,1,1,.49-3.57l1,.14a1.8,1.8,0,0,1-.25,3.59Z"/><path class="cls-1" d="M361,92.44a1.79,1.79,0,0,1-1.26-.51l-.73-.71a1.8,1.8,0,0,1,2.49-2.6l.76.73A1.8,1.8,0,0,1,361,92.44Z"/><path class="cls-1" d="M237.64,383.28h0l-2.08-.07a1.8,1.8,0,1,1,.14-3.6l2,.07a1.8,1.8,0,0,1-.06,3.6Zm10.33,0a1.81,1.81,0,0,1-.06-3.61l2-.07a1.8,1.8,0,0,1,.15,3.6l-2.08.07Zm-22.68-.81h-.19l-2.07-.22a1.8,1.8,0,1,1,.41-3.58l2,.22a1.8,1.8,0,0,1-.18,3.59Zm35,0a1.8,1.8,0,0,1-.18-3.59l2-.23a1.82,1.82,0,0,1,2,1.59,1.8,1.8,0,0,1-1.58,2l-2.08.23ZM213,380.77a1.63,1.63,0,0,1-.31,0l-2.06-.38a1.8,1.8,0,0,1,.67-3.54l2,.37a1.8,1.8,0,0,1-.31,3.58Zm59.56,0a1.8,1.8,0,0,1-.31-3.58l2-.37a1.81,1.81,0,0,1,2.11,1.44,1.79,1.79,0,0,1-1.43,2.1l-2.05.38Zm-71.67-2.56a1.67,1.67,0,0,1-.44-.06l-2-.52a1.8,1.8,0,0,1,.92-3.49l2,.52a1.8,1.8,0,0,1-.44,3.55Zm83.77-.06a1.8,1.8,0,0,1-.44-3.54l2-.52a1.8,1.8,0,0,1,.93,3.48l-2,.53A1.73,1.73,0,0,1,284.68,378.11ZM189,374.68a1.84,1.84,0,0,1-.57-.09l-2-.67a1.8,1.8,0,0,1,1.18-3.41l1.94.66a1.8,1.8,0,0,1-.56,3.51Zm107.54-.06a1.81,1.81,0,0,1-.58-3.52c.65-.21,1.29-.43,1.94-.66a1.8,1.8,0,0,1,1.18,3.41l-2,.67A1.63,1.63,0,0,1,296.57,374.62ZM177.4,370.33a1.89,1.89,0,0,1-.69-.14l-1.93-.82a1.8,1.8,0,0,1,1.43-3.31l1.89.8a1.8,1.8,0,0,1-.7,3.47Zm130.74-.07a1.8,1.8,0,0,1-.7-3.46l1.88-.8a1.8,1.8,0,1,1,1.43,3.3l-1.91.82A1.94,1.94,0,0,1,308.14,370.26Zm-142-5.14a1.81,1.81,0,0,1-.81-.19c-.62-.32-1.25-.63-1.86-1a1.8,1.8,0,1,1,1.67-3.19l1.82.94a1.8,1.8,0,0,1-.82,3.4Zm153.22-.05a1.8,1.8,0,0,1-.82-3.41l1.81-.93a1.8,1.8,0,1,1,1.67,3.19l-1.85.95A1.83,1.83,0,0,1,319.36,365.07Zm-164.07-6a1.88,1.88,0,0,1-.93-.25l-1.78-1.1a1.8,1.8,0,1,1,1.9-3.06l1.74,1.07a1.8,1.8,0,0,1-.93,3.34Zm174.89,0a1.81,1.81,0,0,1-.94-3.35c.59-.35,1.17-.7,1.74-1.06a1.8,1.8,0,0,1,1.9,3.06l-1.77,1.09A1.84,1.84,0,0,1,330.18,359.07Zm-185.26-6.74a1.81,1.81,0,0,1-1-.33l-1.7-1.22a1.8,1.8,0,1,1,2.12-2.91l1.66,1.19a1.8,1.8,0,0,1-1,3.27Zm195.61,0a1.8,1.8,0,0,1-1-3.27l1.65-1.19a1.8,1.8,0,1,1,2.12,2.91c-.56.41-1.12.82-1.69,1.22A1.83,1.83,0,0,1,340.53,352.29Zm-205.46-7.48a1.86,1.86,0,0,1-1.15-.41l-1.6-1.34a1.8,1.8,0,1,1,2.32-2.75l1.57,1.31a1.8,1.8,0,0,1-1.14,3.19Zm215.3,0a1.8,1.8,0,0,1-1.15-3.19l1.57-1.31a1.8,1.8,0,0,1,2.32,2.76l-1.6,1.33A1.78,1.78,0,0,1,350.37,344.77Zm-224.58-8.18a1.81,1.81,0,0,1-1.24-.49l-1.5-1.45a1.8,1.8,0,0,1,2.52-2.58c.48.48,1,.95,1.47,1.42a1.8,1.8,0,0,1-1.25,3.1Zm233.84,0a1.8,1.8,0,0,1-1.24-3.1l1.47-1.42a1.8,1.8,0,1,1,2.52,2.57l-1.5,1.45A1.78,1.78,0,0,1,359.63,336.56Zm-242.49-8.83a1.78,1.78,0,0,1-1.33-.59c-.47-.51-.93-1-1.39-1.55a1.8,1.8,0,1,1,2.69-2.39l1.37,1.52a1.79,1.79,0,0,1-.13,2.54A1.74,1.74,0,0,1,117.14,327.73Zm251.14,0a1.79,1.79,0,0,1-1.33-3l1.36-1.52a1.8,1.8,0,1,1,2.7,2.39c-.46.52-.93,1-1.4,1.55A1.78,1.78,0,0,1,368.28,327.69Zm-259.12-9.42a1.82,1.82,0,0,1-1.42-.69l-1.27-1.65a1.8,1.8,0,1,1,2.86-2.19c.41.54.83,1.08,1.25,1.61a1.81,1.81,0,0,1-1.42,2.92Zm267.1,0a1.84,1.84,0,0,1-1.11-.38,1.81,1.81,0,0,1-.31-2.53c.43-.54.84-1.08,1.25-1.62a1.81,1.81,0,0,1,2.87,2.19l-1.28,1.65A1.79,1.79,0,0,1,376.26,318.22Zm-274.37-10a1.8,1.8,0,0,1-1.5-.8l-1.15-1.73a1.81,1.81,0,0,1,3-2c.37.57.75,1.14,1.13,1.7a1.8,1.8,0,0,1-.5,2.5A1.76,1.76,0,0,1,101.89,308.25Zm281.65-.06a1.74,1.74,0,0,1-1-.31,1.79,1.79,0,0,1-.49-2.5c.38-.56.75-1.13,1.12-1.7a1.8,1.8,0,1,1,3,2c-.38.58-.76,1.16-1.15,1.74A1.8,1.8,0,0,1,383.54,308.19ZM95.37,297.73a1.8,1.8,0,0,1-1.57-.91l-1-1.81a1.81,1.81,0,0,1,3.16-1.75l1,1.78a1.79,1.79,0,0,1-1.56,2.69Zm294.7-.08a1.78,1.78,0,0,1-.89-.24,1.8,1.8,0,0,1-.68-2.46c.34-.59.68-1.18,1-1.78a1.8,1.8,0,0,1,3.15,1.74c-.34.61-.68,1.22-1,1.83A1.8,1.8,0,0,1,390.07,297.65ZM89.64,286.77a1.8,1.8,0,0,1-1.63-1c-.3-.63-.59-1.25-.88-1.88a1.8,1.8,0,0,1,3.27-1.52c.28.62.57,1.23.86,1.85a1.8,1.8,0,0,1-.85,2.4A1.76,1.76,0,0,1,89.64,286.77Zm306.17-.12a1.79,1.79,0,0,1-1.63-2.57q.45-.93.87-1.86a1.8,1.8,0,0,1,3.27,1.51c-.29.64-.58,1.27-.89,1.9A1.77,1.77,0,0,1,395.81,286.65ZM84.73,275.43a1.79,1.79,0,0,1-1.68-1.15c-.26-.64-.5-1.29-.75-1.95a1.8,1.8,0,1,1,3.37-1.26l.73,1.9a1.8,1.8,0,0,1-1,2.34A1.87,1.87,0,0,1,84.73,275.43Zm316-.16a1.72,1.72,0,0,1-.66-.13,1.81,1.81,0,0,1-1-2.33c.25-.64.49-1.27.73-1.91a1.8,1.8,0,1,1,3.37,1.26c-.24.65-.49,1.31-.74,2A1.81,1.81,0,0,1,400.73,275.27ZM80.65,263.74a1.8,1.8,0,0,1-1.72-1.28l-.6-2a1.8,1.8,0,0,1,3.46-1c.19.65.38,1.3.58,1.95a1.81,1.81,0,0,1-1.19,2.26A1.89,1.89,0,0,1,80.65,263.74Zm324.15-.2a1.89,1.89,0,0,1-.53-.08,1.81,1.81,0,0,1-1.2-2.25c.2-.65.4-1.3.59-2a1.8,1.8,0,0,1,3.46,1l-.6,2A1.81,1.81,0,0,1,404.8,263.54ZM77.45,251.77a1.81,1.81,0,0,1-1.76-1.4l-.45-2a1.8,1.8,0,1,1,3.52-.76l.45,2a1.79,1.79,0,0,1-1.76,2.2Zm330.54-.2a1.44,1.44,0,0,1-.41,0,1.79,1.79,0,0,1-1.35-2.15c.15-.66.29-1.33.44-2a1.8,1.8,0,1,1,3.52.76l-.45,2A1.8,1.8,0,0,1,408,251.57Zm-332.86-12a1.79,1.79,0,0,1-1.77-1.53c-.11-.68-.21-1.37-.31-2.06a1.8,1.8,0,1,1,3.57-.5l.3,2a1.8,1.8,0,0,1-1.51,2.05A1.27,1.27,0,0,1,75.13,239.6Zm335.15-.2-.27,0a1.8,1.8,0,0,1-1.51-2c.1-.67.2-1.35.29-2a1.8,1.8,0,1,1,3.57.49q-.14,1-.3,2.07A1.8,1.8,0,0,1,410.28,239.4ZM73.72,227.3a1.81,1.81,0,0,1-1.8-1.66l-.15-2.08a1.8,1.8,0,1,1,3.6-.24q.06,1,.15,2a1.82,1.82,0,0,1-1.66,1.94Zm338-.2h-.15a1.8,1.8,0,0,1-1.65-1.94c.05-.67.1-1.35.14-2a1.8,1.8,0,0,1,3.6.23c-.05.7-.09,1.39-.15,2.08A1.8,1.8,0,0,1,411.69,227.1ZM73.2,214.93a1.8,1.8,0,0,1-1.8-1.79v-2.09a1.8,1.8,0,0,1,1.8-1.79h0A1.8,1.8,0,0,1,75,211.07v2a1.8,1.8,0,0,1-1.79,1.82Zm339-.21h0a1.8,1.8,0,0,1-1.8-1.81v-2a1.8,1.8,0,0,1,1.79-1.82h0a1.8,1.8,0,0,1,1.8,1.79v2.09A1.8,1.8,0,0,1,412.19,214.72ZM73.57,202.54h-.12a1.79,1.79,0,0,1-1.68-1.92c0-.69.09-1.38.15-2.08a1.8,1.8,0,0,1,3.59.28l-.15,2A1.79,1.79,0,0,1,73.57,202.54Zm338.24-.2a1.81,1.81,0,0,1-1.8-1.68c-.05-.68-.09-1.35-.15-2a1.81,1.81,0,0,1,1.66-1.94,1.78,1.78,0,0,1,1.93,1.66c.06.69.11,1.38.16,2.07a1.82,1.82,0,0,1-1.68,1.92Zm-337-12.12h-.25a1.81,1.81,0,0,1-1.54-2c.1-.69.2-1.38.31-2.06a1.8,1.8,0,0,1,3.56.54l-.3,2A1.79,1.79,0,0,1,74.83,190.22Zm335.7-.18a1.8,1.8,0,0,1-1.78-1.55c-.09-.68-.19-1.35-.3-2a1.81,1.81,0,0,1,3.57-.55l.3,2.06a1.81,1.81,0,0,1-1.53,2ZM77,178a2.45,2.45,0,0,1-.38,0,1.8,1.8,0,0,1-1.38-2.14c.14-.69.29-1.37.45-2a1.8,1.8,0,1,1,3.51.8c-.15.67-.3,1.33-.44,2A1.8,1.8,0,0,1,77,178Zm331.37-.18a1.8,1.8,0,0,1-1.76-1.42c-.14-.66-.29-1.33-.44-2a1.8,1.8,0,1,1,3.51-.8c.16.67.31,1.35.45,2a1.8,1.8,0,0,1-1.37,2.14A1.72,1.72,0,0,1,408.36,177.85ZM80,166a1.74,1.74,0,0,1-.5-.08,1.8,1.8,0,0,1-1.23-2.23c.2-.67.4-1.34.61-2a1.8,1.8,0,1,1,3.44,1.06c-.2.65-.4,1.31-.59,2A1.8,1.8,0,0,1,80,166Zm325.26-.15a1.81,1.81,0,0,1-1.73-1.29c-.19-.65-.38-1.31-.58-2a1.8,1.8,0,1,1,3.44-1.06l.6,2a1.79,1.79,0,0,1-1.73,2.31ZM84,154.25a1.76,1.76,0,0,1-.63-.12,1.8,1.8,0,0,1-1-2.32c.24-.65.49-1.31.75-1.95a1.8,1.8,0,1,1,3.35,1.31c-.25.63-.49,1.27-.73,1.91A1.81,1.81,0,0,1,84,154.25Zm317.4-.13a1.8,1.8,0,0,1-1.69-1.16c-.24-.64-.48-1.28-.73-1.91a1.8,1.8,0,0,1,3.36-1.31c.25.65.5,1.3.74,1.95A1.79,1.79,0,0,1,402,154,1.74,1.74,0,0,1,401.37,154.12ZM88.76,142.81a1.72,1.72,0,0,1-.76-.17,1.8,1.8,0,0,1-.88-2.39l.89-1.89a1.8,1.8,0,0,1,3.25,1.55l-.87,1.85A1.79,1.79,0,0,1,88.76,142.81Zm307.82-.11a1.78,1.78,0,0,1-1.63-1l-.87-1.85a1.8,1.8,0,0,1,3.25-1.55c.3.63.6,1.25.89,1.89a1.8,1.8,0,0,1-.88,2.39A1.85,1.85,0,0,1,396.58,142.7ZM94.37,131.76a1.75,1.75,0,0,1-.88-.23,1.8,1.8,0,0,1-.7-2.45l1-1.82A1.8,1.8,0,1,1,97,129.05c-.34.59-.68,1.18-1,1.78A1.8,1.8,0,0,1,94.37,131.76Zm296.6-.09a1.82,1.82,0,0,1-1.58-.93c-.33-.6-.66-1.19-1-1.78a1.8,1.8,0,1,1,3.13-1.79c.35.61.69,1.21,1,1.82a1.81,1.81,0,0,1-1.57,2.68Zm-290.2-10.52a1.76,1.76,0,0,1-1-.3,1.8,1.8,0,0,1-.53-2.49l1.16-1.74a1.8,1.8,0,0,1,3,2c-.38.56-.76,1.13-1.13,1.7A1.8,1.8,0,0,1,100.77,121.15Zm283.8-.08a1.79,1.79,0,0,1-1.51-.82c-.38-.56-.75-1.13-1.13-1.7a1.8,1.8,0,0,1,3-2l1.15,1.74a1.79,1.79,0,0,1-.52,2.49A1.76,1.76,0,0,1,384.57,121.07ZM107.93,111a1.77,1.77,0,0,1-1.09-.37,1.8,1.8,0,0,1-.34-2.52c.42-.56.85-1.11,1.28-1.65a1.8,1.8,0,1,1,2.83,2.22l-1.25,1.62A1.79,1.79,0,0,1,107.93,111ZM377.4,111a1.78,1.78,0,0,1-1.43-.71c-.41-.54-.83-1.07-1.25-1.61a1.8,1.8,0,0,1,2.84-2.22c.43.54.85,1.1,1.27,1.65A1.79,1.79,0,0,1,377.4,111Zm-261.59-9.49a1.8,1.8,0,0,1-1.35-3l1.39-1.55a1.8,1.8,0,0,1,2.67,2.42l-1.36,1.52A1.83,1.83,0,0,1,115.81,101.47Zm253.71-.07a1.78,1.78,0,0,1-1.34-.6c-.46-.51-.91-1-1.37-1.52a1.81,1.81,0,1,1,2.67-2.43l1.39,1.56a1.79,1.79,0,0,1-1.35,3ZM124.36,92.5a1.8,1.8,0,0,1-1.26-3.09L124.6,88a1.8,1.8,0,0,1,2.49,2.61L125.61,92A1.79,1.79,0,0,1,124.36,92.5Zm9.17-8.32a1.79,1.79,0,0,1-1.38-.64,1.81,1.81,0,0,1,.22-2.54l1.6-1.33a1.8,1.8,0,1,1,2.29,2.78l-1.57,1.31A1.8,1.8,0,0,1,133.53,84.18Zm9.76-7.63a1.8,1.8,0,0,1-1.06-3.26c.56-.41,1.13-.81,1.7-1.21A1.8,1.8,0,1,1,146,75l-1.65,1.19A1.81,1.81,0,0,1,143.29,76.55Zm10.28-6.9a1.8,1.8,0,0,1-.95-3.33l1.78-1.09a1.8,1.8,0,0,1,1.86,3.09l-1.74,1.06A1.83,1.83,0,0,1,153.57,69.65Zm10.76-6.13a1.8,1.8,0,0,1-.84-3.4l1.86-.95A1.8,1.8,0,1,1,167,62.38c-.61.31-1.22.62-1.82.94A1.75,1.75,0,0,1,164.33,63.52Z"/><path class="cls-1" d="M175.77,58.08a1.8,1.8,0,0,1-.72-3.46l1-.41a1.8,1.8,0,0,1,1.4,3.32l-.94.41A1.8,1.8,0,0,1,175.77,58.08Z"/><path class="cls-1" d="M243,63.39v3.72c2.25.21,4.35.35,6.44.62a11.21,11.21,0,0,1,2.83.77,6.14,6.14,0,0,1,4,5.67,6.34,6.34,0,0,1-3.07,6l-.62.39A7,7,0,0,1,258,86c1.16,4.81-2.12,9.64-7.35,10.73a23.87,23.87,0,0,1-4.4.28c-2.82,0-5.65,0-8.54,0l.44-7.42-8.54.65V68.19l8.37-.93V63.72l.94-.33Zm3.24,15.83a26.42,26.42,0,0,0,3.44-.81,3.19,3.19,0,0,0,2.09-2.87,3,3,0,0,0-1.36-2.94c-2.28-1.39-4.81-1.18-7.32-1.25v14l4.59.31v4.23l-4.58-.31v3.64a55.9,55.9,0,0,0,6.6-.56,4.8,4.8,0,0,0,3.59-5,5,5,0,0,0-4-4.74c-1-.2-2-.26-3.06-.4Zm-12,6.82,4-.42V71.45l-4,.32Z"/></svg>