<svg id="Layer_1" data-name="Layer 1" xmlns="http://www.w3.org/2000/svg" width="444.36" height="320.69" viewBox="0 0 444.36 320.69"><defs><style>.cls-1{fill:#fff;}</style></defs><title>DzukijaPlace</title><path class="cls-1" d="M168.25,320.69h-4.08L160,319.34a3.32,3.32,0,0,0-1.17-.17l-5.73.22-3.14-8.05a3.46,3.46,0,0,0-.6-1.07l-4.15-5.09a3.35,3.35,0,0,0-1.5-1.07L139,302.39a3.53,3.53,0,0,0-1.85-.14l-4.9.95a3.29,3.29,0,0,0-1,.34l-9.1,4.81-3.35,1-8.91-.05-1.27-.29-3.82-2.5a3.52,3.52,0,0,0-.58-.3l-2.27-.94a3.41,3.41,0,0,0-1.72-.24l-3.21.37a3.55,3.55,0,0,0-1.32.44l-10.84,6.23-2.3-1.33a3.57,3.57,0,0,0-1.17-.42l-1.15-.18a3.4,3.4,0,0,0-1.89.22l-2.27,1a2.93,2.93,0,0,0-.69.38l-1.92,1.38-8.59,1.19a3.23,3.23,0,0,0-.92.26l-6.82,3-.94.09L54.42,317,41.5,309.12a3.23,3.23,0,0,0-.92-.39l-1.78-.47-.22-1-.06-.23-.4-1.36a3.46,3.46,0,0,0-.66-1.24l-.94-1.13a3.09,3.09,0,0,0-.4-.41l-1.18-1-.7-1-.32-1.23V298.2l2.1-1.7a3.39,3.39,0,0,0,.85-1l2.25-3.95a3.5,3.5,0,0,0,.46-1.73v-5.67a3.47,3.47,0,0,0-.06-.64l-2.27-12-1.12-5.43-.08-.29-1.7-5.67a2.55,2.55,0,0,0-.11-.33l-2.07-5.09a3.66,3.66,0,0,0-.36-.67l-2.47-3.56a3.49,3.49,0,0,0-1.1-1l-1.31-.76a3.49,3.49,0,0,0-.79-.34L23,247.46,19.62,241a2.68,2.68,0,0,0-.23-.39l-1.51-2.27a3.52,3.52,0,0,0-.66-.73l-5.85-4.91a3.34,3.34,0,0,0-1-.6L0,228.17l1.77-1.9c13.16-14.15,28-27.21,41.08-38.74,3-2.66,6-5.05,9-5.05H52c1.95.06,4,1.14,6.21,2.29l1.48.78A48.46,48.46,0,0,0,89,190.11c2.48-.4,5.62-1.15,7.92-3.51,4.31-4.42,2.74-10.35,1.48-15.11l-.06-.22c-.3-1.11-.6-2.26-.81-3.39-2.39-13.15,12.34-22.87,25.34-31.45l1.16-.76c.78-.52,1.56-1.06,2.33-1.6l.44-.31,43.88-.26c4.21,0,9.44-.05,14-2.49,6.43-3.42,9.34-10.13,11.9-16.06l.12-.27c.68-1.58,1.39-3.22,2.17-4.76,8.77-17.35,28.85-24.48,40-27.18,9.28-2.24,19-3.33,28.46-4.38,7.78-.87,15.82-1.77,23.76-3.33,21.12-4.14,40.85-18.28,37.69-37.28l-.19-1.09c-.11-.61-.29-1.55-.34-2.25l-.1-1.47,1.44-.34a15.24,15.24,0,0,1,1.84-.28c1.78-.19,3.59-.35,5.41-.51l.33,0c13.55-1.22,28.89-2.6,39-13a58.15,58.15,0,0,0,4.59-5.55,39.56,39.56,0,0,1,5.05-5.88c3.32-2.95,8-5,14.43-6.16,15.29-2.88,30.43,0,41.92,2.87l2.16.54-1.05,2a3.32,3.32,0,0,0-.38,1.19l-.38,3a3.09,3.09,0,0,0,0,.52l.19,6.6.15,2.38L437,33.42l-4.81,7.46-1.61,1.74-4.54,2.67L408.5,48.87l-2.08,0-4.88-1.17a3.1,3.1,0,0,0-.81-.1h-2.82a3.62,3.62,0,0,0-1.38.28l-5.66,2.45a3.52,3.52,0,0,0-.93.6l-1.7,1.5a3.5,3.5,0,0,0-1,1.61l-.56,1.89a3.88,3.88,0,0,0-.14.71l-.14,1.8L385.78,60l-2.7,3.14-3,2.32a3.51,3.51,0,0,0-.41.37l-2.82,3a3.67,3.67,0,0,0-.78,1.35l-1.52,4.91a3.65,3.65,0,0,0-.14,1.32l.19,2.25a3.51,3.51,0,0,0,.1.58l1.42,5.45-2.26,1.16a3.12,3.12,0,0,0-.8.56l-3.22,3a3.07,3.07,0,0,0-.41.47l-1.7,2.26a3.47,3.47,0,0,0-.67,1.69l-.38,3.4a5,5,0,0,0,0,.54l.56,13-.17,2.33-.49,2.35-1.47,4.79a3.58,3.58,0,0,0-.13.74l-.18,3.21a3.26,3.26,0,0,0,.05.83l.95,5.11a3.38,3.38,0,0,0,.2.66l3.67,9.11.74,4-.58,3.93-1.77,3.4-2.17,2.32-8.81,5.2a3.59,3.59,0,0,0-1,.92l-2.26,3a3.51,3.51,0,0,0-.52,1l-1.7,5.28a4.32,4.32,0,0,0-.16.78l-.56,6.79a2.53,2.53,0,0,0,0,.29V182l-.47,4.05-2.22,4.76-6.52,8a3.92,3.92,0,0,0-.42.64l-2.83,5.65a3.54,3.54,0,0,0-.37,1.46l-.18,6.44a3.43,3.43,0,0,0,.5,1.9l2.08,3.4a3.49,3.49,0,0,0,1.65,1.41l3.22,1.31a3.53,3.53,0,0,0,1.52.25l6.58-.37a3.41,3.41,0,0,0,1.4-.39l9.3-4.84.38,2.67a3.55,3.55,0,0,0,.15.58l1.51,4.51a4.07,4.07,0,0,0,.31.67l.56.94a3.45,3.45,0,0,0,1.87,1.51l.57.19a3.23,3.23,0,0,0,1.3.18l1.09-.07,2,3.54.82,2.46a3.52,3.52,0,0,0,.49.94l1.15,1.59-.83,1.2a3.38,3.38,0,0,0-.24.41l-.57,1.12a3.65,3.65,0,0,0-.37,1.51l-.18,11.24-.68,2.37-2,1.47-5.48-.73a3.47,3.47,0,0,0-1.88.27l-1.7.75a3.62,3.62,0,0,0-1.4,1.14l-2.13,3-2.21.12-12.47-2.13-3-1.58-3.86-3.63,3.92-1.36A3.53,3.53,0,0,0,343,249l1.12-1.89a3.47,3.47,0,0,0,.18-3.22l-1.17-2.57,1.72-.67a3.29,3.29,0,0,0,.76-.41l1.32-.95a3.46,3.46,0,0,0,.79-4.86L337.24,220l-.57-1.13a3.27,3.27,0,0,0-.61-.86l-.94-1a3.51,3.51,0,0,0-1.81-1l-1.89-.37a3.46,3.46,0,0,0-2.24.31l-3.78,1.9a3.51,3.51,0,0,0-1.3,1.15l-5.67,8.32-2.24,1.53-10.58.66-8.76-3.15a3.53,3.53,0,0,0-1.67-.17l-2.64.37a3.5,3.5,0,0,0-2.56,1.76l-1.88,3.4a3.27,3.27,0,0,0-.33.83l-3,11.92-2,4.35-5.56,6.24-5.59,3.52-5.16.85-11-4.19a3.43,3.43,0,0,0-.75-.19l-6.79-1a3.47,3.47,0,0,0-.85,0l-7,.76a3.6,3.6,0,0,0-1.48.52l-5.09,3.21a3.44,3.44,0,0,0-1.4,1.72l-.56,1.5a3.38,3.38,0,0,0-.22,1.22v2.66l-1,.57a3.41,3.41,0,0,0-1,.87l-.3.39-.47.2a3.47,3.47,0,0,0-2.12,2.41l-.18.75a3.52,3.52,0,0,0,0,1.48l.75,4a4.27,4.27,0,0,0,.13.48l1.88,5.47.15.37,2,4.21,1.06,3.9-.31,5.79-1.26,2.9-11,2-2.19-5.27a3.49,3.49,0,0,0-1.38-1.73l-.58-.37a3.34,3.34,0,0,0-.76-.37l-.57-.19a3.3,3.3,0,0,0-1.12-.19h-.55a3.54,3.54,0,0,0-2.16.75l-2.93,2.32-8.8,1.72a3.21,3.21,0,0,0-1.06.39L190,302.84a3.59,3.59,0,0,0-.58.42l-16.86,15.19Zm-3.53-3.47h2.68l3.16-1.65,16.53-14.88a6.67,6.67,0,0,1,1.18-.87l7.53-4.33a7.38,7.38,0,0,1,2.13-.8l8-1.55,2.27-1.8a7,7,0,0,1,4.31-1.49H213a6.69,6.69,0,0,1,2.23.37l.56.18a6.92,6.92,0,0,1,1.55.75l.58.38a6.91,6.91,0,0,1,2.72,3.36l1.1,2.63,6.38-1.16.27-.62.25-4.61-.87-3.21L226,284.14a7.38,7.38,0,0,1-.29-.73l-1.88-5.47a6.37,6.37,0,0,1-.26-.95l-.76-4a7.16,7.16,0,0,1,.08-2.95l.19-.76a6.94,6.94,0,0,1,3.78-4.63,7.06,7.06,0,0,1,.93-.88V263a7,7,0,0,1,.44-2.43l.56-1.51a7,7,0,0,1,2.81-3.45l5.09-3.2a7,7,0,0,1,2.95-1l7-.76a6.2,6.2,0,0,1,1.72,0l6.78.95a6.68,6.68,0,0,1,1.51.38l10.14,3.86,3.54-.59,4.58-2.88,4.89-5.49,1.74-3.74,2.87-11.44a6.56,6.56,0,0,1,.67-1.68l1.87-3.39a7,7,0,0,1,5.11-3.52l2.64-.38a7.27,7.27,0,0,1,3.33.34l8.09,2.92,8.91-.56.91-.62,5.3-7.78a7,7,0,0,1,2.61-2.29l3.77-1.91a7,7,0,0,1,4.48-.61l1.89.37.39.09.18-6.29a7,7,0,0,1,.73-2.92l2.84-5.65a6.66,6.66,0,0,1,.84-1.29l6.23-7.61,1.8-3.86.39-3.39v-4.87c0-.19,0-.37,0-.55l.57-6.82a6.85,6.85,0,0,1,.31-1.56l1.7-5.27a6.62,6.62,0,0,1,1-2l2.26-3a7,7,0,0,1,2-1.83l8.39-4.95,1.5-1.61,1.28-2.45.41-2.78-.6-3.25-3.51-8.59a6.49,6.49,0,0,1-.39-1.36l-.95-5.09a6.42,6.42,0,0,1-.11-1.69l.18-3.19a6.92,6.92,0,0,1,.27-1.54l1.46-4.74.39-2,.13-1.8-.55-12.82a7.69,7.69,0,0,1,0-1.08l.38-3.38A6.88,6.88,0,0,1,365,90.06l1.7-2.27a6.42,6.42,0,0,1,.81-.91l3.23-3a6.62,6.62,0,0,1,1.36-1l-.71-2.75a6.89,6.89,0,0,1-.2-1.15L371,76.7a7.11,7.11,0,0,1,.28-2.64l1.52-4.9a7,7,0,0,1,1.57-2.7l2.82-3a8.86,8.86,0,0,1,.79-.72l2.84-2.21,1.93-2.28.21-.59.11-1.33a6.79,6.79,0,0,1,.27-1.44l.56-1.87a6.92,6.92,0,0,1,2.05-3.22l1.71-1.51a6.84,6.84,0,0,1,1.84-1.17l5.67-2.46a6.86,6.86,0,0,1,2.76-.57h2.82a7,7,0,0,1,1.64.2L407,45.4h1.29L424.8,42l3.6-2.12,1.15-1.24,4.48-7,5.32-12-.1-1.58-.2-6.64a6.66,6.66,0,0,1,.05-1.08l.38-3c0-.11,0-.23,0-.34-10.89-2.61-24.76-5-38.61-2.39-5.76,1.08-9.93,2.83-12.76,5.34a37.86,37.86,0,0,0-4.56,5.34,60.77,60.77,0,0,1-4.9,5.93c-11,11.31-27,12.76-41.17,14l-.34,0c-1.75.16-3.49.31-5.2.49L332,36l.2,1.12c3.53,21.21-17.68,36.82-40.45,41.28-8.08,1.59-16.2,2.49-24.05,3.37-9.32,1-19,2.12-28,4.31-10.61,2.56-29.62,9.26-37.76,25.37-.73,1.45-1.42,3-2.08,4.57l-.12.27c-2.79,6.45-5.95,13.76-13.46,17.75C181,136.92,175.25,137,170.66,137l-42.79.26c-.65.45-1.3.9-2,1.34l-1.15.76c-12.1,8-25.82,17-23.84,27.93.18,1,.46,2,.75,3.12l.06.22c1.33,5,3.34,12.59-2.35,18.43-3,3.08-6.85,4-9.86,4.51a52,52,0,0,1-31.39-4.9l-1.49-.78c-1.77-.93-3.58-1.88-4.72-1.9h-.08c-2,0-5,2.74-6.68,4.19-12.44,11-26.46,23.3-39.06,36.6l5.49,2.06a6.61,6.61,0,0,1,2,1.19l5.85,4.91a6.77,6.77,0,0,1,1.31,1.47l1.51,2.25a7.15,7.15,0,0,1,.44.76l2.68,5.16,1.72.5a7.1,7.1,0,0,1,1.57.68l1.31.77a6.92,6.92,0,0,1,2.2,2l2.47,3.57a7.84,7.84,0,0,1,.72,1.33l2.07,5.1a6.08,6.08,0,0,1,.22.64l1.7,5.66a4.74,4.74,0,0,1,.15.57l1.13,5.48,2.28,12a7,7,0,0,1,.12,1.29v5.67a7,7,0,0,1-.92,3.45l-2.26,4a6.8,6.8,0,0,1-1.68,2l-.5.41.69.6a6.2,6.2,0,0,1,.8.82l1,1.13a7,7,0,0,1,1.32,2.48l.22.78a6.49,6.49,0,0,1,1.62.71l12.78,7.75.39.14,6.09-2.67a7.41,7.41,0,0,1,1.83-.52l7.74-1.06,1.23-.89a6.87,6.87,0,0,1,1.37-.76l2.26-.95a6.87,6.87,0,0,1,3.82-.45l1.11.18a6.93,6.93,0,0,1,2.36.83l.58.34,9.1-5.23A7,7,0,0,1,96.6,302l3.21-.37a6.86,6.86,0,0,1,3.46.48l2.27.93a7.55,7.55,0,0,1,1.16.62l3.3,2.15.47.11h7.8l2.7-.82,8.63-4.6a7.42,7.42,0,0,1,2-.69l4.9-.95a7.12,7.12,0,0,1,3.69.29l4.74,1.72a6.89,6.89,0,0,1,3,2.15l4.15,5.08a6.68,6.68,0,0,1,1.15,2.05l2.23,5.7,3.22-.12a6.82,6.82,0,0,1,2.4.33Zm180.53-63.5,11.55,2H357l1.16-1.61a7,7,0,0,1,2.8-2.28l1.71-.76a7,7,0,0,1,3.75-.54l4,.54.21-.71.16-10.78a7,7,0,0,1,.75-3l.53-1.07a7.17,7.17,0,0,1-.73-1.53l-.77-2.3-.72-1.29a6.49,6.49,0,0,1-1.5-.33l-.56-.19a6.89,6.89,0,0,1-3.75-3l-.56-.94a6.93,6.93,0,0,1-.61-1.32l-1.23-3.67-5.21,2.71a6.87,6.87,0,0,1-2.81.78l-6.59.37a7.08,7.08,0,0,1-2.21-.23l5.73,7.88a7,7,0,0,1,1.24,5.2,6.88,6.88,0,0,1-2.81,4.53l-1.26.91a7,7,0,0,1-.59,5.87L346,250.76a7.05,7.05,0,0,1-2.12,2.23Z"/><g id="MUeQa9.tif"><path class="cls-1" d="M142.84,144.78l2.53-1.43.24.26-.32.86,2.17.48-1.71.61,1.18.94,0,.32c-.7,0-1.41-.07-2.11-.13a4.23,4.23,0,0,0-4.45,3.93,3,3,0,0,0,.88,1.58c.72.81,1.57,1.5,2.28,2.31.19.21.06.69.1,1.37,1.43,1.38,1.43,1.38,1.34,2.84l-1.44-.47,2.29,5.52c.64-.84,1.42-1.43,1.59-2.16.54-2.42,1.52-4.73,1-7.38a3.3,3.3,0,0,1,2-3.84,2.64,2.64,0,0,0,1.25-3.88c-1-1.81-.65-3.73-.28-5.55.32-1.51,2.11-2.19,3.85-1.85a5.51,5.51,0,0,0,1.9,0,1.82,1.82,0,0,1,2.39,1.64c.39,1.72,1.1,2.28,2.86,2.28h62.29c1.78,0,2.32-.47,2.65-2.27.25-1.35,1.05-1.83,2.44-1.6a5,5,0,0,0,1.88-.06,3.21,3.21,0,0,1,4,3.07c.08,1.8.24,3.55-.92,5.17-.54.77.35,2.3,1.54,3,1.94,1.17,2.14,2.56,2.18,4.72a35.63,35.63,0,0,0,1.4,7.43c.09.4.72.67,1.24,1.12l2.33-5.37-1.54.52c0-.38-.17-.75,0-.91,1.37-1.8,1.43-4.45,3.77-5.64a2.1,2.1,0,0,0,.84-1.46c.18-1.71-1.88-3.93-3.57-4a10.11,10.11,0,0,1-3-.34L241,146l0,0a2.94,2.94,0,0,0,1,.2c1.67-.17,3.12.06,4,1.77.1.19.63.27.94.24,1.62-.16,2.53.6,2.74,2.53a6.29,6.29,0,0,0-1-1.34,5.9,5.9,0,0,0-1.45-.63c0,.45-.08.91-.1,1.37,0,.23.1.49,0,.69-.5,1.37,0,1.93,1.42,2,1,.06,1.16.36,1,1.17-1-.44-2.07-1.22-3.11-1.23-.8,0-1.6,1-2.62,1.64l1.56.65-2.87,2.38.18.29h1.65c-.83,2-1.58,3.8-2.37,5.62-1.68,3.85-1,8-1.35,12-.13,1.43-.29,2.77-1.84,3.64l2,.11-.84,1.27,2,1.48c1.79-.7,2-1,1.77-2.84s1-4.32,2.48-4.79c-1.26,2-2.87,3.93-1.34,6.13-3.31,2.59-6.51,5.09-9.72,7.57-.66.52-1.4.94-2.06,1.46a4.54,4.54,0,0,0-2,3.46,11.47,11.47,0,0,1-.19,2c-.4,1.65-1,3.26-1.29,4.91-.11.55.3,1.19.47,1.79l.37-.1.71-1.89c.37,2.69,1,3.21,2.31,2.43l-1-2.1c.94.65,1.77,1.59,2.22,1.44a3.1,3.1,0,0,0,1.83-1.9c.38-1.84-1.78-1.59-2.58-2.58.28-2.73,2.87-3.85,4.19-5.85.52-.78,1.59-.35,2.07.57a10.4,10.4,0,0,1,.47,1.41l1.35-2.56.79,1.65,1.09-2.83,1.19,1.34c-.12-3.28,2.88-3.46,4.48-5.06a2.22,2.22,0,0,0,3,.07,3,3,0,0,0,.79-3.34,8.63,8.63,0,0,1,.33-2.89,25.41,25.41,0,0,1,.45,4.14c.09,1.95-1.4,3.11-3.29,3.25a11.53,11.53,0,0,0-4.29,1.5,2.06,2.06,0,0,0-.66,1.94c.9,1.39,1.75,2.94,3.77,3.13,1.3.13,2.6.56,2.84,2.13s-.87,2.14-1.95,2.82a67.16,67.16,0,0,0-6.17,4.08c-3.29,2.61-5.32,5.83-3.82,10.3a1.18,1.18,0,0,1-.08.94c-.65.91-1.37,1.77-2.1,2.69.82.44,1.72.3,2.62-1.06l-.18,1.86.34.28.63-1.37.39.26-.13,1.89c2.09-.88,2.95-.29,2.67,2a23.54,23.54,0,0,1-1.1,3.79c1.8,1.25,1.8,1.25,1.72,2.15-1.64-1.66-3.24-2.19-4.64-1.46a2.34,2.34,0,0,0-1.44,2.2c3.61,2.81,5.95,0,8.66-1.19l-.52-1.07c2.09,1.72,3-1.13,4.65-.91a12.78,12.78,0,0,1,0-3.17c.79-2.87.67-3.28-2.09-4.53-2-.93-2.14-1.11-1.53-3.1a14.65,14.65,0,0,1,6.15-8.11c1.29-.85,2.71-1.49,4.31-2.34a9.08,9.08,0,0,1-1.15-.73,15.06,15.06,0,0,1-1.83-1.83c-.69-.88-1.26-1.87-2-2.95l1.06-.8-1.54-1.38.35-.34,2.46,2.34-1.61.37c1.79.92,1.36,3.32,3.6,4.1l-1.22-4.07.4-.12c.47,1.36,1,2.7,1.41,4.07,1.17,3.61,2.24,7.25,3.5,10.83a3.73,3.73,0,0,0,3.6,2.56c1.71.08,2-1.23,2.4-2.7.52,2.34-.16,3-3.16,3.53l-1.45,3.2,2.72-1.14-.36,1.4.24.17,1.46-1.22.37,1.34c1-.77,1.14-.77,2,0a4.73,4.73,0,0,1,1.31,4.32c-.18,1.44-.75,1.66-2,.92a2.28,2.28,0,0,0-3,.53,1.35,1.35,0,0,0-.13,2c1-.59,1.84-1.5,2.69-1.5a14,14,0,0,0,3.7-.21,1.42,1.42,0,0,1,1.72.71c-1,.09-2-.09-2.65.34a3.08,3.08,0,0,0-.79,2.21c0,.88.83.57,1.42.64a3.06,3.06,0,0,1,1.68.64c.72.67,1.26.46,1.84-.07a2.7,2.7,0,0,0,.52-3.39c-.24-.53-.53-1-.82-1.57l4-.18-2.66-2.48,1.94-.14c-1.58-1.85-1.58-1.85-1.16-2.2a18.31,18.31,0,0,1-.41-2.84,3.77,3.77,0,0,0-3.56-3.94,3.43,3.43,0,0,1-1.33-.4,5.21,5.21,0,0,1-2.86-4.87c-.11-4.19,1-8.44-.83-12.6a2.77,2.77,0,0,1,3.39,1.08,15.18,15.18,0,0,1,1.35,2.95c.35.85.76,1.66,1.84,1.29s1.15-1.16.86-2.12c-1-3.3-2.91-5.6-6.5-6.18a2.88,2.88,0,0,1-1.46-.72c-1.34-1.28-2.52-2.75-4.61-2.82-.24,0-.5-.25-.71-.44a11.51,11.51,0,0,1-3.7-6,9.82,9.82,0,0,1,0-1.82l.87.73c-.18-1.17-.41-2.28-.52-3.41-.22-2.28-.76-4.41-2.53-6-.88-.79-1.89-1.45-2.74-2.27-1.08-1-2-2.11-1.85-3.81a5,5,0,0,0-.55-1.77l-.51,0c-1.22,2.27-4.34,2.84-4.85,5.8l-.77-.42-2.89,3c-.1-1.25.73-1.7,1.58-2.38a70.16,70.16,0,0,0,5.27-4.94,6.85,6.85,0,0,0,1-1.35,10.94,10.94,0,0,1-1.63-1c-.35-.35-.71-1.24-.81-1.2-1.27.45-1-.69-1.06-1.12a12.71,12.71,0,0,1,0-3.26,14.56,14.56,0,0,1,.89-2.63l.14.09c-.21,1.82-.43,3.64-.68,5.8l.74-.56,1.49,2.84c.37-1.72.47-3.36,2.22-4.54-.71,1.68-2.19,3-.75,4.63a8,8,0,0,0,4.17,2.68l-.56-2.69c1.56,2.17,2.52,2.58,4.17,1.71l-1.58-2c1.17.82,2.14,1,3.23-.2-2.31.2-3.46-.38-3.56-1.91a8.05,8.05,0,0,0-.72-2.76,2.89,2.89,0,0,1,.49-3.17,2.43,2.43,0,0,1,0,1c-.4,2.25.34,3.05,2.53,2.82a5.8,5.8,0,0,1,1.24.28,10.6,10.6,0,0,0,1.26,0,6.06,6.06,0,0,0-.07-1.35c-.06-.22-.42-.35-.66-.54a2,2,0,0,1-2.7.27c-1-.52-.78-1.48-.58-2.41a5.14,5.14,0,0,0-.09-1.32c.33-.07.8-.15,1.25-.28a6,6,0,0,0,1.32-.5,2.88,2.88,0,0,0,1-3.41c-.46-1.16-1.48-1.25-2.51-1.11a4,4,0,0,0-3.44,5.29c.09.3.17.6.25.9-1.39-1.44-1.26-3-.44-4.62l0,0,2.92-2.23c.15,0-.09,0-.32,0-1.41.16-2.76.88-4.25.07-.36-.2-1.23.3-1.73.66a10.42,10.42,0,0,0-1.47,1.61L243.76,145l.17-.21,3.81,2.28c0-.87,0-.87-3.5-2.8l1.33-.42-1-1.37,1.26.07.17-1.18,2,2.48a7.78,7.78,0,0,0-1,0,.45.45,0,0,0-.33.23c0,.13.05.41.13.43,1.25.3,1.3,1.44,1.76,2.35a2.83,2.83,0,0,0,1.57,1.24c.3.1.84-.53,1.34-.88l-2.63-2.42c.19,0,.45,0,.55.07,1.48,1.64,3.56,1.71,5.48,1.81a24.39,24.39,0,0,0,5.33-.67c1.59-.29,2,.1,2,1.74-.08,1.81,0,3.63,0,5.2l4.25,1.72.44-1c1.24.4,1.79,1.26,1.5,2.29a1.87,1.87,0,0,1-2.45,1.12,17.49,17.49,0,0,1-2-1.06c-.59-.31-1.21-.57-1.82-.85l-.29.37c.2.31.53.61.58.94a3.82,3.82,0,0,1,0,2c-.39.79-1.15.62-2,.31a4,4,0,0,0-2.33.06c-.17.05-.22,1.24,0,1.78.37.93,1.23.9,2.07.62l1.14-.38c.38,1.49-.55,2-1.67,2.51l.71,1c-.33.16-.65.45-1,.44-1.83-.06-3.52,1.22-5.43.44-.86-.35-1,.41-.81,1a7.5,7.5,0,0,0,1.41,2.25c.78.83,1.76,1.45,2.61,2.21a8.68,8.68,0,0,1,3.06,5.76c.19,1.9.59,3.79.92,5.75L260,182c.93,2.8,2.12,5.14,5.19,6.13,1.14.37,2,1.46,3.08,2.16a5.78,5.78,0,0,0,1.8.95c3.83.87,5.67,2.78,7,6.9a2.24,2.24,0,0,1-1.42,2.88c-1.13.3-1.94-.3-2.47-1.75A12.05,12.05,0,0,0,272,196.7a7.79,7.79,0,0,0-1.7-1.46l-.37.27a20.15,20.15,0,0,1,.5,2.86c.06,2.12,0,4.25,0,6.38,0,1.19,0,2.38.06,3.56a4,4,0,0,0,3.95,3.86c1.76.1,4,2.4,3.68,4.19a2.62,2.62,0,0,0,1.55,3.19l-1.06.9,1.88,1.46-1.8.84,2.19,1.45c-.66.72-.66.72-3.86,1.13.66,1.67,1.1,3.37-.82,5h5.52c.33,1.23.35,2.11-.95,2.55a1.7,1.7,0,0,0-.92,1c-.41,1.29-1.33,1.35-2.46,1.34-3.56,0-7.12,0-10.72,0-1.1,4-2.64,8-.56,12.2l-.44.14a15.73,15.73,0,0,0-1.61-1.45,47,47,0,0,0-5.33-3.5,2.16,2.16,0,0,1-1.48-2.27c.14-1.64.42-3.26.67-5.14-3.3.15-6.66-.87-10,.59a128,128,0,0,1-34.48,10,153.53,153.53,0,0,1-30.84,1,124.1,124.1,0,0,1-43.45-11.16,1.85,1.85,0,0,0-.66-.27c-3.21,0-6.43,0-9.82,0,.26,1.22.53,2.27.71,3.33a10,10,0,0,1,.14,2.12,2.16,2.16,0,0,1-1.36,1.89c-2.19,1.29-4.22,2.87-6.3,4.34a12.32,12.32,0,0,0-1.11,1,22.35,22.35,0,0,0,.68-4.61,62.31,62.31,0,0,0-1.22-7.54c-.06-.29-.89-.59-1.36-.59q-5.7-.07-11.41,0c-.94,0-1.61-.12-1.94-1.16-.16-.5-.85-.81-1.06-1.3a6.34,6.34,0,0,1-.54-2.3c0-.15,1-.46,1.54-.48,1.5-.07,3,0,4.24,0l-.44-4.78-3.2-.61,0-.55,2.13-1.37-1.66-.9,1.8-1.48-1.06-.82a2.65,2.65,0,0,0,1.54-3.29c-.33-1.74,2-4.07,3.75-4.13a3.89,3.89,0,0,0,3.79-3.52c.11-2-.06-4.07,0-6.1s.33-4.14.51-6.2c0-.28,0-.55.08-.87a2.41,2.41,0,0,0-2.34,1.65,16.44,16.44,0,0,0-.9,2.4,1.91,1.91,0,0,1-2.21,1.56,2,2,0,0,1-1.7-2.42,9,9,0,0,1,4.94-6.74,1.31,1.31,0,0,1,.28-.09,8.21,8.21,0,0,0,5.14-2.92,2.78,2.78,0,0,1,1.48-.79c3.2-.73,4.28-3.27,5.4-6.09l-1.23.18c.3-2.07.58-4.1.89-6.13a9,9,0,0,1,3.74-6,17.52,17.52,0,0,0,2.45-2.18,2.36,2.36,0,0,0,.8-2.32l-7.06-.81-.11-.46.88-.71.26.22c.22.21.41.57.67.62,1.47.3,2.31-.23,3.58-2l-.48,2.52c1.61-.37,4.13-1.81,4.49-3.09.29-1-.22-2.27-.38-3.42l.22-.13,1.52,3.87.91-2.82,1.14.32-.79-5.7c1.46,2.56,1.23,4.9.73,7.39l-.82-.34c-.68.81-.64,2.52-2.74,1.8a7,7,0,0,0,.89,1.46c1.49,1.32,3.05,2.55,4.54,3.88a25.76,25.76,0,0,1,2.41,2.49c.24.28.23.78.41,1.44l-3-3.17-.44.27c-.89-1.06-1.63-2.06-2.5-3s-1.86-1.7-2.8-2.55a1.34,1.34,0,0,0-1,1.82,2.28,2.28,0,0,1-.31,1.74,24,24,0,0,1-3.3,3.46A8.14,8.14,0,0,0,127.3,176c-.22,1.63-.43,3.27-.64,4.84l.68-.5.43.21a14.16,14.16,0,0,1-1.19,3.66c-1,1.53-2.22,3.27-3.78,4.05a18.25,18.25,0,0,0-3.91,2.4,5.87,5.87,0,0,1-2.4,1.27,8.39,8.39,0,0,0-6.12,6.3c-.15.87,0,1.64,1,1.93s1.48-.32,1.8-1.14a21.07,21.07,0,0,1,1-2.51,2.85,2.85,0,0,1,3.75-1.55c-1.38,3.31-1.13,6.75-.83,10.21a17.7,17.7,0,0,1,0,3c-.18,2.42-2,4.47-4.11,4.59-2.36.15-3.69,1.93-3.48,4.35a8.79,8.79,0,0,1-.43,3.12c-.15.52-.74.92-1.23,1.5l2,.09-2.65,2.47,3.91.17c-.31.46-.6.83-.82,1.24-.86,1.66-.06,4.27,1.42,4.22a14.07,14.07,0,0,0,3.8-1.2.41.41,0,0,0,.19-.36c-.15-.75-.11-1.7-.56-2.19s-1.34-.36-2-.42c-.25,0-.52.26-1,.51a2,2,0,0,1,2.68-1.16c.44.14,1,.42,1.33.29a2.82,2.82,0,0,1,4,1.64,1.46,1.46,0,0,0,.24-2.31,2.41,2.41,0,0,0-3.21-.45c-1,1-1.39.38-1.65-.54a4.75,4.75,0,0,1,1.06-4.77c.62-.68,1.33-1.13,2,.08l.57-1.41,1.28,1.14.25-.18-.33-1.36,2.66,1-1.44-3.12c-2.93-.43-4.13-1.9-2.86-3.76,0,1.25,0,2.49,1.46,2.85a3.66,3.66,0,0,0,3.58-1.27,3.15,3.15,0,0,0,.67-1.09c.59-1.55,1.2-3.1,1.69-4.68.82-2.68,1.53-5.39,2.35-8.06a19.19,19.19,0,0,1,1-2.22l.37.21c-.24.61-.51,1.21-.71,1.83s-.34,1.22-.54,2c.77-.26,3.27-3.61,3.17-4l-1.25-.36,2.48-2.17.25.3-1.46,1.38,1.29.81a8.58,8.58,0,0,0-1.69,1.94c-.61,1.41-1.21,2.68-2.9,3-.16,0-.27.34-.51.66l1.76.75a14.68,14.68,0,0,1,8,7.91c1.6,3.91,2.23,3.17-1.94,5.11a2.83,2.83,0,0,0-1.55,3.29c.33,1.29.53,2.62.81,4.07.22,0,.89,0,1.1.23.9,1.19,1.84,1.61,3.23.66l-.54,1.14,6.21,3.19c.42-1.89,1.68-1.82,2.95-1.63a2.66,2.66,0,0,0-1.7-2.64c-1.91-.83-3.46-.16-4.89,1.24a2.87,2.87,0,0,1,.65-1.18,9.88,9.88,0,0,1,1.2-.9,12.53,12.53,0,0,1-1-2.86,6.12,6.12,0,0,1,.43-3c.11-.28,1.32-.1,2.06-.14v-1.86l1.41,1.56-.39-2.25c1.25,1.41,1.88,1.49,2.88.62-2.11-.84-2.66-2-2.11-4.17a7.8,7.8,0,0,0,.19-2.26c-.17-3.15-2-5.42-4.34-7.2-2.08-1.56-4.42-2.77-6.51-4.32a3.94,3.94,0,0,1-1.56-2.45,2.09,2.09,0,0,1,2.2-2c1.84,0,2.81-1.15,3.82-2.36s1-2.51-.5-3.23a12.92,12.92,0,0,0-4.14-1.17,3.14,3.14,0,0,1-3-3.11c.06-1.36.2-2.72.3-4.08l.37,0a16.51,16.51,0,0,1,.06,3.06c-.25,1.62.2,3.1,1.54,3.41a6.64,6.64,0,0,0,2.36-.27,15.65,15.65,0,0,1,2.95,1.76,16.27,16.27,0,0,1,2,2.82l.71-1.1L144,192l.71-1.75,1.6,3.14c.07-.78.06-1.16.14-1.52.29-1.22,1.71-1.8,2.34-.81,1.27,2,3.75,3.11,4,5.73a10.39,10.39,0,0,0-2.43,1.65c-1.14,1.36.66,1.74,1.17,2.37,1.17,1.44,1.61-.44,2.62-1.07a8.5,8.5,0,0,1-.37,1.31,6.31,6.31,0,0,1-.63.89c1.56.65,2,.25,2.5-2.41l.75,2.4c.34-.75.69-1.15.66-1.52a23.82,23.82,0,0,0-.49-3.46c-.28-1.24-1.1-2.49-1-3.65.23-1.9-.76-2.93-1.9-4s-2.12-1.71-3.2-2.54c-1.65-1.27-3.29-2.56-5-3.77-1.23-.88-2.53-1.64-3.89-2.52,2-2.67-.15-4.54-1.28-6.86,1.73,1.25,2.93,3.71,2.76,5.23-.22,2,0,2.29,1.6,2.79l2.23-1.34-1.17-1.39h1.66a14.06,14.06,0,0,1-1.22-3,25.76,25.76,0,0,1-.24-5,24.41,24.41,0,0,0-2.95-11.9c-.21-.43-.39-.88-.66-1.51l1.83.15.13-.26-3-2.5,1.55-.35c-1-1-1.61-2.39-3.27-1.84.07-1,.16-2,.2-2.89a7.56,7.56,0,0,0-.08-1.06c-.4.05-.9,0-1.17.2a11,11,0,0,0-1.37,1.56c.37-2.12,1.32-2.71,3.56-2.23.65-2.25,2.46-2.36,4.25-2.11-.23-.3-.43-.74-.77-.94a4.19,4.19,0,0,0-1.31-.3Zm49.95,4.89c.71.29,1.67.61,1,1.55-.41.61-1.15,1.51-2.23.53-.26-.25-.94,0-1.38,0,1.07,1.52,2,2.74,2.81,4a5.78,5.78,0,0,0,6.38,2.7c-.92-1.09-1.77-2.16-2.68-3.17a2.66,2.66,0,0,1-.89-2.89,2.85,2.85,0,0,0-1.35-3.44c-1.27-.84-2.55-1.6-3.93-1l.18,1.92,2.07-.17a3.19,3.19,0,0,1-.93.58,2.92,2.92,0,0,1-1.6,0c-.23-.1-.23-.81-.29-1.09l-1.23-.3.87-2.39-2.82,2.61a3,3,0,0,0,.92.47,5.89,5.89,0,0,1,.77.65c-.25.18-.51.52-.74.5-1.59-.13-1.82,1.31-2.89,2.27,1.47,0,2.6.05,3.72,0a1.39,1.39,0,0,0,.93-.64c.95-1.73,1.34-1.87,3.12-.87Zm.3,7.14c-.86-1.35-1.27-3.06-3-3.78-.68.79-1.24,1.69-2.4.78l-.76,1.47,1.19-.23c0,1.26.58,1.91,1.69,1.94s2.16-.11,3.24-.17a17.94,17.94,0,0,1-2.75.64,32,32,0,0,1-3.73-.14,13.26,13.26,0,0,0,1,1.39c1.3,1.42,1.31,1.41-.25,2.56a28.84,28.84,0,0,0,1.43,3.94c.39.75,1.2,1.43,2.23.6.82-.65,1.87-.87,2-2.38.1-1.05,1.32-2,2.15-3.13ZM198.22,187l-3.83.5a3.88,3.88,0,0,1,.11,1.24,6.2,6.2,0,0,1-.71,1.28,8.19,8.19,0,0,1-1-1,4.78,4.78,0,0,1-.44-1.09l-.55.21a24.26,24.26,0,0,0,.92,2.51c.85,1.77,1.9,3.46,2.65,5.28.61,1.49,2.75,2.33,4.05,1.31.63-.5,1.4-.9,1.19-2-.42-2.38-.67-4.8-1-7.2l.43.2L199,189.46a10.62,10.62,0,0,1-.77-1.45,2.72,2.72,0,0,1,0-1l.78,1.66.36-.09-.87-4.19-.26.08Zm65.15,43.19c-2.2-1.5-4.41-2.94-6.56-4.48a5.88,5.88,0,0,0-6.89-.45,104.36,104.36,0,0,1-29.7,10.88,116.16,116.16,0,0,1-32.84,2.55c-6.47-.5-13-1.09-19.36-2.21a92.75,92.75,0,0,1-31.16-11.28c-2.65-1.55-4.82-1.24-7.19.54a55.87,55.87,0,0,1-5.7,3.38,8,8,0,0,0-.85.69c4.1-.68,7.47.89,10.87,2.61s6.6,3.13,10,4.56a120.26,120.26,0,0,0,47.29,9.5c5.59,0,11.2-.34,16.77-.79a103.51,103.51,0,0,0,26.14-5.42c7.24-2.56,14.3-5.64,21.39-8.6C258.11,230.65,260.62,229.59,263.37,230.23ZM242.11,193.1l-.09-.92L240,194.32l-.33-.29a9.29,9.29,0,0,0,.13-1.66,1.2,1.2,0,0,0-.55-.88,1.16,1.16,0,0,0-1,.26c-1,1-2,2.09-3,3.22-.79,1-.54,1.51.52,2.18.6.38,1.4,1,1.42,1.6a2,2,0,0,0,2,2.19c-.78,1.75-2.22,1.54-3.66,1.47l1.23,1.33c-1.45,1.12-1.6,1.1-4.19-.49v1.38c-2.06.11-2.62-1.36-3.11-2.93-4,15.06-13.47,24.46-27.95,28.44h32.69c-.82-2.16-.63-2.95,1-4.69a2.24,2.24,0,0,0,.35-.58c1.19-2.54,3.46-3.11,5.85-1.54a1.55,1.55,0,0,0,1.25.22c1.39-.63,2-4,1-5.27-.83,0-1.85,1.48-2.57-.22l-1.87.27.58-1.18c-1.27-.14-2.41-.38-2.8-1.89l.91,0a2.06,2.06,0,0,0,2-2.6c-1.41-4.5.59-7.81,3.87-10.47a67.48,67.48,0,0,1,7-4.59c.87-.53,1.56-1.23,1.13-2.15A2.68,2.68,0,0,0,250.1,194a4.14,4.14,0,0,1-3.06-1.54c-.5-.55-1-1.09-1.62-1.71Zm-100.62-2.41a6.85,6.85,0,0,0-.7.6c-1.19,1.45-2.38,2.78-4.55,2.76-.5,0-1.25.87-1.43,1.48-.14.44.4,1.16.78,1.65.23.31.74.4,1.09.64a67.27,67.27,0,0,1,6.68,4.57c3.06,2.65,4.89,5.92,3.54,10.22a2.09,2.09,0,0,0,1.94,2.58l.88.09.2.47-2.7,1.65.28.75c-.7,0-1.67-.19-1.78,0-.57,1.13-1.25.58-1.88.25-.84-.43-1.25-.06-1.18.71a12.75,12.75,0,0,0,.68,3.3c.47,1.27,1.11,1.36,2.3.6a3.71,3.71,0,0,1,5.62,1.75,5,5,0,0,0,.46.67,7.55,7.55,0,0,1,1.38,2.22,6.9,6.9,0,0,1-.45,2.52h32.74c-14.83-4.06-24.11-13.5-28.1-28.32-1,2.52-1.38,2.81-3.09,2.48l.16-1.27c-2.7,1.72-3,1.76-4.39.31l1.33-.76c-1.6-.09-2.9-.15-3.63-1.82,1.37-.17,2-.75,2-2.14,0-.5.64-1.13,1.14-1.49,1.34-.94,1.44-1.71.29-2.85-.76-.76-1.41-1.63-2.19-2.37-.33-.31-1-.64-1.28-.5s-.49.81-.56,1.27a4.74,4.74,0,0,0,.14,1.28l-.62.44-1.36-1.83c-.52,0-.95.14-1.18,0C143.18,192.05,142.39,191.38,141.49,190.69Zm121.27,38.37a59.7,59.7,0,0,1,3.8-5c1.13-1.2,2.64-1,4.2-.08a9,9,0,0,0-.14-3.22c-.47-1.55-.94-1.64-2.35-.83-.07.05-.18,0-.33.05l-.35-.85c-1.4.51-4.2-.21-4.89-1.25,2.18-1.38,2.22-2.48.28-4.27a4.9,4.9,0,0,1-1.22-1.86q-1.29-3.62-2.39-7.28c-.29-.95-.63-1.23-1.6-.82a15.54,15.54,0,0,0-8.3,8.19c-1,2.22-.58,3.08,1.72,3.82a3,3,0,0,1,2.05,2.27c.47,1.51-1.27,3,.13,4.47l-.1.09c.13.38.14.93.4,1.09,1.88,1.16,3.82,2.22,5.71,3.35C260.63,227.68,261.84,228.48,262.76,229.06Zm-143.7-9.44c-1,.06-1.92-.15-2.42.22-1,.73-1,2.79-.38,4.07a1.82,1.82,0,0,0,.4-.11c2.2-1.07,3.62-.55,4.66,1.7a2.57,2.57,0,0,0,.39.56l2.15,2.58a23.91,23.91,0,0,0,3-1.44c2.28-1.48,4.19-3.59,6.7-3.92.16-.76.31-1.26.37-1.77a2.37,2.37,0,0,0-.06-1.16c-1-2.29-.27-4,2.05-4.82,1.87-.66,2.35-1.46,1.59-3.36a15.3,15.3,0,0,0-8.6-8.63c-.84-.36-1.17,0-1.38.79-.38,1.47-.86,2.91-1.32,4.36-.68,2.12-1.24,4.24-3.19,5.72a1.78,1.78,0,0,0,.45,3l.78.44,0,.38c-.63.19-1.25.42-1.89.58-.31.08-.9,0-.94.07-.56,1.66-1.38.19-2.15.22Zm118.49-40.75.16-.45c.31-.09.64-.15.94-.27,1.19-.5,1.92-2.66,1.07-3.49a8.14,8.14,0,0,0-3-2.23c-2.09-.61-2.71-2-2.92-3.85-.23-2.06-.39-4.16-2.61-5.33a1.09,1.09,0,0,1-.15-2l-1-1.23V195.5a4.48,4.48,0,0,0,.51-2.06c-.21-2.18,1-3.55,2.51-4.78.8-.67,1.69-1.21,2.5-1.86,1.51-1.21,3-2.49,4.5-3.69,1.23-1,1.22-1.23-.15-1.89a10.73,10.73,0,0,1-1.17-.8l.92-.8Zm-80.94-18.21-.25-.11c-.17.3-.54.64-.48.88.33,1.29.41,1.54-.49,2a4.18,4.18,0,0,0-2.11,3.62,9.7,9.7,0,0,1-.48,2.65,5.07,5.07,0,0,1-1.51,2.08c-1,.81-2.28,1.35-3.38,2.09a2.41,2.41,0,0,0-.39,3.68,9.63,9.63,0,0,0,2,1.08l-2.2,1,.7.78c-.28.23-.48.42-.71.58l-1.48,1a19.31,19.31,0,0,0,1.46,1.4c2.38,1.93,4.83,3.78,7.17,5.76a6.35,6.35,0,0,1,2.13,5.11Zm58.23,55.12H217a2.24,2.24,0,0,0,2.47-1.95,129.32,129.32,0,0,0,3.92-23.69c.06-.82-.08-1.41-.91-1.67L217.4,187C216.53,196.68,215.7,206.1,214.84,215.78Zm-59.63-64.7c1.38-.51,2.31-3.34,1.11-4.41s-1.09-2.1-.24-3.25a1.67,1.67,0,0,0-2.58.16c-.94,1.08-.7,1.91,1.21,3.92-2.66-.54-2.18-2.75-2.85-4.34a4.46,4.46,0,0,0,.13,2.63c1.11,2.34.83,3.69-1.44,5.07A2.91,2.91,0,0,0,149,154c.42,2.12-.23,4-.61,6-.33,1.74-.81,3.32-2.22,4l.72,9.88,1.46-1.27c.28-.24.54-.66.84-.7,2.31-.31,3.19-1.75,3.33-3.9s.53-4.26,2.78-5.36c0,0,0-.16,0-.23l-1.48-.23,1.82-1.71-1.62-.25,1.64-2.11c-1.92-1.2-2.28-1.84-1.83-3.31.22-.72.59-1.4.86-2.1C154.88,152.23,155,151.75,155.21,151.08Zm85.33,13c-1.62-1.47-3.27-6.51-2.8-9.11a3.53,3.53,0,0,0-1.7-4.12c-2-1.33-2.37-2.7-1.27-4.94a2.34,2.34,0,0,0-.19-2.93,21.23,21.23,0,0,1-.31,2.85,2.21,2.21,0,0,1-2.13,1.73c1.86-2,2.09-3,1-4a1.56,1.56,0,0,0-2.51.09c.89.9,1.29,1.8.18,2.81-1.43,1.3-.77,4.24.66,4.71.42,1,.71,1.83,1.06,2.61,1,2.29.76,3.17-1.45,4.41l1.7,2.24-1.48.11-.34.38,2,1.2-.25.34-1.31.09a5.11,5.11,0,0,1,2.75,4.52c0,.57.24,1.13.25,1.69,0,1.91,1.11,2.79,2.83,3.17a3.13,3.13,0,0,1,1.17.61c.49.4.9.88,1.47,1.45C240.11,170.48,240.32,167.37,240.54,164.05Zm-29.87,22.42c-1.53.88-3.12,1.8-4.94.48-.13-.09-.82.32-1,.63a3.08,3.08,0,0,0-.16,1.4c.09,4.65.08,9.31.33,14,.19,3.45.7,6.89,1.08,10.33.13,1.25,1.59,2.1,3.28,1.94,1.38-.12.78-1.22.81-1.88.23-5.4.44-10.81.57-16.22C210.74,193.6,210.67,190.09,210.67,186.47Zm6,2.09c.08-3-.49-3.58-2.7-3.53-.24,0-.48,0-.71.06a1.58,1.58,0,0,0-1.57,1.67c-.18,4.07-.41,8.14-.56,12.22-.2,5.16-.33,10.33-.51,15.49-.05,1.58.36,2.1,1.87,2.16s1.8-.37,1.93-2c.22-2.83.5-5.66.74-8.5C215.68,200,216.21,193.9,216.66,188.56Zm-51.11,46.72a132.18,132.18,0,0,0,55.13,0Zm27.3-69.88c-.89.52-2.38.89-2.44,2.69-.1,2.85-.26,5.69-.29,8.53,0,.36.57.93,1,1a39.3,39.3,0,0,0,4.46.81,1.41,1.41,0,0,0,1.17-.43c1.51-2.34,3-4.73,4.6-7.43l-2.85-1.24a12.53,12.53,0,0,1-2.31-1.08C195,167.44,194,166.43,192.85,165.4Zm-1.78,54.88a11.27,11.27,0,0,0,.24-1.5,60.52,60.52,0,0,1,.05-7.38,10.82,10.82,0,0,0-.69-5.55c-.33-.85-.68-1.91-2-1.51-1.6.49-3.12,2.18-2.9,3.26.73,3.49,1.48,7,2.22,10.43a3.56,3.56,0,0,0-1.25.45c-.2.19,0,1-.15,1-1.38.39-1.88,2.36-3.74,2-.32-.06-.85,1-1.29,1.55a4.3,4.3,0,0,0,1.28.71,17.29,17.29,0,0,0,2.28,0,3.55,3.55,0,0,0,3.18-1.93l-1.18.39-.07-.17,1.24-1-.39-1.28.28-.11,1.11,2.05c1.33-.35,1.33-.47.2-3.39Zm11.42-60.66c-.61-.11-1-.2-1.43-.26-3.83-.53-5.59,1-7.43,4a1.44,1.44,0,0,0,0,1.2,7.58,7.58,0,0,0,4.51,4.09,2.74,2.74,0,0,0,2.32-.43,2.91,2.91,0,0,0,.22-2.3c-.29-1.26-.34-1.41.74-2.09l-.27,2,5.24-3.74c-1.5-.46-2.71-2.28-4.85-1.32Zm-4.73,26.83c0-1.15-1.09-2.12.23-2.89,0,0-.05-.35-.09-.53-.77-3-2-4.07-5.07-4.51-.47-.06-1-.12-1.41-.22-1.21-.26-1.78.31-1.95,1.44-.19,1.36-.47,2.72-.54,4.09-.09,1.85,0,3.72,0,5.58l.43.18,3-2.48a7.28,7.28,0,0,1-.33-1.59,3.45,3.45,0,0,1,.46-1.12,3.91,3.91,0,0,1,1.1.7c.25.31.24.82.43,1.19s.44.61.64.6C195.7,186.8,196.71,186.61,197.76,186.45Zm67.1,59.14c-.87-2.67-.18-5.37.58-8.11.65-2.35.53-2.39-2-2.39h-1c-4.15,0-4.17,0-4.69,4.15a6.23,6.23,0,0,0,.12,1.82,1.28,1.28,0,0,0,.51.77C260.54,243.1,262.69,244.33,264.86,245.59Zm-143,.32c1.52-1,3.18-2.27,5-3.29,2-1.16,2.2-1.18,1.93-3.49A15.91,15.91,0,0,0,128,236a1.1,1.1,0,0,0-.78-.63c-2.07,0-4.14,0-6.49,0a54.19,54.19,0,0,1,1.15,5.4A47.69,47.69,0,0,1,121.91,245.91Zm80-24.11,3-1L202,218.48l.72-.5-2-.82c1.55-.94,2.16-9.91.8-11.81L200,207.1l-3.05-2a7.65,7.65,0,0,0,.69,4.82,10.81,10.81,0,0,1,.91,3.08c.24,1.67.28,3.36.4,5.06l.79-.26-.29,2.32.4.1.58-.9ZM189,178c-1.44.07-3.49-.45-4.36.34-1.36,1.24-1.93,3.36-2.8,5.12-.06.12.21.39.28.6a2.13,2.13,0,0,1,.18.88c-.26,1.7-.19,1.79,1.66,1.72a4.76,4.76,0,0,1,.35-1.32,3.85,3.85,0,0,1,1-.84c.13.39.43.8.37,1.16-.32,2.13.42,3.22,2.39,3.61C188.35,185.66,188.64,182.05,189,178Zm10.88,28.13c1.84-1.17,3.47-2.44,2-4.9,0-.08,0-.19,0-.29-.06-1-2-2.77-3-2.64a2.53,2.53,0,0,0-1.08.68,6.83,6.83,0,0,0-.72.79l-.19-.18.53-1.51c-2.28.43-2.41-1.15-2.75-2.59a15.66,15.66,0,0,0-.77-2.14c-.39-1-1.05-1.4-2.51-.86,1.22,2.42,2.42,4.79,3.64,7.16.14.28.52.48.57.76.26,1.46.44,2.93.6,4Zm-21.47,17.3c-.13-1-.21-1.66-.3-2.37q-2.39-17.21-4.76-34.41c-.31-2.26-.59-4.52-1-6.77-.07-.41-.48-.77-.74-1.16a7.1,7.1,0,0,0-.31,1.39,14.3,14.3,0,0,0,.23,1.83l4.8,34.69c.3,2.16.58,4.33.93,6.48,0,.32.47.58.71.87Zm10.17-57.86c-.32.63-.45.88-.57,1.13-.66,1.43-1.32,2.82-2.92,3.53a1.77,1.77,0,0,0-.72,1.38c0,1.61.18,3.22.34,4.82,0,.29.3.76.5.79,1.42.16,2.86.24,4.7.37,0-3.51.06-6.73-.06-9.95C189.8,167,189.09,166.39,188.55,165.55Zm20,21.08.42,0c.24-1.19-.55-2.71,1.09-3.76-.28,1.23-1.05,2.19-.29,3.34a8.48,8.48,0,0,1,1-2.22c1.18-1.34,1.19-1.69-.33-2.48l1.28-.66-.87-1.27c1.15.16,1.23-.65,1.3-1.52.11-1.53.26-3.07.41-4.83a7.41,7.41,0,0,0-2.63.75,4.4,4.4,0,0,0-1.43,5.38,2.17,2.17,0,0,1-.94,3c-1.6,1-1.87,2.86-.57,4.62v-3.25l.15,0,.46,3.1.54-.07V183.4l.24,0Zm-25.13-20.92a5.4,5.4,0,0,1,.3.94c.13.74.13,1.51.33,2.23s.76.88,1.45.49c1.75-1,2.78-4.57,1.91-6.34a20.37,20.37,0,0,1-.94-2.73c-1.54,0-1.53,0-2.74,1.47-.08.1-.25.13-.37.2-2,1.24-2.69,3-2.06,5.42C183.22,167.63,183.29,167.57,183.44,165.71Zm-2.22,24.22-1.32-.73c.15,2.62.24,5.23.47,7.82a2.14,2.14,0,0,0,1,1.51c.63.31,2.38-1.29,2.54-2,.49-2.1,1.05-4.18,1.54-6.28a13.57,13.57,0,0,0,.18-1.92l-.32,0-.51,2.09c-2.16-.32-.66-2-1.4-3-.24,0-1.11-.34-1.17-.23A21.77,21.77,0,0,0,181.22,189.93Zm28.4-22.58-3.42-3.59.62-.67a7.58,7.58,0,0,0-4.71,2.92,1,1,0,0,0,0,1c1.34,1.37,2.73,2.69,3.75,3.68Zm-24.49,24.44c-.33,2-.64,4-.94,5.91a.57.57,0,0,0,.18.48c1.4.79,2.79,1.67,4.57,1.57,0-1.72,0-3.27,0-4.82.05-3.35.3-3-2.63-3C186,191.92,185.76,191.86,185.13,191.79Zm-9-13.31c1.11,0,2.09,0,3.08,0s1.58-.17,1.53-1.32,0-2.26-1.49-2.25c-1.74,0-3.48.21-5.24.34-1-1.9-1.61-2.11-4-1.2,1.5-.29,2.08.54,2.33,1.7.2,1,.3,1.92.49,3.21l1.44-1.35c1.44,1.38,1.09-.53,1.68-1Zm14.15,25.28-.5-3.42a7.53,7.53,0,0,1-1.92,0c-1.08-.32-2.09-.87-3.17-1.19a1.62,1.62,0,0,0-1.19.41c-.11.08.19.66.37,1.24-.91,1.72-.88,2.09.46,3.75a1.23,1.23,0,0,1,.17.55c.09.46.17.93.28,1.64C186.64,205.24,187.81,203.21,190.31,203.76Zm20.42-35.92c-2.25.34-2.93,2.87-4.46,4l.67,2c1.9-1.54,4.22-1.11,6.5-1a6,6,0,0,1-.08-1.18c.24-1.8-.05-2.27-1.7-2.86C211.33,168.72,211.12,168.27,210.73,167.84Zm20.12-8.16.26-.16-.91-3c1.27.64,2.3.8,2.29-.54,0-1.89-1-3.47-2.53-5.1,0,2.8,0,5.21,0,7.61C230,158.89,230.55,159.28,230.85,159.68Zm-46.77,15.11c-.21-2.08-.33-3.95-.61-5.79-.06-.38-.71-.66-1.09-1a4,4,0,0,0-.61,1.23c-.08,1.08.06,2.17,0,3.25C181.62,174,182.4,174.51,184.08,174.79Zm-4.51-.56c1.66.42,1.64,1.67,1.59,2.92,0,.81.06,1.75,1,1.65a2.74,2.74,0,0,0,1.9-1.32,1.53,1.53,0,0,0-.74-2.14,19.63,19.63,0,0,1-2.58-1.91Zm21.09,46.47c-.25,1.43-.2,2.45.85,2.91a9.86,9.86,0,0,0,3.09.65c.47,0,1-.39,1.45-.61a5.12,5.12,0,0,0-.81-1.58c-.84-.79-1.77-.44-2.58.18a8.53,8.53,0,0,0-.87.91Zm-44.5-69.48a29.14,29.14,0,0,0-1.72,3.72c-.49,1.64.18,2.22,2.09,1.78l-.76,2.69C156.76,158.87,157.13,153.45,156.16,151.22Zm35,37.81c-1.52,1.44-3.18,1.37-4.88.28l-.53,1.93,6.75.38Zm-21.64-25.82c-.34,3.15.46,6.2.84,9.27,0,.21.39.37.59.55l.35-.17A49,49,0,0,0,169.54,163.21Zm-53.64,67c.51-.29.94-.51,1.34-.78s.76-.79,1.2-.87c1.22-.22,1-1,.67-1.66a1.84,1.84,0,0,0-2.64-.88Zm155-.07c-.22-1.22-.38-2.17-.58-3.11a9.46,9.46,0,0,0-.37-1.14,9,9,0,0,0-2.16,1,1.53,1.53,0,0,0,0,1.51A9.57,9.57,0,0,0,270,230,2.41,2.41,0,0,0,270.94,230.16ZM234,142.91a1.83,1.83,0,0,0-1.18-2.21,7.51,7.51,0,0,0-2-.15V142Zm-77.67-2.3a2.5,2.5,0,0,0-3,.44,5.75,5.75,0,0,0-.74,1.78l3.22-.81Zm12.86,35,1.63-1c-.62.05-1.38.24-1.5.63a4.73,4.73,0,0,0,.84,3.81l1.88-1.51a9.79,9.79,0,0,0-1.13.15,10.87,10.87,0,0,0-1.11.46c.1-.79,0-1.52.3-1.88s1-.32,1.59-.46l0-.35Zm69.06,51.58,1.69-3.06c-2,.46-2.9,1.38-2.79,2.91Zm-91.39-4,3.62,2.29C150.84,223.61,149.11,222.57,146.89,223.18Zm93.09,0a2.93,2.93,0,0,0-3.07.6,6.29,6.29,0,0,0-.93,2ZM149,227c1,0,1.12-.69.43-1.4a16.9,16.9,0,0,0-2.48-1.83l-.13.23Zm44.48-37.47.67-.19c-.39-1.44-.77-2.88-1.15-4.32l-.51.14Zm-8.26-4.39-.43-.08-.83,4.47.41.08C184.68,188.1,185,186.61,185.25,185.12Zm-33.41-43.33,2.54-2.25C152.72,139.7,152,140.29,151.84,141.79Zm29.91,42.93-.45-.05-.61,4.2.26,0Zm76.5-30,.62.37,1-1.55a4.2,4.2,0,0,0-.53-.32C259,153.74,258.61,154.25,258.25,154.76ZM234.88,142a1.89,1.89,0,0,0-2.06-2.2Zm-34.42,27.51.39.16c1.38-1.57,1.38-1.57.76-2.11Z"/><path class="cls-1" d="M139.18,143.41l1.26-1.75,1.71.92-.8,1.06,1.12.49,0,.3a12.35,12.35,0,0,0-2.23.57,7.12,7.12,0,0,0-1.46,1.25l.43.54,3.6-2,.12.15c-1.86,1.17-3.74,2.29-5.56,3.53-.85.58-1.39.52-2-.34a2.44,2.44,0,0,0-2.93-1.13,6.25,6.25,0,0,1-2,.14,14,14,0,0,1-1.85-.32l2.74,2,.09.11c.95,2.32.83,4-.45,4.82.12-.44.23-.79.32-1.15a3.94,3.94,0,0,0-4.5-5,2.33,2.33,0,0,0-1.52,1.22,2.66,2.66,0,0,0,1.93,3.66c.58.18,1.19.28,1.74.4-.11.37-.34.72-.29,1,.39,2.71-.3,3.32-3,2.66a1.24,1.24,0,0,0-1,.44,1,1,0,0,0,0,1,1.3,1.3,0,0,0,.88.42c.79-1,1.79-.45,2.72-.47,1.14,0,1.57-.81,1.6-1.79a22.71,22.71,0,0,0-.27-2.66c1,1.72,1.22,3.1.27,4.55a1.66,1.66,0,0,0-.34.74c-.16,2.88-.84,3.47-3.7,3,1.11,1.33,2.17,1.09,3.26,0l.18.37-1.77,1.67-.26-.22c-.91-.64-2.28-1-1.78-2.66.53.15,1.07.49,1.5.39a3.85,3.85,0,0,0,1.81-1c.24-.24.19-1.27,0-1.36a2.91,2.91,0,0,0-2.08-.41c-.87.42-1.55,1-2.35,0s-.39-1.74.35-2.5c.11-.13,0-.43.08-.95-.71.31-1.25.52-1.75.78-.67.35-1.29.82-2,1.11a1.84,1.84,0,0,1-2.6-1c-.4-1,.08-1.84,1.4-2.41l.47,1,4.35-1.67c0-.5,0-1.36,0-2.22,0-1.26-.2-2.52-.12-3.78.07-1,.8-1.21,1.77-1a26.25,26.25,0,0,0,5.16.81,9.06,9.06,0,0,0,7.17-3,1.71,1.71,0,0,1,.48-.27l-3.67,3.7c.93,1.2,2,1.19,2.63-.07.13-.25.15-.56.3-.8.43-.69.9-1.36,1.39-2.1Zm-11.91,9.28c-.74,1.61.29,1.79.89,2.23l.32-.19Z"/><path class="cls-1" d="M241,146c0-.18,0-.49-.11-.51a3,3,0,0,1-1.3-.53l1.93-.43-.44-1.23,2.85,1.45-.17.21a7.66,7.66,0,0,0-1.28.28,13.91,13.91,0,0,0-1.5.74Z"/><path class="cls-1" d="M131.43,148.77a2.43,2.43,0,0,1,.41-.38c.54-.28,1.41-.9,1.6-.74a6.13,6.13,0,0,1,1.2,1.92c.27.53.46,1.1.71,1.72l-.26,1.85-.35.19a4.34,4.34,0,0,0-3.22-4.45Z"/><path class="cls-1" d="M144.7,213.26c-2.46.92-4.63-1.7-4.16-5.1C141.3,210.57,141.25,213.4,144.7,213.26Z"/><path class="cls-1" d="M143.36,186.18l6,2.19-.16.38C147.28,187.87,144.92,188.08,143.36,186.18Z"/><path class="cls-1" d="M154.59,196l-2.65-4.05C153.36,193,155,194,154.59,196Z"/><path class="cls-1" d="M115,213l-3.35,3.3-.28-.31C112.5,214.86,113.11,213.19,115,213Z"/><path class="cls-1" d="M255.27,149.1a30.37,30.37,0,0,0-2.63,1.79c-.21.18,0,.82-.08,1.21a2.22,2.22,0,0,1-.73,1.08c.21-.91-1-1.87.22-2.7.16-.11,0-.63.06-.95.11-.89.39-1.9,1.39-1.81.62.05,1.17.91,1.75,1.4Z"/><path class="cls-1" d="M243.49,186.6l-7.38,3.1-.14-.1a17.7,17.7,0,0,1,2.8-1.83,44.24,44.24,0,0,1,4.59-1.39Z"/><path class="cls-1" d="M246.31,208.67c0,1.92-.39,3.69-2.09,4.78a3,3,0,0,1-2.15,0C245.59,213.63,245.35,210.62,246.31,208.67Z"/><path class="cls-1" d="M272.11,212.79l3.35,3.07-.36.42-3.23-3.1Z"/><path class="cls-1" d="M234.67,192.19l-2.45,3.89C231.81,194.2,233.39,193.26,234.67,192.19Z"/><path class="cls-1" d="M193.78,242.76c.56-.5.07-2,1.43-1.71l.27,3.75-1.13.07.15-1.55-.78,1.65-.87-1.58.16,1.39c-.46,0-.46,0-.94-3.43C192.85,241.28,192.85,241.28,193.78,242.76Z"/><path class="cls-1" d="M145.93,236l1.46-3.58c.36.12.8.26,1.23.42.92.34.92.94.26,1.46-.49.39-.76.52-.37,1.26a.81.81,0,0,1-1.15,1C146.87,236.39,146.4,236.18,145.93,236Z"/><path class="cls-1" d="M163.48,237.43a6.3,6.3,0,0,1,1.42.36,1.48,1.48,0,0,1,.54.78c-.71.67-.43,1.5-.53,2.29,0,.27-.66.63-1,.67a4.06,4.06,0,0,1-1.34-.36Z"/><path class="cls-1" d="M155.92,235.46a8.84,8.84,0,0,1,1.41.45c.23.11.55.49.5.68-.24,1-.58,2-.92,3.1l-2.06-.5Z"/><path class="cls-1" d="M137.58,232.46l-1.88-1.06,1.82-3.32a4.81,4.81,0,0,1,1.37.7c.22.21.27,1,.13,1.11-.68.38-1.18.69-.78,1.61C138.31,231.68,137.86,232.08,137.58,232.46Z"/><path class="cls-1" d="M234.65,234.18c1.73-.85,2-.72,2.43,1,0,.09,0,.2,0,.28.28.47.58.94.87,1.4l-2.07.91Z"/><path class="cls-1" d="M159.39,240.64l1.19-4.08c.58.37,1.6.7,1.64,1.12a4.35,4.35,0,0,1-.64,2.74C161.32,240.8,160.19,240.58,159.39,240.64Z"/><path class="cls-1" d="M229.85,239.91,228.7,236c.6,0,1.62-.33,1.87,0a4.57,4.57,0,0,1,1,2.62C231.55,239,230.48,239.44,229.85,239.91Z"/><path class="cls-1" d="M142,230.24c-1.59.82-1.45,2.09-1.2,3.62L138,232.51c1.79-.59,2-1.79,1.71-3.36Z"/><path class="cls-1" d="M179.39,243.25a4.85,4.85,0,0,1,.05-1.75,1.87,1.87,0,0,1,1.16-1.08c.72-.1.85.5.72,1.18-.09.48.18,1,0,1.46a2.3,2.3,0,0,1-1.06,1.21c-.21.1-.74-.46-1.13-.72Z"/><path class="cls-1" d="M150.49,233.41l.77,2.09.22-1.45,1,.25-1.37,3.42h-.32l-.46-1.95-.22,0-.33,1.46-.39.14c-.08-.33-.29-.69-.21-1,.26-.94.63-1.85,1-2.77Z"/><path class="cls-1" d="M145.47,233.52v1.88l-.56.25c-.57-.4-1.54-.73-1.6-1.19a4,4,0,0,1,.63-2.46,1.19,1.19,0,0,1,2-.09c.2.25-.34,1.07-.53,1.63,0-.47-.11-.95-.17-1.55-1.32.95-1.53,1.63-1,2.5Z"/><path class="cls-1" d="M208.42,242.8l.45,1.22-1.16.11-.51-3.64c.72-.24,1.59-.72,2.23.29S209.29,242.31,208.42,242.8Z"/><path class="cls-1" d="M202.92,244.56l-1.33.06-.4-3.68a2.77,2.77,0,0,1,1.18-.18c.44.1,1,.43,1.14.79a1.39,1.39,0,0,1-.46,1.28C202.19,243.23,202.15,243.67,202.92,244.56Z"/><path class="cls-1" d="M249,230.82l1.11.43.17-.34a6.85,6.85,0,0,1-1-.43c-.49-.34-1.2-.67-1.32-1.14s.6-.89,1-1.46a26.74,26.74,0,0,1,1.56,2.24,1.66,1.66,0,0,1,.21,1.29,1.44,1.44,0,0,1-1.17.59c-.31,0-.57-.58-.85-.9Z"/><path class="cls-1" d="M206.8,243.16c-.3.26-.84,1.13-1.45,1.18-1.1.08-1.51-1-1.38-1.92a2.9,2.9,0,0,1,1.24-1.92C205.87,240.14,206.8,241.45,206.8,243.16Zm-1.77.51.5-.06c.59-1.26.51-1.74-.73-2.62Z"/><path class="cls-1" d="M184.23,242.83l1,1.18.37-.26a4.53,4.53,0,0,1-.86-1,2.14,2.14,0,0,1-.23-1.48c.09-.25.83-.27,1.28-.38.08,0,.25.06.25.1a13.89,13.89,0,0,1,0,3.09c-.06.33-1.05.48-1.93.84Z"/><path class="cls-1" d="M242.7,234.69c-.27.2-.73.78-1.28.89-.91.19-2-1.22-1.72-2.44a2,2,0,0,1,1.25-1.31C241.72,231.65,242.74,233.19,242.7,234.69Zm-1.52-2.27-.86.29.82,2.36.79-.26Z"/><path class="cls-1" d="M227.46,239.4l-.53,1.2-.32-.17v-3.82l.39-.13,2,3.21-.26.41Z"/><path class="cls-1" d="M231.69,235.77c.25-.22.69-.88,1.26-1,.81-.2,1.9,1.23,1.71,2.35a2.16,2.16,0,0,1-1.15,1.46C232.73,238.82,231.73,237.45,231.69,235.77Zm1.44,2.21.66-.17a2,2,0,0,0-.81-2.44l-.54.15Z"/><path class="cls-1" d="M243.79,234.72l-.62-1.42,1.34.52.17-.41a2.93,2.93,0,0,1-2.22-1.68c-.07-.14.49-.86.8-.88,1.47-.11,1.08,1.61,2,2.18.1.07-.24.94-.49,1.38C244.63,234.58,244.23,234.59,243.79,234.72Z"/><path class="cls-1" d="M196,244.66c.32-1.21.65-2.41,1-3.62l.44-.08c.45,1.18.89,2.35,1.34,3.52l-.36.37-1.2-1-.77,1.09Z"/><path class="cls-1" d="M179,241.34c-.14,1.5-.32,2.55-1.6,2.63-1,.06-1.34-.75-1.37-1.63-.05-1.19.86-2.51,1.62-2.24C178.23,240.31,178.66,241,179,241.34Zm-.81-.46-.66-.1a1.93,1.93,0,0,0-.36,2.49l.58.09Z"/><path class="cls-1" d="M220.78,239.45l-.9-.38c.64.82,2.17.92,1.67,2.39a1.43,1.43,0,0,1-1.21.65c-.35,0-.64-.62-1-1l.28-.3,1.06.6.24-.37a4.33,4.33,0,0,1-1.17-.68,2.46,2.46,0,0,1-.69-1.37c0-.23.64-.73,1-.71s.71.51,1.06.79Z"/><path class="cls-1" d="M209.92,240.08l.83-.14.63,3.11.72-.13-.44-3.07.81-.17a14.3,14.3,0,0,1,.16,2.72c-.06.47-.63.88-1,1.31-.41-.36-1-.65-1.18-1.11A13.15,13.15,0,0,1,209.92,240.08Z"/><path class="cls-1" d="M244.76,230.21l.83-.39,1.31,2.82.44-.19c.4-1.16-.55-1.87-1.08-2.88l.75-.49a12,12,0,0,1,.94,2.45c.07.5-.35,1.09-.55,1.63-.49-.22-1.15-.31-1.45-.69A12.68,12.68,0,0,1,244.76,230.21Z"/><path class="cls-1" d="M217.44,242.33c1.34-1.36-.45-2.72.82-3.65a10.5,10.5,0,0,1,.35,2.45,1.9,1.9,0,0,1-.85,1.47c-.8.31-1.26-.28-1.4-1.13s-.34-1.44-.55-2.28l.85-.27Z"/><path class="cls-1" d="M188.66,243.91a4,4,0,0,1-.84-.92,3.52,3.52,0,0,1-.37-1.61c0-.16.81-.46,1.15-.36s.44.64.66,1l-.31.21-.81-.48c.44.89,1.83,1.4.91,2.61-.28.38-1.07.37-1.78.59v-1.87l1,1.12Z"/><path class="cls-1" d="M174.08,240.4l-.31,2.66,1.47-.76.26.33c-.42.31-.86.88-1.25.85a1.53,1.53,0,0,1-1.12-1,3.53,3.53,0,0,1,.34-2.16c.23-.39,1.08-.57,1.63-.53.24,0,.41.85.61,1.31l-.39.19-.79-1.05Z"/><path class="cls-1" d="M154.84,236.84l-.57-1.19-.85,2.92-1-.25,1.27-3-1,.59-.25-.23c.28-.36.59-1.05.82-1a5.05,5.05,0,0,1,1.91.75C155.25,235.51,155,236.18,154.84,236.84Z"/><path class="cls-1" d="M223.29,237.54l.9-.25c.25,1,.48,2,.81,3.38l.83-1.37c.67,1.48.45,1.71-1.63,1.89Z"/><path class="cls-1" d="M213.91,243.25l-.64-3.57.88-.24.6,3.49,1-1.52C216.25,243.07,216,243.28,213.91,243.25Z"/><path class="cls-1" d="M166.38,238.15l1.05.25-.88,3.06.29.16,1.09-.71c-.14,1.67-.42,1.77-2.41.87.19-.55.42-1.1.56-1.67S166.27,238.9,166.38,238.15Z"/><path class="cls-1" d="M168.3,242.58l.65-3.87.92.18-.76,3.33,1.51-.82c-.09.41-.11.95-.23,1A17,17,0,0,1,168.3,242.58Z"/><path class="cls-1" d="M182.42,240.61l1,.1c-.11,1.22-.2,2.36-.31,3.65l-1,.06Z"/><path class="cls-1" d="M171.92,243.14l-.93-.21.77-3.65.92.12Z"/><path class="cls-1" d="M191.28,244.79h-1.11l.2-3.72h.91Z"/><path class="cls-1" d="M239.84,236.33l-.86.29-1.43-3.44.85-.45Z"/><path class="cls-1" d="M153.29,149.17c-1,1.54-1.66,2.85-1.29,4.45.08.38-.38.88-.73,1.27C151.93,153.07,150.62,150.69,153.29,149.17Z"/><path class="cls-1" d="M233.81,149.36c.72,1.12,2.16,1.94,1.44,3.72-.2.49.22,1.23.06,2-.21-.56-.7-1.19-.58-1.66C235.12,151.83,234.34,150.67,233.81,149.36Z"/><path class="cls-1" d="M200.74,204.35c-1.27.92-2.17.8-3.46-.61l2.13.62.57-2.05Z"/><path class="cls-1" d="M186.29,204.5c1.52-2.05,1.47-2.44-.7-4.35a2.27,2.27,0,0,1,2.12,1.92A2.09,2.09,0,0,1,186.29,204.5Z"/></g><path class="cls-1" d="M216.67,281.56H214.6a1.81,1.81,0,1,1,0-3.61h2.07a1.81,1.81,0,0,1,0,3.61Zm-12.44,0h-2.07a1.81,1.81,0,1,1,0-3.61h2.07a1.81,1.81,0,0,1,0,3.61Zm-12.44,0h-2.08a1.81,1.81,0,0,1,0-3.61h2.08a1.81,1.81,0,0,1,0,3.61Zm-12.44,0h-2.08a1.81,1.81,0,0,1,0-3.61h2.08a1.81,1.81,0,0,1,0,3.61Zm-12.44,0h-2.08a1.81,1.81,0,0,1,0-3.61h2.08a1.81,1.81,0,0,1,0,3.61Zm-12.44,0h-2.08a1.81,1.81,0,0,1,0-3.61h2.08a1.81,1.81,0,0,1,0,3.61Zm-12.44,0H140a1.81,1.81,0,0,1,0-3.61H142a1.81,1.81,0,0,1,0,3.61Zm-12.44,0h-2.08a1.81,1.81,0,0,1,0-3.61h2.08a1.81,1.81,0,0,1,0,3.61Zm-12.44,0h-2.08a1.81,1.81,0,0,1,0-3.61h2.08a1.81,1.81,0,0,1,0,3.61Zm-12.44,0h-2.08a1.81,1.81,0,0,1,0-3.61h2.08a1.81,1.81,0,0,1,0,3.61Zm-12.44,0H90.19a1.81,1.81,0,0,1,0-3.61h2.08a1.81,1.81,0,0,1,0,3.61Zm-5.4-7.05a1.79,1.79,0,0,1-1.8-1.8v-2.07a1.8,1.8,0,1,1,3.6,0v2.07A1.8,1.8,0,0,1,86.87,274.51Zm0-12.44a1.79,1.79,0,0,1-1.8-1.8V258.2a1.8,1.8,0,1,1,3.6,0v2.07A1.8,1.8,0,0,1,86.87,262.07Zm0-12.44a1.8,1.8,0,0,1-1.8-1.8v-2.07a1.8,1.8,0,1,1,3.6,0v2.07A1.81,1.81,0,0,1,86.87,249.63Zm0-12.44a1.8,1.8,0,0,1-1.8-1.8v-2.07a1.8,1.8,0,1,1,3.6,0v2.07A1.81,1.81,0,0,1,86.87,237.19Zm0-12.44a1.8,1.8,0,0,1-1.8-1.8v-2.07a1.8,1.8,0,1,1,3.6,0V223A1.81,1.81,0,0,1,86.87,224.75Zm0-12.44a1.8,1.8,0,0,1-1.8-1.8v-2.07a1.8,1.8,0,1,1,3.6,0v2.07A1.81,1.81,0,0,1,86.87,212.31Z"/><path class="cls-1" d="M295.87,217.44a1.8,1.8,0,0,1-1.8-1.8V214a1.8,1.8,0,1,1,3.6,0v1.61A1.81,1.81,0,0,1,295.87,217.44Z"/><path class="cls-1" d="M295.87,205.46a1.8,1.8,0,0,1-1.8-1.8v-2.07a1.8,1.8,0,1,1,3.6,0v2.07A1.81,1.81,0,0,1,295.87,205.46Z"/><path class="cls-1" d="M295.87,193a1.8,1.8,0,0,1-1.8-1.8v-2.07a1.8,1.8,0,1,1,3.6,0v2.07A1.81,1.81,0,0,1,295.87,193Z"/><path class="cls-1" d="M295.87,180.58a1.8,1.8,0,0,1-1.8-1.8V176.7a1.8,1.8,0,0,1,3.6,0v2.08A1.81,1.81,0,0,1,295.87,180.58Z"/><path class="cls-1" d="M295.87,168.14a1.8,1.8,0,0,1-1.8-1.8v-2.08a1.8,1.8,0,0,1,3.6,0v2.08A1.81,1.81,0,0,1,295.87,168.14Z"/><path class="cls-1" d="M295.87,155.7a1.8,1.8,0,0,1-1.8-1.8v-2.08a1.8,1.8,0,0,1,3.6,0v2.08A1.81,1.81,0,0,1,295.87,155.7Z"/><path class="cls-1" d="M295.87,143.26a1.8,1.8,0,0,1-1.8-1.8v-2.08a1.8,1.8,0,0,1,3.6,0v2.08A1.81,1.81,0,0,1,295.87,143.26Z"/><path class="cls-1" d="M264.37,112.56H262.3a1.81,1.81,0,0,1,0-3.61h2.07a1.81,1.81,0,0,1,0,3.61Z"/><path class="cls-1" d="M251.93,112.56h-2.07a1.81,1.81,0,1,1,0-3.61h2.07a1.81,1.81,0,0,1,0,3.61Z"/><path class="cls-1" d="M239.49,112.56h-2.07a1.81,1.81,0,1,1,0-3.61h2.07a1.81,1.81,0,0,1,0,3.61Z"/><path class="cls-1" d="M227.05,112.56H225a1.81,1.81,0,1,1,0-3.61h2.07a1.81,1.81,0,0,1,0,3.61Z"/><path class="cls-1" d="M214.61,112.56h-2.07a1.81,1.81,0,1,1,0-3.61h2.07a1.81,1.81,0,0,1,0,3.61Z"/><path class="cls-1" d="M289,103.77v3c1.84.17,3.56.29,5.28.51a9.46,9.46,0,0,1,2.33.63,5.05,5.05,0,0,1,3.31,4.66,5.22,5.22,0,0,1-2.53,4.89c-.12.08-.25.15-.5.32a5.79,5.79,0,0,1,4.42,4.51,7.41,7.41,0,0,1-6,8.81,18,18,0,0,1-3.6.23c-2.33,0-4.65,0-7,0l.36-6.09-7,.54V107.71l6.87-.77V104l.78-.27Zm2.65,13a23.61,23.61,0,0,0,2.83-.67,2.6,2.6,0,0,0,1.71-2.36,2.42,2.42,0,0,0-1.11-2.41c-1.87-1.14-3.95-1-6-1v11.52l3.76.25v3.48l-3.75-.26v3a46.76,46.76,0,0,0,5.41-.46,3.93,3.93,0,0,0,3-4.13,4.07,4.07,0,0,0-3.28-3.89c-.81-.17-1.64-.22-2.51-.33Zm-9.82,5.6,3.27-.34V110.38l-3.27.27Z"/></svg>