<svg id="Layer_1" data-name="Layer 1" xmlns="http://www.w3.org/2000/svg" width="233.19" height="222.44" viewBox="0 0 233.19 222.44"><defs><style>.cls-1{fill:#fff;}</style></defs><title>MazojiPlace</title><path class="cls-1" d="M173.94,222.44l-3.61-1.21-1.7-1.41-.72-2.4v-4.11l-1-5L162.16,205l-6.9.65-3.74,2.83-3-2.06L143.16,205l-2.09-1.43-3.86-3.41-7,4.66L95.8,207.62,72.09,193.79,52.43,192.7l-19.3,3.86-13-4.88-7.38-16.62L5.65,164.45,0,162.56l17.05-36.49,4.46-15.88-.23-59.88,6-12.05-1.56-2.84-.7-6-1.33-5.48L22.07,7.59,25.52.26,27.45,0c.23,0,.51,0,.86,0a14.11,14.11,0,0,1,7,2.11c.87.54,1.78,1.14,2.74,1.78a42.74,42.74,0,0,0,9,5l2.64,1L44.2,50.23l5.48-.31c2.77-.16,5.48-.3,8.12-.3,6.2,0,10.64.79,14.4,2.59,6.16,2.93,9.85,9.8,7.9,14.7a22.72,22.72,0,0,1-1.65,3,22.91,22.91,0,0,0-2.91,6.17c-1.45,5.51.73,11,2.17,14.57,5.27,13.18,10.71,26.81,19,39,19.1,28.25,50.27,44.78,77.77,59.37,7.55,4,15.36,8.14,24.12,10.24A101.81,101.81,0,0,0,209,201.08c5.56.75,10.81,1.46,15.44,3.59a16.57,16.57,0,0,1,4.29,2.92l4.42,4.12-7.77,2.35-27.65-3.39-18.35,4.91-3,3.27Zm-1.89-4.3.53.17,1.21-1.72,3.75-4.11,20-5.34,27.6,3.38,1.28-.39a12.94,12.94,0,0,0-3.37-2.3c-4.16-1.91-9.16-2.59-14.45-3.3a107,107,0,0,1-10.84-1.86c-9.19-2.2-17.19-6.45-24.94-10.55-27.86-14.78-59.43-31.52-79-60.49-8.45-12.49-14-26.3-19.3-39.65-1.61-4-4-10.12-2.31-16.74a26.48,26.48,0,0,1,3.31-7.09,19.43,19.43,0,0,0,1.39-2.53c1.26-3.17-1.73-8.17-6.16-10.28-3.27-1.55-7.25-2.25-12.91-2.25-2.55,0-5.2.14-7.93.3l-9.68.55,5.66-41.79A45.72,45.72,0,0,1,36.1,6.79c-.93-.62-1.81-1.21-2.65-1.73a10.74,10.74,0,0,0-5.14-1.58l-.47,0L25.62,8.2l1.54,15.25,1.32,5.45.63,5.44,2.12,3.85L24.76,51.12,25,110.66l-4.73,16.75L4.8,160.5l3.09,1,8,12,6.85,15.43,10.72,4,18.76-3.75,20.94,1.16,23.49,13.7L129,201.44l8.47-5.65,5.78,5.11,1.31.89,5.33,1.36,1.48,1,2.54-1.92,9.16-.87,6.93,4.86,1.34,6.92v3.77l.27.9Z"/><polygon class="cls-1" points="49.43 120 49.43 120 49.43 120 49.43 120"/><path class="cls-1" d="M79.94,122.16l-.18.18.15.06Z"/><path class="cls-1" d="M95.24,157c-2-1.07-3.93-2.19-6.31-1.79,0-1.37.11-1.5,1.3-1.53a5.8,5.8,0,0,1,1.58.3c1,.28,1.41,0,1.39-1,0-.52,0-1-.07-1.55-.66-7.28-.45-14.62-1.51-21.86-.32-2.24-.64-4.48-1.13-6.68-.4-1.79-1.09-3.51-1.59-5.27a2.2,2.2,0,0,0-2-1.86,1.49,1.49,0,0,1-1.4-1c-.14-.42-.42-.8-.57-1.23a2.35,2.35,0,0,1-.2-1.2,2.93,2.93,0,0,0-.64-3.26,3.57,3.57,0,0,0-3.29-.95c-1.22.48-2.61,2.22-2.2,3.14a2.14,2.14,0,0,1-.4,2.37,2.78,2.78,0,0,0-.16.4c-.52,1.29-1,2.58-1.54,3.87a2,2,0,0,0,0,.24c-.18.89-.37,1.77-.56,2.66l-.23,0c0-2.29,0-4.58,0-6.86,0-.8-.19-1.11-1-1.11q-17.43,0-34.86,0c-.8,0-1,.25-1,1,0,2.38,0,4.76,0,7.14a2.75,2.75,0,0,1-.88,2c-.29-.76-.49-1.48-.8-2.15-.5-1.06-1-2.1-1.6-3.13a2.9,2.9,0,0,0-.77-.9,23.44,23.44,0,0,0-2.91-2c-.59-.32-.56-.65-.5-1.17a5.3,5.3,0,0,0-.4-3.44,3.53,3.53,0,0,0-3-2.06,2.3,2.3,0,0,0-2.13,1.87,6.21,6.21,0,0,0,.37,4.57.91.91,0,0,1-.18.8,6.89,6.89,0,0,1-1.52,1.23,3.26,3.26,0,0,0-1.36,1.91,8.15,8.15,0,0,1-.64,1.29c-.57,1-1.18,1.9-1.74,2.87-.1.18,0,.45-.07.67-.08.78-.13,1.57-.28,2.33-.11.58-.41,1.13-.52,1.71-.29,1.54-.53,3.09-.78,4.65-1,0-1.39.61-1,1.36.58,1.17,1.13,2.34.49,3.69-.07.14.08.4.13.6.19-.07.45-.09.56-.23a13.39,13.39,0,0,0,.82-1.17,4.59,4.59,0,0,1,1.19,3.91,10.43,10.43,0,0,0,.26,2.78l1.38-1.18v1.24c.89-.22,1.17.22,1.21,1,.11,1.83.15,3.68.41,5.49a5.29,5.29,0,0,1-1,3.73,12.28,12.28,0,0,0-.62,1.49,1,1,0,0,1-.36.47c-1.33.6-2.68,1.14-4,1.76s-2.51,1.32-4,.89c0,0-.08.07-.16.14a1.68,1.68,0,0,0,.2.34,2.78,2.78,0,0,0,3.46.87,11.11,11.11,0,0,1,7-.61c.57.15.84.41.81,1s0,1.32,0,2c0,1.15.4,1.55,1.56,1.54a4.38,4.38,0,0,0,1.2-.13,7.84,7.84,0,0,1,4.81.21,7.76,7.76,0,0,0,2.19.39,1.53,1.53,0,0,0,1.73-1.44c.09-.44.12-.89.2-1.44l1.68.58A22,22,0,0,0,45.92,163c1.9.05,1.9,0,1.73,1.91s.56,2.54,2.36,2.29c1.19-.16,2.37-.41,3.54-.68a12.91,12.91,0,0,1,5.8-.19c1.45.31,2.91.64,4.38.86,1.83.27,2.59-.5,2.42-2.31,0-.4-.09-.8-.14-1.2s.13-.69.62-.67a20,20,0,0,0,8-1.67c.53-.19,1.06-.35,1.67-.55,0,.41.07.69.1,1,.15,1.5.88,2.1,2.36,1.9a8.47,8.47,0,0,0,1.67-.4,7.91,7.91,0,0,1,4.74-.21,5.23,5.23,0,0,0,1.37.14c1,0,1.41-.42,1.42-1.42,0-.71,0-1.43,0-2.15,0-.49.15-.87.68-.91a26.72,26.72,0,0,1,4.18-.2,17.38,17.38,0,0,1,3.38.94,2.54,2.54,0,0,0,3.15-1.59C97.77,158.42,96.5,157.7,95.24,157Zm-4.74-5.18c0,1.48,0,1.48-1.65,1.49-.43-6.54.3-13.06.65-19.62.23,1.27.46,2.54.67,3.81a49.3,49.3,0,0,1,.3,9.94C90.4,148.91,90.46,150.38,90.5,151.84ZM88.44,154c0,.34-.24,1-.38,1a8,8,0,0,1-1.81-.29s0-.26,0-.39L88.62,141h0c-.12,2.58-.28,5.15-.33,7.72C88.29,150.46,88.43,152.24,88.44,154Zm-2.57.35c-2.29,0-4.42.06-6.56,0-1.56-.06-1.73-.32-1.58-1.83A106.15,106.15,0,0,1,80.65,138c.47-1.92,1-3.82,1.47-5.71,0,2.19,0,4.42,0,6.66a18.57,18.57,0,0,1-.85,6.67,13.35,13.35,0,0,0,1.49.68c.78.24,1.1,0,1-.81-.91-5.47-.59-11-.36-16.47,0-.05,0-.1.1-.22,1,1.92,1.72,3.83,1.36,6a2,2,0,0,1-.54.84c-.4.47-.63,1-.11,1.44a1.07,1.07,0,0,0,1.55,0c.51-.46.36-.93,0-1.44a7,7,0,0,1-.64-1.26c1.37-.13,1.49,0,1.7,1.06a2.53,2.53,0,0,0,.53,1.3c.24.23.79.15,1.38.23C88,142.7,86.88,148.5,85.87,154.36Zm-6.29-31.85.18-.17-1.68-.71,2.44-4.57-.58,5.1,1.07-1,.29.28-1.66,2.33.17.12,2-2.45.12.11-3.39,5.59v-4.93l1.34.65ZM78,121.19c-.57-1.3-.54-1.4.87-2.19Zm6.64,1.68c.09.85.09,1.7.17,2.56,0,.57-.26.68-.72.66s-.84,0-.74-.64.25-1.46.39-2.19c.08-.36.19-.7.29-1.06l.29-.08A2.57,2.57,0,0,1,84.67,122.87Zm-.33,6.1a.89.89,0,0,1,.32.21s0,.1.07.16c.23.54.47,1.09.73,1.68a3,3,0,0,1-.4.16c-.33-.67-.65-1.34-1-2C84.09,129.13,84.27,129,84.34,129Zm1.3,2.36v1.35C85,132.26,85,131.82,85.64,131.33ZM84,119.13a2.87,2.87,0,0,1-.24-1,.84.84,0,0,1,1-.79Zm-2.86-2.24c-.11,0-.28-.33-.3-.52s.21-.42.32-.41c1.18.05,1.83-.78,2.63-1.68l1,2.64C83.42,116.92,82.27,116.93,81.12,116.89Zm2.29.47c.1,1.64-.59,2.08-2.6,1.74v-1.74Zm-.14,3.52c-1.92,4.09-3.78,8-5.63,12C77.26,129.86,80.33,123.21,83.27,120.88ZM77.73,134c1.7-4.15,3.66-8.2,5.53-12.28,0-.13.15-.24.12-.19-.79,6.11-3.79,11.56-6.39,17.18A20.68,20.68,0,0,1,77.73,134Zm9.88-.42a5.91,5.91,0,0,1,1.28.25c-.08.17-.14.48-.24.49-.52.05-1,0-1.57,0l-.13-.27C87.17,133.88,87.38,133.56,87.61,133.55ZM87,126.67c.46,1,1,2,1.33,3a14.8,14.8,0,0,1,.61,2.57c0,.2-.33.67-.42.65-.42-.1-1.14-.29-1.17-.51C87.18,130.49,87.12,128.57,87,126.67Zm.69,9.87c-.39-1.38-.34-1.44,1.18-1.55l-.13.81C88.19,135.63,87.75,135.73,87.71,136.54Zm3.44,16.52h-.22V143l.22,0Zm-4.6-35.2,1-1.59c.28.28.74.53.85.88.81,2.69,1.62,5.38,2.28,8.11.34,1.43.26,3,.58,4.42a53.5,53.5,0,0,1,.69,8.37c.18,2.89.3,5.79.45,8.68.11,2,.24,4,.35,5.92,0,.34,0,.67,0,1-.81.08-1.19-.18-1.18-1,0-2.12,0-4.24,0-6.36a51.12,51.12,0,0,0-3.56-19,18.76,18.76,0,0,1-1.22-6.1l.29-.06,2.69,7.34c-.33-2.85-1.66-5.3-2.54-7.92l1.55,1.72.17-.15a5.19,5.19,0,0,1-.75-.81c-.4-.67-.72-1.37-1.07-2.06l.47-.26c-1.77-.48-1.15-.91,0-1.41Zm.16,15.35-.32,0c-.15-1.84-.29-3.68-.44-5.53l.24,0Zm-2.46-20,1,1.71C84.25,115.08,83.83,114.34,84.25,113.22Zm-2.11,2.06c1.42-1.06,1.14-2.83,1.85-4.4A4.23,4.23,0,0,1,82.14,115.28Zm.9-4.6-.51,2.77-.23,0,.6-2.75Zm-.63-.11-1.59-.94C81.74,109.36,82.06,109.53,82.41,110.57Zm-2.72,0a1.22,1.22,0,0,1,1.68-.34c.54.32,1.22.7,1,1.59-.17.58-.26,1.17-.43,1.74a1,1,0,0,1-1.25.76c.71-.69.69-.94,0-1.25.08-.17.17-.34.3-.62l-.83.13c0-.07-.07-.16,0-.22.13-.45.32-.89-.37-1.09A.91.91,0,0,1,79.69,110.6Zm-.15,3.26c.14,1.21.28,2.42.44,3.77l-1.49-1.4.76-2.38Zm-.72-1,.31.1c-.28.87-.53,1.74-.82,2.6-.22.63-.78,1.26.5,1.77l-1.61.39C77.76,116.09,78.29,114.49,78.82,112.89Zm-.15,5,.14.22-1,1.27-.62-1.21Zm-1.79.85.29,0,.36,3.3.72.19-2.41,3.19C75.22,122.76,76.19,120.76,76.88,118.7Zm-1.26,21.59q0-6.82,0-13.66a1.69,1.69,0,0,1,.59-1.41,22.14,22.14,0,0,0,1.81-2l.27.06c-.26,2.06-.54,4.12-.76,6.19-.29,2.73-.47,5.48-.83,8.2-.2,1.54-.64,3.05-1,4.58l-.29-.05C75.52,141.54,75.62,140.92,75.62,140.29Zm-.43,4c2.27-5.44,4.66-10.84,7-16.25,0-.08.1-.14.14-.21l.28.08c-.93,4-1.93,8-2.79,12-.93,4.31-1.73,8.65-2.56,13-.11.61-.37.89-1,.75-1.06-.25-2.1-.56-3.15-.83-.66-.17-.77-.59-.57-1.17C73.44,149.15,74.19,146.65,75.19,144.24ZM46.58,116.9a10.75,10.75,0,0,0,1.35,1.19,3.41,3.41,0,0,0,1.14.27,4.11,4.11,0,0,0,.17-1.18c-.14-.79-.39-1.57-.51-2.37.39.76.21,1.91,1.35,2.07.38.06.85-.46,1.37-.77.42.26,1.47-.23,2.1-1.14.29.23.58.62.87.63s.7-.31,1.1-.52c.15.66.59.87,1.25.67.12,0,.35,0,.38,0,.39.74.91.37,1.34.22.24.16.45.28.64.43s.73.4.73.59a1.62,1.62,0,0,1-.49,1.07,12.29,12.29,0,0,1-1.62,1,3.72,3.72,0,0,1-3.15.34,6.19,6.19,0,0,0-4.81.39,1.83,1.83,0,0,0-.36.26,1.6,1.6,0,0,1,.27,2.14h0a4.45,4.45,0,0,1-.43-1,4.19,4.19,0,0,1,.16-1.13,4.7,4.7,0,0,1-.56.46.76.76,0,0,1-.59.05.53.53,0,0,1-.08-.47c.4-.53.1-.93-.22-1.31-.48-.58-1-1.14-1.51-1.72Zm7.85,3.75-4,.66L50,119.88c.82-.17,1.65-.32,2.46-.51C53.64,119.11,53.61,120.48,54.43,120.65Zm-10-1.94,1.14.88.11-1.67s.06,0,.1,0L47,120.23a2.43,2.43,0,0,1-2.7-1.58Zm-.57,2L42,121l0,.14h2.54a3.4,3.4,0,0,0,2.49-.9h0l0,0h0c0-.44.06-.87.08-1.3l.1,0a6.08,6.08,0,0,0,.18,1.49,2,2,0,0,0,.78.82c.48.35,1,.62,1.52.93l-.39.11,0,.16a1.31,1.31,0,0,0,.41-.12,3.26,3.26,0,0,1,4.76.61,4.14,4.14,0,0,0,.93.57l.15-.27-.93-.47a4.29,4.29,0,0,1,4.74,1.09c.7.68,1.45,1.3,2.18,1.94,1.41,1.22,3.1,1.22,4.79,1a2.3,2.3,0,0,1,2.53.8l-1,.31V128l.62.06a2.25,2.25,0,0,1,2.22,3.11c-.47,1.59-1.06,3.16-1.39,4.78a21,21,0,0,0-.14,3.56,10.21,10.21,0,0,1,0,1.66c-.38,1.93-.84,3.86-1.22,5.79a2,2,0,0,1-1.85,1.7l-.23-.63c.23-.09.54-.11.67-.28a4,4,0,0,0,.83-1.35,23.92,23.92,0,0,0,1.07-5,7.81,7.81,0,0,0-.91-4.72,3,3,0,0,1-.24-1.63c0-.73.11-1.43-.49-2,0,0-.12.1-.11.12.5,1.73.32,2.18-1.47,2.46a19.49,19.49,0,0,1-3.74,0c-.56,0-.76-.36-.81-.91-.09-.85-.26-1.7-.39-2.55l-.23,0c0,2.28-.09,4.57,0,6.86.14,2.73.45,5.46.7,8.3-.51.26-.24,1.72-1.53,1.54l-.48-.5s.07-.16.17-.17c.89-.06,1.12-.74,1.16-1.41a12,12,0,0,0-.75-5.43,2.26,2.26,0,0,1-.31-1.06c.27-2.21-1.4-3.82-1.78-5.82-.05-.26-.44-.52-.72-.65a3.9,3.9,0,0,1-2.38-2.22l-.26.17a5.34,5.34,0,0,0,.78,1.29,17.15,17.15,0,0,0,1.58,1,10.42,10.42,0,0,1,1,1c-1,.19-1.56.08-2-.51-.26-.32-.48-.8-1.07-.49-.06,0-.34-.22-.41-.39-.33-.82-.59-1.67-.94-2.48a4.41,4.41,0,0,0-.84-1.5,23.75,23.75,0,0,0-2.54-2.14,1,1,0,0,0-.83.12A14.78,14.78,0,0,0,47.27,129a3.68,3.68,0,0,1-.35-1.2c.12-1.11-.58-1.59-1.37-2.1a3.56,3.56,0,0,1-1.09-1.16c-.15-.25,0-.68,0-1a3,3,0,0,0,0-.79c-.29.62-.5.94-1.15.35-.29-.26-.91-.15-1.45-.22l1.34-.62-2.28-.49A2.54,2.54,0,0,1,43.88,120.75ZM70,142.88c-.09-1.11-.27-2.22-.44-3.45a1.44,1.44,0,0,1,.76,1.54c0,1.33.22,2.67.33,4,.07.79.38,1.63-.36,2.29l-.84.73-.3-.26c.15-.2.31-.39.44-.6s.51-.66.52-1A29.41,29.41,0,0,0,70,142.88Zm-17.28-.34a4.84,4.84,0,0,1,.36,1.05l-.63-.19,0,.59h-.18l-.05-.88c-.19-.15-.53-.28-.57-.47a7.17,7.17,0,0,1-.21-2,24.31,24.31,0,0,1,.49-3.3,2.05,2.05,0,0,1,.8-1.32,4.26,4.26,0,0,1,3.28-.51,7.63,7.63,0,0,1,.83.17,4.85,4.85,0,0,1,.78.59l-.13.32c-1.21.17-2.41.43-3.63.48-.84,0-1.24.3-1.35,1.15-.08.62-.32,1.21-.45,1.83A3,3,0,0,0,52.72,142.54Zm.17,14.35c8.1,2,14.6-1,19.77-7.61-.28,1-.49,1.82-.74,2.63a.74.74,0,0,0,.55,1.05,12.74,12.74,0,0,0,2,.63c2.19.3,4.22,1.49,6.52,1.14.2,0,.41,0,.6,0a6.25,6.25,0,0,1,5,.81l-.93.33c-1,.4-1.75,1-1.67,2.21,0,.21-.27.43-.48.74-.16-.27-.22-.32-.22-.36.13-2.12-.87-3.28-3-3.22a13.73,13.73,0,0,0-3.28.6,40.61,40.61,0,0,0-4.31,1.49,17.38,17.38,0,0,1-10.37.93,7.59,7.59,0,0,0-2.56,0c-1.15.16-1.53.8-1.35,1.94.31,1.92.31,1.92-1.6,1.92-2.12,0-1.66.06-1.49-1.72.15-1.55-.32-2.23-1.89-2.21a36.19,36.19,0,0,0-4.27.37,13.06,13.06,0,0,1-6-.54c-2.14-.74-4.28-1.51-6.44-2.18a11.89,11.89,0,0,0-2.94-.59c-2.34-.12-3.4,1-3.45,3.46-.18-.17-.53-.36-.52-.52.1-1.62-1-2.11-2.24-2.49-.57-.17-1.15-.29-1.78-.45a4.84,4.84,0,0,1,.53-.94c.95-1.1.72-2.38.63-3.65a8.44,8.44,0,0,1,.12-2c1.59,2.15,2.55,4.65,4.43,6.52l.33-.1a6.64,6.64,0,0,0-.34-1.43c-.95-1.93-1.86-3.89-3-5.72a5.38,5.38,0,0,1-.69-4.44c.76-.08,1.57-.19,2.38-.26.48,0,.71.21.75.72a26,26,0,0,1,.2,6.59c-.2,1.17.2,1.42,1.39,1.52a4.6,4.6,0,0,1,1.84.54,3,3,0,0,0,2.4.28c.74-.22.88-.75.27-1.25a25.71,25.71,0,0,0-2.1-1.49,2,2,0,0,1-1-1.94c.13-1.6.23-3.2.38-4.8,0-.16.28-.47.35-.44a1.26,1.26,0,0,1,.76.44c.36.74.62,1.54,1,2.3.23.56.5,1.1.75,1.65l.36-.13c-.23-1.11-.43-2.24-.73-3.33-.2-.74-.12-1.24.63-1.61a9.4,9.4,0,0,0,1.4-1C40.31,149.3,44.81,154.9,52.89,156.89Zm34.49,2.22V161H84.51C85.25,159.8,86.29,159.56,87.38,159.11ZM55,163.89c-.35.26-.66.65-1,.72a5.74,5.74,0,0,1-1.7-.06c-1.29-.13-2.57-.29-4-.45-.14-1-.12-1.09,1.07-1.1s2.41,0,3.61,0a3.32,3.32,0,0,1,1.18.19A4.7,4.7,0,0,1,55,163.89ZM26.59,142c-.73,0-1.54.17-1.77-1l2.56.23C27.44,141.84,27,141.94,26.59,142Zm.69.7v2.88l-1.59-2.8Zm-2.46-2.13c-.28,0-.53-.39-.8-.6l.14-.13c2,.1,4,.25,6,.29,1.1,0,2.22-.16,3.33-.22a2.48,2.48,0,0,1,.72.19c-.19.13-.36.34-.57.37A32.82,32.82,0,0,1,24.82,140.52ZM22.41,130a6.13,6.13,0,0,1,.32-1.71h.21l.29,3.43.3,0-.26-4.23.12,0,.43,1.94.25,0c-.09-.61-.17-1.23-.29-1.84a10,10,0,0,1-.27-1.82c.32,1.51,1.08,2.87.71,4.58-.52,2.43-.67,4.93-1,7.4,0,.11,0,.22,0,.35-1-1.22-1.08-1.73-.34-3.15a.82.82,0,0,0,.13-.38C22.79,133,22.53,131.53,22.41,130Zm2-5.84a8.08,8.08,0,0,0,.08.86c.05.34,0,.8.23,1,.85.74.33,1.47,0,2.21C24.45,126.9,23.59,125.64,24.37,124.19Zm-.24,8.93c.2-1.38.56-2.74.85-4.1a2.67,2.67,0,0,1,.22-.45l.16,0-.1,1.49.15,0,.52-1.31c.69.82.09,1.65.48,2.39l.42-1.85h.22l.07,1.2c.28-1,.85-1,1.7-.75a1.08,1.08,0,0,1,.9,1.13,6.65,6.65,0,0,1-1.5,4.72c-.61.79-1.27,1.55-1.92,2.31-.3.35-.54.66.13,1-1.52-.1-1.54-.1-1.45-1.53.05-.85.18-1.7.27-2.56,0-.26,0-.53,0-.8L25,134c-.14,1-.28,1.91-.41,2.87a6.74,6.74,0,0,1-.13,1.1,2.47,2.47,0,0,1-.47.67c-.12-.25-.35-.5-.33-.74C23.79,136.31,23.9,134.71,24.13,133.12Zm6.1-13.68c1.64.65,3.31,1.26,5,1.9a6.61,6.61,0,0,1,.77.44c-3-1.4-6.48-1.63-9.11-3.79C28,118.47,29.09,119,30.23,119.44Zm-3.32-4.38,2,.65C27.44,116.49,26.93,116.33,26.91,115.06Zm7.61,10.31c.39.71.87,1.58,1.34,2.46a1.58,1.58,0,0,1,.1.49c.26,2.62.6,5.24.75,7.86.1,1.76-.07,3.52-.12,5.28l-.47,0c-.32-2.71-.68-5.42-.94-8.13S33.85,127.93,34.52,125.37Zm4.22,14.35a2,2,0,0,1-1.18,2,17,17,0,0,0,.32-3.09q-.35-4.53-.93-9c-.12-1,0-1.54,1-1.79.1,1.43.21,2.84.3,4.26C38.44,134.59,38.58,137.15,38.74,139.72Zm-.17-8.35v-4.59h.11v4.59ZM37,141.51c.84-4.4-.39-8.7-.56-13C36.93,132.8,38.21,137.1,37,141.51Zm-5.52-10.38c-.24-.64-.08-.9.64-.94a75.36,75.36,0,0,1,4.56,15.29c-.51-1.32-1-2.64-1.5-4C33.92,138.05,32.71,134.58,31.46,131.13Zm3.61,11.22c-.79,0-.81-.07-.62-1.67Zm-.73-11.81c.29,2.25.55,4.34.81,6.42L35,137c-.6-1.67-1.22-3.34-1.79-5C32.88,131.06,33.7,131,34.34,130.54Zm-1.33.51c-.49-.73-.42-.83,1-1.55C34.32,130.56,33.31,130.51,33,131.05Zm.67-1.84c-.35.28-.75.49-1.25.82L32,128.6a14,14,0,0,1,1.41-.18.65.65,0,0,1,.54.25C34,128.8,33.82,129.1,33.68,129.21Zm-1.83-1-.05-.37,2-.26.06.4Zm0,1.18-.45.75-.4-.18.24-.82ZM31,130.87a14.36,14.36,0,0,1,1.18,5.75,9,9,0,0,0,.26,1.09l.23-.05-.29-2.4.17,0L33.87,139l-2.23.36a3.8,3.8,0,0,0,0-1.07,26.51,26.51,0,0,1-1.56-7.63v-.41l.29-.19A5.35,5.35,0,0,1,31,130.87Zm-1.11,3.66c.15,1.49.32,3.09.5,4.76H27.73ZM27.42,139l-1-.46,2.7-3.53.17.11Zm2.89-3.49.09,0c.29.94.6,1.89.86,2.84,0,.17-.13.39-.2.59-.12-.15-.33-.28-.36-.44C30.55,137.46,30.44,136.48,30.31,135.49Zm-.06-6.39c.12,0,.16.32.27.57-2.24.05-5.05-1.13-5-2.09C27.08,128.08,28.67,128.57,30.25,129.1Zm-3.75-1.67,4.13.49A6,6,0,0,1,26.5,127.43ZM32.3,150c-.35-.2-.5-.89-.56-1.39-.2-1.59-.32-3.18-.44-4.78,0-.53,0-1.07,0-1.63l2.64.14c.2,2.47-1,5,.06,7.71C33.39,150.06,32.72,150.25,32.3,150Zm4.75,2.23c-1.31.79-2.45.33-3.4-1.32C34.73,150.31,36.17,150.85,37.05,152.24Zm-3.56-1-.12.28c-1.51.26-1.84.1-1.74-.95Zm-2.1-10.12c.89-.1,1.55-.19,2.21-.24.09,0,.28.2.26.25s-.16.39-.31.45A2,2,0,0,1,31.39,141.1Zm-.44.6c0,.59,0,1.19-.87,1.09-.29,0-.6.23-.9.21a2,2,0,0,1-1.25-.28c-.22-.22-.14-.8-.07-1.2,0-.15.35-.33.57-.37a5.89,5.89,0,0,1,1,0h0a4.34,4.34,0,0,1,.51,0C30.38,141.17,31,140.93,31,141.7Zm7.68-19.13c.22,1.84.25,3.38-.94,4.68a1.41,1.41,0,0,1-2.12-.32,15.69,15.69,0,0,1-1-5.32,7.6,7.6,0,0,1,2,1.35,1.74,1.74,0,0,1-.36,2.19l.6-.37.19.77Zm-6.59-7-1.8.46C31.1,115.14,31.32,115.07,32,115.6Zm0,.29a1.08,1.08,0,0,1,.62.07c.57.32,1.12.68,1.66,1a1.73,1.73,0,0,1,.64.55c.75,1.44,1.45,2.91,2.17,4.37,0,0,0,.1,0,.26-2.84-2.37-6.6-2.67-9.7-4.41l.06-.32a8.23,8.23,0,0,1,1.41.07c.92.22,1.81.55,2.72.78a4.18,4.18,0,0,0,1,0l-.06-.12-3.82-1,0-.24h3v-.22l-3.53-.17v-.11c.43,0,.87,0,1.31-.11C30.34,116.17,31.17,116,32,115.89Zm-2.59-3.31a1.56,1.56,0,0,1-.25,2c-.07.06-.09.18-.25.5l-2.12-2c.57-.29.83-.53,1.12-.55C28.43,112.45,29.3,112.35,29.42,112.58Zm-2.05-3.69c.4,0,.8.4,1.2.62l-.08.36-2.42.44C26.35,109.56,26.63,108.91,27.37,108.89Zm-1.08,1.83a9.07,9.07,0,0,1,2.34-.36c.16,0,.34.27.51.41l-.08.25H26.9l-.52.84C25.83,111.46,25.72,110.94,26.29,110.72Zm-.18,1.43c.79,1.29,1.24,2.65,2.73,3C26.24,114.68,25.93,114.23,26.11,112.15Zm.19,6.11h0l.42.16c1.05.58,2.07,1.21,3.15,1.72a18.78,18.78,0,0,0,2.37.78c1.95.61,2.09.83,1.91,2.92-.06.75-.09,1.49-.1,2.24,0,1-.22,1.19-1.36,1.14l-.19-.66c-.23.88-.86.93-1.56.9s-1.21,0-1.81-.06-1.15-.28-1.08-1.08a.53.53,0,0,0-.29-.46l-.11,1.22c-.83.24-1.16-.19-1.36-.94l-.2.75c-1.48-.5-2-5.23-.64-6.79v1.77l.07,0Zm-3.75,2.47-.15-.14a1.8,1.8,0,0,1,.24-.35,2.59,2.59,0,0,0,.91-1.65c.22-1.64,1.35-2,2.61-1a11.77,11.77,0,0,1-5.1,5.67c1-2.27,3.31-3.37,4.53-5.46Zm-1.78,5.42a1.26,1.26,0,0,0,.17-.48c.11-2.18,1.74-3.15,3.29-4.25.48,1.69-.55,2.88-1.25,4.15-.08.15-.51.1-.85.15.8,1.46.24,2.82-.31,4.18-.21.51-.41,1-.57,1.53s-.46.81-.93.61a1.15,1.15,0,0,1-.62-.82A10.37,10.37,0,0,1,20.77,126.15Zm1.09,8.07a4.36,4.36,0,0,1,.11-3.65C22.58,132.25,22.53,133.84,21.86,134.22Zm-.73-1.7c-.63.68-1.12.6-1.47-.17Zm-1.85.65c.65.09,1.07.12,1.48.21.2,0,.49.16.52.3a1.07,1.07,0,0,1-.1.79c-.45.59-1.6.75-1.95.19C19,134.31,19.24,133.68,19.28,133.17Zm-.48,4.24a4.57,4.57,0,0,1,3.66-2.85C20.89,135.33,20.64,135.08,18.8,137.41Zm2.93,4.71v-2.61l.18,0,1.14,2Zm1.63-.87q-1.48-2.53-2.95-5.09l.25-.12q1.44,2.55,2.86,5.12ZM21,135.76l.35-.19q4.74,8.53,9.49,17.07l-.22.12C27.37,147.09,24,141.53,21,135.76Zm3.5,8.42.17-.05,2.05,3.53a.66.66,0,0,1,.09.33c-.09,1.15-.2,2.29-.3,3.49L25,151.17ZM23.55,154a6.85,6.85,0,0,1,1-1.5c.27-.26.78-.28,1.18-.41a6.56,6.56,0,0,1,.23,1,3.3,3.3,0,0,1-.1.76c-.15,1.05-.52,1.37-1.58,1.36S23.07,154.88,23.55,154Zm2.12,4.35a11.14,11.14,0,0,0-7.89.53,1.94,1.94,0,0,1-2-.12c1.36-.63,2.82-1.19,4.15-2a9.42,9.42,0,0,1,7.64-.67c1.49.42,1.71.78,1.7,2.31,0,.45,0,.9,0,1.32C28,159.27,26.85,158.74,25.67,158.36ZM29.26,161l-2.83.13v-2C27.49,159.55,28.54,159.78,29.26,161Zm7.49,1.35a.93.93,0,0,1-1.13.82,13.28,13.28,0,0,1-2.35-.41,7.82,7.82,0,0,0-4.64-.19,4.87,4.87,0,0,1-1.61.15c-.22,0-.42-.36-.63-.56.2-.17.38-.46.6-.5a13,13,0,0,1,1.54-.07c.79,0,1.2-.35,1.17-1.22a2.58,2.58,0,0,1,.35-1.2c.76.09.24.71.32,1.09.21.93.63,1.27,1.82,1.2l2.83-.18a2.24,2.24,0,0,1,.77.07C36.3,161.46,36.83,161.68,36.75,162.33Zm.1-1.09c-1.39-.8-2.83-.5-4.27-.3-.51.06-1.28.35-1.39-.34s.71-1,1.28-.95c1.43.21,2.83.58,4.24.92.13,0,.2.32.3.5Zm8.25,1.15a29.15,29.15,0,0,1-5.72-1.47c-1.74-.5-3.44-1.09-5.17-1.6a3.54,3.54,0,0,0-3.18.35c0-.65-.09-1.28-.12-1.91a2,2,0,0,1,1.6-2,6.14,6.14,0,0,1,3.55.28,39.6,39.6,0,0,1,4.14,1.42,19.11,19.11,0,0,0,11.7,1.16,5.29,5.29,0,0,1,2.2.1,1.24,1.24,0,0,1,.77.91,25.24,25.24,0,0,1-.21,2.79C51.43,162.45,48.24,162.63,45.1,162.39Zm19.46,4.31a9,9,0,0,1-2.38-.24,17.92,17.92,0,0,0-10.58,0,9.77,9.77,0,0,1-2.3.26c-.61,0-1.17-.2-1.21-.94s.58-1,1.2-1c.86,0,1.71.14,2.56.21a11,11,0,0,0,2.12.17c1.27-.12,1.66-.74,1.41-2a4.13,4.13,0,0,1-.05-.54h3.09a3.34,3.34,0,0,1,0,.55c-.27,1.18.12,1.85,1.32,2a11.74,11.74,0,0,0,2.12-.14c.91-.08,1.82-.22,2.73-.22.56,0,1.11.25,1.12.95S65.18,166.71,64.56,166.7Zm-5.77-2.81c.23-.23.43-.6.69-.65a17,17,0,0,1,2.46-.27c.83,0,1.66,0,2.49,0,1.19,0,1.22.08,1.07,1.12-1.38.15-2.64.3-3.9.41a10,10,0,0,1-2,0C59.28,164.54,59,164.13,58.79,163.89Zm14.48-2.54a20.3,20.3,0,0,1-8.36,1.15c-1.88-.14-3.77,0-5.75,0-.09-.89-.25-2-.26-3,0-.24.5-.69.79-.71a14.71,14.71,0,0,1,3.32,0,17.21,17.21,0,0,0,9.21-.81c2.36-.88,4.79-1.59,7.22-2.25a4.33,4.33,0,0,1,2.1.17,1.72,1.72,0,0,1,1.29,2c0,.58,0,1.17,0,1.85a3.38,3.38,0,0,0-3.09-.43C77.57,160,75.41,160.61,73.27,161.35Zm3.66-.12-.16-.18c.17-.19.3-.51.5-.57a30.08,30.08,0,0,1,3.49-.85,3,3,0,0,1,1.53.38c.18.08.23.46.34.71A2.13,2.13,0,0,1,82,161a7.86,7.86,0,0,1-1.36-.15A5.54,5.54,0,0,0,76.93,161.23Zm9.82,1.47a5.37,5.37,0,0,1-1.7-.16,7.42,7.42,0,0,0-4.47.19,11.56,11.56,0,0,1-2,.45c-.87.12-1.54-.26-1.54-.85,0-.86.67-1,1.31-1.05a7.37,7.37,0,0,1,.94,0v-.05c.83.08,1.65.21,2.48.23,1.19,0,1.57-.37,1.64-1.57a2.86,2.86,0,0,1,.28-.77,2.61,2.61,0,0,1,.35.76c.17,1.64.22,1.69,1.86,1.7a2.38,2.38,0,0,1,.85,0,2.45,2.45,0,0,1,.66.55C87.19,162.36,87,162.69,86.75,162.7ZM96.33,159a12.28,12.28,0,0,0-11.74.94,20.31,20.31,0,0,1,0-2.61,1.35,1.35,0,0,1,.79-.82,9.28,9.28,0,0,1,7.65-.06c1.08.53,2.13,1.12,3.23,1.62a18.24,18.24,0,0,0,1.85.62l0,.25C97.56,158.94,96.85,159.19,96.33,159Z"/><path class="cls-1" d="M61.28,126.1l-1.66-1.51-.24.27,1.72,1.45Z"/><path class="cls-1" d="M45.45,124.94l.65.8a1.23,1.23,0,0,0-.75-1.62l-.29,1,.16.08Z"/><path class="cls-1" d="M48.49,127.27l-1-.8-.16,1.38.27.18Z"/><path class="cls-1" d="M26.52,122.83l.2-4.41-.42-.16C26.59,119.77,25.9,121.35,26.52,122.83Z"/><path class="cls-1" d="M71.75,159.3l-.56,1-.75-.91-.25,1.92.26.05.24-.58.11.23.89-.34.57.44-.3-1.81Z"/><path class="cls-1" d="M66.36,160l.37,1.71.45-.34.86.47a4.67,4.67,0,0,1-.43-1.11C67.58,159.92,67.46,159.81,66.36,160Z"/><path class="cls-1" d="M63.38,161.35l-.32,0-.36-1.75a1.44,1.44,0,0,0-.05,1.83,1.09,1.09,0,0,0,.87.16,12.81,12.81,0,0,0,.57-1.61l-.42-.1Z"/><path class="cls-1" d="M79.84,156.84l-.92.1-.15,1.85.54-.58.53.22Z"/><path class="cls-1" d="M68.62,160.08a4.45,4.45,0,0,0,0,1.5c0,.06.52,0,.64.06v-1.89C69.13,159.82,68.66,159.91,68.62,160.08Z"/><path class="cls-1" d="M78,157.19c-.91.14-1.07.61-.65,2l1-.31-.56-.29Z"/><path class="cls-1" d="M73.31,158.74l-.63,1.83.24.07.47-.64.66.34.16-.15-.65-1.46Z"/><path class="cls-1" d="M61.21,161.26l-.5.13v.27a3.9,3.9,0,0,0,.78-.09,10.58,10.58,0,0,0,0-1.44l.33-.18C61.23,159.81,61.23,159.81,61.21,161.26Z"/><path class="cls-1" d="M64.78,159.81v1.92h.3l.11-1.33h.11l.08.5.25,0c0-.26.19-.66.07-.76A2.64,2.64,0,0,0,64.78,159.81Z"/><path class="cls-1" d="M75.78,157.86v1.84l.75-.28L76,157.86Z"/><path class="cls-1" d="M38.51,159.44h-.27l-.41-1.74-.28.06a3.49,3.49,0,0,1,0,.73,1.94,1.94,0,0,1-.31.51,1.7,1.7,0,0,1-.31-.51c-.07-.35-.08-.72-.12-1.09l-.24,0c-.46,1.27-.26,1.65,1,1.92.12,0,.22.2.34.22.35,0,.88.17,1,0a1,1,0,0,0-.11-1.36Z"/><path class="cls-1" d="M45.61,159.76v2.12c.42-.15,1-.2,1-.38a2.17,2.17,0,0,0-.11-1.28C46.42,160,46,159.94,45.61,159.76Z"/><path class="cls-1" d="M44.45,161.25l-.33,0-.38-1.66-.28.07c-.12.65-.28,1.34.43,1.78a1,1,0,0,0,.85-.07c.35-.22.29-1-.09-1.56Z"/><path class="cls-1" d="M49.89,161.41c.41.37.91.56,1.26.17-.4-.33-.93-.54-1-.83-.14-.89.61-.58,1.1-.67a.91.91,0,0,0-1.36,0A.84.84,0,0,0,49.89,161.41Z"/><path class="cls-1" d="M42.1,159.18l-.24.15.11,1.75h.27l.33-.62c.14-.24.45-.62.39-.68A4.05,4.05,0,0,0,42.1,159.18Z"/><path class="cls-1" d="M52.26,161.14l.65.61.22-.19c-.25-.56-.51-1.12-.76-1.67l-.23,0-.64,1.57.17.11Z"/><path class="cls-1" d="M35,157l-.62,1.49.23.11.48-.42.64.79.24-.13L35.29,157Z"/><path class="cls-1" d="M39.58,158.59c-.12.09-.12.41-.07.6a3.11,3.11,0,0,0,.38.67l-.48,0-.09.3.84.19-.09-1.43.12-.28C40,158.6,39.7,158.49,39.58,158.59Z"/><path class="cls-1" d="M33.6,156.64c-.76.53.16.87.2,1.38h-.52l0,.27.88.07L34,157l.24,0,0-.21C34.05,156.72,33.73,156.54,33.6,156.64Z"/><path class="cls-1" d="M47.26,159.93v1.86l.68,0-.49-1.82Z"/><path class="cls-1" d="M48.82,161.71H49V159.9h-.22Z"/><path class="cls-1" d="M27.23,101.61a1.07,1.07,0,0,1-.86-.42,1.09,1.09,0,0,1,.19-1.53l1-.74a1.09,1.09,0,1,1,1.29,1.76l-.93.7A1,1,0,0,1,27.23,101.61Zm6-3.93a1.1,1.1,0,0,1-.52-2.06l1.08-.57a1.11,1.11,0,0,1,1.48.48A1.1,1.1,0,0,1,34.79,97l-1,.54A1.13,1.13,0,0,1,33.23,97.68Zm35.94-2.75a1.15,1.15,0,0,1-.37-.06l-1.11-.38a1.1,1.1,0,0,1,.69-2.08l1.16.4a1.09,1.09,0,0,1-.37,2.12ZM39.8,94.77a1.09,1.09,0,0,1-.36-2.12c.38-.14.77-.27,1.16-.39a1.09,1.09,0,1,1,.66,2.08l-1.11.37A1,1,0,0,1,39.8,94.77Zm22.44-1.7-.2,0-1.15-.2a1.09,1.09,0,1,1,.33-2.16c.41.06.81.13,1.21.21a1.09,1.09,0,0,1-.19,2.17ZM46.74,93a1.09,1.09,0,0,1-.18-2.17l1.21-.19a1.09,1.09,0,1,1,.31,2.16L46.93,93Zm8.35-.63h-1.2a1.09,1.09,0,0,1,0-2.18h1.23a1.1,1.1,0,0,1,0,2.19Z"/><path class="cls-1" d="M75.22,97.65a1.11,1.11,0,0,1-.52-.13l-.54-.29a1.09,1.09,0,0,1,1-1.94l.57.31a1.09,1.09,0,0,1-.52,2.05Z"/><path class="cls-1" d="M39.49,174.86a1,1,0,0,1,.38.07l1.14.39a1.13,1.13,0,1,1-.7,2.14l-1.2-.41a1.13,1.13,0,0,1,.38-2.19ZM69.7,175a1.13,1.13,0,0,1,.37,2.19c-.4.13-.79.27-1.19.39a1.12,1.12,0,1,1-.69-2.14l1.14-.38A1.24,1.24,0,0,1,69.7,175Zm-23.08,1.75.21,0c.39.08.78.14,1.18.2a1.13,1.13,0,0,1-.35,2.23L46.42,179a1.12,1.12,0,0,1,.2-2.23Zm15.94.09a1.12,1.12,0,0,1,1.1.94,1.11,1.11,0,0,1-.91,1.29c-.42.08-.83.14-1.25.2a1.13,1.13,0,0,1-.32-2.23c.4,0,.79-.11,1.18-.18Zm-8.59.65H55.2a1.13,1.13,0,1,1,0,2.25H54a1.13,1.13,0,0,1,0-2.25Z"/><path class="cls-1" d="M33.26,172.07a1.16,1.16,0,0,1,.54.13l.55.3a1.12,1.12,0,1,1-1,2l-.58-.31a1.12,1.12,0,0,1,.53-2.11Z"/><path class="cls-1" d="M26.7,170.65a1.09,1.09,0,0,1-.69-.24l-1-.85a1.09,1.09,0,0,1,1.42-1.66c.32.27.64.54,1,.8a1.1,1.1,0,0,1-.68,2Zm-5.58-5.36a1.09,1.09,0,0,1-.83-.37c-.29-.33-.57-.67-.85-1a1.09,1.09,0,0,1,.15-1.54,1.1,1.1,0,0,1,1.54.15q.39.49.81,1a1.09,1.09,0,0,1-.1,1.54A1.06,1.06,0,0,1,21.12,165.29Zm-4.56-6.24a1.11,1.11,0,0,1-.94-.53c-.23-.38-.45-.76-.67-1.14a1.1,1.1,0,0,1,1.91-1.08c.2.37.42.73.63,1.09a1.09,1.09,0,0,1-.37,1.5A1.06,1.06,0,0,1,16.56,159.05Zm-3.4-6.94a1.09,1.09,0,0,1-1-.71c-.16-.41-.31-.82-.46-1.24a1.1,1.1,0,0,1,2.07-.72c.13.4.28.79.43,1.18a1.11,1.11,0,0,1-1,1.49ZM11,144.67a1.09,1.09,0,0,1-1.08-.89c-.08-.43-.15-.86-.23-1.3a1.09,1.09,0,0,1,.91-1.25,1.08,1.08,0,0,1,1.25.9c.07.42.14.83.22,1.24a1.08,1.08,0,0,1-.87,1.28A.71.71,0,0,1,11,144.67Z"/><path class="cls-1" d="M88.45,164a1.13,1.13,0,0,1-.69-.24,1.1,1.1,0,0,1-.16-1.54l.38-.48a1.09,1.09,0,1,1,1.72,1.35l-.4.5A1.09,1.09,0,0,1,88.45,164Z"/><path class="cls-1" d="M82.15,170.37a1.07,1.07,0,0,1-.84-.41,1.08,1.08,0,0,1,.15-1.53l1.11-1A1.1,1.1,0,0,1,84,169.13l-1.16,1A1.15,1.15,0,0,1,82.15,170.37Z"/><path class="cls-1" d="M75.47,174.9a1.09,1.09,0,0,1-.53-2.05l.54-.31a1.1,1.1,0,0,1,1.08,1.91l-.56.31A1.13,1.13,0,0,1,75.47,174.9Z"/><path class="cls-1" d="M98.08,140.22H98A1.11,1.11,0,0,1,97,139l.05-.61a1.1,1.1,0,0,1,1.17-1,1.09,1.09,0,0,1,1,1.17l0,.64A1.09,1.09,0,0,1,98.08,140.22Z"/><path class="cls-1" d="M97.07,146.5A1.06,1.06,0,0,1,96,145.16c.08-.34.15-.67.22-1a1.11,1.11,0,0,1,1.3-.85,1.09,1.09,0,0,1,.84,1.3c-.07.36-.15.71-.23,1.06A1.09,1.09,0,0,1,97.07,146.5Z"/><path class="cls-1" d="M95.32,152.17a1,1,0,0,1-.39-.07,1.09,1.09,0,0,1-.63-1.41l.21-.57a1.1,1.1,0,0,1,1.41-.66,1.11,1.11,0,0,1,.65,1.41l-.23.6A1.09,1.09,0,0,1,95.32,152.17Z"/><path class="cls-1" d="M125.74,168.81v2.89c1.74.16,3.38.27,5,.48a8.93,8.93,0,0,1,2.21.6,4.79,4.79,0,0,1,3.14,4.42,5,5,0,0,1-2.4,4.63l-.47.3a5.45,5.45,0,0,1,4.18,4.28,7,7,0,0,1-5.72,8.35,18.55,18.55,0,0,1-3.42.22c-2.2,0-4.4,0-6.65,0l.34-5.78-6.64.51V172.54l6.51-.73v-2.75l.73-.25Zm2.51,12.32a21.56,21.56,0,0,0,2.68-.64,2.47,2.47,0,0,0,1.63-2.23A2.31,2.31,0,0,0,131.5,176c-1.77-1.08-3.75-.92-5.7-1v10.92l3.57.24v3.29l-3.56-.24V192a42.4,42.4,0,0,0,5.14-.43,3.73,3.73,0,0,0,2.79-3.92,3.84,3.84,0,0,0-3.11-3.68c-.76-.16-1.56-.21-2.38-.31Zm-9.31,5.3,3.1-.32v-11l-3.1.26Z"/></svg>