<svg id="Layer_1" data-name="Layer 1" xmlns="http://www.w3.org/2000/svg" width="233.7" height="202.63" viewBox="0 0 233.7 202.63"><defs><style>.cls-1{fill:#fff;}</style></defs><title>SuvalkijaPlace</title><path class="cls-1" d="M90.21,202.63l-9.37-8a3.64,3.64,0,0,0-.71-.47l-2.63-1.31a3.5,3.5,0,0,0-2.4-.27l-3,.75c-.16.05-.33.1-.5.17L68,195l-1.29-1.84.19-.89.68-2.21a2.89,2.89,0,0,0,.1-.35l.56-2.42a3.5,3.5,0,0,0-.55-2.79l-.94-1.32a3.46,3.46,0,0,0-2.44-1.45l-4.65-.53-1-2.67c0-.09-.07-.18-.11-.28l-1-2.07a3.21,3.21,0,0,0-.56-.85l-1.51-1.71a3.45,3.45,0,0,0-1.75-1.06l-1.5-.38a3.6,3.6,0,0,0-1.6,0l-3.1.69-8.69-4.52a3.42,3.42,0,0,0-1.21-.38l-3.21-.37a3.55,3.55,0,0,0-1.82.28l-3.76,1.68a3.58,3.58,0,0,0-1.64,1.53l-3,5.55-6.72-11.94-3.63-8.11-.88-9.2,1-19.56,3.24-11.68a2.57,2.57,0,0,0,.08-.38l.75-4.73a3,3,0,0,0,0-.79l-.19-2.82c0-.08,0-.2,0-.31l-.9-5.72V99.44l3.19-5.14a3.51,3.51,0,0,0,.58-1.93V91.23c0-.14,0-.28,0-.41l-.11-.92,1.86-1.57,2.17-1.23a3.27,3.27,0,0,0,.75-.58l1.33-1.33a3.38,3.38,0,0,0,.5-.63l1.71-2.79,4.15-3a2.93,2.93,0,0,0,.53-.47l2.25-2.46a3.29,3.29,0,0,0,.65-1l1.89-4.52a3.76,3.76,0,0,0,.26-1L39,64.73A4.24,4.24,0,0,0,39,64l-.56-4.7c0-.1,0-.2-.05-.3L36.15,48.45A3.17,3.17,0,0,0,36,48L34.9,44.66a3.8,3.8,0,0,0-.72-1.23l-1.89-2.07a3.35,3.35,0,0,0-1.12-.82L23.68,37.1l.71-1.58a3.45,3.45,0,0,0,.07-2.71,3.49,3.49,0,0,0-2-2L21,30.31,19.54,28a4.75,4.75,0,0,0-.34-.48l-.95-1.15a3.49,3.49,0,0,0-1.81-1.15l-1.5-.39a3.58,3.58,0,0,0-.87-.11H5.9L4.58,22.19,2.69,16.81,0,3.81l1.7-.36C25-1.41,49.84-.1,73.9,1.17c10,.53,21.36,1.13,32.13,1.2a30.42,30.42,0,0,0,9.12-1.09l1.26-.41.73,1.1c18.6,28,54.24,46.54,90.8,47.3,9.65.21,21.66.46,25,8.15C236,64.51,229.36,73.08,224,80s-10,17.47-6.68,25.65l.55,1.34-2.47,1.62c-13.33,8.79-31.59,20.83-28.37,38.51.23,1.27.56,2.58,1,4.15,1.13,4.28,1.72,7,.27,8.47-.69.7-1.93,1.15-4,1.49a41.34,41.34,0,0,1-25-3.91l-1.36-.7c-2.83-1.49-5.74-3-9.33-3.1h0c-6.15,0-11.18,4.42-13.87,6.79-13.87,12.22-29.53,26-43.32,41.1ZM75.94,189a7.17,7.17,0,0,1,3.11.73L81.68,191a6.77,6.77,0,0,1,1.42,1l6.82,5.84c13.63-14.75,28.89-28.19,42.4-40.08,2.88-2.54,8.76-7.71,16.26-7.71h0c4.43.11,8,2,10.87,3.49l1.35.7a37.9,37.9,0,0,0,22.9,3.57,9.78,9.78,0,0,0,2-.47,25.08,25.08,0,0,0-1-5.17c-.44-1.65-.79-3-1-4.42-3.63-19.94,15.73-32.71,29.87-42l.13-.09c-3-9.29,1.89-20.31,7.64-27.75,4.76-6.16,10.69-13.83,8.44-19-2.44-5.65-13.21-5.87-21.87-6C170.66,52,134.36,33.25,115,5a36.55,36.55,0,0,1-8.93.89c-10.88-.06-22.24-.66-32.27-1.2C50.47,3.42,26.45,2.15,4.11,6.51l2,9.48,1.75,4.92.19.36h6.06a6.83,6.83,0,0,1,1.75.22l1.49.39a6.87,6.87,0,0,1,3.61,2.29l.95,1.15a5.88,5.88,0,0,1,.6.85l.85,1.28.32.11a6.93,6.93,0,0,1,4.43,7.73l4.55,2.08A7,7,0,0,1,34.87,39l1.88,2.08a7,7,0,0,1,1.44,2.45L39.34,47a7.78,7.78,0,0,1,.2.76L41.8,58.28a5.18,5.18,0,0,1,.1.61l.57,4.72a6.57,6.57,0,0,1,0,1.4l-.38,4.54a7.11,7.11,0,0,1-.52,2.1l-1.88,4.52a7.16,7.16,0,0,1-1.29,2l-2.26,2.47a7.68,7.68,0,0,1-1.05.93l-3.59,2.59-1.34,2.19a7.24,7.24,0,0,1-1,1.28L27.85,89a6.68,6.68,0,0,1-1.5,1.14l-2.13,1.25v1a7,7,0,0,1-1.13,3.79l-2.65,4.27v.8l.86,5.29a6.17,6.17,0,0,1,.08.62l.19,2.86a7.23,7.23,0,0,1-.07,1.55l-.75,4.73a7.43,7.43,0,0,1-.17.79l-3.19,11.47-.89,18.73.79,8.39,3.37,7.52,3.51,6.23a7.08,7.08,0,0,1,3.28-3l3.76-1.68a6.93,6.93,0,0,1,3.64-.56l3.22.37a7,7,0,0,1,2.41.74L48,169.17l1.87-.41a7,7,0,0,1,3.19,0l1.5.37a6.93,6.93,0,0,1,3.52,2.14l1.51,1.7a7.12,7.12,0,0,1,1.11,1.7l.95,2.07c.09.19.16.37.23.55l.23.65,2.5.29a7,7,0,0,1,4.89,2.89l.93,1.32a7,7,0,0,1,1.11,5.58l-.44,1.88.08,0,3-.75A6.9,6.9,0,0,1,75.94,189Zm109.72-31.43Zm.26-.33ZM137,164.63l0-3.48h0Z"/><g id="bnvQZQ.tif"><path class="cls-1" d="M150.22,34c0,20.16,0,40.33,0,60.49a47.86,47.86,0,0,1-92,18.28,48.89,48.89,0,0,1-2.07-6,45.7,45.7,0,0,1-1.64-12V29.9h88.52l-1.81-1H53.52v1.18q0,32.27,0,64.55a46.93,46.93,0,0,0,3.17,16.94,48.87,48.87,0,0,0,94.54-17.19q0-29.91,0-59.81Z"/><path class="cls-1" d="M105.24,35.41c.67-.09.78.27.63.82l-.81,3h.3a5.56,5.56,0,0,1,.16,1.33c-.14,1.28-.39,2.54-.56,3.81a6.4,6.4,0,0,0,.75,3.68c.83-.38,1.6-.75,2.39-1.09s1.54-.63,2.34-1l.21-4.58,1.82-.94c-1.46,1-1.7,2.55-1.83,4.13a1.33,1.33,0,0,0,1.2,1.56c-.06-.67-.13-1.27-.15-1.87-.12-3.05.49-3.6,3.79-3a2,2,0,0,1,.85.44,1,1,0,0,1,.37.64,16.09,16.09,0,0,1-.19,2.3,2.3,2.3,0,0,1-.43.73l-.25-.08c.23-1.19,1.51-2.52-.13-3.5a4.7,4.7,0,0,0-3.22-.17c1.55,1,1.74,1.93.91,3.25-.29-2.42-.29-2.42-1.5-2.6l1.49,1.39h-1.47l.86,3.94h-.3a14.59,14.59,0,0,1-1,1.95c-.48.64-1.19,1.12-1.66,1.77a5.24,5.24,0,0,0,.54,6.8l1.19-4.28.16,0-1.14,4.51c.91.78,1.79.92,3.44.61.15-.26.31-.52.47-.78l.31,1.14-4.52.32,1.07,2.86,8.57-.62-.56-1.77.15,0,.73,2.08,3.15-1.11-1.69-1.94.06-.06,1.33.94c-.07-1.92-.71-3.14-1.55-3.34a25.85,25.85,0,0,0,.69-6l.56.5c.52-1.13,1.21-2.17.34-3.31a3.16,3.16,0,0,0-3.55-1.11,8.12,8.12,0,0,0-3.86,2.12c-.63.63-1.19,1.34-1.78,2a9.05,9.05,0,0,1,1.4-2.1c.25-.31.75-.56.8-.89a2.24,2.24,0,0,1,1.69-2.09c0-2,0-3.9-1.73-5.19l1.7,1.18c.81-2.37-1.37-4.34-3.07-4.93l-.41,1.56.11-1.64A6.05,6.05,0,0,0,111,39.64c-.3-.71-.61-1.44-.93-2.16a1.73,1.73,0,0,1,1.11-2.61.59.59,0,0,1,.19,0,4.61,4.61,0,0,0,3.26-1.47,2.67,2.67,0,0,1,2.25-.42,14.44,14.44,0,0,0,7.35.29,1,1,0,0,1,.33,0c-.28,1.54-1.48,2.09-2.82,2.65.26.12.39.2.52.24,1.49.47,1.67,1.1.64,2.26a6.09,6.09,0,0,1-3.65,1.83,1.16,1.16,0,0,0-1.13,1.36,16.29,16.29,0,0,1-.18,1.82A112.76,112.76,0,0,1,143.62,38a9,9,0,0,1-.34,1.26,10.61,10.61,0,0,1-.92,1.81,7.27,7.27,0,0,0-.7,7.18,47.8,47.8,0,0,1,1.51,5A6.3,6.3,0,0,1,141.52,59a2.37,2.37,0,0,1-2.49.67c-1.6-.36-3.19-.8-4.78-1.2L133,58.12c.26.54.43.91.62,1.27a4.15,4.15,0,0,1-.11,4.49c-1.11,1.67-2.23,3.33-3.48,4.88-1.66,2.06-3.45,4-5.17,6a44.52,44.52,0,0,0,5,3.56,8.57,8.57,0,0,0,3.84.63,33.71,33.71,0,0,0,4.23-.44,7.93,7.93,0,0,1,7.22,2.69,3.8,3.8,0,0,1,.43,4.81,22.14,22.14,0,0,1-2.36,3.07,8.61,8.61,0,0,0-2.59,7.3,2.57,2.57,0,0,1,0,.48.83.83,0,0,1-.09.2c-1.23.21-1.1-1.12-2-1.76l-1.43,5.11-.21.06-1-2.7-.25,0-.73,3.8-.34,0c-.32-.56-.65-1.11-1-1.68a7.39,7.39,0,0,1-.54-5.91c.62-2,1.26-4,1.85-6a6.65,6.65,0,0,0,.08-4.73c-.6-1.38-.93-1.6-2.43-1.51-.47,0-.94.1-1.49.15a2.62,2.62,0,0,0,.13.55c1.28,2.57.79,5.05-.57,7.38a18.43,18.43,0,0,1-3,4.11,6,6,0,0,0-1.73,6.32c.24,1,.41,2.09.68,3.12a7.27,7.27,0,0,1-.23,4.28l-.77,2.22c1,0,1.94.06,2.85.13a14.33,14.33,0,0,1,7.65,2.67,7.62,7.62,0,0,1,1.64,10.22,10.67,10.67,0,0,1-7.45,4.41c-2.15.32-4.35.34-6.69.5-.48.64-1.06,1.53-1.75,2.34A15.79,15.79,0,0,1,104,134.52a5.74,5.74,0,0,1-3.87-4.57,5.33,5.33,0,0,1,.79-3.51c.32-.55.7-1.07,1-1.75-5,2.23-9.94,1.81-14.93.11l-.24.21a15.71,15.71,0,0,0,.61,1.79,2.71,2.71,0,0,1,.12,2.76,1.92,1.92,0,0,1-2,1.06l.76-1.05c-1.05-.55-.68-1.47-.48-2.42a5.43,5.43,0,0,0-3.38,2.75A2.62,2.62,0,0,1,80,131.41a5,5,0,0,0-.59.11l.09,1.29c-1.23-.58-1.51-1.22-.82-2.18A7.24,7.24,0,0,1,80.41,129a20.62,20.62,0,0,1,2.1-1.19c.07,0,.11-.13.11-.44-1.14.23-2.28.49-3.44.67a8.69,8.69,0,0,1-2.16.08c-.8-.08-1.47-.07-1.79.93-.24-.88-.18-1.63.58-1.91a16.54,16.54,0,0,1,3.33-.82,18.25,18.25,0,0,1,2.77,0l.1-.26A8,8,0,0,0,79.66,125a2.61,2.61,0,0,1-2.54-1.9l-1.18.37.16-1a4.72,4.72,0,0,1,4.45,1.17A10.7,10.7,0,0,0,83,125.24a2.79,2.79,0,0,0,1,.11,1.55,1.55,0,0,0-.86-2.1A20,20,0,0,1,77,118.73c-.74-.87-1.8-.4-2.88-.49.27,1.79-.89,2.06-2.19,2.22-.76.1-.88.05-1.52-.84.2,0,.36-.07.53-.08s.31,0,.54,0l.92-1.76-.1-.27-6.08,1.24L66.1,120c-.72-.53-1-1.09-.58-1.86a3.65,3.65,0,0,0,.18-.34,1.62,1.62,0,0,1,2.14-1.18,16.25,16.25,0,0,0,2.62.21l.06-.32c-.75-.33-1.53-.63-2.26-1s-1.54-.82-2.27-1.29-1.13-.7-1.68.16l-.21-.17c.1-.36.09-.8.3-1,.6-.7,3-.58,3.62.15a4.93,4.93,0,0,0,2.86,1.93c-.55-1-1-1.75-1.43-2.55a4.35,4.35,0,0,1-.62-1.59c-.06-.78-.28-1.24-1.2-1.19l.08-.35a4,4,0,0,1,1.51,0c.8.35,1.7.69,1.81,1.81a6.6,6.6,0,0,0,1,3.57c.77,1,1.1,1.15,2.27.61-.52-1.49-1.11-3-1.52-4.46a5,5,0,0,1,.58-4.2c1.34-2,1-4.18,1-6.35l-6.68-.43-.07-.4a12.57,12.57,0,0,1,1.64-.54c.73-.14,1.49-.1,2.21-.25s1.35-.26,1.43-1.08-.08-1.72-.94-2a11.29,11.29,0,0,0-2.6-.5,4,4,0,0,0-1.1.14l0-.76-1,.44L67.05,93l4.28-.26,3-1.66c-.32-2.1-.62-4.49,1.77-6a33.81,33.81,0,0,0,0,4.15,3,3,0,0,0,2.29,2.59c2.18.61,2.62,2.45,2.87,4.38,0,.29,0,.58.09.86a1.89,1.89,0,0,0,.16.35,6.13,6.13,0,0,0,.44-.63,5.23,5.23,0,0,1,3.57-2.88,1.42,1.42,0,0,0,.9-.71c1-3,1.87-6,2.82-9.11-1.64-1-3.07-2.12-5.06-2.11A18.47,18.47,0,0,1,77,80.4a28.18,28.18,0,0,0-4.64-1.28,2.5,2.5,0,0,0-2.51.67c-1.37,1.49-2.7,3-4,4.55A14.12,14.12,0,0,0,64.73,86l-1.15-.3c-1.15,1.41.34,2.14.81,3.15a7.78,7.78,0,0,1-4.12,3.35c-.61-1.33-1.3-2.51-.6-4s1.22-3.19,1.89-4.76a5.3,5.3,0,0,1,1.15-1.63c1.69-1.68,3.54-3.23,5.14-5a5.76,5.76,0,0,1,5.71-1.95,42.65,42.65,0,0,0,4.61.27,6.33,6.33,0,0,0-7.77-3.22,32,32,0,0,0-3.85,2c-.45.25-.86.56-1.29.85l-1.2-.62c-.18.64-.59,1.26-.49,1.79.5,2.5-.11,2.88-2.73,3.68a10.93,10.93,0,0,1-2.28.18,4.43,4.43,0,0,1,.59-3.33c1.06-1.42,2.15-2.83,3.12-4.31a4.84,4.84,0,0,1,3-2c2-.6,4-1.27,6.07-1.9a10.21,10.21,0,0,1,2.41-.67,6,6,0,0,1,2.69.41c1.52.67,2.94,1.58,4.65,2.52a11.8,11.8,0,0,1,3.39-7.72l-3.21-.9c.91-2.29.17-4.37-1.06-6.35-.36-.56-.37-.56-1.14-.35.92,1.41,1.86,2.8,1.87,4.28-.54.61-1.1,1-1.22,1.49-.07.26.64.71,1,1.07l-.8.13c-.44-.62-.92-1.14-.34-1.92,1.15-1.54,1-2.58-.35-3.93a9.48,9.48,0,0,1-1.57,1.65c-.24.16-.86-.23-1.37-.4l.82-2.06c-1.27-1-2.15.22-3.25.63a9,9,0,0,1-.44-4.14,2.86,2.86,0,0,1,.79-1.18,20.19,20.19,0,0,0,2.9-3.35c1.13-2.15,2.31-4.15,4.49-5.39-.65-1.17-2.34-1.23-2.49-2.79h1.45l-.65-1.38a5.61,5.61,0,0,1,4.87,1.21c1.75-.53,3.52-1.25,5.47-.33l-.58.84c1.83.19,3.54.5,4.69,2.12l-.86.61c1.48.41,3,.65,4,1.87l-.63.87,2.83,1.33-.2,1.1.67.48a1.2,1.2,0,0,0,.2-.25,10.28,10.28,0,0,0,.81-4.81c-.07-.89.13-1.79.15-2.69a1.53,1.53,0,0,1,1.09-1.55,2.15,2.15,0,0,0,1.43-1.76c.13-.56.34-1.1.57-1.8l.83.36c-.24.1-.63.13-.7.3-.58,1.46-1.27,2.94-.31,4.51-.58-.15-1.14-.75-1.74-.06a3.32,3.32,0,0,0-1,3,11.09,11.09,0,0,1,1.14-.54c.09,0,.27.18.4.29a1.69,1.69,0,0,0-1.36,1.52,21.76,21.76,0,0,1-.6,2.24Q93.9,70.26,86.68,93.85c-1,3.13-1.9,6.28-2.87,9.48l.73,0-.92,2,.22-2.34A2.38,2.38,0,0,0,82,104.6a8.16,8.16,0,0,0,0,4.49c.09.49.52.56.86.15a14,14,0,0,0,1.88-2.45,3.37,3.37,0,0,0,.33-2.38,4.75,4.75,0,0,1,.23-3.25q8.69-28,17.37-56a18.53,18.53,0,0,0,.38-2.27l.62,1.77c.3-.32.72-.56.79-.89.27-1.19.42-2.42.62-3.63l-.21,0-.49,1.68-1-1,.87-.56c.38-1.29.79-2.57,1.13-3.88A2.76,2.76,0,0,0,105.24,35.41ZM94,86.4l.86,1c-.59-.22-1.17-.43-1.79.24.57.26.67,1.2,1.56.74l-.65.55-3.13-3.81-.19.15c.43,1.67,1.83,2.71,2.67,4a3.74,3.74,0,0,0,3.76-2l-.21.86a2.7,2.7,0,0,0,2.19-1.51,18.22,18.22,0,0,1,3.89-4.9,21.26,21.26,0,0,0,2.2-2.44c.7-.88,1.44-1.8.56-3.11l.89.53c-.28,1.86-.18,2.09,1.35,2.76a8.9,8.9,0,0,0,.76-1.63c.39-1.61,1-2.9,2.79-3.48a1.89,1.89,0,0,0,1.2-2.33l-2.44.44-1.14-3,1.52,2.76,4-1.08c-.33-.73-.52-1.2-.74-1.65A7.11,7.11,0,0,0,110.78,66a1.47,1.47,0,0,0-1.08-.16c-1,.56-2,1.22-3,1.91l.84.53-1.89.12a4.51,4.51,0,0,0,1.22.58,7,7,0,0,1,1,.56l-3.43-.84-.54,2.2,2.29.88c-.37-.09-.75-.17-1.12-.28a1.32,1.32,0,0,0-1.79,1c1.09.37,2.47.18,3,1.57a3.77,3.77,0,0,0-3-1.18l-.65,1a1.52,1.52,0,0,1,.24.2l-5.06,7.74-.2-.8-1.52.14-.18.3,1.78,1.74v.89c-.81-1.35-2.38-2.43-2.77-1.95l.24.35c-2.18.17-2.3.23-2.93,1.74l3.41-1.57c.62.38,1.3,1,1.08,1.85a18.74,18.74,0,0,1-1.15,2.8L96.67,84l-3.5,1,.91,1.46-1.52-1.37-1.12.37,1,.78L93,87.49Zm9.31-40.31c-1.35.91-1.19,2.41-1.6,3.79l2.44.3c1.21-1.73,1.25-2.46.27-4.4l-.74.12.86-1-.13-.14-1.64.43ZM97.6,117.67a8.87,8.87,0,0,1,.1-1.42,7.54,7.54,0,0,1,.69-2c.8-1.32,1.67-2.61,2.59-3.85a7.56,7.56,0,0,1,1.9-2,30,30,0,0,0,6.79-6c1.25-1.39,1.29-1.89.32-3.5s-2-3.11-2.85-4.72a12,12,0,0,1-1-2.7,14.91,14.91,0,0,1-.24-1.93c-2-.41-4-.85-5.9-1.15a8.37,8.37,0,0,0-2.64.08,6.07,6.07,0,0,0-1.64.8c-1.57.84-2.42.67-3.51-.72-.57-.73-1.11-1.48-1.78-2.38l-2.2,7.06,13.16.95v.31l-1,.26c-1.65.42-3.31.8-5,1.27a6.26,6.26,0,0,0-1.34.73l.08.31c4.74.14,9.46.4,14,1.93-2.76.6-5.56.93-8.38,2.2a7,7,0,0,0,.94.66c1.25.6,2.52,1.15,3.76,1.77a10.89,10.89,0,0,1,1.29.88,1.31,1.31,0,0,1-.75.18c-2.42,0-4.83,0-7.25,0a2.17,2.17,0,0,0-2.09,1c1.79.91,3.69,1.51,5.37,3h-1.05l-6.87-.14c-.58,0-1,.13-1,.88,1.22.85,2.65,1.47,3.7,2.94-.56-.11-.87-.19-1.18-.23-1.85-.24-3.7-.56-5.55-.69a4.23,4.23,0,0,0-3.43,1.47C89.17,115.91,93.19,117,97.6,117.67Zm4.88-.87c6.32-2.49,12.38-5.78,19.35-6.68.53-1.78,1.06-3.68.35-5.45a28.32,28.32,0,0,0-5.91-8.73,5.31,5.31,0,0,0-.34,3.91c.58,2-.26,3.41-1.74,4.6a3.49,3.49,0,0,1-.62.47,19.21,19.21,0,0,0-7.81,6.74c-.56.83-1.36,1.59-2.66.57a8.83,8.83,0,0,0-.6,1.71C102.41,114.84,102.48,115.77,102.48,116.8Zm19.16,10.39c-3.23-.66-6.23-1.4-9.28-1.86-2.84-.42-5.49.06-7.24,2.74a1.94,1.94,0,0,0,.11,2.57,5,5,0,0,0,3,1.67,14.32,14.32,0,0,0,6.31-.28A12.11,12.11,0,0,0,121.64,127.19Zm4.07-4a9.28,9.28,0,0,0,6.39-1.38c2.48-1.93,2.18-4.6-.67-5.93-2.19-1-4.5-.88-6.87-.74a10.12,10.12,0,0,1-.34,1.24c-.14.33-.32.79-.59.89-1,.37-1.13,1.1-1.09,2,0,1.22.16,2.49-1.13,3.4l2.76.36,1-2-1.12-.32,3.73-3.47-.68,4.46-.7-.25ZM84.78,61.42c.51-3,1-5.74-.26-8.46-1.89-.27-3,.8-4.26,1.91a10.52,10.52,0,0,1,2,5.81ZM120,116.5l-.16-.21a26,26,0,0,0-9.32,4.41l5.53.72ZM105.8,61.7l-.23,1.67.84-.92v1.72c.34-.21.67-.32.67-.44,0-.75.61-.82,1.11-1l2.7-.95c-.49-.63-.76-1.21-1.22-1.49-.8-.49-4.2.15-4.87.81a4.87,4.87,0,0,0-.41.57l.11.1.81-.73-.14,1.07ZM78,52.68a1.07,1.07,0,0,0-1.25,1.13,1.28,1.28,0,0,0,1.32,1.35,1.31,1.31,0,0,0,1.35-1.23C79.45,53.16,78.92,52.69,78,52.68ZM73.73,95.13l2.37-1.54,0-.24-3.48-.56L72,94.19l1.49-.3Zm28.92-42.66h.26l1.08-2h-1.9Z"/><path class="cls-1" d="M56.87,95.77a9.49,9.49,0,0,0,1.46.3A12.13,12.13,0,0,0,61.64,96a7,7,0,0,1,5.26.26,8,8,0,0,0,2.43.46c.87.13,1.75.2,2.63.29l0,.45a28.16,28.16,0,0,1-4,.54,15.45,15.45,0,0,0-5.06.44C60.3,99.23,58.14,98.24,56.87,95.77Z"/><path class="cls-1" d="M116.1,56.65l-1.24-.81h1.52c.64-2.17,2-3.35,4.14-2.85l-3.15.92,0,.32,1.15.62C116.89,54.24,116.84,55.81,116.1,56.65Z"/><path class="cls-1" d="M113.77,47.77l2-1.67C115.37,47.53,114.84,47.93,113.77,47.77Z"/><path class="cls-1" d="M117.4,53l.16-.8,2-.78Z"/><path class="cls-1" d="M106.83,75l.3.52a1.7,1.7,0,0,0,.34-2.26,5.3,5.3,0,0,1-.26-.7c1,1.09,1.06,1.81.3,3-.27.42-.59.8-.89,1.2Z"/></g><path class="cls-1" d="M47,144.83a1.8,1.8,0,0,1-1.24-.5L45,143.6A1.8,1.8,0,1,1,47.46,141l.73.7A1.8,1.8,0,0,1,47,144.83Z"/><path class="cls-1" d="M39.56,136.83a1.78,1.78,0,0,1-1.4-.67c-.42-.53-.84-1-1.25-1.59a1.8,1.8,0,0,1,2.86-2.19c.39.51.79,1,1.19,1.52a1.8,1.8,0,0,1-.27,2.53A1.78,1.78,0,0,1,39.56,136.83Zm-6.72-9.73a1.79,1.79,0,0,1-1.55-.89c-.34-.58-.67-1.16-1-1.75a1.8,1.8,0,0,1,3.15-1.75q.47.84,1,1.68a1.8,1.8,0,0,1-.65,2.46A1.76,1.76,0,0,1,32.84,127.1Zm-5.21-10.61A1.8,1.8,0,0,1,26,115.36c-.25-.62-.49-1.25-.73-1.88a1.8,1.8,0,0,1,3.38-1.26c.22.6.45,1.2.69,1.79a1.8,1.8,0,0,1-1,2.35A1.74,1.74,0,0,1,27.63,116.49Z"/><path class="cls-1" d="M24.05,105.21a1.8,1.8,0,0,1-1.75-1.38l-.24-1a1.8,1.8,0,1,1,3.51-.79c.08.33.15.66.23,1a1.8,1.8,0,0,1-1.33,2.17A2,2,0,0,1,24.05,105.21Z"/><path class="cls-1" d="M177.52,112.82a1.69,1.69,0,0,1-.58-.1,1.81,1.81,0,0,1-1.12-2.29l.33-1a1.8,1.8,0,1,1,3.42,1.13c-.11.34-.23.67-.34,1A1.81,1.81,0,0,1,177.52,112.82Z"/><path class="cls-1" d="M163.73,137.44a1.8,1.8,0,0,1-1.39-2.95q.74-.88,1.44-1.8a1.8,1.8,0,0,1,2.85,2.2c-.5.64-1,1.27-1.51,1.89A1.78,1.78,0,0,1,163.73,137.44Zm8-11.69a1.86,1.86,0,0,1-.88-.23,1.81,1.81,0,0,1-.69-2.46c.38-.67.74-1.35,1.1-2a1.8,1.8,0,1,1,3.19,1.67c-.37.71-.75,1.42-1.15,2.13A1.79,1.79,0,0,1,171.72,125.75Z"/><path class="cls-1" d="M154.81,146.68a1.8,1.8,0,0,1-1.2-3.15c.26-.22.51-.45.76-.68a1.8,1.8,0,0,1,2.42,2.67l-.79.71A1.82,1.82,0,0,1,154.81,146.68Z"/><path class="cls-1" d="M176,56.5a1.82,1.82,0,0,1-1.67-1.13c-.12-.31-.25-.62-.38-.93A1.8,1.8,0,1,1,177.26,53c.14.33.28.66.41,1A1.82,1.82,0,0,1,176,56.5Z"/><path class="cls-1" d="M178.49,63.53a1.79,1.79,0,0,1-1.72-1.28l-.36-1.16a1.8,1.8,0,1,1,3.43-1.1c.13.4.25.81.38,1.21A1.81,1.81,0,0,1,179,63.45,1.88,1.88,0,0,1,178.49,63.53Z"/><path class="cls-1" d="M180.27,70.56a1.81,1.81,0,0,1-1.77-1.44c-.07-.34-.13-.66-.21-1a1.8,1.8,0,0,1,3.52-.78c.08.35.15.7.22,1a1.8,1.8,0,0,1-1.4,2.13A2.2,2.2,0,0,1,180.27,70.56Z"/><path class="cls-1" d="M41.12,34.64a1.79,1.79,0,0,1-1.36-3l.69-.8a1.8,1.8,0,0,1,2.71,2.38c-.23.25-.45.51-.67.77A1.8,1.8,0,0,1,41.12,34.64Z"/><path class="cls-1" d="M48.53,27.07a1.8,1.8,0,0,1-1.2-3.14l1.47-1.29a1.81,1.81,0,0,1,2.54.2,1.79,1.79,0,0,1-.2,2.54l-1.41,1.23A1.77,1.77,0,0,1,48.53,27.07Zm9.07-7a1.8,1.8,0,0,1-1-3.3c.54-.36,1.09-.71,1.64-1.06a1.8,1.8,0,0,1,1.92,3l-1.57,1A1.79,1.79,0,0,1,57.6,20.05Zm10-5.65A1.8,1.8,0,0,1,66.79,11c.59-.28,1.18-.56,1.78-.82A1.8,1.8,0,1,1,70,13.44c-.57.25-1.14.51-1.7.78A1.77,1.77,0,0,1,67.57,14.4Zm10.68-4.17a1.8,1.8,0,0,1-.54-3.52l1.88-.56a1.8,1.8,0,0,1,1,3.47l-1.79.53A1.67,1.67,0,0,1,78.25,10.23ZM89.41,7.65a1.81,1.81,0,0,1-.27-3.59l1.93-.28a1.81,1.81,0,0,1,.47,3.58l-1.84.26A1.43,1.43,0,0,1,89.41,7.65Z"/><path class="cls-1" d="M100.85,6.69a1.81,1.81,0,0,1,0-3.61h1.06a1.8,1.8,0,0,1,0,3.6h-1Z"/><path class="cls-1" d="M120.18,164.09a1.86,1.86,0,0,1,.65,1.07,1.8,1.8,0,0,1-1.4,2.12l-1.05.2a1.79,1.79,0,0,1-2.1-1.43,1.81,1.81,0,0,1,1.44-2.11l1-.19A1.8,1.8,0,0,1,120.18,164.09Z"/><path class="cls-1" d="M109.68,165.51a1.8,1.8,0,0,1-1,3.22l-2,.11a1.8,1.8,0,0,1-.16-3.6c.63,0,1.25-.06,1.87-.11A1.83,1.83,0,0,1,109.68,165.51Zm-11.47,0A1.8,1.8,0,0,1,97,168.69c-.65-.05-1.3-.1-2-.17a1.8,1.8,0,1,1,.36-3.58l1.86.16A1.8,1.8,0,0,1,98.21,165.47ZM86.87,163.8a1.8,1.8,0,0,1-1.5,3.18l-1.9-.44a1.8,1.8,0,1,1,.87-3.5l1.82.43A1.72,1.72,0,0,1,86.87,163.8Zm-11-3.28a1.8,1.8,0,0,1-1.75,3.11c-.61-.23-1.21-.47-1.82-.72a1.8,1.8,0,0,1,1.36-3.34q.87.36,1.74.69A1.66,1.66,0,0,1,75.89,160.52Zm-10.4-4.83a1.8,1.8,0,0,1-2,3c-.57-.32-1.14-.64-1.7-1a1.8,1.8,0,1,1,1.83-3.11c.53.32,1.08.63,1.62.93A1.82,1.82,0,0,1,65.49,155.69Z"/><path class="cls-1" d="M55.88,149.42a1.8,1.8,0,0,1-2.2,2.85l-.84-.64a1.81,1.81,0,0,1,2.22-2.85l.8.62Z"/><path class="cls-1" d="M180.89,75.66v3c1.84.17,3.57.29,5.29.51a9,9,0,0,1,2.32.63,5,5,0,0,1,3.32,4.66,5.21,5.21,0,0,1-2.53,4.88l-.51.32a5.76,5.76,0,0,1,4.42,4.52,7.41,7.41,0,0,1-6,8.81,19.68,19.68,0,0,1-3.61.23c-2.32,0-4.64,0-7,0l.36-6.09-7,.53V79.59l6.87-.76v-2.9l.77-.27Zm2.66,13a24.08,24.08,0,0,0,2.83-.67,2.61,2.61,0,0,0,1.71-2.36A2.43,2.43,0,0,0,187,83.22c-1.87-1.14-3.95-1-6-1V93.71l3.77.25v3.48L181,97.19v3a44.84,44.84,0,0,0,5.42-.45,3.94,3.94,0,0,0,3-4.13,4.08,4.08,0,0,0-3.28-3.9c-.81-.16-1.65-.21-2.51-.32Zm-9.82,5.59,3.27-.34V82.27l-3.27.27Z"/></svg>