<svg id="Layer_1" data-name="Layer 1" xmlns="http://www.w3.org/2000/svg" width="370.36" height="355.33" viewBox="0 0 370.36 355.33"><defs><style>.cls-1{fill:#fff;}</style></defs><title>ZemaitijaPlace</title><path class="cls-1" d="M228.9,355.33l-1.37-1.59a3.23,3.23,0,0,0-.89-.74l-3.56-2.08a3.5,3.5,0,0,0-1.76-.48h-1.18l-.46-1a25,25,0,0,0-12-12c-5.71-2.62-11.8-3.44-17.7-4.24l-.17,0c-3.33-.46-6.47-.89-9.54-1.62-7.75-1.86-15.1-5.76-22.2-9.52-26.71-14.16-56.94-30.2-74.93-56.8-7.76-11.48-13-24.69-18.13-37.46-1.46-3.63-2.6-6.84-1.88-9.59a16.44,16.44,0,0,1,2-4,27.79,27.79,0,0,0,2.25-4.25c4-10-3.08-20.69-11.89-24.88-6.84-3.27-14.37-3.51-20.17-3.35l-2,.06,4.88-36A3.47,3.47,0,0,0,34,141.82c-3.74.73-7.59-1.84-11.67-4.55-1.05-.71-2-1.37-3-2-3.66-2.27-9.86-4.35-15.26-2.75a12,12,0,0,0-1.32.48L0,134.22l.69-5.62,1.14-3.27a2.69,2.69,0,0,0,.16-.62l.37-2.47a3.15,3.15,0,0,0,.05-.52v-23c0-.1,0-.2,0-.3l-.55-6.78,10.82-.2a3.23,3.23,0,0,0,1-.13l6.05-1.7a3.45,3.45,0,0,0,2.23-1.94l2.27-5.09a3.87,3.87,0,0,0,.26-.88l1.13-7.22L28,66.61,31.4,61.3l4.94-5.43,5.25-4.34L45,49.7l6-.33a3.5,3.5,0,0,0,.91-.18l2.27-.76a3.6,3.6,0,0,0,1-.55L76,31.81l4.55-2.28L93,29a3.43,3.43,0,0,0,1.33-.33L155,0l5.15.28,2,1.1,5.34,3.92a3.5,3.5,0,0,0,.83.45l3,1.14a2.93,2.93,0,0,0,1.28.22l44.12-1.49,8.74,2.07L229,9.46,235.19,16a3.5,3.5,0,0,0,1.17.82L239,18a3.63,3.63,0,0,0,1.93.23l2.25-.37a3.55,3.55,0,0,0,.77-.22l21.31-8.86a3.58,3.58,0,0,0,.66-.37l9.37-6.54,3.28-.59,2.85,1.66,3.05,6.55,5.27,13.39a3.49,3.49,0,0,0,1.1,1.47l6.81,5.27a3.37,3.37,0,0,0,2,.73l1.67.05,0,1.67c0,1.16,0,2.33,0,3.48.05,13.32.1,27.09,16.17,35.68A54.31,54.31,0,0,0,325,74.26c4.13,1.46,7.68,2.72,10,5.39a20.27,20.27,0,0,1,3.49,7A90.41,90.41,0,0,1,326,167.15l-1.16,1.57c-2.21,3-4.7,6.32-6,10.28a28.94,28.94,0,0,0-1.05,12c1.47,16.6,10.21,31.38,17.93,44.42,2.65,4.47,6.65,11.22,13.49,13.65a28.79,28.79,0,0,0,7,1.29c2.65.26,4.93.49,6.61,1.59,2.22,1.47,3.38,4.61,4.23,7.48a84.38,84.38,0,0,1-5.25,60.76c-1.07,2.16-2.25,4.3-3.39,6.37l-.17.31c-2.82,5.11-5.71,10.36-7.42,16.18-.17.58-.33,1.17-.49,1.77-.69,2.52-1.34,4.9-2.76,6.32-2,1.95-5.59,2.15-9.45,2.2-10.48-.06-21.25-.63-31.66-1.18h-.12c-25.33-1.34-51.52-2.73-76.36,2.91Zm-6.5-8.28a7.06,7.06,0,0,1,2.43.86L228.4,350a7.09,7.09,0,0,1,1.78,1.48h0c25-5.48,51.06-4.1,76.28-2.77h.12c10.37.55,21.1,1.11,31.47,1.17,2,0,5.88-.07,7-1.19.76-.75,1.34-2.88,1.85-4.76.17-.61.33-1.23.51-1.84,1.82-6.19,4.81-11.61,7.7-16.85l.18-.34c1.12-2,2.28-4.14,3.32-6.24a80.84,80.84,0,0,0,5-58.22c-.34-1.14-1.36-4.6-2.82-5.57-.95-.63-2.93-.82-5-1a31.78,31.78,0,0,1-7.82-1.47c-8-2.86-12.41-10.26-15.31-15.16-7.91-13.36-16.86-28.49-18.41-45.89a32.09,32.09,0,0,1,1.23-13.44c1.51-4.48,4.18-8.07,6.53-11.23l1.15-1.56a86.84,86.84,0,0,0,12.05-77.35,17,17,0,0,0-2.8-5.79c-1.76-2-4.92-3.12-8.58-4.42a56,56,0,0,1-7.93-3.29c-17.9-9.56-18-25.73-18-38.73,0-.66,0-1.32,0-2a6.86,6.86,0,0,1-2.38-1.2l-6.81-5.27a7,7,0,0,1-2.21-2.95l-5.25-13.33-2.52-5.42-.81-.47-1.27.23-8.74,6.11a7.76,7.76,0,0,1-1.32.72l-21.3,8.86a7.61,7.61,0,0,1-1.55.44l-2.26.37a7,7,0,0,1-3.82-.45L235,20a6.85,6.85,0,0,1-2.36-1.63l-5.78-6.13L224.35,11l-7.87-1.86-43.59,1.47a6.44,6.44,0,0,1-2.69-.44l-3-1.14a6.57,6.57,0,0,1-1.67-.9l-5.23-3.84-1-.55-3.51-.19L95.83,31.81a7,7,0,0,1-2.67.66L81.45,33l-3.73,1.87L57.32,50.63a6.94,6.94,0,0,1-2,1.09L53,52.48a6.9,6.9,0,0,1-1.84.36L46,53.13l-2.56,1.38-4.73,4-4.59,5.07-2.94,4.56-2.21,7.27-1.06,6.86A6.89,6.89,0,0,1,27.34,84l-2.26,5.1A7,7,0,0,1,20.61,93l-6,1.7a7,7,0,0,1-1.89.26L5.61,95l.25,3.11c0,.19,0,.37,0,.56v23a7.31,7.31,0,0,1-.08,1l-.38,2.46a6.63,6.63,0,0,1-.31,1.26l-.85,2.42c6.19-1.34,12.89.94,16.91,3.43,1,.63,2,1.31,3.08,2,3.51,2.34,6.79,4.51,9.13,4.07a7,7,0,0,1,8.22,7.76l-4.33,31.94c5.85-.07,13,.52,19.72,3.72,10.22,4.87,18.34,17.45,13.62,29.3a29.6,29.6,0,0,1-2.51,4.76A15.08,15.08,0,0,0,66.49,219c-.45,1.71.56,4.48,1.73,7.4,5,12.61,10.24,25.64,17.79,36.82,17.5,25.88,47.33,41.7,73.65,55.65,6.94,3.68,14.09,7.47,21.41,9.23,2.9.69,6,1.11,9.2,1.55l.16,0c6.15.83,12.51,1.7,18.69,4.53A28.57,28.57,0,0,1,222.4,347.05Z"/><path class="cls-1" d="M288.7,164.52c-.59-.26-1.34-1-1.38-1.5a2.27,2.27,0,0,1,1.59-2.39c3.86-1.73,5.24-2.91,4.64-7.7-.06-.44-.1-.89-.17-1.33a2.81,2.81,0,0,0-.22-1c-.69-1.16-4.45-1.82-5.6-1-1.9,1.35-3.38,1-4.89-.75-1.05-1.23-2.38-2.22-3.56-3.35-.53-.5-1-1.09-1.49-1.61-2.43-2.43-3.36-4.74-1.68-8.4,1.55-3.36,1.83-7.36,2.32-11.12.16-1.24-.68-2.65-1.21-3.92-.71-1.69-1.65-3.28-2.33-5-.56-1.4-1.29-2.46-2.9-2.71a3.09,3.09,0,0,1-1.32-.65c-2.25-1.7-3.27-1.78-5.67-.37-.46.28-.94.53-1.52.86-.93-2.93-2.12-5.46-1.94-8.64.22-3.87-.73-7.33-3.9-8.62-3.44-1.41-8.93-.55-11.2,2-1.54,1.74-1.09,3.91-1,6,0,.5.36,1.1.19,1.48-1.6,3.36,1.57,5.44,2.19,8.19.08.36,1.26.41,1.86.73s1.09.67,1.23,1.13c.26.87-.39,1.15-1.2,1.12-.5,0-1,0-1.51,0a7,7,0,0,0-5,1.63,43.81,43.81,0,0,1-4.41,3,2.85,2.85,0,0,0-1.17,1.19c-1.14,3.34-3.6,6.43-1.87,10.36.4.91.06,2.15.06,3.24l-.87.25c-.7-1.22-1.42-2.43-2.09-3.68-.92-1.73-1.82-3-4.25-3.12s-4.54,0-6.44,1.61a2.34,2.34,0,0,1-1.43.27q-32.16,0-64.33,0c-.53,0-1.44-.22-1.55-.56-.83-2.44-3-2.59-5-3.09a1.87,1.87,0,0,1-.34,0c-.6-.24-1.43-.87-1.77-.68a48.25,48.25,0,0,0-4.83,3.34c-.24.17-.27.71-.29,1.09-.14,2.87-.13,2.87-2.14,5.6a9.73,9.73,0,0,1-.43-1.63c-.17-3.34.07-6.75-.56-10-.45-2.33-1.54-4.57-1.85-7,0-.32-.7-.73-1.13-.82a16.87,16.87,0,0,0-3.17-.32c-1.57,0-3.13.21-4.36-1.18-.28-.33-1-.33-1.57-.31a9.18,9.18,0,0,1-2.77,0,7.1,7.1,0,0,1,1-.45c2-.61,2.54-2.11,1-3.47-1.2-1-.27-2,.07-2.7a4.34,4.34,0,0,0,.13-3.35c-.54-2.06-.33-2.42,1.74-2.88.64-.15,1.3-.25,2.15-.41-1.49-3.41-2.91-6.66-4.52-10.37-1.39,3.26-3.65,2.25-5.78,1.79-.7-.16-2,.48-1.87-1,.08-1.14.94-1.41,2.07-1.72a17.38,17.38,0,0,0,5.34-2.54c1.27-.9.76-2.92-.7-4.27a20.75,20.75,0,0,0-2.4-2.3,9.89,9.89,0,0,0-3.17-1.24,3.44,3.44,0,0,0-2.13.36,22.12,22.12,0,0,1-8.64,3c-3.37.29-5.19,4.85-4,8.76.69,2.24,1.6,4.36,1.39,6.79a4.41,4.41,0,0,0,.64,2.24c1.5,3,3.1,5.92,4.59,8.9.2.4.23,1.24,0,1.44-.85.69-2.2,1.9-2.77,1.64-3.32-1.53-6-.23-8.73,1.35-1.23.71-2.8.8-4.12,1.39a8.57,8.57,0,0,0-2.09,1.74c-.28.26-.37.78-.67,1-1.8,1-1.72,2.51-1.56,4.22a11.14,11.14,0,0,1-.24,3.91,9.84,9.84,0,0,0,.9,8,20.89,20.89,0,0,1,2.05,4.23,6.07,6.07,0,0,1-.1,3.16,41.14,41.14,0,0,1-1.74,5.27c-.43,1.06-.94,2.15-2.48,2.12a2,2,0,0,0-1.37,1c-.53,1-.76,2.25-1.32,3.28a2.37,2.37,0,0,1-1.55,1c-.32,0-1.07-.8-1.05-1.23a15.59,15.59,0,0,1,.61-4c.32-1,.3-1.7-.62-2.29-.37-.25-.69-.57-1-.86-2.45-2.05-5.47-1.09-6.32,2a6.13,6.13,0,0,1-.26,1c-.83,1.73-.3,2.7,1.5,3.39a2.88,2.88,0,0,1,.93,4.51c-.29.38-.66.95-.58,1.34.42,2,.92,4,1.53,5.95.12.38.89.56,1.36.83l-7.63,4.08v.67l2.57,2.4,4.57-2.25c5.11,17.41,10.17,34.58,15.22,51.76l-.5.32c-.76-.83-1.56-1.62-2.26-2.49s-1.27-1.08-2.05-.21A66.55,66.55,0,0,0,86,226.32c-1.47,2.15-1,3,1.25,4.28s4.75,2.34,7,3.77a12,12,0,0,1,4.12,3.79,9.2,9.2,0,0,0,8.45,5.14c2.08,0,4.17.06,6.24-.1a46.94,46.94,0,0,1,20.08,2.53c2.58,1,2.52,1.16,2.3,3.85a3.52,3.52,0,0,0,1.3,2.68,34.6,34.6,0,0,0,6.22,3.63c6.72,2.89,13.86,4.19,21.07,5,4.91.58,9.85.88,14.78,1.3h17.56c4.47-.42,9-.71,13.42-1.3,9.34-1.24,18.51-3.19,27-7.39a11,11,0,0,0,3-2.15,2.77,2.77,0,0,0,.77-2.24c-.58-1.67.35-2.47,1.53-2.85a50.34,50.34,0,0,1,9.22-2.49c5.46-.64,11-.83,16.49-1.06,4.82-.21,8.75-1.68,11.64-5.92,1.26-1.84,3.6-3,5.53-4.32a35,35,0,0,1,4.23-2.46,1.56,1.56,0,0,0,.92-2.28,15,15,0,0,0-5.55-6.84,1.75,1.75,0,0,0-1.58.18c-1.86,1.36-3.62,2.86-5.49,4.22a8.19,8.19,0,0,1-2.1.77l-.21-.49a6.53,6.53,0,0,1,.7-.58,34.24,34.24,0,0,0,11.75-11.87c.48-.83,1.74-1.29,2.73-1.72a1.89,1.89,0,0,0,1.4-1.82c.13-2.47.46-4.93.53-7.4a15.32,15.32,0,0,0-.71-3.32l-4.22,2.56-4,2.49c-2.33,1.45-2.65,2.65-1.5,5.25a1.29,1.29,0,0,1-.12,1.16c-1.73,1.65-3.51,3.24-5.27,4.84l-.55-.35c.32-1.77.56-3.56,1-5.32,2.58-11.4,5.21-22.79,7.78-34.19.32-1.43.86-1.78,2.3-1.3,4.11,1.35,8.27,2.56,12.41,3.81a4,4,0,0,0,5.14-3.2c.13-.76.39-1.5.59-2.25v-.67C299.6,169.33,294.13,167,288.7,164.52Zm3.79,3.13,4.74,1.74c-.07.22-.13.44-.2.66-1.84.09-3.13-1.32-4.77-1.76C292.33,168.08,292.41,167.86,292.49,167.65Zm-3.72-8.05a10.74,10.74,0,0,1-2.79.5c-.22,0-.69-.35-.67-.5,0-.34.25-.88.5-.94,1.6-.43,3.23-.75,4.92-1.12C290.84,158.92,289.68,159.24,288.77,159.6Zm-3.47-4.11c-.75-1.14-.24-1.78.63-2.05s1.76-.78,2.22.55c.12.37.46.7.47,1.06a2.77,2.77,0,0,1-.36,1.34,1.19,1.19,0,0,1-.95-.2,2.81,2.81,0,0,1-.09-1.24,4.79,4.79,0,0,1,.16-.79Zm1.65,2.12c-1.9,0-2.56.95-2.33,2.5a1.41,1.41,0,0,0,.58.89,2.65,2.65,0,0,1,.5,3.38,1.52,1.52,0,0,1-2.44.45c-.54-.37-1.18-1.26-1.08-1.78a28,28,0,0,1,1.66-5.6C284.5,155.9,285.56,156,287,157.61Zm5.43-5.85-3,2.35-.39-.45,3-2.28Zm-2.86-2c.56.2,1,.85,1.43,1.31l-.32.5-2.49-.62-.06-.51C288.57,150.22,289.16,149.67,289.52,149.79ZM284.25,152a4.3,4.3,0,0,1,4.62.14c-1.2.15-2.78-.08-3.73.59s-1.29,2.23-2,3.63C282.46,154.49,282.93,152.93,284.25,152Zm-.76-1c-.7,1.38-1.22,2.39-2,3.92-.65-.74-1.59-1.35-1.54-1.85a4.86,4.86,0,0,1,1.28-2.73C281.47,150.15,282.67,150.81,283.49,151.07Zm-18.31,53.39c-1.63-2.49-3.14-5.07-4.79-7.55a3.47,3.47,0,0,0-1.79-1.29c-1.14-.32-1.79.14-2,1.5-.49,3.22-1.14,6.41-1.82,9.59a2.42,2.42,0,0,0,1,2.73,8.65,8.65,0,0,1,2.26,2.77c1.51,3,2.85,6.07,4.27,9.17-1.59,1-1.61-.74-2.33-1.43l-4.47,2.11c-.84-6.93-1.67-13.66-2.49-20.39l-.64.07q1.17,10.14,2.35,20.25a37.27,37.27,0,0,1-6.63-.9,3.56,3.56,0,0,1-1.76-2.88,44.76,44.76,0,0,0-2-15.13c-.49-1.73-.28-3.65-.39-5.49l.47-.05q1,6.19,2.06,12.39l.49-.05c-.14-1.26-.22-2.53-.43-3.78-1-5.92-2.3-11.81-3-17.77-.79-6.59-3.67-12.58-4.89-19-.92-4.88-2-9.79-.71-14.68a102.3,102.3,0,0,1,4.21-11.8c.56-1.39.94-1.3,2.4-.4-.23.58-.46,1.18-.7,1.8.22,0,.38.07.4,0,1-1.68,2.17-1.6,3.66-.46,1.78,1.35,3.91,1.21,6,.92.39-.06.77-.17,1.16-.21,2.86-.29,3.12-.15,4,1.91a6.89,6.89,0,0,1,2.14-.81c1.12,0,1.61.79,1.7,1.9.31,3.62.67,7.24,1,10.86l-.49-.14c-.23.31-.7.64-.67.91,1,7.81-1.12,15.28-2.43,22.84a5.1,5.1,0,0,0-.08.67s.07.08.33.39c.47-1.4.88-2.62,1.28-3.85l.24,0c-.12,2.08-.27,4.17-.33,6.26a5,5,0,0,0,.32,2.12,75.37,75.37,0,0,1,5.61,22.64c.13,1.26,0,2.54,0,3.95-1.58-2-3.42-3.7-2.1-6.53A3.11,3.11,0,0,0,265.18,204.46Zm-2.84,20.07h-3.86C260,223.11,260.94,223.09,262.34,224.53Zm-6.29-.44c0-1.25.1-1.43,2-2.22a11.1,11.1,0,0,1,2.18-.46c0,.23,0,.47.07.71Zm-23.38-53.83c.57-3,1.94-5.8,2.94-8.7l.8.21a22.48,22.48,0,0,1-1,4,22.1,22.1,0,0,0-1.83,10.34c.89-3.53.76-7.34,3.34-10.59l2.43,16h.19v-3.43c2.45,3.83,4.08,14.2,3.45,22-.83-2.64-1.48-4.88-2.24-7.08a46.1,46.1,0,0,0-2.7-6.27c3.7,10.1,6.57,20.37,7.25,31.17l-1.13-.15,9.22,14.76c-4.37-.91-8.47-1.21-11.79-4.06-1.49-1.29-2.63-2.6-2.58-4.64a3.42,3.42,0,0,0-2.2-3.47c-3.35-1.38-3.7-4-3.12-7.07s1-6.09,1.53-9.14c.1-.59.32-1.16.62-2.21.94,1.66,1.65,2.9,2.35,4.15l.49-.14C232.65,194.68,230.3,182.81,232.67,170.26Zm16,52.2.24-.54c1.81.4,3.62.76,5.41,1.22.25.07.42.57.57.89,0,0-.42.41-.61.38-1.65-.27-3.3-.56-4.92-1C249,223.38,248.85,222.8,248.62,222.46Zm-9.11-78.34,4.92-9.12.55.3q-2.46,4.56-4.91,9.13Zm30.79,49.34a38.3,38.3,0,0,1-1.18,15.47c.23-2.38.59-4.75.64-7.13.07-3.07-.25-6.16-.16-9.24.16-5.91-2.82-10.56-5.7-15.33-.72-1.2-.37-3-.51-4.57l.88-.2a32,32,0,0,1,2.42,4.35c1.31,3.47,2.51,7,3.51,10.54.35,1.27,0,2.74,0,4.12A16.58,16.58,0,0,0,270.3,193.46Zm-6.47-5.37c-.73-3-.52-6.16-.74-9.24l.79-.21,3.59,6.68-.33.13-1.39-2-.41.2c1.81,3.24,3.43,6.55,3.45,10.34,0,3.62,0,7.25,0,10.59C267.15,199.21,265.22,193.71,263.83,188.09Zm5.81,23.43c.75-3,1.84-5.93,2.12-9,.57-6.44.66-13-1.17-19.22-1.12-3.83-3.15-7.43-5-11a8.11,8.11,0,0,1-1.26-5.54c.19-1,.24-2.1.37-3.31.54.23,1,.35,1.34.56,4.07,2.27,8.13,4.57,12.21,6.84a1.53,1.53,0,0,1,1,1.83c-2.21,14.06-5.9,27.79-9.45,41.54a6.9,6.9,0,0,1-.36.89l-.73-.21C269,213.81,269.35,212.68,269.64,211.52Zm-4.55-73.46c.57,3.32,1.12,6.55,1.67,9.76.14,0,.94,0,1.09.26a2,2,0,0,1-.1,1.63c-.71,1.24-1.57,2.38-2.49,3.74C264.33,149.32,264.25,140,265.09,138.06Zm2.11,25.08c-2.24-.16-2.87-1-2.28-3C267.19,160.56,267.66,161.18,267.2,163.14Zm-1.31-3.56.22-.71,2.5.75-.24.81Zm5.91,5.09a1.3,1.3,0,0,1-1.15.56c-1.5-.41-1.81-1.28-1.17-3.07C271.62,162.61,272.25,163.25,271.8,164.67Zm-2.19-3.14c1.71-1.14,2.8-.92,3.7.81Zm4.25,2.61c2.53,0,2.81,1.3,2.11,3.8C273.87,168,273,166.26,273.86,164.14Zm3.83-.06-3.5-.61c1.65-1.75,2.58-.41,3.63-.23C277.78,163.52,277.74,163.8,277.69,164.08Zm-1.94-3.91c-1.47-.56-2.88-1.25-4.3-1.93a8,8,0,0,0-6.77-.47c.92-3.53,3.58-5.45,4.75-8.37,2.63,1.44,5.13,2.7,6.84,5,1.85,2.54,1.85,2.54,4.79,1.27,1.83,2.1.86,4.12.14,6.34C279.31,161.41,277.51,160.85,275.75,160.17Zm0-16.56c1.47,1.48,2.95,2.95,4.33,4.5a1.84,1.84,0,0,1,.31,1.54c-.47,1.36-1.12,2.65-1.6,3.76,0,.09-.05-.16-.21-.69l-.66,1.21c-.11,0-.25,0-.32,0-1.86-1.35-3.73-2.69-5.56-4.1a27,27,0,0,1-2.93-2.52c-1.46-1.51-2.29-3.24-1.31-5a10.79,10.79,0,0,1-1.26-2.59c-.59-3.94-1.11-7.89-1.51-11.85-.09-.92.43-1.91.45-3.24-.53.44-1.34.78-1.53,1.34-1.61,4.58-3.52,5.76-8.33,4.93a.93.93,0,0,0-.32.05c1.57,2,4.05,1.73,8.63-1.12,0,2.71,1.25,5-.06,7.6-.74,1.48-.39,3.52-.48,5.3s-.61,2.1-2.24,1.74c-.49-.11-1-.32-1.45-.45s-.86-.16-1.46-.27l.94-.89-.16-.4c-.82.22-1.63.46-2.46.63a24.46,24.46,0,0,1-5.1.89c-3.45-.05-5-2.31-4.23-5.66.06-.25.08-.52.13-.78l-.54-.1c-.27,1.42-.55,2.84-.9,4.63-.87-.66-2.52-1.61-2.42-1.85a25.4,25.4,0,0,1,2.53-4.06c.14-.57.08-1.76.65-2.33s1.77-.58,2.69-.84l-.09-.52c-.57,0-1.13.11-1.7.14a2.59,2.59,0,0,1-2.91-1.78,1.73,1.73,0,0,1,1.07-2.42,34.12,34.12,0,0,0,7-3.91c3.87-3.15,8.17-3.46,12.75-2.85,1.55.2,3.07.66,4.61,1,1,.22,1.29.8,1.38,1.81.41,4.8,1,9.6,1.34,14.41.05.73-.82,1.53-1.3,2.37C273.7,140.44,274.53,142.38,275.76,143.61Zm-19.68-32.33c1.09,1.28,2.17,2.57,3.3,3.91-2.23,1.62-4.68,1.19-7,.55a2.82,2.82,0,0,1-.55-2.51,11.44,11.44,0,0,1,3.24-2.3C255.25,110.81,255.73,111.15,256.08,111.28Zm3.36,6.79c-.35,1.24-1.1,1.5-2.13.79-.29-.2-.83,0-1.25-.06h0c0,1.15.48,1.63,1.22,1.74-.74-.11-1.24-.59-1.22-1.74h0c1-2,2.22-2.43,4.06-1.48C259.89,117.57,259.53,117.78,259.44,118.07Zm10.45-4.78-3.51.65.06.44c1-.1,2.05-.22,3.08-.28,3.49-.22,3.69-.06,4.76,3.64l-1.45-.9-.3.28c1.33,1.76,2.61,3.56,4,5.26a2.61,2.61,0,0,1,.42,3.34c-.33-.66-.64-1.26-.94-1.85l-.45.46c1.15,4.25.79,7.42-1.5,12.54-.35-3.05-.66-5.87-1-8.69-.06-.5-.11-1-.18-1.5-.23-1.49-.72-3.1,1.83-3.27-4.12-2.4-8.63-2.59-13-3.23,0-2.34.12-2.44,4.22-2.75-.58-1-.89-1.14-2.38-.49-1.23.53-2,.41-2.49-.93C264.06,112.78,268,110.5,269.89,113.29Zm-9.19,1.37c-.61.07-1.32-.64-2-1l.2-.47,2,.42.11-.26-4.92-2.07c-.11-.79-.22-1.58-.34-2.37h0c.74.43,1.47.89,2.23,1.29.93.51,1.94.89,2.82,1.47a11.33,11.33,0,0,1,1.62,1.56C261.84,113.72,261.32,114.58,260.7,114.66ZM247.39,98.14c2.59-3.12,9.43-3.19,11.9-.07a5.51,5.51,0,0,1,.57,1.8,12.48,12.48,0,0,1-1.7.26c-1.62,0-3.25.06-4.87,0-1.47-.1-2.94-.39-4.41-.6-.11.3-.17.82-.33.86a19,19,0,0,1-2.26.24l-.42-.37Zm12,3.28h-12.9l0-.28h12.9Zm-11.89,8.84,1.43-.81c-.77-.67-2.32.41-2.26-1.27-1.6-.11-.75-1.11-.65-1.83a11.18,11.18,0,0,0,.34-2c-.1-2.34,0-2.48,2.58-2.3-1.94,1.55-1.94,1.55-.55,3.48l1.53-1.12-1.83-.71c1.21-.49,2-2,3.65-1.21a6.26,6.26,0,0,1,1.84-.75,21.83,21.83,0,0,1,4.2.13c.91.12,2.24.38,2.53,1,.4.81,0,2-.15,3.35.1.49.27,1.37.45,2.25l-.5.11,1.61,2-.22.21-5.78-1.92-1.71-1.3c.9,2.09.41,3.34-1.68,4.25a11.27,11.27,0,0,1-1.28.42C248.18,113.07,248.44,113.54,247.5,110.26Zm-9.44,14.87c1.21-.71,2.46-1.36,3.67-2.08A11.81,11.81,0,0,0,243,122l-.25-.37-4.49,2.46a4,4,0,0,1,3-4.25c1.53-.34,3.1-.5,4.65-.75a3.34,3.34,0,0,0,1.76-.65h-3.66c1.12-1.52,7.33-2.13,10.62-.9a6.77,6.77,0,0,0-.1,1.58c.17,1-.32,1.3-1.22,1.59a43.07,43.07,0,0,0-4.13,1.81l.2.44,5.75-2.08c.09.17.18.34.26.52-.12.21-.18.52-.37.63-4.42,2.57-8.84,5.15-13.84,6.48a1,1,0,0,1-.17,0c-2.36-.07-3.8.89-3.64,3.66C235.41,130,235.85,126.44,238.06,125.13Zm-.56,14.14.55-.55c-.45-.43-.91-.84-1.34-1.29a3.11,3.11,0,0,1-.41-.65l.6-.31a11.65,11.65,0,0,1,.19-2c.17-.64.66-1.2.82-1.84.61-2.54,2.7-2.87,4.75-3.27a1.1,1.1,0,0,1,.65.06c.69.35,1.4,3.69,1,4.41-2,3.58-3.91,7.18-5.87,10.77a9.74,9.74,0,0,1-.95,1.58c-1.51,1.87-3.27,1.72-4.39-.4-.57-1.09-1-2.24-1.57-3.45.47-.52.85-.95,1.24-1.37l-.16-.2-1.46.59,3.18-5Zm-6.28-7.92c.53,1.59,1.2,3.13,1.63,4.75s-.55,2.47-1.56,3.33l-.62,0v-8.53l-2.32-.17C229.8,129.52,230.7,129.76,231.22,131.35Zm-20.83,18.21a2.75,2.75,0,0,1,2.33,2.72,2.87,2.87,0,0,1-2.17,3.05,2.55,2.55,0,0,1-3.35-1.77,7.82,7.82,0,0,1,1.14.52c1,.67,2.22.79,2.79-.29a3.43,3.43,0,0,0-.07-2.87c-.62-1-1.82-.84-2.8-.12-.3.21-.61.4-.91.6C207.73,149.58,209,149.32,210.39,149.56ZM178.05,139a11.62,11.62,0,0,0,5.6-1.34c1.52-.8,3.62-.44,5.45-.73,1.06-.17,2.07-.71,3.14-.88a11.83,11.83,0,0,1,2.85,0,14.59,14.59,0,0,0,2.47.4c1.51-.14,3,.43,2.89,1.8-.31,3.55,2,5.93,3.32,8.77a6.42,6.42,0,0,1,.45,1.09c.45,1.85-.05,2.52-1.94,2.53-4.84,0-9.68.11-14.51-.06-1.55-.05-3.07-.87-4.62-1.27-1-.26-2.11-.39-3.16-.58v-.63l6.12-1.5,0-.43-2.94-.79,0-.43,1.44-.53c-.2-.24-.32-.55-.51-.59a58.41,58.41,0,0,0-6.07-1.26c-1.41-.17-2.1-.82-2.14-2.09C175.84,139.08,177.05,139,178.05,139Zm2,6.85c-.06.29-.13.57-.19.85-2.35,0-4.81.46-6.72-1.7C175.31,146,177.89,144.82,180.05,145.87ZM157.78,170.3c.21-.69.36-1.21.51-1.73,3-3,6.68-2,10.42-1.15a3.62,3.62,0,0,0,3.91-1.17c-4.29-2-7.33-5.28-10.18-8.76-1.6-2-1.57-2.6.14-4.46a9.37,9.37,0,0,1,.87-.8c2-1.7,2.24-1.74,4.22,0,1.52,1.34,2.9,2.83,4.4,4.18a3.65,3.65,0,0,0,1.84,1c2.18.22,4.38.29,6.57.31a2.41,2.41,0,0,0,1.48-.66,10.74,10.74,0,0,1,8-2.84c4,.17,8,0,12,0,2.11,0,2.62,0,2.86-1.19-.22.44-.63.66-1.41.64-2.53-.06-5.06,0-7.59,0s-5.06,0-7.59,0c-1.17,0-1.63-.45-1.68-1.56s.51-1.42,1.55-1.42q7.68,0,15.35,0c.82,0,1.42.1,1.55.87v-.08l2.28.36c-2.09.16-2.84,1.63-2,4.11a14,14,0,0,1,.27,9.58,13.09,13.09,0,0,1-1.65,3.25c-2.06,2.88-1.64,6.09-1.36,9.27.37,4,1.71,7.73,3,11.52,1,2.87,2.08,5.83,2,9.08-.09,2.54-2.07,3.4-3.43,4.72-1,.93-1.7,1.75-1.38,3a54.91,54.91,0,0,0,1.91,5.68c.76,2,1.78,3.88,2.37,5.91a3,3,0,0,1-.78,2.64,30.17,30.17,0,0,1-5,3c-2.24,1.14-4.55,2.14-6.85,3.21-.15-.18-.42-.55-.73-.88a23.39,23.39,0,0,1-2.26-2.42c-1.43-2.05-1.4-2.12.65-3.51.93-.62,2-1.11,2.95-1.64s1.06-1,.35-2c-1.76-2.37-3.46-4.8-5-7.31-.66-1.06-1.19-1-2-.31a7.35,7.35,0,0,0-2.24,5.45,35.9,35.9,0,0,1-.49,5.18c-.32,1.68-1.49,2.45-3.28,2.56a20.87,20.87,0,0,1-9.87-1.74,3.73,3.73,0,0,1-1.12-1.09c-.33-.39-.6-.83-.85-1.17.13-.17.56-.52.51-.78a3.18,3.18,0,0,0-.54-1.05,4.25,4.25,0,0,0,1-1.56c.27-1.62,1.1-1.9,2.48-1.41.59.2,1.19.35,1.78.53,2,.6,2.4.22,2-1.77q-.57-2.72-1.06-5.46c-.86-4.63.64-9.52,5.91-11.55a1.84,1.84,0,0,0,.74-1.64,65.94,65.94,0,0,1-3.91-16c-.11-1.17-2.2-2.56-3.44-2.37a3.9,3.9,0,0,0-1.59.5c-2.55,1.7-5,1.27-7.69.19a68.13,68.13,0,0,0-7.13-1.95,3.41,3.41,0,0,1-1.18-.85c-.33-.29-.6-.64-.91-1C158.39,171.49,158.47,170.82,157.78,170.3Zm18.1,61.4A42.76,42.76,0,0,0,230.07,196a46,46,0,0,0,.33-5.38q0-22.53,0-45.07v-2l.47-.1a18.64,18.64,0,0,1,.75,1.72c1.31,3.9,4.06,4.56,6.93,1.66a4.73,4.73,0,0,1,.78-.49c-.53,1.5-1,2.62-1.31,3.76-.66,2.26-1.26,4.53-1.9,6.79a16.62,16.62,0,0,1-1,3.32c-3.8,7.21-4.72,14.91-4.23,22.91a60.92,60.92,0,0,0,3.56,16.77,5.23,5.23,0,0,1,.05,2.43c-.64,4.38-1.36,8.75-2,13.13-.34,2.21.81,3.57,2.67,4.53,1.31.68,2.58,1.47,2.89,3.09.22,1.16.25,2-1.36,2.47a14.21,14.21,0,0,0-4.52,2.48,3.25,3.25,0,0,0-1.14,2.4,2.14,2.14,0,0,1-1.58,2.43c-4.09,1.36-8.13,3-12.34,3.86-13.28,2.57-26.72,2.54-40.17,1.88A102.12,102.12,0,0,1,152,234.78a53.91,53.91,0,0,1-6.24-2.52,1.87,1.87,0,0,1-1-1.33,5,5,0,0,0-3.48-4.9c-1.9-.8-3.93-1.29-6-2a4.31,4.31,0,0,1,1.5-4.1,13.09,13.09,0,0,0,3.32-4.75c.51-1.21.2-2.81,0-4.21a6.1,6.1,0,0,0-1-2.5c-2.05-3.17-1.63-6.14,0-9.42,4.32-8.73,4.93-18.07,4.44-27.65-.35-6.71-1.42-13.16-4.55-19.36,3.93-.39,5.05-3.14,5.49-6.45l.43.12v1.71q0,21.62,0,43.22A42.69,42.69,0,0,0,175.88,231.7Zm-75.18-10c3.15-1.49,6.21.11,6.4,1.79,0,.3,0,.74-.14.89a.94.94,0,0,1-.87,0C105,222.35,103.06,222.11,100.7,221.73Zm4.43,2.77-.37.38-3-2.09C103.51,222.9,104.51,223.42,105.13,224.5Zm-10-60.21c0-.39,0-.78,0-1.51l-6.37.93-.21-.35,6.92-5.17c1-.78,2-1.4,2.45-3,.29-1.14,1.86-2,2.83-2.9A10.71,10.71,0,0,1,103.5,166c-6.31,10.34-6.46,21-1.41,31.85a3.68,3.68,0,0,1,.38,1.71c-.22,3-.59,5.92-.76,8.88-.21,3.47-.27,7-.41,10.43a1,1,0,0,1-.5.76c-3.93-17.1-7.87-34.2-11.87-51.59a18.86,18.86,0,0,1,3.89-1C94.73,166.91,95.14,165.87,95.08,164.29Zm-7.25-2.19.28-2.34a6.92,6.92,0,0,1,1.14.29,21.35,21.35,0,0,1-.42,2.23ZM116.52,125c.3.19.4,1,.31,1.46-.73,3.79-5,6.94-8.85,6.66-1.09-.07-1.35-.53-1.11-1.52a24.51,24.51,0,0,0,.51-2.82,8.06,8.06,0,0,0-.12-1.54h-.48c-.2.5-.41,1-.64,1.53-1.48-.24-3-.57-4.43-.69s-2.94,0-4.41,0l-.09-.54c.51-.21,1-.45,1.54-.64a84.07,84.07,0,0,0,9-3.28C111.18,121.92,113.83,123.27,116.52,125ZM110,119.77c.07-1.18.86-1.74,2.25-1.67,1.12.07,2,.44,2,1.77a2.18,2.18,0,0,1-2.37,2.07A1.91,1.91,0,0,1,110,119.77Zm13.93,29.6c0,5.06-.4,5.32-5,3.45-1.4-.57-2.74-1.29-4.15-1.87-6.28-2.58-7.63-8-8.08-14.25,8,2,10.54-3.84,13.48-9.12,2.13,1.18,3.54,2.57,3.51,5.26C123.59,138.35,123.87,143.86,123.89,149.37Zm6.79-15.32c.31.15.48.91.43,1.35,0,.2-.81.52-1.17.43-2-.52-5.06-5.54-3.4-7.84a4.32,4.32,0,0,1,.74,1.15C127.75,131.25,128.59,133.05,130.68,134.05Zm-2.77-5.88a25,25,0,0,1,3.31.68,1.71,1.71,0,0,1,.76,1.28,13.19,13.19,0,0,1-.27,2.14c-.12,1.27-.77,1.18-1.58.64C128.57,131.85,128,130.31,127.91,128.17Zm2.25,9.15a1.49,1.49,0,0,1,.66,1.15c0,5.83-2,10.84-6,14.57-.19-7.59-.39-15.37-.57-23.15,0-.1.23-.2.5-.41.19.45.39.82.51,1.21C126,133.51,127.2,136.06,130.16,137.32Zm-5,16.8c1.49-1.75,2.91-3.57,4.34-5.37.34-.43.64-.89,1.12-1.57a17.07,17.07,0,0,1,2.09,2.55,2.11,2.11,0,0,1,0,1.87c-1.58,2-3.31,3.8-4.91,5.6a19.66,19.66,0,0,0-2.87-1.15,3.48,3.48,0,0,0-3.7,1.48,1.7,1.7,0,0,1-2.31.59c-1.77-.68-3.57-1.28-5.53-2,1.38,1.51,5.41,3,8.19,3.32a3.89,3.89,0,0,1-1.37.26,38.48,38.48,0,0,1-12.81-5.42c-1-.68-1.1-1.32-.51-2.39a37.73,37.73,0,0,0,1.65-4.09c.51.38,1,.7,1.44,1.08a29.55,29.55,0,0,0,11.68,6.15A3.13,3.13,0,0,0,125.11,154.12Zm.61,42-.47.65c-2.23-1.17-4.67-2.06-5.94-5.11-.15.9-.09,1.58-.39,2a7.22,7.22,0,0,1-1.64,1.28c-.27-.57-.87-1.23-.74-1.69.51-1.85.16-4,1.63-5.56.26-.28,0-1,.13-1.44a6.06,6.06,0,0,1,.52-1.17c.24.38.65.74.69,1.14a21.24,21.24,0,0,1-.15,2.9c1.49-3.49,4.39-2.44,6.64-3,1.1-.28,1.37.52,1.1,1.6-.47,1.9-.82,3.82-1.17,5.74-.17.93-.58,1.28-1.52.93-.62-.24-1.26-.4-1.9-.59l-.18.31Zm-2.93,22c-.18-1.31-.31-2.21-.45-3.25C123.88,215.42,124,216,122.79,218.14Zm-1.48-1.39a29.91,29.91,0,0,1,3.42-12.49Zm3.9-8.63.48.11c-.48,2-1,4.08-1.49,6.3C122.85,213.29,123.34,210.91,125.21,208.12Zm-9.76,2.49c-2.69-1.05-3.2-2-2.33-4a22.31,22.31,0,0,0,2-8,5.45,5.45,0,0,1,1.42-2.75c-.56,3.5-1.11,7-1.69,10.67h-.68C114.54,207.8,114.94,209,115.45,210.61Zm-11.88-19c.14,1-.19,2.06.05,3s.64,1.9-.41,2.83c-4.12-5.44-4.95-22.21.76-29.8-.25,2-.43,3.71-.67,5.37s-.44,3.34-.82,5a1.94,1.94,0,0,0,1.29,2.54c1.77.79,2.09,1.87,1.18,3.57a2.49,2.49,0,0,0-.42.89c-.1,1.73-.15,3.47-.22,5.2l-.44.07-.81-1.3-.36.09A14.31,14.31,0,0,1,103.57,191.59Zm-.86-40.84c.78-1.5,1.63-3,2.35-4.49a1.65,1.65,0,0,0,0-1.44c-1.73-2-.32-3.75.43-5.56.59,1.92,1.56,3.81,1.67,5.75a13.08,13.08,0,0,1-1.19,5.41c-.59,1.45-1.42,2.64-.2,4.16.34.43.19,1.24.27,1.87l-.53.24c-1-1.68-2-3.34-3-5C102.4,151.45,102.57,151,102.71,150.75Zm-.46-4.47c1,.13,1.83.26,1.79-1.52l.46.59c-.25.6-.49,1.2-.86,2.08ZM106.37,159a23.26,23.26,0,0,0,.53-3.61c.73.35,1.21.6,1.7.81,2.78,1.17,5.51,2.49,8.36,3.45,1.85.62,1.27,1.81,1.14,2.94a1.56,1.56,0,0,1-2.1,1.53c-2.8-.73-5.6-1.46-8.36-2.31C106.33,161.39,105.93,160.41,106.37,159Zm-.4,2.75a19.4,19.4,0,0,0,1.83.75c2.68.78,5.33,1.63,8,2.22,1.21.26,1.69.53,1.36,1.82-.59,2.29-.91,2.59-3.25,2.12-2.08-.41-4.14-1-6.67-1.55,2.68,1.92,5.53,2.15,8.17,2.83-.5,2.19-1.58,3.31-3.43,3a44,44,0,0,1-6.61-1.8,1.74,1.74,0,0,1-.81-1.45C105,167.11,105.47,164.56,106,161.74Zm-1.26,10,7.06,2.36a6,6,0,0,1-6.43,2.14C103.86,175.64,103.59,173.49,104.71,171.73Zm-.62,4.89c5.66,1.43,11.18-1.7,13.26-7.62.78-2.21,1.11-4.57,1.76-6.83.16-.55.79-1,1.21-1.44.29.57.94,1.23.82,1.7-1.23,4.68-2.62,9.37-5.59,13.26-2.4,3.15-6,4.27-9.9,4C103.45,179.55,103.05,178.68,104.09,176.62Zm20.32-18c1-.23,1.45.52,1.55,1.53.33,3.18.73,6.35,1.05,9.52,0,.37-.13,1-.37,1.1-1.78.67-3.59,1.27-5.41,1.79a8.23,8.23,0,0,1-2,0c.27-.79.41-1.32.63-1.81a34.64,34.64,0,0,0,3-10.65A2.36,2.36,0,0,1,124.41,158.67Zm-.52-2.37a7.8,7.8,0,0,1,2.26,1c.9.91,1.55.57,2.29-.1a47.49,47.49,0,0,0,3.74-3.63c-1.64,1.83-3.27,3.65-4.78,5.32ZM116,177.09c1.23-1.5,2-3.4,4.46-3.52C120.62,177.32,119.73,178,116,177.09Zm3,2.75c-.56,1.61-1.09,3.24-1.69,5l-4.06-2.64c-.34-4.09,2-4.51,4.73-4C118.92,178.38,119.32,178.84,119,179.84Zm-6.23-.25c-.2,1.62-.52,2.77-2.33,2.89a26.22,26.22,0,0,0-3.59.72c-.5-2.07-.36-2.26,1.59-2.64C109.77,180.3,111.12,180,112.74,179.59Zm-7.24,14.06c.74,0,3.34,2.18,3.54,3.3l-4.76-2.46C104.84,194.09,105.16,193.67,105.5,193.65Zm2.81.61c-1.3-.69-3.22-1-3.13-3,0-1.32.38-2.63.54-3.95.09-.68.08-1.38.12-2.45l5.18-1.38.22.68-3.87,1.26.18.55c.51-.13,1-.24,1.55-.38a6.24,6.24,0,0,1,6.19,1.65,2.85,2.85,0,0,1,.85,1.89,9.87,9.87,0,0,1-.7,3.93,4.46,4.46,0,0,1-2.51,1.83c-.65.22-1.55-.29-2.56-.53C109.85,194.32,108.92,194.59,108.31,194.26Zm2.29,1.56c1.34,0,2.69,0,4,0l.05.71c-1.4.14-2.81.3-4.23.39-.12,0-.42-.41-.39-.58A.77.77,0,0,1,110.6,195.82Zm1.51-12c3-.06,5.61,2.19,4.66,4.21C115.73,186,113.18,185.94,112.11,183.82Zm9.17,2.3a10.76,10.76,0,0,1,6.23-2.15c.06.25.13.49.19.73Zm4.5-2.91a27.06,27.06,0,0,0-5,1.58c0-1.43-.05-2.65,0-3.85a1.33,1.33,0,0,1,.74-1c2.37-.62,4.76-1.2,7.16-1.67,1-.19,1.27.37,1,1.34C129,181.57,128.1,183,125.78,183.21ZM121,179.08a4.58,4.58,0,0,1,2.89-5.9c1.21-.4,2.65-1.42,3.56-1.06s1.17,2.1,1.74,3.23c.27.54.59,1.05.93,1.64Zm7.26-8.45a70.42,70.42,0,0,1-.9-9.2c0-.71.56-1.46.87-2.2l.57.15c.24,1.58.39,3.17.72,4.73.69,3.22,1.53,6.42,2.18,9.65a7.1,7.1,0,0,1-.31,2.33l-.92.19C129.71,174.4,128.63,172.59,128.26,170.63Zm3-1.2c0-.24.3-.73.57-.85,1.41-.63,2.85-1.17,4.71-1.91l-3.79,6.53h-.5C131.94,172,131.56,170.7,131.29,169.43Zm0-1.9c-.68-.7-.8-2-1-3.09,0-.3.6-.78,1-1.06,1.23-.86,2.5-1.66,4-2.68.24,1.4.57,2.69.66,4C136.14,166.18,132.27,168.52,131.3,167.53Zm3.35-7.79c-1.35,1.12-2.75,2.19-4.18,3.31-1.7-3.2-.44-6.24,3.4-8.79.37,1.56.74,3.06,1,4.57A1.08,1.08,0,0,1,134.65,159.74Zm-15.88-32.47c-1.49,4.91-3.76,8-8.48,8.76a8.55,8.55,0,0,1-3.29-.26c-.34-.08-.6-.92-.69-1.44,0-.16.7-.63,1.07-.62,5.28.19,8.59-2.06,10.27-7.05.09-.25.19-.49.29-.73l.54-.06C118.58,126.34,118.89,126.87,118.77,127.27Zm-20.89,1.9a17.28,17.28,0,0,1,3.19-.49c1.25.3,2.69.57,4.06,1,.34.11.49.81.73,1.25a6.28,6.28,0,0,1-1.28.24c-2.11,0-4.23-.13-6.34-.24a7.53,7.53,0,0,1-1.43-.37C97.16,130.1,97.42,129.34,97.88,129.17Zm1.57,2.42a38.89,38.89,0,0,1,4.18.23c1.62.21,1.66,1.37,1.39,2.65s-1.22.9-2.12.87c-2.05-.08-4.11,0-6.27,0C96.17,132.39,96.83,131.55,99.45,131.59Zm-.33,4.12a29,29,0,0,1,4.14.45c1.35.22,1.39,1.08,1.14,2.25s-.87,1.26-1.92,1.14c-2-.23-4.08-.27-6.26-.4C95.77,136.56,96.46,135.66,99.12,135.71Zm-2.24,4.44a37.54,37.54,0,0,1,5.51.29c.37.05.64.87,1,1.34,0,0,0,.11,0,.16-.51,2.77-.5,2.69-3.26,2.38a48.88,48.88,0,0,0-5,0,16.3,16.3,0,0,1,.47-3A2,2,0,0,1,96.88,140.15Zm4.83,7.1-4.51-1.61A4.06,4.06,0,0,1,101.71,147.25Zm.63,72.86-.2-.67c.67-.24,1.37-.73,2-.66,1.83.2,3.79,2.65,3.84,4.77C107.24,220.48,104.59,220.63,102.34,220.11Zm5.23-.18a33.72,33.72,0,0,1-3.16-2,2.14,2.14,0,0,1-.54-1.61,41.18,41.18,0,0,1,2.91-13.09c.23-.57.45-1.15.66-1.73,0-.08,0-.2-.21-.77-1.83,2.49-2.17,5.17-2.78,7.73s-1,5.13-1.73,7.67c-.15-6.72-.31-13.42,2.18-20a5.46,5.46,0,0,1,1.27.4,8.79,8.79,0,0,0,6.45,1.24c1.26-.18,1.73.26,1.37,1.48-1,3.38-2,6.76-3,10.13C109.86,212.9,108.71,216.4,107.57,219.93Zm4.39-9.7c2.72,1.23,3.3,3.26,2.78,5.76-.55,2.69-1.13,5.37-1.76,8.35-.78,0-1.6,0-2.41,0s-1.29-.33-1.31-1.27A32.52,32.52,0,0,1,112,210.23Zm2.56,12.09c2.16-5,1.73-10.25,2-15.45.13-2.52.25-5.05.57-7.55a6,6,0,0,1,1.25-2.71c1.05-1.37,2.26-1.42,3.67-.42a18,18,0,0,0,1.54,1,3.09,3.09,0,0,1,1.38,4.45c-2.48,4.27-3.42,9-4.34,13.75a3.09,3.09,0,0,1-1.77,2.59,6.1,6.1,0,0,0-3.6,4.77c1.43-1.39,2.79-2.85,4.31-4.14.36-.3,1.23,0,1.86,0a8.53,8.53,0,0,1-.85,1.47c-1,1.07-2,2.06-3,3.12-.85.91-1.69,1.26-2.67.21C114.74,223.06,114.4,222.59,114.52,222.32Zm7.27-2.17.55.62c-1.65.63-1.5,3.37-3.81,3.24l-.45-.51Zm2.71-1.4a120.36,120.36,0,0,0,3.47-15.1c-.37.95-.74,1.91-1.12,2.87l-.36,0c0-1.63,0-3.26,0-4.89.26-7.82,1.53-15.47,4.82-22.6,1.89-4.12,4.38-8,6.57-12a26,26,0,0,0,1-2.49l-.53-.29-1.18,1c-.75-4.47-1.43-8.76-2.21-13a6.28,6.28,0,0,0-1.11-2.49c-1.46-2-3.19-3.85-2.62-6.63.06-.3.18-.59.41-1.3,1.29,2.29,2.4,4.26,3.5,6.24.73,1.32,1.34,2.72,2.17,4,3,4.49,3.92,9.61,4.84,14.77a18,18,0,0,1-2.72,13.37,7.05,7.05,0,0,0-.45,1l.47.27,3.38-5.88c-.24,7.89-1.08,15.68-4.49,23.06-1.73,3.76-3,7.75-4.39,11.65a12.3,12.3,0,0,0-.38,2.21l.54.15q1-3.32,2-6.62h.5a58,58,0,0,1,2.43,6.38c.68,2.58-1.33,6.25-3.83,7.22a1.87,1.87,0,0,0-1.34,2c-.19,4.38-1.59,6.12-5.73,7.64-3.1,1.13-6.14,2.43-9.27,3.68C120.75,228.23,122.94,223.59,124.5,218.75Zm15.37-69.19c-1.94-.44-3.53-2.12-3.18-3.77a36.05,36.05,0,0,1,1.63-4.69,44.07,44.07,0,0,0,4.33,2.6c1,.45,1.32.89.92,1.9-.23.57-.33,1.18-.55,1.76C142.23,149.42,141.49,149.92,139.87,149.56Zm.26,1c-3.3.08-4.33-1.36-4.09-5.29C136.4,147.77,136.74,150.32,140.13,150.54Zm-5.08-5.77c-.36-1.51.29-2.77,2.3-4.13Zm8.24-11.89a12.57,12.57,0,0,1,.77-2.15l1.15,1.61c-.54.67-.94,1.18-1.35,1.68C143.66,133.64,143.24,133.22,143.29,132.88Zm-2.22,5.3a8.32,8.32,0,0,1,1.65-2.89c.2-.27.93-.32,1.34-.2a1.39,1.39,0,0,1,.75.93,14.54,14.54,0,0,1,0,2.19h0a4.83,4.83,0,0,1,0,.85c-.13.73-.3,1.45-.46,2.18-.85-.23-1.9-.23-2.49-.75A2.86,2.86,0,0,1,141.07,138.18Zm-.79.92c.66,2.36,2.42,3,4.2,3.69-1.52.77-2.68,0-3.72-.84A1.86,1.86,0,0,1,140.28,139.1Zm-.3-.8c-2.69,1.37-5.34,2.38-5.79,5.57-.5-1.34-2-2.43-.83-4A5.64,5.64,0,0,1,140,138.3Zm-1-2.26-6.63,3c-.58-.79-.34-1.85.87-2.74C134.83,135.05,138.24,135,138.94,136Zm-6.64-.39c-.14-2,1.44-2.29,2.86-2.71s2.59-.43,3.31,1.16Zm.48-3c.17-1.1.3-2,.51-3.38l3.8,2.29Zm-6.36-16.46a23.1,23.1,0,0,1,2.48.16l0,.49-1.55.65v.5c1.41,0,2.83,0,4.24,0,1,0,2-.27,3-.27,2.3,0,2.85.86,2.12,3.49l-2.25-1.49-.37.38a24.91,24.91,0,0,0,2.49,2.44,3.86,3.86,0,0,1,1.59,3.63c-.08,1.84.15,3.68.23,5.28l-3.64-2.41.92-.26.09-.38a18,18,0,0,0-2.05-.37,50.59,50.59,0,0,1-18-4.57c-.49-.23-.94-.55-1.41-.82.08-.24.16-.48.25-.72.88.28,1.75.63,2.65.83a4.41,4.41,0,0,0,2.15.12,1.66,1.66,0,0,0,.56-1.51,3.71,3.71,0,0,0-1.74-1c-.67-.26-1.46-.26-2.09-.57a1.46,1.46,0,0,1-.68-1.18,1.29,1.29,0,0,1,1-.76C120,118.64,123.05,116.33,126.42,116.21Zm-10.93,4.66.11-.27c1,.21,2,.39,2.94.65a.69.69,0,0,1,.33.62c-.05.18-.47.43-.6.37C117.32,121.83,116.41,121.34,115.49,120.87Zm9.37-26.18,1-.82.49.37-2.79,3.42c1.53-.2,3-.82,3.56-.36.9.69,1.22,2.15,1.93,3.58-1.33.25-2.36.39-3.36.65-3.18.84-6.35,1.76-9.55,2.58-.56.14-1.7,0-1.75-.14a4.61,4.61,0,0,1,.06-2.36c.08-.27,1-.28,1.48-.44a6,6,0,0,0,2-.67C120.25,98.62,122.55,96.64,124.86,94.69Zm.23-9.52a2.88,2.88,0,0,1-.17,2.36c-.59,1-1.38.84-2.46.1-.51.7-.93,1.85-1.53,2s-1.57-.67-2.41-1.08A3.71,3.71,0,0,1,116,92.45c-.89-2.65,1.68-6.72,4.45-7.12a6.65,6.65,0,0,0,2-.61C123.51,84.21,124.57,84.08,125.09,85.17Zm-11.21.69a5.52,5.52,0,0,1,7.37-4.4A2.2,2.2,0,0,1,122.44,83c0,.55-.75,1.08-1.4,1.91-.28-1.14-.42-1.74-.64-2.63l-1.16,2.79-1.34-1.63c0,2.84-.29,3.17-3,2.85l1.36.87c-.46,1.6-.82,3.17-1.36,4.68a20.07,20.07,0,0,1-1.43,2.66l-.49-.3a8.51,8.51,0,0,0,1-1c.94-1.25.83-2.49-.47-3.34-1-.69-1-1.31-.37-2.22A4.21,4.21,0,0,0,113.88,85.86Zm-7.82,1.65c.74-2,2.11-3.47,4.42-3.54a2.87,2.87,0,0,1,2,.65,2.08,2.08,0,0,1,.43,1.91c-.37.62-1.27.91-2,1.34l-.11.19A13.41,13.41,0,0,0,109,89.24a7.52,7.52,0,0,0-1.65,2.22l4.33-2.71.25.21-5,5.54A7,7,0,0,1,106.06,87.51Zm2.53,6.39c.5-.6.81-1.36,1.35-1.91a4.92,4.92,0,0,1,2-1.42c.5-.14,1.2.44,1.81.7a12.92,12.92,0,0,1-1,1.94c-.16.22-.72.15-1,.21v2.22l-1.09-1.55c-.27,1.16-.53,2.3-.69,3-.29,2-.51,3.62-.8,5.64C106.59,99.83,106.53,96.37,108.59,93.9Zm2.07,7.3-.89,1.59c0-4.32,3-8.58,7.08-9.32-2.75,1.83-5.76,3.44-6,7.25,1.13-1.94,2.16-3.92,4.22-5.14a9.36,9.36,0,0,1,8-.44c-.51.52-.93,1-1.39,1.4a28.71,28.71,0,0,1-3.23,2.72,26.13,26.13,0,0,1-2.81,1.13c-.73.36-1.8.8-1.95,1.41a4,4,0,0,0,.41,3,15.53,15.53,0,0,0,3,2.57,7.19,7.19,0,0,0-.24-.79c-.35-.77-.89-1.55.45-2,1-.29,2-.81,2.31.78a4.52,4.52,0,0,0,.75,1.25c-.15-.92-.31-1.84-.51-3l3.78-.33.11.52-1.44.57,1.34,1.48,1.6-2.08.85,3.14a28.43,28.43,0,0,1-3.37,1.46c-.48.15-1.11-.21-1.67-.34,1.26,1.16,2.53,2.31,3.78,3.48.45.42.84.91,1.26,1.36l-.38.51-3.13-.86L124,113.8c-1.17.38-1.17.38-4.77-2.5l-.29.32,3.58,3.17a19.75,19.75,0,0,1-9.16-4.4C110.37,108,110.09,104.7,110.66,101.2Zm.54,13.11,1.93-2.69,9.32,4.32a8.71,8.71,0,0,1-7.71-.11c-1.17-.52-2.35-1-3.53-1.51l4.41,2.83c-2.44.47-3.74-1.35-5.76-2.46ZM92.11,130c.37-2.41,1.34-4.73,1.69-7.23l-.71,1.59c-1.22-2.57-.56-4.33,1.91-5.06,1.64-.49,3.33-.83,5-1.23l-.08-.54-5,.85-.17-.34c1.22-.49,2.42-1,3.66-1.46.79-.27,1.65-.33,2.46-.54s1.44-.14,1.89-1.21a3,3,0,0,1,2.76-1,51.84,51.84,0,0,1,6.3,2.75c-1.31,1.09-2.23,1.21-3.29.59-.57-.34-1.27-.88-1.8-.78s-1.49.81-1.56,1.33.68,1.29,1.26,1.61,1.42.27,2.14.77l-5.86,1.47.17.56,6.38-1.09.16.71c-4.42,2.85-9.87,3-14.18,4.79a9.76,9.76,0,0,1,.66,2.88,65.7,65.7,0,0,1-1.25,7.64C93.44,134.85,91.71,132.71,92.11,130Zm17-11.52-.15.62-3-.68.14-.64C107.26,117,108.05,118.34,109.07,118.52ZM94,147.74c1-1.56,2.5-1.36,3.92-1.08a3.83,3.83,0,0,1,3.34,2.87l-4.78-1.7-.19.53a21.15,21.15,0,0,1,2.63,1c2,1,2,1.75.35,3.14-.25.21-.53.4-.9.67l-1.43-1.64c.14,1,.23,1.75.34,2.59l-4.89-4.31A22.39,22.39,0,0,0,94,147.74Zm2.26,8.75c-1.78-1.9-2.86-4.39-5.62-4.69l-1.14-.86C92.06,149.74,96.51,153.24,96.24,156.49Zm-5.59-4.66c1.31,1.24,2.67,2.44,3.91,3.75.82.86.72,1.64-.49,2.23a26.17,26.17,0,0,0-2.74,1.74c-.9-1.41-1.85-2.81-2.72-4.26C88,154.24,89.29,152.05,90.65,151.83ZM89,157.23a1.59,1.59,0,0,1-.69,1.4c-1.8.56-1.1-1.33-2.27-1.95C87.62,156.06,88.62,155.91,89,157.23Zm-3.06,0c.16.87.43,1.42.27,1.6a7.37,7.37,0,0,1-1.48,1.07l-.31-.42Zm-5.21-5.06c-1-.2-2.48,0-2.48-1.81s1.27-3.44,2.56-3.46c1.62,0,3.27,1.27,3.25,2.53C84,151.08,82.76,152.18,80.72,152.16ZM77.9,170.79c-1.15.46-1.11.55-2-.85a49.37,49.37,0,0,1,12.59-4.85,41.92,41.92,0,0,1,4.45-.81c.35-.05.74.27,1.11.41-.28.29-.52.77-.85.83a18.44,18.44,0,0,0-7.5,3.19c-.75.55-2.08.24-3.09.51A41.26,41.26,0,0,0,77.9,170.79Zm12,25.92q-3.56-12.3-7-24.63c-.16-.57-.26-1.16-.36-1.61l5.71-1.39c2,8.53,4.06,17.35,6,26.2s4.25,17.4,5.84,26.21l-.66.15-3.32-11.9-.44.1q1.47,6.07,2.93,12.13l-.7.3a13.28,13.28,0,0,1-1.2-2.26Q93.2,208.39,89.86,196.71Zm5.85,28.1a3.1,3.1,0,0,1,4.82-.36c.92.85.82,1.43-.38,1.72s-2.31.39-3.75.61c-.26-.1-1.05-.18-1.16-.49A2,2,0,0,1,95.71,224.81ZM123.06,242c-5.59-.39-11.22-.06-16.83-.13-2.68,0-5-.91-6.26-3.5a4.46,4.46,0,0,1-.17-.62l2,.76c-1.25-2.88-4-3.05-5.84-4.38s-4-2.47-6-3.68l1-.84c-.6-.09-1-.11-1.32-.2l-3-.72a12.72,12.72,0,0,1,1.17-3c1.16-1.61,2.57-3,3.87-4.56l.43.37C91.1,222.61,90,223.71,89,225a26.71,26.71,0,0,0-1.82,3.28c1.27.22,2.58.77,3.8.6,4.22-.57,8.39-1.51,12.62-2.09,4.72-.65,9.47-1.08,14.21-1.58a10.48,10.48,0,0,1,1.48,0L95.7,228.42l.1.85,7.71-1c2.61-.34,5.22-.76,7.85-1s5.34-.35,8.39-.54c-.94,2.89-1.76,5.43-2.66,8.23a6.56,6.56,0,0,0,1.36-.17c3.41-1.46,6.88-2.78,10.16-4.48,1.89-1,3.44-2.6,5.18-3.87.47-.34,1.17-.77,1.63-.65a34.51,34.51,0,0,1,6,2.05,3.28,3.28,0,0,1,1.69,4.45c-1.92,4.91-4,9.76-6,14.68C133.11,243.08,128.05,242.31,123.06,242Zm113,10.45A99.58,99.58,0,0,1,222,257.29a153.42,153.42,0,0,1-46.9,3.44c-9-.65-18-1.77-26.72-4.4a45.9,45.9,0,0,1-9.18-4.08c-2.37-1.34-2.42-2.27-1.4-4.74q2.67-6.47,5.35-12.93c.23-.57.52-1.11.67-1.42,4.52,1.45,8.71,3.06,13,4.13,9,2.22,18.3,2.89,27.59,3.07,10.46.21,20.91,0,31.24-2a56.53,56.53,0,0,0,14.75-4.59c1.11-.56,1.57-.25,2,.79,1.83,4.23,3.74,8.43,5.58,12.66C239.23,250,239,251.22,236.09,252.41Zm39.08-15.8.29.55,2.08-.67c-2.17,4.31-6.11,4.69-10.08,5-6.82.57-13.66,1-20.46,1.77a12,12,0,0,0-8,3.75c-.25-.46-.5-.87-.7-1.32q-2.84-6.39-5.65-12.8c-1.09-2.49-.54-4,1.88-5.28.49-.26,1-.44,1.54-.68,1.54-.73,2.69-.66,3.85.93,1.79,2.46,4.53,3.56,7.43,4.3,2.24.57,4.77.44,6.49,2.44.1.12.65.05.7,0a1.27,1.27,0,0,0,0-.9c-.74-1.57-1.52-3.13-2.31-4.68-.27-.53-.57-1.05-1.05-1.92,12.28-.08,24.1,1.33,35.94,2.48l.13.48Zm7.09-8.8c2.15.28,4.34.29,6.59.65a5.49,5.49,0,0,1-1.25.19c-6.44-.57-12.86-1.27-19.3-1.72-5.32-.36-10.66-.47-16-.59-1.31,0-2.19-.22-2.28-2.33.89.49,1.41.84,2,1.09a3.81,3.81,0,0,0,1.39.36A234.57,234.57,0,0,1,282.26,227.81Zm9.51-26.34c-.28,2.54-.56,5.08-.87,7.85C289.45,207.93,289.86,203.93,291.77,201.47Zm-15.25,14.89c3.17-1.59,5.38-4.2,7.4-7a2.54,2.54,0,0,0,0-1.88,9.29,9.29,0,0,0-1.18-1.91l7.06-4.51.36.24c-.45,2-.88,4.1-1.39,6.13a1.35,1.35,0,0,1-.77.8c-1.75.6-2.8,2-3.89,3.32a23,23,0,0,1-8.43,6.47l-.45-.47A6.16,6.16,0,0,1,276.52,216.36Zm7-41.56c-2.88,12.43-5.65,24.88-8.43,37.32a49.8,49.8,0,0,0-.85,5,7.79,7.79,0,0,0,.31,2.06,9.71,9.71,0,0,0,1.89-.49,25.94,25.94,0,0,0,8.41-6.64,12.62,12.62,0,0,1,3.57-2.6c.37-.22,1.13.24,1.83.43-.29.47-.33.64-.4.65-2.26.44-3.33,2.09-4.46,3.91-2.81,4.49-6.9,7.65-11.47,10.22-1.29.72-2.3.71-3.31-.62-1.62-2.14-3.44-4.13-5.17-6.18,1.2,1.81,2.39,3.63,3.61,5.42.4.59.91,1.11,1.41,1.72-2.93.68-4.93.06-5.87-1.95-2-4.26-4.07-8.49-6.16-12.7a3.19,3.19,0,0,0-1.24-1.23c-1.13-.67-1.86-1.25-1.45-2.88.74-2.91,1.1-5.92,1.66-9.17a7.21,7.21,0,0,1,.81,1c1.22,2.22,2.28,4.54,3.66,6.65,1.12,1.71.49,3.19-.1,4.73-.1.29-.59.42-1.15.79l2,2.84a6.07,6.07,0,0,1,.24-4.56,4.82,4.82,0,0,0-.18-3.32c-1.07-2.41-2.45-4.68-3.7-7-.24-.46-.43-1-.64-1.44l.39-.29a5.47,5.47,0,0,1,.94.92c1.63,2.49,3.29,5,4.78,7.55a3,3,0,0,1,.11,2.33,5,5,0,0,0,1,5.84c.81.91,1.31,2.1,2.09,3.06a23.73,23.73,0,0,0,2.5,2.24c.59-2.5,1.08-4.49,1.52-6.49q4.2-19,8.39-38c.18-.81.06-2,1.56-1.49C282.79,172.75,284,172.91,283.55,174.8Zm3-3.09c-.28,1.21-1.19.91-2,.59-1.62-.62-3.25-1.2-4.83-1.89-1.1-.47-1.95-1.2-1.58-2.36,0-2.21.23-2.38,2-1.68s3.8,1.61,5.72,2.37C287.56,169.42,286.76,170.68,286.53,171.71Zm.57-3.35c-2.85-1.06-5.64-2.27-8.45-3.43l.09-.71c.7.05,1.73-.19,2,.17,1.77,2.12,4.19,1.74,6.46,2l-.84-.9.24-.48,3.67,1.42-.1.48-2.48-.27,1.23,1.15C288.21,168,287.53,168.52,287.1,168.36Zm6.95,5.8c-.14.38-1,.63-1.53.68a3.82,3.82,0,0,1-1.41-.46c-2.6-.9-2.75-1.24-1.62-4.19,1.48.57,2.89,1.05,4.25,1.66S294.33,173.44,294.05,174.16Zm-4.1-4.94c2.27-.86,3.74.7,5.39,1.76C293.29,171.21,291.62,170.24,290,169.22Zm9.36,6.22c-.16.82-.35,1.35-1.41,1-1.84-.61-2.11-1.14-1.33-3.33C299,173.5,299.59,174,299.31,175.44Zm1.17-2.38c-1.25.64-2.15-.19-3.1-.82l.18-.62,3.07.9Zm1.83-.64-3.22-1.1c.07-.21.13-.43.2-.64l3.27,1Z"/><path class="cls-1" d="M189.27,140.07l-1.69-1.37-1.45,1.18c.53.36,1,1,1.6,1S188.76,140.37,189.27,140.07Z"/><path class="cls-1" d="M148.93,113.47c1.75,1.35,2.38,3.32,3.58,5,1.79,2.45,1.78,2.67.17,5.28l1.66.25c0,.29,0,.51,0,.73,0,4,1.5,5.5,5.48,5.5h55.88c4.16,0,5.27-1.41,4.37-5.43-.11-.52-.13-1-.2-1.66l2.19.44c-.3-1.11-.54-2-.82-3.11h1.86c-.68-3.46,1.2-5.44,3.76-7.14a2.36,2.36,0,0,0,.82-1.82c-.09-1.39-.65-2.63-2-3,0-1.1,0-2.06,0-3,0-.29,0-.72.18-.87,1.54-1.23,1.37-2.55.26-4a4.2,4.2,0,0,1,.36-.59c1.43-1.68-.9-3.25-.38-4.94-.82.61-1.32,1.12-1.82,1.13s-1.24-.82-1.27-1.31a1.83,1.83,0,0,1,1.19-1.36c.54,0,1.11.52,2.09,1.11,0,0,0,0,0,0,.14-.21-.19-1-.49-1.15-1.76-1-.86-4.29-3.75-4.2,0,0-.08-.2-.1-.31-.23-1.92-1.5-2.32-3.25-2.08-.42-1.36-1.15-2.12-2.26-2.09.65.94,1.17,1.41,1.3,2,.21.91-.34,1.64-1.29,1.45-.54-.11-1.32-.8-1.34-1.26s.58-1.14,1.2-2.15a3.66,3.66,0,0,0-1.2.34.82.82,0,0,1-.72-.19c-1.24-1.32-2.49-1-3.68-.08-.58-.27-1.13-.76-1.58-.68-1.86.32-3.7.79-5.53,1.24-.35.08-.77.51-1,.41a2.33,2.33,0,0,0-2.93.67,11.74,11.74,0,0,0-3.21.37c-1.59.71-1.93.63-1.86-1.18s-.41-3.72-2.07-4.7c-2-1.16-1.18-3-2.15-4.82l3.48.93v-4l-3.23.86,1.5-3.6h-5.06c.37,1.09.74,2.18,1.12,3.27l-.48.24-3.15-1.41V77l3.38-.9.29.41c-.53,1.17-.73,2.84-1.64,3.42-2.48,1.59-3.71,3.49-3.15,6.45a1.05,1.05,0,0,1-.4.9,1.07,1.07,0,0,1-1-.11c-1-1.11-2.16-1-3.4-.33-1.07-1.67-2.44-1.74-4-.8-1.1-1.65-2.43-1.79-3.9-.75-1.84-1.49-2.1-1.5-4.34-.17-1.89-1.27-2.43-1.17-4.28.78A2.35,2.35,0,0,0,158.87,87a1.53,1.53,0,0,1-1.22.48c-2.34-.17-2.12,3.2-4.39,3.13-.19,0-.47.59-.59.95s0,.67-.08,1-.18.85-.42,1c-1.64.8-1.73,2.05-1.09,3.56-1.27,1.11-1.86,2.31-.58,3.78a.74.74,0,0,1,0,.72c-1.24,1.6-.5,2.8.77,3.83a5.34,5.34,0,0,0-.33,1c0,.61,0,1.22,0,1.89a13.67,13.67,0,0,0-1.42.82C148.11,110.26,147.61,112.46,148.93,113.47Zm76-16.3c.47.5,1.19,1,1.31,1.52s-.59,1-.92,1.57h-.66c-.37-.57-1-1.15-1-1.7S224.48,97.64,224.94,97.17Zm0,4c.59.1,1.09.73,1.63,1.12l0,.74c-.59.38-1.22,1.09-1.76,1a2.13,2.13,0,0,1-1.38-1.42A1.19,1.19,0,0,1,224.9,101.12Zm-1.06,3.95c.53-.06,1.16.8,1.75,1.25,0,.25,0,.5,0,.75-.64.36-1.31,1.05-1.89,1s-1.42-1-1.33-1.46A2.28,2.28,0,0,1,223.84,105.07Zm-1.15-15a5.89,5.89,0,0,1,1.18,1.77c.08.36-.63.89-1.28,1.75-.65-.94-1.38-1.56-1.29-2C221.44,91.06,222.2,90.62,222.69,90.11ZM220,87.5c.53,0,1.05.75,2,1.54-1,.61-1.66,1.29-2.06,1.16a2.13,2.13,0,0,1-1.29-1.46C218.57,88.34,219.47,87.5,220,87.5Zm-7.35-2.81c.51.48,1.28.89,1.44,1.47.11.42-.6,1-1.24,2.07-.73-1-1.46-1.54-1.45-2.08S212.15,85.17,212.6,84.69Zm-5.12,1.57c.13-.58.81-1.41,1.31-1.46s1,.81,1.92,1.62c-.92.55-1.48,1.16-1.87,1.06C208.28,87.34,207.42,86.59,207.48,86.26ZM205,85.58c1.21-.3,1.26.89,1.35,1.62.05.4-.55.87-1.13,1.69-.66-.85-1.37-1.36-1.36-1.85A2,2,0,0,1,205,85.58Zm-3.45.83a1.82,1.82,0,0,1,1.36,1.2c0,.57-.6,1.18-1.24,2.28-.74-1.06-1.43-1.63-1.44-2.21S201.06,86.44,201.55,86.41Zm-3.68.73a2.21,2.21,0,0,1,1.29,1.52c.06.44-.73,1-1.49,1.92-.6-1.07-1.24-1.7-1.18-2.25S197.54,87,197.87,87.14ZM195.74,89c-.1.53-.82,1-1.28,1.43-.42-.43-1.14-.83-1.2-1.31s.57-1,1.12-1.89C195.06,88,195.81,88.57,195.74,89Zm-8.11-8.26.37.3v2.44h-2.72L185,83ZM187,86.13a14.54,14.54,0,0,1,2.19,0c1.21,0,2.89-.42,1.59,2.41l.73-.29,1.71-1.89.4.33-2.11,2.64c-1-.89-1.68-1.89-2.43-2s-1.34,1-2.23,1.69a1.72,1.72,0,0,1-.76-.46A16.93,16.93,0,0,1,185,86.62,16.05,16.05,0,0,1,187,86.13Zm1.87,19.14a1.56,1.56,0,0,1,1.82,1.71c-.08.75-.85,1.42-1.32,2.12l-.81,0c-.48-.68-1.24-1.31-1.38-2C187,106,187.68,105.31,188.85,105.27Zm-1.91-1.9c0-.28,0-.56,0-.84.63-.44,1.23-1.12,1.92-1.25,1-.19,1.65.53,1.68,1.6s-.61,1.81-1.62,1.67C188.21,104.46,187.59,103.78,186.94,103.37Zm1.89-3a1.79,1.79,0,0,1-1.13-1.23c0-.29.72-1,1.13-1s1,.53,2,1.14C189.82,99.88,189.27,100.47,188.83,100.4Zm0-9.25c.3-.06.67.32,1.33.69-.65.39-1,.73-1.32.74s-.54-.4-.81-.62C188.31,91.67,188.54,91.2,188.84,91.15Zm-.5-2.14c0-.41.44-.82.69-1.23l1.19,1.38L189,90.26C188.74,89.84,188.32,89.42,188.34,89ZM182.69,89c.14-.5.76-.86,1.29-1.39.26,1.14.41,1.78.62,2.71-.23,0-.86.23-1.23,0A1.58,1.58,0,0,1,182.69,89Zm-3.6-.47a2.17,2.17,0,0,1,1.39-1.38c.39-.1,1,.63,2,1.31-1,.71-1.57,1.42-2.09,1.38S179,88.86,179.09,88.48Zm-2.54-2.33c.56,0,1.11.71,2.11,1.43-1,.65-1.63,1.36-2.06,1.26s-1-.91-1.48-1.41C175.6,87,176.07,86.15,176.55,86.15Zm-3.91-.75c.38-.11,1,.61,1.92,1.24-.87.74-1.44,1.54-1.81,1.46-.61-.13-1.09-.84-1.63-1.3C171.62,86.3,172.05,85.57,172.64,85.4Zm-3.93-.54c.5.5,1.34,1,1.41,1.51s-.7,1.13-1.41,2.16c-.67-1-1.38-1.63-1.33-2.16S168.23,85.36,168.71,84.86Zm-4.05.25a2,2,0,0,1,1.41,1.34c.07.5-.65,1.12-1.34,2.17-.71-1-1.44-1.6-1.39-2.11S164.19,85.11,164.66,85.11Zm-5,2.58a2,2,0,0,1,1.44-1.27c.48,0,1,.71,1.91,1.41-1,.62-1.6,1.28-2.19,1.26C160.36,89.08,159.55,88.1,159.63,87.69Zm-3.49,2c.17-.6.88-1,1.37-1.56l1.85,1.9c-.91.46-1.5,1-1.89.91C156.92,90.74,156.05,90,156.14,89.66Zm-1.53,1.09c.48.51,1.23,1,1.33,1.54s-.65,1-1.35,2c-.67-1-1.35-1.63-1.33-2.2S154.13,91.2,154.61,90.75Zm-1.79,3.42A5.65,5.65,0,0,1,154,95.91c.07.37-.6.9-.94,1.35l-.66,0c-.31-.58-.92-1.2-.86-1.73S152.36,94.61,152.82,94.17Zm-2.26,5.21a2.18,2.18,0,0,1,1.35-1.45c.44-.1,1.07.62,2.07,1.26-1,.72-1.54,1.42-2.1,1.44S150.49,99.73,150.56,99.38Zm3.7,7.6c-.14.58-.91,1-1.42,1.48-.45-.53-1.18-1-1.26-1.61s.73-1,1.44-1.86C153.64,105.93,154.36,106.55,154.26,107Zm-3.68-3.74c0-.45.93-1.36,1.26-1.29a2.23,2.23,0,0,1,1.43,1.38c.09.43-.65,1-1.3,2C151.29,104.37,150.6,103.81,150.58,103.24Zm.9,6.38c3.23-.29,6.37,1.82,7.83,5.31.27.66.5,1.34.75,2l.48-.09a12.89,12.89,0,0,0-.31-1.86c-.55-1.71-.27-2.82,1.3-3.47a11.59,11.59,0,0,1,11.13.83c1.72,1.06,1.86,3,2.27,4.71a7.93,7.93,0,0,0,.92,1.78c.47-.49,1.18-.92,1.35-1.5.61-2.06,1.06-4.13,3.09-5.4,2.5-1.56,5.31-1.78,8.11-1.84a14,14,0,0,1,4.14.67,7.3,7.3,0,0,1,5.39,5.5c.33,1.33.76,2.62,1.14,3.93l.51,0c.29-1.1.61-2.19.87-3.3.94-4,3.5-6.14,7.66-6.22,1,0,2,0,3,0,3.7.28,5.09,2.33,4,5.85-.34,1.13-.58,2.3-.86,3.45l.57.19c.25-.57.51-1.14.75-1.71.83-2,1.51-4,2.51-5.88a6.34,6.34,0,0,1,7-2.87c.58.17.95,1,1.41,1.6-.51.41-1,.82-1.56,1.22a.59.59,0,0,1-.33,0c-4.44-.65-6.6,1.86-8,5.63a37.15,37.15,0,0,1-1.87,3.8l.13.37a11.58,11.58,0,0,0,2.07-1.86c.74-1,1.1-2.36,1.84-3.4a14.78,14.78,0,0,1,2.66-2.7c.29-.24,1,0,1.5,0a4.23,4.23,0,0,1-.32,1.37c-.94,1.5-2,2.94-3,4.48l-.66-.46c-1.17,2-1,4-.48,6.12s.12,2.4-1.93,2.39l-55.35-.23a10.34,10.34,0,0,0-1.85.13c-3.21.61-4.46-.89-3.67-4.57.16-.74.82-1.36,1.06-2.09a8.15,8.15,0,0,0,.17-2l-.46-.06-1.22,2.16h-.49c.61-2.28-.54-3.83-1.79-5.4a2.26,2.26,0,0,1-.34-1.81c.1-.3,1.08-.51,1.6-.42a21.84,21.84,0,0,1,3,1,3,3,0,0,0-2.89-1.79c-.95-.1-1.91,0-2.87,0a1.64,1.64,0,0,1-1.77-1.81C149.72,110.26,150.32,109.72,151.48,109.62Z"/><path class="cls-1" d="M226.6,94.78l-.21-.13a1.77,1.77,0,0,0-.19.43Z"/><path class="cls-1" d="M216.55,84.79l-.07-.09-.06.1Z"/><path class="cls-1" d="M177.25,250.37a2.26,2.26,0,0,0-.15-3c-.95-1.07-4.63-1.46-5.95-.67a7.08,7.08,0,0,1-.37,6.92,1,1,0,0,0,.06,1c.54.53,3.19.26,3.69-.2l-.91-2.13.39-.23c1.12,1.72,1.82,4.15,5.15,2.8-.66-.47-1-.7-1.33-1C176.45,252.83,176.3,251.84,177.25,250.37Zm-2-1.12c0,.37-.61.66-.95,1L174,250c.06-.67.12-1.34.19-2l.62-.17C175,248.32,175.35,248.82,175.29,249.25Z"/><path class="cls-1" d="M221.66,243.84c.05,0-.37-.9-.49-.88-1,.18-1.95.47-2.77.68l1.77,3.42-.5.31c-1-.82-2-1.62-3-2.46-1.26-1.1-2.39-.62-3.51.08a7.24,7.24,0,0,1,1.56,8c1.25-.26,2.28-.45,3.29-.72a1.45,1.45,0,0,0,0-.92c-1.74-.7-1.15-2.25-1.58-3.69,2.23,1.18,3.42,3.39,6.17,4-.44-1.93-.88-3.48-1.12-5C221.38,245.75,220.53,244.73,221.66,243.84Z"/><path class="cls-1" d="M211.11,245.22l-3,.29-.33.6c2.25,1,1.61,3.07,1.94,4.73.2,1-.45,1.7-1.5,1.85a1.37,1.37,0,0,1-1.73-1.36c-.2-1.73-1.23-3.5.4-5.16l-.25-.38-3.69.5c.5,1.57.92,2.8,1.28,4.06.14.47.11,1,.23,1.49a2.85,2.85,0,0,0,3.11,2.47c2.7,0,3.93-1.55,3.61-4.24A45.4,45.4,0,0,1,211.11,245.22Z"/><path class="cls-1" d="M233.32,246.57a15.84,15.84,0,0,1-1.42-1.15c-1.19-1.27-2.32-2.6-3.53-3.86a4.24,4.24,0,0,0-1.24-.62,4.79,4.79,0,0,0-.48,1.19c-.16,1.28-.2,2.57-.35,3.86s-.38,2.86-.61,4.57L229,249.4l-1.42-2c.9-.27,1.7-.78,2.27-.6s.54,1.19.86,2c.88-.28,1.78-.53,2.66-.87.27-.1.47-.42.7-.63C233.82,247.07,233.59,246.8,233.32,246.57Z"/><path class="cls-1" d="M157.28,243.56a10,10,0,0,0-1.51,1.12q-2.33,2.5-4.52,5.11a1.16,1.16,0,0,0,.19,1.12,3.42,3.42,0,0,0,1.75.48c.3,0,.88-.67.82-.91-.32-1.28.19-1.36,1.22-1.08,1.62.43,1.72.72.34,2.55,1.22.33,2.22.65,3.23.82.16,0,.66-.64.61-.91-.45-2.23-1-4.44-1.51-6.65A14.29,14.29,0,0,0,157.28,243.56Z"/><path class="cls-1" d="M192.69,248.16a7.63,7.63,0,0,0-1-1.23,5.79,5.79,0,0,0-1,1.22c-.69,1.6-1.26,3.24-2,4.83a24.45,24.45,0,0,1-1.46,2.44h3.24c-.08-.88-.33-1.91-.15-2a2.54,2.54,0,0,1,2-.2c.37.23.27,1.24.44,2.23l3.68-.22c-.76-1.18-1.42-2-1.91-3C193.93,250.93,193.37,249.51,192.69,248.16Z"/><path class="cls-1" d="M151.23,242.59c-1.52-.86-3.11-1.6-4.68-2.39-.15.37-.34.72-.46,1.09-.53,1.81-.68,3.86-1.66,5.36s-1.4,1.39.51,2.1c.58.21,1.16.43,1.75.58a.63.63,0,0,0,.77-.92c-.82-1.9-.83-1.9,1.37-1.93a2.57,2.57,0,0,0,2.77-2.89C151.54,243.39,151.52,242.75,151.23,242.59Zm-3.5,2.38c.38-1,.62-1.67.91-2.45C149.71,243.83,149.59,244.24,147.73,245Z"/><path class="cls-1" d="M167.91,245.73a34.15,34.15,0,0,0-4.47-.74,1.81,1.81,0,0,0-1.49.75c-.25.51,0,1.26,0,1.9l1.47-1a3.1,3.1,0,0,1,.58-.1c0,2.45,0,4.74-2,6.88l4.47.51a7,7,0,0,1,.55-7,4.92,4.92,0,0,0,.56,1.17,2.52,2.52,0,0,0,.87.42,8.51,8.51,0,0,0,.51-2.06C168.94,246.25,168.31,245.81,167.91,245.73Z"/><path class="cls-1" d="M184.43,248.6c.31-1.7.73-1.63-1.19-1.64h-2c0,.51-.09.65,0,.72a6.82,6.82,0,0,1,.05,6.69c-.15.21-.08.58-.11.87,1.2,0,2.39.08,3.59.07,0,0,.15-.65,0-.83C183.28,252.6,184.09,250.47,184.43,248.6Z"/><path class="cls-1" d="M250.67,188.37a9.14,9.14,0,0,1-.57-1.94c-.49-4.06-1.39-8.14-1.3-12.19.16-7.65,1.33-15.14,6.46-21.35.14-.17.35-.39.34-.57a1.83,1.83,0,0,0-.34-1,.91.91,0,0,0-.89,0c-.22.17-.27.58-.36.9a5.85,5.85,0,0,1-.29,1.13c-.45.83-1,1.61-1.47,2.45-4.15,7.72-5.06,16-4.13,24.57a65.22,65.22,0,0,0,2.17,10,4.84,4.84,0,0,0,4.16,3.51,7.36,7.36,0,0,0,2.06-.23l-.13-.55C253.07,192.7,251.85,191.7,250.67,188.37Z"/><path class="cls-1" d="M244.69,158.54c.61,1.73,1.23,3.46,2,5.53C247.28,162,246,159,244.69,158.54Z"/><path class="cls-1" d="M245.15,149.69l-.42,0v4.88h.42Z"/><path class="cls-1" d="M241.62,211.28l-2.34-4.14-.34.2q1,2.21,2,4.42Z"/><path class="cls-1" d="M86.54,175.38l6.73,25.54.63-.17Q90.54,188,87.19,175.21Z"/><path class="cls-1" d="M79.29,150.58a1.63,1.63,0,0,0,2.5.06l-2.15-2.29C78.72,148.81,78.82,149.73,79.29,150.58Z"/><path class="cls-1" d="M110.74,119a1.38,1.38,0,0,0,.31,2.16c.51.3,1.33.06,2,.06Z"/><path class="cls-1" d="M178.11,121.36c.5-.13.87-1,1.13-1.65a5.65,5.65,0,0,0,.25-1.66c.19-2.09,1-3.08,3.15-3.23a23,23,0,0,1,3.14.38,21.62,21.62,0,0,0,4.94.2c2.07-.32,4-.57,6.05,1.32-.83-2.39-1.89-3.12-4.36-3.17-2.85,0-5.71.15-8.56,0-3.73-.17-4.68.43-5.33,4.18-.26,1.52-.42,2.94-2.64,2.84C176.66,121.06,177.47,121.53,178.11,121.36Z"/><path class="cls-1" d="M201.85,121.15a38.11,38.11,0,0,1,1.18-4.53c1-2.71,1.87-2.94,4.65-2.21a10.16,10.16,0,0,0,3.73,0,19.18,19.18,0,0,0,3.05-.85c-.47-.94-1-1.16-2.41-1a11.15,11.15,0,0,1-2.82.14c-5.58-.75-7.07.28-8.09,5.77a7.6,7.6,0,0,1-.16.83c-.32,1-.66,1.92-1,2.93C201.06,122.83,201.5,122.62,201.85,121.15Z"/><path class="cls-1" d="M163.24,114.88c3.59-1.94,6.87-1.42,9.94,1.12l.32-.3a10.74,10.74,0,0,0-1.64-2,7.6,7.6,0,0,0-5.9-1.3,15,15,0,0,0-3.61,1.14c-.27.12-.28.86-.41,1.31C162.38,114.87,162.91,115.06,163.24,114.88Z"/><path class="cls-1" d="M166,118.4l-.38.39c.47,2-.11,4.57,2.46,5.34l1.56-4.83-1.85,1Z"/><path class="cls-1" d="M185.62,119.19c-.6,3,2.65,3.71,3.33,5.9l.48-.07v-5l-1.5,1.35Z"/><path class="cls-1" d="M209.74,118.47,208,121.54l-.82-.09.56,4.37c.88-1,2-1.69,2.21-2.6a20.35,20.35,0,0,0,.09-4.56Z"/><path class="cls-1" d="M205,151.65c-.06.62-.11,1.09-.18,1.46a2.59,2.59,0,0,0,.2-1A2.5,2.5,0,0,0,205,151.65Z"/><path class="cls-1" d="M319.2,240.68a1.83,1.83,0,0,1-.81-.2,1.8,1.8,0,0,1-.79-2.42l.46-.91a1.8,1.8,0,1,1,3.22,1.6l-.47.94A1.81,1.81,0,0,1,319.2,240.68Z"/><path class="cls-1" d="M202.37,319.1a1.8,1.8,0,0,1-.14-3.6l2-.17a1.8,1.8,0,1,1,.33,3.59l-2.06.17Zm12.16-1.47a1.8,1.8,0,0,1-.29-3.58l2-.35a1.8,1.8,0,0,1,.64,3.55l-2,.35Zm12-2.51a1.8,1.8,0,0,1-.44-3.55l1.94-.51a1.8,1.8,0,0,1,.94,3.48l-2,.52A1.72,1.72,0,0,1,226.53,315.12Zm11.72-3.52a1.81,1.81,0,0,1-.59-3.51l1.9-.67a1.8,1.8,0,1,1,1.23,3.38c-.65.24-1.29.47-1.94.69A1.81,1.81,0,0,1,238.25,311.6Zm11.38-4.53a1.8,1.8,0,0,1-.73-3.44l1.83-.84a1.8,1.8,0,0,1,1.52,3.27l-1.88.86A1.92,1.92,0,0,1,249.63,307.07Zm11-5.47a1.8,1.8,0,0,1-.88-3.38l1.76-1a1.8,1.8,0,1,1,1.79,3.12l-1.8,1A1.83,1.83,0,0,1,260.59,301.6ZM271,295.2a1.8,1.8,0,0,1-1-3.3l1.66-1.13a1.8,1.8,0,1,1,2.06,3L272,294.89A1.79,1.79,0,0,1,271,295.2Zm9.87-7.26a1.76,1.76,0,0,1-1.4-.68,1.79,1.79,0,0,1,.27-2.53l1.56-1.28a1.8,1.8,0,1,1,2.3,2.78c-.53.44-1.06.88-1.6,1.31A1.78,1.78,0,0,1,280.9,287.94Zm9.21-8.08a1.8,1.8,0,0,1-1.24-3.11c.49-.46,1-.93,1.45-1.4a1.8,1.8,0,1,1,2.52,2.57c-.49.49-1,1-1.48,1.44A1.82,1.82,0,0,1,290.11,279.86Zm8.5-8.83a1.8,1.8,0,0,1-1.35-3l1.33-1.53a1.8,1.8,0,0,1,2.73,2.35c-.45.53-.9,1-1.36,1.56A1.8,1.8,0,0,1,298.61,271Zm7.72-9.52a1.77,1.77,0,0,1-1.08-.36,1.81,1.81,0,0,1-.37-2.52c.41-.54.8-1.08,1.2-1.62a1.8,1.8,0,1,1,2.92,2.1c-.4.56-.81,1.12-1.22,1.67A1.8,1.8,0,0,1,306.33,261.51Zm6.88-10.14a1.81,1.81,0,0,1-1.53-2.75l1.05-1.73a1.8,1.8,0,1,1,3.09,1.86c-.35.59-.71,1.18-1.07,1.77A1.82,1.82,0,0,1,313.21,251.37Z"/><path class="cls-1" d="M191.05,319.54a1.81,1.81,0,0,1,0-3.61h1a1.8,1.8,0,0,1,0,3.6Z"/><path class="cls-1" d="M215.12,34.55l-.3,0-1-.17a1.8,1.8,0,0,1,.58-3.55l1,.17a1.8,1.8,0,0,1-.3,3.58Z"/><path class="cls-1" d="M324.06,122.08a1.82,1.82,0,0,1-1.67-1.13c-.25-.61-.5-1.23-.76-1.84A1.8,1.8,0,0,1,325,117.7l.78,1.9a1.8,1.8,0,0,1-1.67,2.48ZM319,111a1.79,1.79,0,0,1-1.61-1c-.3-.59-.61-1.19-.92-1.77a1.8,1.8,0,1,1,3.19-1.68c.32.6.63,1.21.94,1.82A1.79,1.79,0,0,1,319,111Zm-6-10.58a1.8,1.8,0,0,1-1.53-.85l-1.07-1.69a1.8,1.8,0,0,1,3-2c.37.58.74,1.16,1.1,1.74a1.81,1.81,0,0,1-.58,2.48A1.85,1.85,0,0,1,313.05,100.44Zm-6.84-10a1.81,1.81,0,0,1-1.45-.72c-.4-.53-.8-1.07-1.21-1.6a1.8,1.8,0,0,1,2.86-2.19c.42.54.83,1.09,1.24,1.64a1.8,1.8,0,0,1-.37,2.52A1.78,1.78,0,0,1,306.21,90.39ZM298.54,81a1.78,1.78,0,0,1-1.35-.61c-.44-.5-.89-1-1.34-1.49a1.8,1.8,0,0,1,2.67-2.42c.46.5.91,1,1.37,1.52a1.8,1.8,0,0,1-1.35,3Zm-8.44-8.75a1.82,1.82,0,0,1-1.24-.5l-1.46-1.37a1.8,1.8,0,0,1,2.45-2.65l1.5,1.41a1.8,1.8,0,0,1-1.25,3.11Zm-9.14-8a1.8,1.8,0,0,1-1.13-.4l-1.57-1.24a1.8,1.8,0,0,1,2.22-2.84c.54.42,1.08.84,1.61,1.27A1.8,1.8,0,0,1,281,64.19ZM271.18,57a1.79,1.79,0,0,1-1-.31l-1.67-1.1a1.8,1.8,0,0,1,2-3q.87.55,1.71,1.14a1.79,1.79,0,0,1,.49,2.5A1.82,1.82,0,0,1,271.18,57Zm-10.37-6.36a1.86,1.86,0,0,1-.87-.23c-.59-.33-1.17-.65-1.76-1a1.81,1.81,0,0,1,1.71-3.18l1.8,1a1.8,1.8,0,0,1-.88,3.38ZM250,45.14a1.76,1.76,0,0,1-.74-.16l-1.83-.81a1.79,1.79,0,0,1-.94-2.37,1.81,1.81,0,0,1,2.37-.93l1.88.83a1.8,1.8,0,0,1-.74,3.44Zm-11.29-4.52a1.8,1.8,0,0,1-.6-.1l-1.9-.65a1.8,1.8,0,0,1,1.15-3.42l1.95.67a1.8,1.8,0,0,1-.6,3.5ZM227,37.08a2.3,2.3,0,0,1-.45,0l-1.95-.49a1.8,1.8,0,0,1,.85-3.5c.67.16,1.33.32,2,.5a1.8,1.8,0,0,1-.45,3.54Z"/><path class="cls-1" d="M327.86,132.61a1.79,1.79,0,0,1-1.71-1.26l-.32-1a1.8,1.8,0,0,1,3.43-1.12l.32,1a1.8,1.8,0,0,1-1.17,2.26A1.76,1.76,0,0,1,327.86,132.61Z"/><path class="cls-1" d="M47.77,168.11h-.1a1.8,1.8,0,0,1-1.7-1.9l.06-1.05a1.78,1.78,0,0,1,1.91-1.68,1.8,1.8,0,0,1,1.69,1.91l-.06,1A1.8,1.8,0,0,1,47.77,168.11Z"/><path class="cls-1" d="M48.84,156.72l-.24,0a1.79,1.79,0,0,1-1.54-2c.09-.7.19-1.4.29-2.09a1.8,1.8,0,1,1,3.57.53c-.1.68-.2,1.36-.29,2A1.81,1.81,0,0,1,48.84,156.72Zm2.21-12.29a1.79,1.79,0,0,1-1.76-2.2c.15-.68.31-1.37.48-2.06a1.8,1.8,0,1,1,3.5.85c-.16.66-.32,1.33-.47,2A1.8,1.8,0,0,1,51.05,144.43Zm3.27-12.05a1.71,1.71,0,0,1-.55-.09A1.8,1.8,0,0,1,52.6,130c.21-.68.43-1.34.66-2a1.8,1.8,0,1,1,3.41,1.14c-.22.65-.43,1.31-.64,2A1.79,1.79,0,0,1,54.32,132.38Zm4.31-11.72a1.94,1.94,0,0,1-.7-.14,1.8,1.8,0,0,1-1-2.36c.27-.65.55-1.3.83-2a1.8,1.8,0,1,1,3.3,1.45c-.27.62-.54,1.26-.81,1.89A1.81,1.81,0,0,1,58.63,120.66ZM64,109.36a1.83,1.83,0,0,1-.84-.21,1.79,1.79,0,0,1-.75-2.43c.32-.62.66-1.24,1-1.86a1.8,1.8,0,0,1,3.17,1.72c-.33.6-.65,1.21-1,1.82A1.8,1.8,0,0,1,64,109.36Zm6.29-10.79a1.78,1.78,0,0,1-1-.29,1.8,1.8,0,0,1-.54-2.49c.38-.59.77-1.18,1.16-1.76a1.8,1.8,0,1,1,3,2l-1.13,1.72A1.78,1.78,0,0,1,70.24,98.57Zm7.2-10.2A1.78,1.78,0,0,1,76.33,88,1.81,1.81,0,0,1,76,85.46l1.3-1.65a1.8,1.8,0,0,1,2.82,2.24l-1.27,1.62A1.79,1.79,0,0,1,77.44,88.37Zm8-9.54a1.8,1.8,0,0,1-1.32-3c.47-.52,1-1,1.43-1.54a1.8,1.8,0,1,1,2.62,2.48l-1.4,1.5A1.79,1.79,0,0,1,85.49,78.83ZM94.34,70A1.77,1.77,0,0,1,93,69.44a1.81,1.81,0,0,1,.11-2.55l1.57-1.41a1.8,1.8,0,0,1,2.39,2.7l-1.53,1.37A1.76,1.76,0,0,1,94.34,70Zm9.57-8a1.8,1.8,0,0,1-1.09-3.23c.56-.42,1.11-.85,1.68-1.26a1.8,1.8,0,1,1,2.15,2.89c-.55.4-1.1.82-1.64,1.23A1.8,1.8,0,0,1,103.91,62Zm10.24-7.14a1.82,1.82,0,0,1-1.53-.84,1.8,1.8,0,0,1,.56-2.48L115,50.43a1.8,1.8,0,0,1,1.89,3.07l-1.74,1.08A1.71,1.71,0,0,1,114.15,54.87ZM125,48.63a1.8,1.8,0,0,1-.84-3.4l1.88-.95a1.8,1.8,0,1,1,1.61,3.22c-.61.3-1.22.61-1.82.93A1.78,1.78,0,0,1,125,48.63Zm11.31-5.26a1.8,1.8,0,0,1-.69-3.47l1.95-.79a1.8,1.8,0,1,1,1.32,3.35l-1.9.77A1.8,1.8,0,0,1,136.27,43.37ZM148,39.11a1.8,1.8,0,0,1-.54-3.52l2-.62a1.81,1.81,0,1,1,1,3.46c-.65.19-1.31.39-2,.6A2,2,0,0,1,148,39.11Z"/><path class="cls-1" d="M160.07,35.89a1.8,1.8,0,0,1-.38-3.56l1-.22a1.8,1.8,0,1,1,.75,3.52l-1,.22A1.72,1.72,0,0,1,160.07,35.89Z"/><path class="cls-1" d="M189.83,18.07v3.72c2.24.21,4.35.35,6.44.62a11.64,11.64,0,0,1,2.83.77,6.16,6.16,0,0,1,4,5.68,6.33,6.33,0,0,1-3.07,5.94l-.62.39a7,7,0,0,1,5.38,5.5c1.16,4.82-2.12,9.65-7.36,10.73a23.71,23.71,0,0,1-4.39.28c-2.83,0-5.65,0-8.54,0L185,44.3l-8.54.65V22.87l8.37-.93V18.4l.94-.33Zm3.23,15.83a27,27,0,0,0,3.45-.81,3.16,3.16,0,0,0,2.08-2.87,2.94,2.94,0,0,0-1.36-2.94C195,25.9,192.42,26.1,189.92,26v14l4.59.31V44.6l-4.58-.3v3.63a53.86,53.86,0,0,0,6.6-.56,4.8,4.8,0,0,0,3.59-5,5,5,0,0,0-4-4.74c-1-.2-2-.26-3.07-.39Zm-12,6.82,4-.41V26.13l-4,.32Z"/></svg>